<svg width="1440" height="74" viewBox="0 0 1440 74" fill="none" xmlns="http://www.w3.org/2000/svg">
<rect width="1440" height="74" fill="#1D1D1D" style="fill:#1D1D1D;fill:color(display-p3 0.1137 0.1137 0.1137);fill-opacity:1;"/>
<path d="M108 23.0875C108 19.7255 110.725 17 114.087 17H141.913C145.275 17 148 19.7255 148 23.0875V50.9125C148 54.2745 145.275 57 141.913 57H114.087C110.725 57 108 54.2745 108 50.9125V23.0875Z" fill="#FF3000" style="fill:#FF3000;fill:color(display-p3 1.0000 0.1882 0.0000);fill-opacity:1;"/>
<path d="M138.129 50.125C136.343 50.125 135.113 49.1463 135.113 46.1144V45.4623H137.097V46.1148C137.097 47.7267 137.534 48.1679 138.129 48.1679C138.724 48.1679 139.141 47.7267 139.141 46.9782C139.141 46.0378 139.002 45.52 137.613 44.5412C135.986 43.4092 135.232 42.2002 135.232 40.646C135.232 38.6695 136.303 37.4799 138.129 37.4799C139.399 37.4799 141.085 37.8638 141.085 41.0872V41.8357H139.101V41.0872C139.101 39.8209 138.685 39.3987 138.129 39.3987C137.534 39.3987 137.216 39.8209 137.216 40.569C137.216 41.3364 137.395 41.9696 138.784 43.006C140.51 44.2916 141.125 45.3087 141.125 46.9779C141.125 48.6471 140.331 50.125 138.129 50.125ZM131.363 50.125C129.577 50.125 128.347 49.2999 128.347 46.1144V45.4623H130.331V46.1148C130.331 47.7267 130.768 48.1679 131.363 48.1679C131.958 48.1679 132.375 47.7267 132.375 46.9782C132.375 46.0378 132.236 45.52 130.847 44.5412C129.22 43.4092 128.466 42.2002 128.466 40.646C128.466 38.6695 129.537 37.4799 131.363 37.4799C132.633 37.4799 134.319 37.8638 134.319 41.0872V41.8357H132.335V41.0872C132.335 39.8209 131.919 39.3987 131.363 39.3987C130.768 39.3987 130.45 39.8209 130.45 40.569C130.45 41.3364 130.629 41.9696 132.018 43.006C133.744 44.2916 134.359 45.3087 134.359 46.9779C134.359 48.6471 133.565 50.125 131.363 50.125ZM138.129 36.5201C136.343 36.5201 135.113 35.5414 135.113 32.5096V31.8574H137.097V32.5099C137.097 34.1218 137.534 34.563 138.129 34.563C138.724 34.563 139.141 34.1218 139.141 33.3733C139.141 32.4329 139.002 31.9151 137.613 30.9364C135.986 29.8043 135.232 28.5953 135.232 27.0411C135.232 25.0647 136.303 23.875 138.129 23.875C139.399 23.875 141.085 24.2589 141.085 27.4823V28.2308H139.101V27.4823C139.101 26.216 138.685 25.7938 138.129 25.7938C137.534 25.7938 137.216 26.216 137.216 26.9641C137.216 27.7316 137.395 28.3647 138.784 29.4011C140.51 30.6868 141.125 31.7038 141.125 33.373C141.125 35.0422 140.331 36.5201 138.129 36.5201ZM131.363 36.5201C129.577 36.5201 128.347 35.695 128.347 32.5096V31.8574H130.331V32.5099C130.331 34.1218 130.768 34.563 131.363 34.563C131.958 34.563 132.375 34.1218 132.375 33.3733C132.375 32.4329 132.236 31.9151 130.847 30.9364C129.22 29.8043 128.466 28.5953 128.466 27.0411C128.466 25.0647 129.537 23.875 131.363 23.875C132.633 23.875 134.319 24.2589 134.319 27.4823V28.2308H132.335V27.4823C132.335 26.216 131.919 25.7938 131.363 25.7938C130.768 25.7938 130.45 26.216 130.45 26.9641C130.45 27.7316 130.629 28.3647 132.018 29.4011C133.744 30.6868 134.359 31.7038 134.359 33.373C134.359 35.0422 133.565 36.5201 131.363 36.5201ZM116.859 45.4623H117.256C118.129 45.4623 118.566 45.0401 118.566 43.083V41.97C118.566 40.0128 118.129 39.5906 117.256 39.5906H116.859V45.4623ZM116.859 49.933H114.875V37.6715H117.256C119.836 37.6715 120.55 39.0914 120.55 41.778V43.2746C120.55 45.9608 119.836 47.3811 117.256 47.3811H116.859V49.933ZM117.256 29.9386H116.859V25.9857H117.256C118.149 25.9857 118.565 26.2737 118.565 27.6166V28.3074C118.566 29.6507 118.149 29.9386 117.256 29.9386ZM120.927 36.3285L119.399 31.2243C120.133 30.6295 120.55 29.6507 120.55 28.4421V27.4827C120.55 25.2376 119.518 24.067 117.256 24.067H114.875V36.3285H116.859V31.8574H117.117C117.216 31.8574 117.355 31.8574 117.573 31.8381L118.764 36.3282L120.927 36.3285ZM123.188 45.4623L124.2 39.5906H124.359L125.371 45.4623H123.188ZM126.125 49.933H128.109L125.907 37.6715H122.653L120.431 49.933H122.415L122.871 47.3811H125.689L126.125 49.933ZM124.478 36.5201C122.038 36.5201 121.581 34.7356 121.581 32.5672V24.067H123.645V32.7402C123.645 34.2561 123.923 34.6013 124.478 34.6013C125.034 34.6013 125.311 34.2561 125.311 32.7402V24.067H127.375V32.5676C127.375 34.7356 126.919 36.5201 124.478 36.5201Z" fill="white" style="fill:white;fill-opacity:1;"/>
<path d="M156 44.8209V29.1826H162.881V31.4177H158.457V35.4168H159.886C161.122 35.4168 162.05 35.7445 162.668 36.4C163.285 37.0555 163.595 38.0154 163.595 39.2816V40.9579C163.595 42.224 163.285 43.184 162.668 43.8394C162.05 44.4949 161.122 44.8226 159.886 44.8226H156V44.8209ZM159.888 42.5858C160.275 42.5858 160.581 42.4819 160.803 42.2724C161.027 42.0646 161.138 41.6778 161.138 41.1101V39.1222C161.138 38.5562 161.027 38.1694 160.803 37.9599C160.579 37.7521 160.275 37.6465 159.888 37.6465H158.459V42.584H159.888V42.5858Z" fill="white" style="fill:white;fill-opacity:1;"/>
<path d="M167.775 44.8209H165.25V29.1826H167.44V39.0792L168.334 35.6388L170.345 29.1826H173.048V44.8209H170.836V33.8067L169.831 37.65L167.775 44.8209Z" fill="white" style="fill:white;fill-opacity:1;"/>
<path d="M179.525 33.0242C179.525 32.3239 179.409 31.8511 179.18 31.6058C178.949 31.3604 178.639 31.2368 178.252 31.2368C177.865 31.2368 177.552 31.3533 177.314 31.5825C177.075 31.8135 176.955 32.2111 176.955 32.777V34.0504H174.699V32.8881C174.699 31.6219 175 30.6584 175.603 29.994C176.207 29.3313 177.111 29 178.318 29C179.525 29 180.437 29.3385 181.055 30.0172C181.673 30.696 181.983 31.6667 181.983 32.9328V33.3358C181.983 35.0031 181.409 36.0759 180.261 36.5523C180.887 36.8209 181.331 37.2346 181.59 37.7916C181.85 38.3503 181.981 39.0309 181.981 39.835V41.0636C181.981 42.3297 181.671 43.3022 181.053 43.9792C180.435 44.6579 179.522 44.9964 178.317 44.9964C177.109 44.9964 176.198 44.6579 175.58 43.9792C174.962 43.3022 174.652 42.3297 174.652 41.0636V39.3425H176.975V41.2194C176.975 41.7853 177.09 42.1847 177.321 42.4139C177.552 42.645 177.86 42.7596 178.248 42.7596C178.635 42.7596 178.945 42.6396 179.176 42.4014C179.407 42.1632 179.522 41.694 179.522 40.9937V39.7652C179.522 39.0363 179.395 38.5223 179.142 38.2232C178.888 37.9259 178.48 37.7755 177.914 37.7755H177.31V35.5404H178.048C178.51 35.5404 178.87 35.4222 179.131 35.1822C179.391 34.944 179.522 34.5124 179.522 33.8856V33.0242H179.525Z" fill="white" style="fill:white;fill-opacity:1;"/>
<path d="M186.094 44.8209H183.637V29.1826H186.094V35.8842H188.886V29.1826H191.388V44.8209H188.886V38.1193H186.094V44.8209Z" fill="white" style="fill:white;fill-opacity:1;"/>
<path d="M195.633 35.7712H199.007V38.0063H195.633V42.5856H199.877V44.8189H193.176V29.1807H199.877V31.4157H195.633V35.7712Z" fill="white" style="fill:white;fill-opacity:1;"/>
<path d="M208.524 38.9899V41.0673C208.524 42.3335 208.214 43.306 207.596 43.9829C206.978 44.6617 206.065 45.0002 204.86 45.0002C203.654 45.0002 202.741 44.6617 202.123 43.9829C201.505 43.306 201.195 42.3335 201.195 41.0673V32.9348C201.195 31.6686 201.505 30.6979 202.123 30.0192C202.741 29.3422 203.654 29.002 204.86 29.002C206.065 29.002 206.978 29.3404 207.596 30.0192C208.214 30.6979 208.524 31.6686 208.524 32.9348V34.4535H206.201V32.7772C206.201 32.2113 206.085 31.8137 205.855 31.5827C205.624 31.3516 205.314 31.237 204.928 31.237C204.541 31.237 204.231 31.3534 204 31.5827C203.769 31.8137 203.654 32.2113 203.654 32.7772V41.2213C203.654 41.7873 203.769 42.1813 204 42.4051C204.231 42.629 204.539 42.74 204.928 42.74C205.314 42.74 205.624 42.629 205.855 42.4051C206.086 42.1813 206.201 41.7873 206.201 41.2213V38.9881H208.524V38.9899Z" fill="white" style="fill:white;fill-opacity:1;"/>
<path d="M275.691 37.192C275.691 40.024 277.211 41.544 279.131 41.544C281.051 41.544 282.571 40.024 282.571 37.192C282.571 34.376 281.051 32.856 279.131 32.856C277.211 32.856 275.691 34.376 275.691 37.192ZM284.667 37.192C284.667 40.76 282.539 43.208 279.131 43.208C275.723 43.208 273.595 40.76 273.595 37.192C273.595 33.608 275.723 31.192 279.131 31.192C282.539 31.192 284.667 33.608 284.667 37.192ZM297.879 43H295.975V39.336H292.135V43H290.231V34.392H292.135V37.832H295.975V34.392H297.879V43ZM305.432 39.608V38.952C302.712 39.208 301.608 39.608 301.608 40.584C301.608 41.336 302.232 41.784 303.192 41.784C304.6 41.784 305.432 41.08 305.432 39.608ZM302.776 43.208C300.904 43.208 299.592 42.2 299.592 40.632C299.592 38.472 302.248 37.96 305.384 37.624V37.464C305.384 35.992 304.552 35.544 303.592 35.544C302.632 35.544 301.912 36.056 301.864 37.096H299.992C300.12 35.352 301.576 34.136 303.656 34.136C305.72 34.136 307.336 35.08 307.288 37.832C307.288 38.248 307.256 39.272 307.256 40.056C307.256 41.144 307.336 42.28 307.512 43H305.768C305.704 42.632 305.656 42.424 305.608 41.832C305.048 42.776 304.056 43.208 302.776 43.208ZM312.845 34.2C314.733 34.2 316.365 35.432 316.701 37.336H314.845C314.669 36.424 313.885 35.784 312.845 35.784C311.645 35.784 310.589 36.664 310.589 38.696C310.589 40.744 311.677 41.624 312.797 41.624C313.741 41.624 314.653 41.208 314.909 40.056H316.765C316.381 42.072 314.605 43.208 312.765 43.208C310.269 43.208 308.621 41.272 308.621 38.712C308.621 36.152 310.269 34.2 312.845 34.2Z" fill="white" style="fill:white;fill-opacity:1;"/>
<path d="M326.524 34.5L331.524 39.5L336.524 34.5" stroke="white" style="stroke:white;stroke-opacity:1;" stroke-width="2" stroke-linecap="square"/>
<path d="M376.227 43H374.195V33.096H368.947V43H366.915V31.4H376.227V43ZM380.482 38.696C380.482 40.68 381.458 41.656 382.706 41.656C384.05 41.656 384.834 40.536 384.834 38.696C384.834 36.888 384.05 35.752 382.706 35.752C381.458 35.752 380.482 36.712 380.482 38.696ZM378.658 34.392H380.562V35.544C381.074 34.696 381.97 34.2 383.122 34.2C385.234 34.2 386.818 35.944 386.818 38.696C386.818 41.464 385.234 43.208 383.122 43.208C381.97 43.208 381.074 42.712 380.562 41.864V45.8H378.658V34.392ZM389.863 38.712C389.863 40.696 390.919 41.656 392.135 41.656C393.351 41.656 394.407 40.696 394.407 38.712C394.407 36.728 393.351 35.752 392.135 35.752C390.919 35.752 389.863 36.728 389.863 38.712ZM392.135 34.2C394.231 34.2 396.375 35.608 396.375 38.712C396.375 41.832 394.231 43.208 392.135 43.208C390.039 43.208 387.895 41.832 387.895 38.712C387.895 35.608 390.039 34.2 392.135 34.2ZM405.809 39.24H399.393C399.521 40.84 400.641 41.624 401.729 41.624C402.737 41.624 403.505 41.24 403.841 40.424H405.713C405.329 41.8 404.017 43.208 401.809 43.208C399.041 43.208 397.457 41.112 397.457 38.632C397.457 36.04 399.233 34.2 401.681 34.2C404.321 34.2 405.985 36.36 405.809 39.24ZM401.681 35.688C400.785 35.688 399.569 36.232 399.393 37.848H403.873C403.825 36.504 402.801 35.688 401.681 35.688ZM413.121 43L410.289 39.24H409.393V43H407.473V34.392H409.393V37.736H410.433L412.913 34.392H415.089L411.841 38.568L415.313 43H413.121ZM423.524 35.896H420.596V43H418.692V35.896H415.748V34.392H423.524V35.896ZM428.19 43H424.91V34.392H426.814V37.288H428.142C430.51 37.288 431.518 38.184 431.518 40.088C431.518 42.264 430.302 43 428.19 43ZM426.814 38.792V41.496H427.918C429.07 41.496 429.614 41.16 429.614 40.072C429.614 39.096 429.054 38.792 427.902 38.792H426.814ZM434.654 43H432.75V34.392H434.654V43ZM448.549 34.392V43H446.645V37.032L442.549 43H440.645V34.392H442.549V40.392L446.645 34.392H448.549ZM464.587 34.392V43H462.747V36.184L460.219 43H458.747L456.219 36.216V43H454.379V34.392H457.259L459.515 40.536L461.707 34.392H464.587ZM474.747 39.24H468.331C468.459 40.84 469.579 41.624 470.667 41.624C471.675 41.624 472.443 41.24 472.779 40.424H474.651C474.267 41.8 472.955 43.208 470.747 43.208C467.979 43.208 466.395 41.112 466.395 38.632C466.395 36.04 468.171 34.2 470.619 34.2C473.259 34.2 474.923 36.36 474.747 39.24ZM470.619 35.688C469.723 35.688 468.507 36.232 468.331 37.848H472.811C472.763 36.504 471.739 35.688 470.619 35.688ZM478.154 38.696C478.154 40.68 479.13 41.656 480.378 41.656C481.722 41.656 482.506 40.536 482.506 38.696C482.506 36.888 481.722 35.752 480.378 35.752C479.13 35.752 478.154 36.712 478.154 38.696ZM476.33 34.392H478.234V35.544C478.746 34.696 479.642 34.2 480.794 34.2C482.906 34.2 484.49 35.944 484.49 38.696C484.49 41.464 482.906 43.208 480.794 43.208C479.642 43.208 478.746 42.712 478.234 41.864V45.8H476.33V34.392ZM487.535 38.712C487.535 40.696 488.591 41.656 489.807 41.656C491.023 41.656 492.079 40.696 492.079 38.712C492.079 36.728 491.023 35.752 489.807 35.752C488.591 35.752 487.535 36.728 487.535 38.712ZM489.807 34.2C491.903 34.2 494.047 35.608 494.047 38.712C494.047 41.832 491.903 43.208 489.807 43.208C487.711 43.208 485.567 41.832 485.567 38.712C485.567 35.608 487.711 34.2 489.807 34.2ZM503.18 34.392V43H501.276V35.896H497.596V43H495.692V34.392H503.18ZM507.232 38.696C507.232 40.68 508.208 41.656 509.456 41.656C510.8 41.656 511.584 40.536 511.584 38.696C511.584 36.888 510.8 35.752 509.456 35.752C508.208 35.752 507.232 36.712 507.232 38.696ZM505.408 34.392H507.312V35.544C507.824 34.696 508.72 34.2 509.872 34.2C511.984 34.2 513.568 35.944 513.568 38.696C513.568 41.464 511.984 43.208 509.872 43.208C508.72 43.208 507.824 42.712 507.312 41.864V45.8H505.408V34.392ZM523.111 34.392V43H521.207V37.032L517.111 43H515.207V34.392H517.111V40.392L521.207 34.392H523.111ZM531.99 34.392V43H530.086V40.024H528.374L526.614 43H524.454L526.614 39.528C525.702 39.16 525.03 38.36 525.03 37.128C525.03 35.384 526.166 34.392 528.326 34.392H531.99ZM530.086 35.896H528.598C527.59 35.896 526.966 36.376 526.966 37.272C526.966 38.184 527.558 38.52 528.518 38.52H530.086V35.896ZM541.165 35.896H538.237V43H536.333V35.896H533.389V34.392H541.165V35.896ZM550.455 34.392V43H548.551V37.032L544.455 43H542.551V34.392H544.455V40.392L548.551 34.392H550.455ZM559.334 34.392V43H557.43V40.024H555.718L553.958 43H551.798L553.958 39.528C553.046 39.16 552.374 38.36 552.374 37.128C552.374 35.384 553.51 34.392 555.67 34.392H559.334ZM557.43 35.896H555.942C554.934 35.896 554.31 36.376 554.31 37.272C554.31 38.184 554.902 38.52 555.862 38.52H557.43V35.896Z" fill="white" style="fill:white;fill-opacity:1;"/>
<path d="M584.635 43L588.955 31.4H591.099L595.451 43H593.227L592.315 40.424H587.611L586.715 43H584.635ZM589.947 33.752L588.203 38.728H591.707L589.947 33.752ZM604.293 43H602.389V39.336H598.549V43H596.645V34.392H598.549V37.832H602.389V34.392H604.293V43ZM611.846 39.608V38.952C609.126 39.208 608.022 39.608 608.022 40.584C608.022 41.336 608.646 41.784 609.606 41.784C611.014 41.784 611.846 41.08 611.846 39.608ZM609.19 43.208C607.318 43.208 606.006 42.2 606.006 40.632C606.006 38.472 608.662 37.96 611.798 37.624V37.464C611.798 35.992 610.966 35.544 610.006 35.544C609.046 35.544 608.326 36.056 608.278 37.096H606.406C606.534 35.352 607.99 34.136 610.07 34.136C612.134 34.136 613.75 35.08 613.702 37.832C613.702 38.248 613.67 39.272 613.67 40.056C613.67 41.144 613.75 42.28 613.926 43H612.182C612.118 42.632 612.07 42.424 612.022 41.832C611.462 42.776 610.47 43.208 609.19 43.208ZM622.971 43H621.067V35.896H618.539L618.411 37.752C618.171 41.352 617.211 43 615.227 43H614.875V41.496H615.067C615.771 41.496 616.427 40.744 616.603 37.48L616.763 34.392H622.971V43ZM633.174 34.392V43H631.27V37.032L627.174 43H625.27V34.392H627.174V40.392L631.27 34.392H633.174ZM642.181 35.896H639.253V43H637.349V35.896H634.405V34.392H642.181V35.896ZM651.471 34.392V43H649.567V37.032L645.471 43H643.567V34.392H645.471V40.392L649.567 34.392H651.471ZM659.261 43L656.429 39.24H655.533V43H653.613V34.392H655.533V37.736H656.573L659.053 34.392H661.229L657.981 38.568L661.453 43H659.261ZM667.736 39.608V38.952C665.016 39.208 663.912 39.608 663.912 40.584C663.912 41.336 664.536 41.784 665.496 41.784C666.904 41.784 667.736 41.08 667.736 39.608ZM665.08 43.208C663.208 43.208 661.896 42.2 661.896 40.632C661.896 38.472 664.552 37.96 667.688 37.624V37.464C667.688 35.992 666.856 35.544 665.896 35.544C664.936 35.544 664.216 36.056 664.168 37.096H662.296C662.424 35.352 663.88 34.136 665.96 34.136C668.024 34.136 669.64 35.08 669.592 37.832C669.592 38.248 669.56 39.272 669.56 40.056C669.56 41.144 669.64 42.28 669.816 43H668.072C668.008 42.632 667.96 42.424 667.912 41.832C667.352 42.776 666.36 43.208 665.08 43.208ZM683.189 34.392V43H681.285V37.032L677.189 43H675.285V34.392H677.189V40.392L681.285 34.392H683.189ZM695.884 35.896H692.956V43H691.052V35.896H688.108V34.392H695.884V35.896ZM699.014 38.696C699.014 40.68 699.99 41.656 701.238 41.656C702.582 41.656 703.366 40.536 703.366 38.696C703.366 36.888 702.582 35.752 701.238 35.752C699.99 35.752 699.014 36.712 699.014 38.696ZM697.19 34.392H699.094V35.544C699.606 34.696 700.502 34.2 701.654 34.2C703.766 34.2 705.35 35.944 705.35 38.696C705.35 41.464 703.766 43.208 701.654 43.208C700.502 43.208 699.606 42.712 699.094 41.864V45.8H697.19V34.392ZM714.778 39.24H708.362C708.49 40.84 709.61 41.624 710.698 41.624C711.706 41.624 712.474 41.24 712.81 40.424H714.682C714.298 41.8 712.986 43.208 710.778 43.208C708.01 43.208 706.426 41.112 706.426 38.632C706.426 36.04 708.202 34.2 710.65 34.2C713.29 34.2 714.954 36.36 714.778 39.24ZM710.65 35.688C709.754 35.688 708.538 36.232 708.362 37.848H712.842C712.794 36.504 711.77 35.688 710.65 35.688ZM724.09 43H722.186V39.336H718.346V43H716.442V34.392H718.346V37.832H722.186V34.392H724.09V43ZM735.147 41.512V45.032H733.419V43H727.131V45.032H725.403V41.512H725.867C726.827 41.512 727.323 40.264 727.467 37.128L727.595 34.392H733.867V41.512H735.147ZM731.963 41.512V35.896H729.275L729.195 37.352C729.067 39.64 728.763 40.856 728.075 41.512H731.963ZM739.862 43H736.582V34.392H738.486V37.288H739.814C742.182 37.288 743.19 38.184 743.19 40.088C743.19 42.264 741.974 43 739.862 43ZM738.486 38.792V41.496H739.59C740.742 41.496 741.286 41.16 741.286 40.072C741.286 39.096 740.726 38.792 739.574 38.792H738.486ZM746.326 43H744.422V34.392H746.326V43Z" fill="white" style="fill:white;fill-opacity:1;"/>
<path d="M779.036 43V37.848H777.916L774.428 43H772.092L776.172 36.888L772.284 31.4H774.572L777.82 36.152H779.036V31.4H781.052V36.152H782.236L785.484 31.4H787.756L783.916 36.904L787.996 43H785.676L782.204 37.848H781.052V43H779.036ZM789.438 45.8H788.574V44.344H789.294C790.126 44.344 790.478 44.28 790.862 43.16L790.958 42.952L787.838 34.392H789.918L791.87 40.568L793.822 34.392H795.774L792.75 42.984C791.934 45.208 791.374 45.8 789.438 45.8ZM798.748 38.696C798.748 40.68 799.724 41.656 800.972 41.656C802.316 41.656 803.1 40.536 803.1 38.696C803.1 36.888 802.316 35.752 800.972 35.752C799.724 35.752 798.748 36.712 798.748 38.696ZM796.924 34.392H798.828V35.544C799.34 34.696 800.236 34.2 801.388 34.2C803.5 34.2 805.084 35.944 805.084 38.696C805.084 41.464 803.5 43.208 801.388 43.208C800.236 43.208 799.34 42.712 798.828 41.864V45.8H796.924V34.392ZM814.371 43H812.467V39.336H808.627V43H806.723V34.392H808.627V37.832H812.467V34.392H814.371V43ZM821.924 39.608V38.952C819.204 39.208 818.1 39.608 818.1 40.584C818.1 41.336 818.724 41.784 819.684 41.784C821.092 41.784 821.924 41.08 821.924 39.608ZM819.268 43.208C817.396 43.208 816.084 42.2 816.084 40.632C816.084 38.472 818.74 37.96 821.876 37.624V37.464C821.876 35.992 821.044 35.544 820.084 35.544C819.124 35.544 818.404 36.056 818.356 37.096H816.484C816.612 35.352 818.068 34.136 820.148 34.136C822.212 34.136 823.828 35.08 823.78 37.832C823.78 38.248 823.748 39.272 823.748 40.056C823.748 41.144 823.828 42.28 824.004 43H822.26C822.196 42.632 822.148 42.424 822.1 41.832C821.54 42.776 820.548 43.208 819.268 43.208ZM833.049 43H831.145V35.896H828.617L828.489 37.752C828.249 41.352 827.289 43 825.305 43H824.953V41.496H825.145C825.849 41.496 826.505 40.744 826.681 37.48L826.841 34.392H833.049V43Z" fill="white" style="fill:white;fill-opacity:1;"/>
<path d="M869.243 43H867.211V33.096H861.963V43H859.931V31.4H869.243V43ZM877.002 39.608V38.952C874.282 39.208 873.178 39.608 873.178 40.584C873.178 41.336 873.802 41.784 874.762 41.784C876.17 41.784 877.002 41.08 877.002 39.608ZM874.346 43.208C872.474 43.208 871.162 42.2 871.162 40.632C871.162 38.472 873.818 37.96 876.954 37.624V37.464C876.954 35.992 876.122 35.544 875.162 35.544C874.202 35.544 873.482 36.056 873.434 37.096H871.562C871.69 35.352 873.146 34.136 875.226 34.136C877.29 34.136 878.906 35.08 878.858 37.832C878.858 38.248 878.826 39.272 878.826 40.056C878.826 41.144 878.906 42.28 879.082 43H877.338C877.274 42.632 877.226 42.424 877.178 41.832C876.618 42.776 875.626 43.208 874.346 43.208ZM882.607 38.696C882.607 40.68 883.583 41.656 884.831 41.656C886.175 41.656 886.959 40.536 886.959 38.696C886.959 36.888 886.175 35.752 884.831 35.752C883.583 35.752 882.607 36.712 882.607 38.696ZM880.783 34.392H882.687V35.544C883.199 34.696 884.095 34.2 885.247 34.2C887.359 34.2 888.943 35.944 888.943 38.696C888.943 41.464 887.359 43.208 885.247 43.208C884.095 43.208 883.199 42.712 882.687 41.864V45.8H880.783V34.392ZM897.165 35.896H894.237V43H892.333V35.896H889.389V34.392H897.165V35.896ZM906.199 43H904.295V39.336H900.455V43H898.551V34.392H900.455V37.832H904.295V34.392H906.199V43ZM916.2 39.24H909.784C909.912 40.84 911.032 41.624 912.12 41.624C913.128 41.624 913.896 41.24 914.232 40.424H916.104C915.72 41.8 914.408 43.208 912.2 43.208C909.432 43.208 907.848 41.112 907.848 38.632C907.848 36.04 909.624 34.2 912.072 34.2C914.712 34.2 916.376 36.36 916.2 39.24ZM912.072 35.688C911.176 35.688 909.96 36.232 909.784 37.848H914.264C914.216 36.504 913.192 35.688 912.072 35.688ZM919.607 38.696C919.607 40.68 920.583 41.656 921.831 41.656C923.175 41.656 923.959 40.536 923.959 38.696C923.959 36.888 923.175 35.752 921.831 35.752C920.583 35.752 919.607 36.712 919.607 38.696ZM917.783 34.392H919.687V35.544C920.199 34.696 921.095 34.2 922.247 34.2C924.359 34.2 925.943 35.944 925.943 38.696C925.943 41.464 924.359 43.208 922.247 43.208C921.095 43.208 920.199 42.712 919.687 41.864V45.8H917.783V34.392ZM930.862 43H927.582V34.392H929.486V37.288H930.814C933.182 37.288 934.19 38.184 934.19 40.088C934.19 42.264 932.974 43 930.862 43ZM929.486 38.792V41.496H930.59C931.742 41.496 932.286 41.16 932.286 40.072C932.286 39.096 931.726 38.792 930.574 38.792H929.486ZM937.326 43H935.422V34.392H937.326V43Z" fill="white" style="fill:white;fill-opacity:1;"/>
<path d="M972.524 37.8337C972.984 37.8337 973.357 37.4606 973.357 37.0003C973.357 36.5401 972.984 36.167 972.524 36.167C972.064 36.167 971.691 36.5401 971.691 37.0003C971.691 37.4606 972.064 37.8337 972.524 37.8337Z" fill="#1D1D1D" style="fill:#1D1D1D;fill:color(display-p3 0.1137 0.1137 0.1137);fill-opacity:1;"/>
<path d="M978.357 37.8337C978.818 37.8337 979.191 37.4606 979.191 37.0003C979.191 36.5401 978.818 36.167 978.357 36.167C977.897 36.167 977.524 36.5401 977.524 37.0003C977.524 37.4606 977.897 37.8337 978.357 37.8337Z" fill="#1D1D1D" style="fill:#1D1D1D;fill:color(display-p3 0.1137 0.1137 0.1137);fill-opacity:1;"/>
<path d="M966.691 37.8337C967.151 37.8337 967.524 37.4606 967.524 37.0003C967.524 36.5401 967.151 36.167 966.691 36.167C966.231 36.167 965.857 36.5401 965.857 37.0003C965.857 37.4606 966.231 37.8337 966.691 37.8337Z" fill="#1D1D1D" style="fill:#1D1D1D;fill:color(display-p3 0.1137 0.1137 0.1137);fill-opacity:1;"/>
<path d="M972.524 37.8337C972.984 37.8337 973.357 37.4606 973.357 37.0003C973.357 36.5401 972.984 36.167 972.524 36.167C972.064 36.167 971.691 36.5401 971.691 37.0003C971.691 37.4606 972.064 37.8337 972.524 37.8337Z" stroke="white" style="stroke:white;stroke-opacity:1;" stroke-width="2" stroke-linecap="round" stroke-linejoin="round"/>
<path d="M978.357 37.8337C978.818 37.8337 979.191 37.4606 979.191 37.0003C979.191 36.5401 978.818 36.167 978.357 36.167C977.897 36.167 977.524 36.5401 977.524 37.0003C977.524 37.4606 977.897 37.8337 978.357 37.8337Z" stroke="white" style="stroke:white;stroke-opacity:1;" stroke-width="2" stroke-linecap="round" stroke-linejoin="round"/>
<path d="M966.691 37.8337C967.151 37.8337 967.524 37.4606 967.524 37.0003C967.524 36.5401 967.151 36.167 966.691 36.167C966.231 36.167 965.857 36.5401 965.857 37.0003C965.857 37.4606 966.231 37.8337 966.691 37.8337Z" stroke="white" style="stroke:white;stroke-opacity:1;" stroke-width="2" stroke-linecap="round" stroke-linejoin="round"/>
<path fill-rule="evenodd" clip-rule="evenodd" d="M1057 29C1053.13 29 1050 32.134 1050 36C1050 39.866 1053.13 43 1057 43C1058.89 43 1060.6 42.2542 1061.86 41.0414C1061.88 41.0072 1061.91 40.9742 1061.94 40.9429C1061.97 40.9115 1062.01 40.8827 1062.04 40.8564C1063.25 39.5977 1064 37.8859 1064 36C1064 32.134 1060.87 29 1057 29ZM1064.03 41.6177C1065.26 40.078 1066 38.125 1066 36C1066 31.0294 1061.97 27 1057 27C1052.03 27 1048 31.0294 1048 36C1048 40.9706 1052.03 45 1057 45C1059.13 45 1061.08 44.2635 1062.62 43.0319L1066.6 47.0098L1068.01 45.5955L1064.03 41.6177Z" fill="white" style="fill:white;fill-opacity:1;"/>
<g clip-path="url(#clip0_134_4205)">
<path d="M1101.96 25.75C1097.09 25.75 1092.93 28.9 1091.39 33.25H1112.61C1111.04 28.9 1106.88 25.75 1101.96 25.75Z" fill="#F9F9F9" style="fill:#F9F9F9;fill:color(display-p3 0.9765 0.9765 0.9765);fill-opacity:1;"/>
<path d="M1101.96 48.25C1106.88 48.25 1111.04 45.1 1112.58 40.75H1091.39C1092.93 45.1375 1097.09 48.25 1101.96 48.25Z" fill="#ED4C5C" style="fill:#ED4C5C;fill:color(display-p3 0.9294 0.2980 0.3608);fill-opacity:1;"/>
<path d="M1091.39 33.25C1090.98 34.4125 1090.75 35.6875 1090.75 37C1090.75 38.3125 1090.98 39.5875 1091.39 40.75H1112.61C1113.02 39.5875 1113.25 38.3125 1113.25 37C1113.25 35.6875 1113.02 34.4125 1112.61 33.25H1091.39Z" fill="#428BC1" style="fill:#428BC1;fill:color(display-p3 0.2588 0.5451 0.7569);fill-opacity:1;"/>
</g>
<path d="M1123.84 31.4H1127.66C1130.2 31.4 1132.59 31.8 1132.59 35.048C1132.59 37.976 1130.43 38.616 1127.69 38.616H1125.87V43H1123.84V31.4ZM1127.66 33.032H1125.87V36.952H1127.76C1129.29 36.952 1130.48 36.728 1130.48 35.064C1130.48 33.192 1129.08 33.032 1127.66 33.032ZM1137.8 38.344L1140.52 31.4H1142.73L1138.62 40.92C1137.99 42.328 1137.08 43.208 1135.37 43.208H1134.07V41.528H1135.22C1135.85 41.528 1136.22 41.368 1136.55 40.856L1136.84 40.392L1132.68 31.4H1134.86L1137.8 38.344ZM1151.07 39.144H1153.02C1152.52 41.752 1150.7 43.208 1148.01 43.208C1144.62 43.208 1142.65 40.808 1142.65 37.16C1142.65 33.512 1144.73 31.192 1148.11 31.192C1150.68 31.192 1152.52 32.648 1152.99 35.256H1151.03C1150.67 33.672 1149.56 32.856 1148.04 32.856C1146.2 32.856 1144.75 34.36 1144.75 37.16C1144.75 39.976 1146.17 41.544 1148.03 41.544C1149.61 41.544 1150.7 40.744 1151.07 39.144Z" fill="white" style="fill:white;fill-opacity:1;"/>
<path fill-rule="evenodd" clip-rule="evenodd" d="M1181.05 28.0503C1182.36 26.7375 1184.14 26 1186 26C1187.86 26 1189.64 26.7375 1190.95 28.0503C1192.26 29.363 1193 31.1435 1193 33C1193 35.9127 1193.73 37.8439 1194.5 39.0771L1194.51 39.096C1194.87 39.6703 1195.15 40.1243 1195.34 40.4547C1195.44 40.6202 1195.52 40.7797 1195.59 40.9215C1195.62 40.9922 1195.66 41.079 1195.68 41.1733C1195.71 41.2515 1195.75 41.4187 1195.74 41.6223C1195.72 41.7591 1195.7 41.9928 1195.56 42.2343C1195.43 42.4758 1195.24 42.623 1195.13 42.7047C1194.88 42.8904 1194.6 42.9329 1194.5 42.947L1194.5 42.9477C1194.35 42.9695 1194.18 42.9804 1194.01 42.9869C1193.68 43 1193.21 43 1192.64 43H1192.61H1179.39H1179.36C1178.79 43 1178.32 43 1177.99 42.9869C1177.82 42.9804 1177.65 42.9695 1177.5 42.9477L1177.5 42.947C1177.4 42.9329 1177.12 42.8904 1176.87 42.7047C1176.76 42.623 1176.57 42.4758 1176.44 42.2343C1176.3 41.9928 1176.28 41.7591 1176.26 41.6223C1176.25 41.4187 1176.29 41.2515 1176.32 41.1733C1176.34 41.079 1176.38 40.9922 1176.41 40.9215C1176.48 40.7797 1176.56 40.6202 1176.66 40.4547C1176.85 40.1243 1177.13 39.6703 1177.49 39.0961L1177.5 39.0771C1178.27 37.8439 1179 35.9127 1179 33C1179 31.1435 1179.74 29.363 1181.05 28.0503ZM1186 28C1184.67 28 1183.4 28.5268 1182.46 29.4645C1181.53 30.4021 1181 31.6739 1181 33C1181 36.2677 1180.17 38.5681 1179.2 40.1337C1178.99 40.4758 1178.81 40.7614 1178.66 40.9988C1178.87 41 1179.11 41 1179.39 41H1192.61C1192.89 41 1193.13 41 1193.34 40.9988C1193.19 40.7614 1193.01 40.4758 1192.8 40.1337C1191.83 38.5681 1191 36.2677 1191 33C1191 31.6739 1190.47 30.4021 1189.54 29.4645C1188.6 28.5268 1187.33 28 1186 28ZM1183 46C1183 45.4477 1183.45 45 1184 45H1188C1188.55 45 1189 45.4477 1189 46C1189 46.5523 1188.55 47 1188 47H1184C1183.45 47 1183 46.5523 1183 46Z" fill="white" style="fill:white;fill-opacity:1;"/>
<rect x="1190" y="17" width="16" height="16" rx="8" fill="#FFCF08" style="fill:#FFCF08;fill:color(display-p3 1.0000 0.8118 0.0314);fill-opacity:1;"/>
<path d="M1199.03 29H1197.84V23.48H1196.22V22.66C1197.27 22.63 1197.78 22.54 1198.15 21.75H1199.03V29Z" fill="#1D1D1D" style="fill:#1D1D1D;fill:color(display-p3 0.1137 0.1137 0.1137);fill-opacity:1;"/>
<path fill-rule="evenodd" clip-rule="evenodd" d="M1230 29C1228.07 29 1226.5 30.567 1226.5 32.5C1226.5 34.433 1228.07 36 1230 36C1231.93 36 1233.5 34.433 1233.5 32.5C1233.5 30.567 1231.93 29 1230 29ZM1224.5 32.5C1224.5 29.4624 1226.96 27 1230 27C1233.04 27 1235.5 29.4624 1235.5 32.5C1235.5 35.5376 1233.04 38 1230 38C1226.96 38 1224.5 35.5376 1224.5 32.5ZM1230 42C1226.81 42 1223.89 43.389 1221.73 45.686C1221.35 46.0878 1220.72 46.1065 1220.31 45.7276C1219.91 45.3487 1219.89 44.7158 1220.27 44.314C1222.78 41.6562 1226.21 40 1230 40C1233.79 40 1237.22 41.6562 1239.73 44.314C1240.11 44.7158 1240.09 45.3487 1239.69 45.7276C1239.28 46.1065 1238.65 46.0878 1238.27 45.686C1236.11 43.389 1233.19 42 1230 42Z" fill="white" style="fill:white;fill-opacity:1;"/>
<path d="M1260.93 43H1258.9V33.096H1253.65V43H1251.62V31.4H1260.93V43ZM1265.19 38.696C1265.19 40.68 1266.16 41.656 1267.41 41.656C1268.75 41.656 1269.54 40.536 1269.54 38.696C1269.54 36.888 1268.75 35.752 1267.41 35.752C1266.16 35.752 1265.19 36.712 1265.19 38.696ZM1263.36 34.392H1265.27V35.544C1265.78 34.696 1266.67 34.2 1267.83 34.2C1269.94 34.2 1271.52 35.944 1271.52 38.696C1271.52 41.464 1269.94 43.208 1267.83 43.208C1266.67 43.208 1265.78 42.712 1265.27 41.864V45.8H1263.36V34.392ZM1274.57 38.712C1274.57 40.696 1275.62 41.656 1276.84 41.656C1278.05 41.656 1279.11 40.696 1279.11 38.712C1279.11 36.728 1278.05 35.752 1276.84 35.752C1275.62 35.752 1274.57 36.728 1274.57 38.712ZM1276.84 34.2C1278.93 34.2 1281.08 35.608 1281.08 38.712C1281.08 41.832 1278.93 43.208 1276.84 43.208C1274.74 43.208 1272.6 41.832 1272.6 38.712C1272.6 35.608 1274.74 34.2 1276.84 34.2ZM1288.54 31.4V34.392C1290.99 34.392 1293.04 35.768 1293.04 38.744C1293.04 41.816 1290.98 43.096 1288.54 43.096V45.8H1286.64V43.096C1284.19 43.096 1282.14 41.816 1282.14 38.744C1282.14 35.768 1284.19 34.392 1286.64 34.392V31.4H1288.54ZM1286.64 41.576V35.928C1285.17 35.928 1284.06 36.776 1284.06 38.808C1284.06 40.808 1285.15 41.576 1286.64 41.576ZM1288.54 35.928V41.576C1290.03 41.576 1291.1 40.808 1291.1 38.808C1291.1 36.776 1290.03 35.928 1288.54 35.928ZM1302.58 34.392V43H1300.68V37.032L1296.58 43H1294.68V34.392H1296.58V40.392L1300.68 34.392H1302.58ZM1311.99 43H1310.08V35.896H1307.55L1307.43 37.752C1307.19 41.352 1306.23 43 1304.24 43H1303.89V41.496H1304.08C1304.79 41.496 1305.44 40.744 1305.62 37.48L1305.78 34.392H1311.99V43ZM1316.19 37.288H1317.96C1320.33 37.288 1321.32 38.184 1321.32 40.088C1321.32 42.264 1320.14 43 1318 43H1314.28V34.392H1316.19V37.288ZM1316.19 41.496H1317.74C1318.88 41.496 1319.44 41.112 1319.44 40.072C1319.44 39.112 1318.88 38.792 1317.72 38.792H1316.19V41.496Z" fill="white" style="fill:white;fill-opacity:1;"/>
<rect x="1314" y="17" width="16" height="16" rx="8" fill="#FFCF08" style="fill:#FFCF08;fill:color(display-p3 1.0000 0.8118 0.0314);fill-opacity:1;"/>
<path d="M1323.03 29H1321.84V23.48H1320.22V22.66C1321.27 22.63 1321.78 22.54 1322.15 21.75H1323.03V29Z" fill="#1D1D1D" style="fill:#1D1D1D;fill:color(display-p3 0.1137 0.1137 0.1137);fill-opacity:1;"/>
<defs>
<clipPath id="clip0_134_4205">
<rect width="24" height="24" fill="white" style="fill:white;fill-opacity:1;" transform="translate(1090 25)"/>
</clipPath>
</defs>
</svg>
