<svg width="1224" height="74" viewBox="0 0 1224 74" fill="none" xmlns="http://www.w3.org/2000/svg">
<path d="M167.691 37.1919C167.691 40.0239 169.211 41.5439 171.131 41.5439C173.051 41.5439 174.571 40.0239 174.571 37.1919C174.571 34.3759 173.051 32.8559 171.131 32.8559C169.211 32.8559 167.691 34.3759 167.691 37.1919ZM176.667 37.1919C176.667 40.7599 174.539 43.2079 171.131 43.2079C167.723 43.2079 165.595 40.7599 165.595 37.1919C165.595 33.6079 167.723 31.1919 171.131 31.1919C174.539 31.1919 176.667 33.6079 176.667 37.1919Z" fill="white" style="fill:white;fill-opacity:1;"/>
<path d="M189.878 42.9999H187.974V39.3359H184.134V42.9999H182.23V34.3919H184.134V37.8319H187.974V34.3919H189.878V42.9999Z" fill="white" style="fill:white;fill-opacity:1;"/>
<path d="M197.431 39.6079V38.9519C194.711 39.2079 193.607 39.6079 193.607 40.5839C193.607 41.3359 194.231 41.7839 195.191 41.7839C196.599 41.7839 197.431 41.0799 197.431 39.6079ZM194.775 43.2079C192.903 43.2079 191.591 42.1999 191.591 40.6319C191.591 38.4719 194.247 37.9599 197.383 37.6239V37.4639C197.383 35.9919 196.551 35.5439 195.591 35.5439C194.631 35.5439 193.911 36.0559 193.863 37.0959H191.991C192.119 35.3519 193.575 34.1359 195.655 34.1359C197.719 34.1359 199.335 35.0799 199.287 37.8319C199.287 38.0069 199.282 38.2896 199.275 38.6167V38.6183C199.266 39.0684 199.255 39.6023 199.255 40.0559C199.255 41.1439 199.335 42.2799 199.511 42.9999H197.767C197.758 42.944 197.748 42.8918 197.739 42.8414L197.739 42.8376C197.689 42.5578 197.648 42.3317 197.607 41.8319C197.047 42.7759 196.055 43.2079 194.775 43.2079Z" fill="white" style="fill:white;fill-opacity:1;"/>
<path d="M204.845 34.1999C206.733 34.1999 208.365 35.4319 208.701 37.3359H206.845C206.669 36.4239 205.885 35.7839 204.845 35.7839C203.645 35.7839 202.589 36.6639 202.589 38.6959C202.589 40.7439 203.677 41.6239 204.797 41.6239C205.741 41.6239 206.653 41.2079 206.909 40.0559H208.765C208.381 42.0719 206.605 43.2079 204.765 43.2079C202.269 43.2079 200.621 41.2719 200.621 38.7119C200.621 36.1519 202.269 34.1999 204.845 34.1999Z" fill="white" style="fill:white;fill-opacity:1;"/>
<path d="M268.227 42.9999H266.195V33.0959H260.947V42.9999H258.915V31.3999H268.227V42.9999Z" fill="white" style="fill:white;fill-opacity:1;"/>
<path d="M272.482 38.6959C272.482 40.6799 273.458 41.6559 274.706 41.6559C276.05 41.6559 276.834 40.5359 276.834 38.6959C276.834 36.8879 276.05 35.7519 274.706 35.7519C273.458 35.7519 272.482 36.7119 272.482 38.6959ZM270.658 34.3919H272.562V35.5439C273.074 34.6959 273.97 34.1999 275.122 34.1999C277.234 34.1999 278.818 35.9439 278.818 38.6959C278.818 41.4639 277.234 43.2079 275.122 43.2079C273.97 43.2079 273.074 42.7119 272.562 41.8639V45.7999H270.658V34.3919Z" fill="white" style="fill:white;fill-opacity:1;"/>
<path d="M281.863 38.7119C281.863 40.6959 282.919 41.6559 284.135 41.6559C285.351 41.6559 286.407 40.6959 286.407 38.7119C286.407 36.7279 285.351 35.7519 284.135 35.7519C282.919 35.7519 281.863 36.7279 281.863 38.7119ZM284.135 34.1999C286.231 34.1999 288.375 35.6079 288.375 38.7119C288.375 41.8319 286.231 43.2079 284.135 43.2079C282.039 43.2079 279.895 41.8319 279.895 38.7119C279.895 35.6079 282.039 34.1999 284.135 34.1999Z" fill="white" style="fill:white;fill-opacity:1;"/>
<path d="M297.809 39.2399H291.393C291.521 40.8399 292.641 41.6239 293.729 41.6239C294.737 41.6239 295.505 41.2399 295.841 40.4239H297.713C297.329 41.7999 296.017 43.2079 293.809 43.2079C291.041 43.2079 289.457 41.1119 289.457 38.6319C289.457 36.0399 291.233 34.1999 293.681 34.1999C296.321 34.1999 297.985 36.3599 297.809 39.2399ZM293.681 35.6879C292.785 35.6879 291.569 36.2319 291.393 37.8479H295.873C295.825 36.5039 294.801 35.6879 293.681 35.6879Z" fill="white" style="fill:white;fill-opacity:1;"/>
<path d="M305.121 42.9999L302.289 39.2399H301.393V42.9999H299.473V34.3919H301.393V37.7359H302.433L304.913 34.3919H307.089L303.841 38.5679L307.313 42.9999H305.121Z" fill="white" style="fill:white;fill-opacity:1;"/>
<path d="M315.524 35.8959H312.596V42.9999H310.692V35.8959H307.748V34.3919H315.524V35.8959Z" fill="white" style="fill:white;fill-opacity:1;"/>
<path d="M320.19 42.9999H316.91V34.3919H318.814V37.2879H320.142C322.51 37.2879 323.518 38.1839 323.518 40.0879C323.518 42.2639 322.302 42.9999 320.19 42.9999ZM318.814 38.7919V41.4959H319.918C321.07 41.4959 321.614 41.1599 321.614 40.0719C321.614 39.0959 321.054 38.7919 319.902 38.7919H318.814ZM326.654 42.9999H324.75V34.3919H326.654V42.9999Z" fill="white" style="fill:white;fill-opacity:1;"/>
<path d="M340.549 34.3919V42.9999H338.645V37.0319L334.549 42.9999H332.645V34.3919H334.549V40.3919L338.645 34.3919H340.549Z" fill="white" style="fill:white;fill-opacity:1;"/>
<path d="M356.587 34.3919V42.9999H354.747V36.1839L352.219 42.9999H350.747L348.219 36.2159V42.9999H346.379V34.3919H349.259L351.515 40.5359L353.707 34.3919H356.587Z" fill="white" style="fill:white;fill-opacity:1;"/>
<path d="M366.747 39.2399H360.331C360.459 40.8399 361.579 41.6239 362.667 41.6239C363.675 41.6239 364.443 41.2399 364.779 40.4239H366.651C366.267 41.7999 364.955 43.2079 362.747 43.2079C359.979 43.2079 358.395 41.1119 358.395 38.6319C358.395 36.0399 360.171 34.1999 362.619 34.1999C365.259 34.1999 366.923 36.3599 366.747 39.2399ZM362.619 35.6879C361.723 35.6879 360.507 36.2319 360.331 37.8479H364.811C364.763 36.5039 363.739 35.6879 362.619 35.6879Z" fill="white" style="fill:white;fill-opacity:1;"/>
<path d="M370.154 38.6959C370.154 40.6799 371.13 41.6559 372.378 41.6559C373.722 41.6559 374.506 40.5359 374.506 38.6959C374.506 36.8879 373.722 35.7519 372.378 35.7519C371.13 35.7519 370.154 36.7119 370.154 38.6959ZM368.33 34.3919H370.234V35.5439C370.746 34.6959 371.642 34.1999 372.794 34.1999C374.906 34.1999 376.49 35.9439 376.49 38.6959C376.49 41.4639 374.906 43.2079 372.794 43.2079C371.642 43.2079 370.746 42.7119 370.234 41.8639V45.7999H368.33V34.3919Z" fill="white" style="fill:white;fill-opacity:1;"/>
<path d="M379.535 38.7119C379.535 40.6959 380.591 41.6559 381.807 41.6559C383.023 41.6559 384.079 40.6959 384.079 38.7119C384.079 36.7279 383.023 35.7519 381.807 35.7519C380.591 35.7519 379.535 36.7279 379.535 38.7119ZM381.807 34.1999C383.903 34.1999 386.047 35.6079 386.047 38.7119C386.047 41.8319 383.903 43.2079 381.807 43.2079C379.711 43.2079 377.567 41.8319 377.567 38.7119C377.567 35.6079 379.711 34.1999 381.807 34.1999Z" fill="white" style="fill:white;fill-opacity:1;"/>
<path d="M395.179 34.3919V42.9999H393.275V35.8959H389.595V42.9999H387.691V34.3919H395.179Z" fill="white" style="fill:white;fill-opacity:1;"/>
<path d="M399.232 38.6959C399.232 40.6799 400.208 41.6559 401.456 41.6559C402.8 41.6559 403.584 40.5359 403.584 38.6959C403.584 36.8879 402.8 35.7519 401.456 35.7519C400.208 35.7519 399.232 36.7119 399.232 38.6959ZM397.408 34.3919H399.312V35.5439C399.824 34.6959 400.72 34.1999 401.872 34.1999C403.984 34.1999 405.568 35.9439 405.568 38.6959C405.568 41.4639 403.984 43.2079 401.872 43.2079C400.72 43.2079 399.824 42.7119 399.312 41.8639V45.7999H397.408V34.3919Z" fill="white" style="fill:white;fill-opacity:1;"/>
<path d="M415.111 34.3919V42.9999H413.207V37.0319L409.111 42.9999H407.207V34.3919H409.111V40.3919L413.207 34.3919H415.111Z" fill="white" style="fill:white;fill-opacity:1;"/>
<path d="M423.99 34.3919V42.9999H422.086V40.0239H420.374L418.614 42.9999H416.454L418.614 39.5279C417.702 39.1599 417.03 38.3599 417.03 37.1279C417.03 35.3839 418.166 34.3919 420.326 34.3919H423.99ZM422.086 35.8959H420.598C419.59 35.8959 418.966 36.3759 418.966 37.2719C418.966 38.1839 419.558 38.5199 420.518 38.5199H422.086V35.8959Z" fill="white" style="fill:white;fill-opacity:1;"/>
<path d="M433.165 35.8959H430.237V42.9999H428.333V35.8959H425.389V34.3919H433.165V35.8959Z" fill="white" style="fill:white;fill-opacity:1;"/>
<path d="M442.455 34.3919V42.9999H440.551V37.0319L436.455 42.9999H434.551V34.3919H436.455V40.3919L440.551 34.3919H442.455Z" fill="white" style="fill:white;fill-opacity:1;"/>
<path d="M451.334 34.3919V42.9999H449.43V40.0239H447.718L445.958 42.9999H443.798L445.958 39.5279C445.046 39.1599 444.374 38.3599 444.374 37.1279C444.374 35.3839 445.51 34.3919 447.67 34.3919H451.334ZM449.43 35.8959H447.942C446.934 35.8959 446.31 36.3759 446.31 37.2719C446.31 38.1839 446.902 38.5199 447.862 38.5199H449.43V35.8959Z" fill="white" style="fill:white;fill-opacity:1;"/>
<path d="M476.635 42.9999L480.955 31.3999H483.099L487.451 42.9999H485.227L484.315 40.4239H479.611L478.715 42.9999H476.635ZM481.947 33.7519L480.203 38.7279H483.707L481.947 33.7519Z" fill="white" style="fill:white;fill-opacity:1;"/>
<path d="M496.293 42.9999H494.389V39.3359H490.549V42.9999H488.645V34.3919H490.549V37.8319H494.389V34.3919H496.293V42.9999Z" fill="white" style="fill:white;fill-opacity:1;"/>
<path d="M503.846 39.6079V38.9519C501.126 39.2079 500.022 39.6079 500.022 40.5839C500.022 41.3359 500.646 41.7839 501.606 41.7839C503.014 41.7839 503.846 41.0799 503.846 39.6079ZM501.19 43.2079C499.318 43.2079 498.006 42.1999 498.006 40.6319C498.006 38.4719 500.662 37.9599 503.798 37.6239V37.4639C503.798 35.9919 502.966 35.5439 502.006 35.5439C501.046 35.5439 500.326 36.0559 500.278 37.0959H498.406C498.534 35.3519 499.99 34.1359 502.07 34.1359C504.134 34.1359 505.75 35.0799 505.702 37.8319C505.702 38.0072 505.696 38.2905 505.69 38.6183V38.622L505.689 38.628V38.6302V38.6337L505.689 38.6394V38.6409V38.6434V38.6474C505.68 39.0912 505.67 39.612 505.67 40.0559C505.67 41.1439 505.75 42.2799 505.926 42.9999H504.182C504.172 42.9426 504.162 42.8892 504.153 42.8377C504.103 42.5579 504.062 42.3318 504.022 41.8319C503.462 42.7759 502.47 43.2079 501.19 43.2079Z" fill="white" style="fill:white;fill-opacity:1;"/>
<path d="M514.971 42.9999H513.067V35.8959H510.539L510.411 37.7519C510.171 41.3519 509.211 42.9999 507.227 42.9999H506.875V41.4959H507.067C507.771 41.4959 508.427 40.7439 508.603 37.4799L508.763 34.3919H514.971V42.9999Z" fill="white" style="fill:white;fill-opacity:1;"/>
<path d="M525.174 34.3919V42.9999H523.27V37.0319L519.174 42.9999H517.27V34.3919H519.174V40.3919L523.27 34.3919H525.174Z" fill="white" style="fill:white;fill-opacity:1;"/>
<path d="M534.181 35.8959H531.253V42.9999H529.349V35.8959H526.405V34.3919H534.181V35.8959Z" fill="white" style="fill:white;fill-opacity:1;"/>
<path d="M543.471 34.3919V42.9999H541.567V37.0319L537.471 42.9999H535.567V34.3919H537.471V40.3919L541.567 34.3919H543.471Z" fill="white" style="fill:white;fill-opacity:1;"/>
<path d="M551.261 42.9999L548.429 39.2399H547.533V42.9999H545.613V34.3919H547.533V37.7359H548.573L551.053 34.3919H553.229L549.981 38.5679L553.453 42.9999H551.261Z" fill="white" style="fill:white;fill-opacity:1;"/>
<path d="M559.736 39.6079V38.9519C557.016 39.2079 555.912 39.6079 555.912 40.5839C555.912 41.3359 556.536 41.7839 557.496 41.7839C558.904 41.7839 559.736 41.0799 559.736 39.6079ZM557.08 43.2079C555.208 43.2079 553.896 42.1999 553.896 40.6319C553.896 38.4719 556.552 37.9599 559.688 37.6239V37.4639C559.688 35.9919 558.856 35.5439 557.896 35.5439C556.936 35.5439 556.216 36.0559 556.168 37.0959H554.296C554.424 35.3519 555.88 34.1359 557.96 34.1359C560.024 34.1359 561.64 35.0799 561.592 37.8319C561.592 38.0072 561.587 38.2905 561.58 38.6183C561.571 39.0684 561.56 39.6023 561.56 40.0559C561.56 41.1439 561.64 42.2799 561.816 42.9999H560.072C560.07 42.984 560.067 42.9684 560.064 42.9531C560.057 42.9133 560.05 42.8753 560.044 42.8382C559.993 42.5582 559.953 42.3321 559.912 41.8319C559.352 42.7759 558.36 43.2079 557.08 43.2079Z" fill="white" style="fill:white;fill-opacity:1;"/>
<path d="M575.189 34.3919V42.9999H573.285V37.0319L569.189 42.9999H567.285V34.3919H569.189V40.3919L573.285 34.3919H575.189Z" fill="white" style="fill:white;fill-opacity:1;"/>
<path d="M587.884 35.8959H584.956V42.9999H583.052V35.8959H580.108V34.3919H587.884V35.8959Z" fill="white" style="fill:white;fill-opacity:1;"/>
<path d="M591.014 38.6959C591.014 40.6799 591.99 41.6559 593.238 41.6559C594.582 41.6559 595.366 40.5359 595.366 38.6959C595.366 36.8879 594.582 35.7519 593.238 35.7519C591.99 35.7519 591.014 36.7119 591.014 38.6959ZM589.19 34.3919H591.094V35.5439C591.606 34.6959 592.502 34.1999 593.654 34.1999C595.766 34.1999 597.35 35.9439 597.35 38.6959C597.35 41.4639 595.766 43.2079 593.654 43.2079C592.502 43.2079 591.606 42.7119 591.094 41.8639V45.7999H589.19V34.3919Z" fill="white" style="fill:white;fill-opacity:1;"/>
<path d="M606.778 39.2399H600.362C600.49 40.8399 601.61 41.6239 602.698 41.6239C603.706 41.6239 604.474 41.2399 604.81 40.4239H606.682C606.298 41.7999 604.986 43.2079 602.778 43.2079C600.01 43.2079 598.426 41.1119 598.426 38.6319C598.426 36.0399 600.202 34.1999 602.65 34.1999C605.29 34.1999 606.954 36.3599 606.778 39.2399ZM602.65 35.6879C601.754 35.6879 600.538 36.2319 600.362 37.8479H604.842C604.794 36.5039 603.77 35.6879 602.65 35.6879Z" fill="white" style="fill:white;fill-opacity:1;"/>
<path d="M616.09 42.9999H614.186V39.3359H610.346V42.9999H608.442V34.3919H610.346V37.8319H614.186V34.3919H616.09V42.9999Z" fill="white" style="fill:white;fill-opacity:1;"/>
<path d="M627.147 41.5119V45.0319H625.419V42.9999H619.131V45.0319H617.403V41.5119H617.867C618.827 41.5119 619.323 40.2639 619.467 37.1279L619.595 34.3919H625.867V41.5119H627.147ZM623.963 41.5119V35.8959H621.275L621.195 37.3519C621.067 39.6399 620.763 40.8559 620.075 41.5119H623.963Z" fill="white" style="fill:white;fill-opacity:1;"/>
<path d="M631.862 42.9999H628.582V34.3919H630.486V37.2879H631.814C634.182 37.2879 635.19 38.1839 635.19 40.0879C635.19 42.2639 633.974 42.9999 631.862 42.9999ZM630.486 38.7919V41.4959H631.59C632.742 41.4959 633.286 41.1599 633.286 40.0719C633.286 39.0959 632.726 38.7919 631.574 38.7919H630.486ZM638.326 42.9999H636.422V34.3919H638.326V42.9999Z" fill="white" style="fill:white;fill-opacity:1;"/>
<path d="M671.036 42.9999V37.8479H669.916L666.428 42.9999H664.092L668.172 36.8879L664.284 31.3999H666.572L669.82 36.1519H671.036V31.3999H673.052V36.1519H674.236L677.484 31.3999H679.756L675.916 36.9039L679.996 42.9999H677.676L674.204 37.8479H673.052V42.9999H671.036Z" fill="white" style="fill:white;fill-opacity:1;"/>
<path d="M681.438 45.7999H680.574V44.3439H681.294C682.126 44.3439 682.478 44.2799 682.862 43.1599L682.958 42.9519L679.838 34.3919H681.918L683.87 40.5679L685.822 34.3919H687.774L684.75 42.9839C683.934 45.2079 683.374 45.7999 681.438 45.7999Z" fill="white" style="fill:white;fill-opacity:1;"/>
<path d="M690.748 38.6959C690.748 40.6799 691.724 41.6559 692.972 41.6559C694.316 41.6559 695.1 40.5359 695.1 38.6959C695.1 36.8879 694.316 35.7519 692.972 35.7519C691.724 35.7519 690.748 36.7119 690.748 38.6959ZM688.924 34.3919H690.828V35.5439C691.34 34.6959 692.236 34.1999 693.388 34.1999C695.5 34.1999 697.084 35.9439 697.084 38.6959C697.084 41.4639 695.5 43.2079 693.388 43.2079C692.236 43.2079 691.34 42.7119 690.828 41.8639V45.7999H688.924V34.3919Z" fill="white" style="fill:white;fill-opacity:1;"/>
<path d="M706.371 42.9999H704.467V39.3359H700.627V42.9999H698.723V34.3919H700.627V37.8319H704.467V34.3919H706.371V42.9999Z" fill="white" style="fill:white;fill-opacity:1;"/>
<path d="M713.924 39.6079V38.9519C711.204 39.2079 710.1 39.6079 710.1 40.5839C710.1 41.3359 710.724 41.7839 711.684 41.7839C713.092 41.7839 713.924 41.0799 713.924 39.6079ZM711.268 43.2079C709.396 43.2079 708.084 42.1999 708.084 40.6319C708.084 38.4719 710.74 37.9599 713.876 37.6239V37.4639C713.876 35.9919 713.044 35.5439 712.084 35.5439C711.124 35.5439 710.404 36.0559 710.356 37.0959H708.484C708.612 35.3519 710.068 34.1359 712.148 34.1359C714.212 34.1359 715.828 35.0799 715.78 37.8319C715.78 38.0072 715.774 38.2905 715.767 38.6183C715.758 39.0684 715.748 39.6023 715.748 40.0559C715.748 41.1439 715.828 42.2799 716.004 42.9999H714.26C714.25 42.9428 714.24 42.8896 714.231 42.8382C714.181 42.5582 714.14 42.3321 714.1 41.8319C713.54 42.7759 712.548 43.2079 711.268 43.2079Z" fill="white" style="fill:white;fill-opacity:1;"/>
<path d="M725.049 42.9999H723.145V35.8959H720.617L720.489 37.7519C720.249 41.3519 719.289 42.9999 717.305 42.9999H716.953V41.4959H717.145C717.849 41.4959 718.505 40.7439 718.681 37.4799L718.841 34.3919H725.049V42.9999Z" fill="white" style="fill:white;fill-opacity:1;"/>
<path d="M761.243 42.9999H759.211V33.0959H753.963V42.9999H751.931V31.3999H761.243V42.9999Z" fill="white" style="fill:white;fill-opacity:1;"/>
<path d="M769.002 39.6079V38.9519C766.282 39.2079 765.178 39.6079 765.178 40.5839C765.178 41.3359 765.802 41.7839 766.762 41.7839C768.17 41.7839 769.002 41.0799 769.002 39.6079ZM766.346 43.2079C764.474 43.2079 763.162 42.1999 763.162 40.6319C763.162 38.4719 765.818 37.9599 768.954 37.6239V37.4639C768.954 35.9919 768.122 35.5439 767.162 35.5439C766.202 35.5439 765.482 36.0559 765.434 37.0959H763.562C763.69 35.3519 765.146 34.1359 767.226 34.1359C769.29 34.1359 770.906 35.0799 770.858 37.8319C770.858 37.8683 770.858 37.9094 770.857 37.9545C770.857 37.9829 770.857 38.013 770.856 38.0446C770.855 38.1469 770.853 38.2647 770.85 38.3933C770.849 38.4653 770.847 38.5405 770.846 38.6183C770.837 39.0684 770.826 39.6023 770.826 40.0559C770.826 41.1439 770.906 42.2799 771.082 42.9999H769.338C769.328 42.9428 769.318 42.8896 769.309 42.8382C769.259 42.5582 769.218 42.3321 769.178 41.8319C768.618 42.7759 767.626 43.2079 766.346 43.2079Z" fill="white" style="fill:white;fill-opacity:1;"/>
<path d="M774.607 38.6959C774.607 40.6799 775.583 41.6559 776.831 41.6559C778.175 41.6559 778.959 40.5359 778.959 38.6959C778.959 36.8879 778.175 35.7519 776.831 35.7519C775.583 35.7519 774.607 36.7119 774.607 38.6959ZM772.783 34.3919H774.687V35.5439C775.199 34.6959 776.095 34.1999 777.247 34.1999C779.359 34.1999 780.943 35.9439 780.943 38.6959C780.943 41.4639 779.359 43.2079 777.247 43.2079C776.095 43.2079 775.199 42.7119 774.687 41.8639V45.7999H772.783V34.3919Z" fill="white" style="fill:white;fill-opacity:1;"/>
<path d="M789.165 35.8959H786.237V42.9999H784.333V35.8959H781.389V34.3919H789.165V35.8959Z" fill="white" style="fill:white;fill-opacity:1;"/>
<path d="M798.199 42.9999H796.295V39.3359H792.455V42.9999H790.551V34.3919H792.455V37.8319H796.295V34.3919H798.199V42.9999Z" fill="white" style="fill:white;fill-opacity:1;"/>
<path d="M808.2 39.2399H801.784C801.912 40.8399 803.032 41.6239 804.12 41.6239C805.128 41.6239 805.896 41.2399 806.232 40.4239H808.104C807.72 41.7999 806.408 43.2079 804.2 43.2079C801.432 43.2079 799.848 41.1119 799.848 38.6319C799.848 36.0399 801.624 34.1999 804.072 34.1999C806.712 34.1999 808.376 36.3599 808.2 39.2399ZM804.072 35.6879C803.176 35.6879 801.96 36.2319 801.784 37.8479H806.264C806.216 36.5039 805.192 35.6879 804.072 35.6879Z" fill="white" style="fill:white;fill-opacity:1;"/>
<path d="M811.607 38.6959C811.607 40.6799 812.583 41.6559 813.831 41.6559C815.175 41.6559 815.959 40.5359 815.959 38.6959C815.959 36.8879 815.175 35.7519 813.831 35.7519C812.583 35.7519 811.607 36.7119 811.607 38.6959ZM809.783 34.3919H811.687V35.5439C812.199 34.6959 813.095 34.1999 814.247 34.1999C816.359 34.1999 817.943 35.9439 817.943 38.6959C817.943 41.4639 816.359 43.2079 814.247 43.2079C813.095 43.2079 812.199 42.7119 811.687 41.8639V45.7999H809.783V34.3919Z" fill="white" style="fill:white;fill-opacity:1;"/>
<path d="M822.862 42.9999H819.582V34.3919H821.486V37.2879H822.814C825.182 37.2879 826.19 38.1839 826.19 40.0879C826.19 42.2639 824.974 42.9999 822.862 42.9999ZM821.486 38.7919V41.4959H822.59C823.742 41.4959 824.286 41.1599 824.286 40.0719C824.286 39.0959 823.726 38.7919 822.574 38.7919H821.486ZM829.326 42.9999H827.422V34.3919H829.326V42.9999Z" fill="white" style="fill:white;fill-opacity:1;"/>
<path d="M864.524 37.8334C864.984 37.8334 865.357 37.4603 865.357 37.0001C865.357 36.5398 864.984 36.1667 864.524 36.1667C864.063 36.1667 863.69 36.5398 863.69 37.0001C863.69 37.4603 864.063 37.8334 864.524 37.8334Z" fill="#1D1D1D" style="fill:#1D1D1D;fill:color(display-p3 0.1137 0.1137 0.1137);fill-opacity:1;"/>
<path d="M870.357 37.8334C870.817 37.8334 871.19 37.4603 871.19 37.0001C871.19 36.5398 870.817 36.1667 870.357 36.1667C869.897 36.1667 869.524 36.5398 869.524 37.0001C869.524 37.4603 869.897 37.8334 870.357 37.8334Z" fill="#1D1D1D" style="fill:#1D1D1D;fill:color(display-p3 0.1137 0.1137 0.1137);fill-opacity:1;"/>
<path d="M858.69 37.8334C859.15 37.8334 859.524 37.4603 859.524 37.0001C859.524 36.5398 859.15 36.1667 858.69 36.1667C858.23 36.1667 857.857 36.5398 857.857 37.0001C857.857 37.4603 858.23 37.8334 858.69 37.8334Z" fill="#1D1D1D" style="fill:#1D1D1D;fill:color(display-p3 0.1137 0.1137 0.1137);fill-opacity:1;"/>
<path d="M30.129 50.125C28.3434 50.125 27.1133 49.1463 27.1133 46.1144V45.4623H29.0973V46.1148C29.0973 47.7267 29.5339 48.1679 30.129 48.1679C30.724 48.1679 31.141 47.7267 31.141 46.9782C31.141 46.0378 31.0021 45.52 29.6131 44.5412C27.9861 43.4092 27.2322 42.2002 27.2322 40.646C27.2322 38.6695 28.3034 37.4799 30.129 37.4799C31.3987 37.4799 33.0854 37.8638 33.0854 41.0872V41.8357H31.1013V41.0872C31.1013 39.8209 30.6848 39.3987 30.129 39.3987C29.5339 39.3987 29.2162 39.8209 29.2162 40.569C29.2162 41.3364 29.3947 41.9696 30.7836 43.006C32.5099 44.2916 33.125 45.3087 33.125 46.9779C33.125 48.6471 32.3311 50.125 30.129 50.125ZM23.363 50.125C21.5774 50.125 20.3473 49.2999 20.3473 46.1144V45.4623H22.3314V46.1148C22.3314 47.7267 22.7679 48.1679 23.363 48.1679C23.9581 48.1679 24.375 47.7267 24.375 46.9782C24.375 46.0378 24.2361 45.52 22.8472 44.5412C21.2201 43.4092 20.4662 42.2002 20.4662 40.646C20.4662 38.6695 21.5375 37.4799 23.363 37.4799C24.6327 37.4799 26.3194 37.8638 26.3194 41.0872V41.8357H24.3354V41.0872C24.3354 39.8209 23.9188 39.3987 23.363 39.3987C22.7679 39.3987 22.4502 39.8209 22.4502 40.569C22.4502 41.3364 22.6287 41.9696 24.0177 43.006C25.744 44.2916 26.359 45.3087 26.359 46.9779C26.359 48.6471 25.5655 50.125 23.363 50.125ZM30.129 36.5201C28.3434 36.5201 27.1133 35.5414 27.1133 32.5096V31.8574H29.0973V32.5099C29.0973 34.1218 29.5339 34.563 30.129 34.563C30.724 34.563 31.141 34.1218 31.141 33.3733C31.141 32.4329 31.0021 31.9151 29.6131 30.9364C27.9861 29.8043 27.2322 28.5953 27.2322 27.0411C27.2322 25.0647 28.3034 23.875 30.129 23.875C31.3987 23.875 33.0854 24.2589 33.0854 27.4823V28.2308H31.1013V27.4823C31.1013 26.216 30.6848 25.7938 30.129 25.7938C29.5339 25.7938 29.2162 26.216 29.2162 26.9641C29.2162 27.7316 29.3947 28.3647 30.7836 29.4011C32.5099 30.6867 33.125 31.7038 33.125 33.373C33.125 35.0422 32.3311 36.5201 30.129 36.5201ZM23.363 36.5201C21.5774 36.5201 20.3473 35.695 20.3473 32.5096V31.8574H22.3314V32.5099C22.3314 34.1218 22.7679 34.563 23.363 34.563C23.9581 34.563 24.375 34.1218 24.375 33.3733C24.375 32.4329 24.2361 31.9151 22.8472 30.9364C21.2201 29.8043 20.4662 28.5953 20.4662 27.0411C20.4662 25.0647 21.5375 23.875 23.363 23.875C24.6327 23.875 26.3194 24.2589 26.3194 27.4823V28.2308H24.3354V27.4823C24.3354 26.216 23.9188 25.7938 23.363 25.7938C22.7679 25.7938 22.4502 26.216 22.4502 26.9641C22.4502 27.7316 22.6287 28.3647 24.0177 29.4011C25.744 30.6867 26.359 31.7038 26.359 33.373C26.359 35.0422 25.5655 36.5201 23.363 36.5201ZM8.85941 45.4623H9.25635C10.1295 45.4623 10.5657 45.0401 10.5657 43.083V41.97C10.5657 40.0128 10.1291 39.5906 9.25635 39.5906H8.85941V45.4623ZM8.85941 49.933H6.87537V37.6715H9.25635C11.8358 37.6715 12.5501 39.0914 12.5501 41.778V43.2746C12.5501 45.9608 11.8358 47.3811 9.25635 47.3811H8.85941V49.933ZM9.25598 29.9386H8.85902V25.9857H9.25598C10.1488 25.9857 10.5653 26.2737 10.5653 27.6166V28.3074C10.5657 29.6507 10.1491 29.9386 9.25598 29.9386ZM12.9267 36.3285L11.3989 31.2243C12.1332 30.6295 12.5497 29.6507 12.5497 28.4421V27.4827C12.5497 25.2376 11.5181 24.067 9.25598 24.067H6.875V36.3285H8.85902V31.8574H9.11713C9.21636 31.8574 9.35522 31.8574 9.57332 31.8381L10.7638 36.3282L12.9267 36.3285ZM15.1884 45.4623L16.2004 39.5906H16.3593L17.3709 45.4623H15.1884ZM18.1252 49.933H20.1092L17.9067 37.6715H14.653L12.4309 49.933H14.4149L14.8711 47.3811H17.6886L18.1252 49.933ZM16.4781 36.5201C14.0376 36.5201 13.5814 34.7356 13.5814 32.5672V24.067H15.645V32.7402C15.645 34.2561 15.9227 34.6013 16.4781 34.6013C17.0336 34.6013 17.3113 34.2561 17.3113 32.7402V24.067H19.3749V32.5676C19.3749 34.7356 18.9187 36.5201 16.4781 36.5201Z" fill="white" style="fill:white;fill-opacity:1;"/>
<path d="M48 29.1827H54.8807V31.4177H50.4571V35.4168H51.8863C53.122 35.4168 54.0497 35.7446 54.6676 36.4C55.2854 37.0555 55.5952 38.0154 55.5952 39.2816V40.9579C55.5952 42.2241 55.2854 43.184 54.6676 43.8395C54.0497 44.495 53.122 44.8227 51.8863 44.8227H48V29.1827ZM51.8881 42.5858C52.2749 42.5858 52.5811 42.482 52.8032 42.2724C53.0271 42.0647 53.1381 41.6779 53.1381 41.1101V39.1222C53.1381 38.5563 53.0271 38.1695 52.8032 37.9599C52.5794 37.7522 52.2749 37.6465 51.8881 37.6465H50.4589V42.5841H51.8881V42.5858Z" fill="white" style="fill:white;fill-opacity:1;"/>
<path d="M59.7752 44.8209H57.25V29.1827H59.4403V39.0792L60.334 35.6389L62.3452 29.1827H65.0477V44.8209H62.8359V33.8068L61.8312 37.6501L59.7752 44.8209Z" fill="white" style="fill:white;fill-opacity:1;"/>
<path d="M71.5254 33.0242C71.5254 32.3239 71.409 31.8511 71.1798 31.6058C70.9487 31.3604 70.6389 31.2368 70.2521 31.2368C69.8652 31.2368 69.5518 31.3533 69.3136 31.5825C69.0754 31.8135 68.9554 32.2111 68.9554 32.777V34.0504H66.6989V32.8881C66.6989 31.6219 66.9998 30.6584 67.6033 29.994C68.2069 29.3313 69.1113 29 70.3183 29C71.5254 29 72.437 29.3385 73.0548 30.0172C73.6727 30.696 73.9825 31.6667 73.9825 32.9328V33.3358C73.9825 35.0031 73.4094 36.0759 72.2615 36.5523C72.8865 36.8209 73.3306 37.2346 73.5903 37.7916C73.85 38.3503 73.9807 39.0309 73.9807 39.835V41.0636C73.9807 42.3297 73.6709 43.3022 73.0531 43.9792C72.4352 44.6579 71.5218 44.9964 70.3165 44.9964C69.1095 44.9964 68.1979 44.6579 67.58 43.9792C66.9622 43.3022 66.6523 42.3297 66.6523 41.0636V39.3425H68.9751V41.2194C68.9751 41.7853 69.0898 42.1847 69.3208 42.4139C69.5518 42.645 69.8599 42.7596 70.2485 42.7596C70.6353 42.7596 70.9452 42.6396 71.1762 42.4014C71.4072 42.1632 71.5218 41.694 71.5218 40.9937V39.7652C71.5218 39.0363 71.3947 38.5223 71.1422 38.2232C70.8878 37.9259 70.4795 37.7755 69.9136 37.7755H69.3101V35.5404H70.0479C70.51 35.5404 70.8699 35.4222 71.1314 35.1822C71.3911 34.944 71.5218 34.5124 71.5218 33.8856V33.0242H71.5254Z" fill="white" style="fill:white;fill-opacity:1;"/>
<path d="M78.0945 44.8209H75.6373V29.1827H78.0945V35.8843H80.8865V29.1827H83.3884V44.8209H80.8865V38.1193H78.0945V44.8209Z" fill="white" style="fill:white;fill-opacity:1;"/>
<path d="M87.6329 35.7714H91.0069V38.0065H87.6329V42.5859H91.8773V44.8191H85.1757V29.1809H91.8773V31.4159H87.6329V35.7714Z" fill="white" style="fill:white;fill-opacity:1;"/>
<path d="M100.524 41.0672C100.524 42.3333 100.214 43.3058 99.5961 43.9828C98.9783 44.6615 98.0649 45 96.8596 45C95.6544 45 94.741 44.6615 94.1231 43.9828C93.5052 43.3058 93.1954 42.3333 93.1954 41.0672V32.9346C93.1954 31.6685 93.5052 30.6978 94.1231 30.019C94.741 29.3421 95.6544 29.0018 96.8596 29.0018C98.0649 29.0018 98.9783 29.3403 99.5961 30.019C100.214 30.6978 100.524 31.6685 100.524 32.9346V34.4533H98.201V32.777C98.201 32.2111 98.0846 31.8135 97.8554 31.5825C97.6243 31.3515 97.3145 31.2368 96.9277 31.2368C96.5408 31.2368 96.231 31.3533 96 31.5825C95.769 31.8135 95.6543 32.2111 95.6543 32.777V41.2212C95.6543 41.7871 95.769 42.1811 96 42.405C96.231 42.6288 96.539 42.7399 96.9277 42.7399C97.3145 42.7399 97.6243 42.6288 97.8554 42.405C98.0864 42.1811 98.201 41.7871 98.201 41.2212V38.9879H100.524V41.0672Z" fill="white" style="fill:white;fill-opacity:1;"/>
<path fill-rule="evenodd" clip-rule="evenodd" d="M6.0875 17H33.9125C37.2745 17 40 19.7255 40 23.0875V50.9125C40 54.2745 37.2745 57 33.9125 57H6.0875C2.72547 57 0 54.2745 0 50.9125V23.0875C0 19.7255 2.72547 17 6.0875 17ZM27.1133 46.1144C27.1133 49.1463 28.3434 50.125 30.129 50.125C32.3311 50.125 33.125 48.6471 33.125 46.9779C33.125 45.3087 32.5099 44.2916 30.7836 43.006C29.3947 41.9696 29.2162 41.3364 29.2162 40.569C29.2162 39.8209 29.5339 39.3987 30.129 39.3987C30.6848 39.3987 31.1013 39.8209 31.1013 41.0872V41.8357H33.0854V41.0872C33.0854 37.8638 31.3987 37.4799 30.129 37.4799C28.3034 37.4799 27.2322 38.6695 27.2322 40.646C27.2322 42.2002 27.9861 43.4092 29.6131 44.5412C31.0021 45.52 31.141 46.0378 31.141 46.9782C31.141 47.7267 30.724 48.1679 30.129 48.1679C29.5339 48.1679 29.0973 47.7267 29.0973 46.1148V45.4623H27.1133V46.1144ZM20.3473 46.1144C20.3473 49.2999 21.5774 50.125 23.363 50.125C25.5655 50.125 26.359 48.6471 26.359 46.9779C26.359 45.3087 25.744 44.2916 24.0177 43.006C22.6287 41.9696 22.4502 41.3364 22.4502 40.569C22.4502 39.8209 22.7679 39.3987 23.363 39.3987C23.9188 39.3987 24.3354 39.8209 24.3354 41.0872V41.8357H26.3194V41.0872C26.3194 37.8638 24.6327 37.4799 23.363 37.4799C21.5375 37.4799 20.4662 38.6695 20.4662 40.646C20.4662 42.2002 21.2201 43.4092 22.8472 44.5412C24.2361 45.52 24.375 46.0378 24.375 46.9782C24.375 47.7267 23.9581 48.1679 23.363 48.1679C22.7679 48.1679 22.3314 47.7267 22.3314 46.1148V45.4623H20.3473V46.1144ZM27.1133 32.5096C27.1133 35.5414 28.3434 36.5201 30.129 36.5201C32.3311 36.5201 33.125 35.0422 33.125 33.373C33.125 31.7038 32.5099 30.6867 30.7836 29.4011C29.3947 28.3647 29.2162 27.7316 29.2162 26.9641C29.2162 26.216 29.5339 25.7938 30.129 25.7938C30.6848 25.7938 31.1013 26.216 31.1013 27.4823V28.2308H33.0854V27.4823C33.0854 24.2589 31.3987 23.875 30.129 23.875C28.3034 23.875 27.2322 25.0647 27.2322 27.0411C27.2322 28.5953 27.9861 29.8043 29.6131 30.9364C31.0021 31.9151 31.141 32.4329 31.141 33.3733C31.141 34.1218 30.724 34.563 30.129 34.563C29.5339 34.563 29.0973 34.1218 29.0973 32.5099V31.8574H27.1133V32.5096ZM20.3473 32.5096C20.3473 35.695 21.5774 36.5201 23.363 36.5201C25.5655 36.5201 26.359 35.0422 26.359 33.373C26.359 31.7038 25.744 30.6867 24.0177 29.4011C22.6287 28.3647 22.4502 27.7316 22.4502 26.9641C22.4502 26.216 22.7679 25.7938 23.363 25.7938C23.9188 25.7938 24.3354 26.216 24.3354 27.4823V28.2308H26.3194V27.4823C26.3194 24.2589 24.6327 23.875 23.363 23.875C21.5375 23.875 20.4662 25.0647 20.4662 27.0411C20.4662 28.5953 21.2201 29.8043 22.8472 30.9364C24.2361 31.9151 24.375 32.4329 24.375 33.3733C24.375 34.1218 23.9581 34.563 23.363 34.563C22.7679 34.563 22.3314 34.1218 22.3314 32.5099V31.8574H20.3473V32.5096ZM6.87537 49.933H8.85941V47.3811H9.25635C11.8358 47.3811 12.5501 45.9608 12.5501 43.2746V41.778C12.5501 39.0914 11.8358 37.6715 9.25635 37.6715H6.87537V49.933ZM11.3989 31.2243L12.9267 36.3285L10.7638 36.3282L9.57332 31.8381C9.35522 31.8574 9.21636 31.8574 9.11713 31.8574H8.85902V36.3285H6.875V24.067H9.25598C11.5181 24.067 12.5497 25.2376 12.5497 27.4827V28.4421C12.5497 29.6507 12.1332 30.6295 11.3989 31.2243ZM20.1092 49.933H18.1252L17.6886 47.3811H14.8711L14.4149 49.933H12.4309L14.653 37.6715H17.9067L20.1092 49.933ZM13.5814 32.5672C13.5814 34.7356 14.0376 36.5201 16.4781 36.5201C18.9187 36.5201 19.3749 34.7356 19.3749 32.5676V24.067H17.3113V32.7402C17.3113 34.2561 17.0336 34.6013 16.4781 34.6013C15.9227 34.6013 15.645 34.2561 15.645 32.7402V24.067H13.5814V32.5672Z" fill="#FF3000" style="fill:#FF3000;fill:color(display-p3 1.0000 0.1882 0.0000);fill-opacity:1;"/>
<path d="M9.25598 29.9386H8.85902V25.9857H9.25598C10.1488 25.9857 10.5653 26.2737 10.5653 27.6166V28.3074C10.5657 29.6507 10.1491 29.9386 9.25598 29.9386Z" fill="#FF3000" style="fill:#FF3000;fill:color(display-p3 1.0000 0.1882 0.0000);fill-opacity:1;"/>
<path d="M15.1884 45.4623L16.2004 39.5906H16.3593L17.3709 45.4623H15.1884Z" fill="#FF3000" style="fill:#FF3000;fill:color(display-p3 1.0000 0.1882 0.0000);fill-opacity:1;"/>
<path d="M8.85941 45.4623H9.25635C10.1295 45.4623 10.5657 45.0401 10.5657 43.083V41.97C10.5657 40.0128 10.1291 39.5906 9.25635 39.5906H8.85941V45.4623Z" fill="#FF3000" style="fill:#FF3000;fill:color(display-p3 1.0000 0.1882 0.0000);fill-opacity:1;"/>
<path fill-rule="evenodd" clip-rule="evenodd" d="M0 0H1224V73.2029H0V0ZM171.131 43.2079C174.539 43.2079 176.667 40.7599 176.667 37.1919C176.667 33.6079 174.539 31.1919 171.131 31.1919C167.723 31.1919 165.595 33.6079 165.595 37.1919C165.595 40.7599 167.723 43.2079 171.131 43.2079ZM187.974 42.9999H189.878V34.3919H187.974V37.8319H184.134V34.3919H182.23V42.9999H184.134V39.3359H187.974V42.9999ZM191.591 40.6319C191.591 42.1999 192.903 43.2079 194.775 43.2079C196.055 43.2079 197.047 42.7759 197.607 41.8319C197.648 42.3317 197.689 42.5578 197.739 42.8376L197.739 42.8414C197.748 42.8918 197.758 42.944 197.767 42.9999H199.511C199.335 42.2799 199.255 41.1439 199.255 40.0559C199.255 39.6023 199.266 39.0684 199.275 38.6183V38.6167C199.282 38.2896 199.287 38.0069 199.287 37.8319C199.335 35.0799 197.719 34.1359 195.655 34.1359C193.575 34.1359 192.119 35.3519 191.991 37.0959H193.863C193.911 36.0559 194.631 35.5439 195.591 35.5439C196.551 35.5439 197.383 35.9919 197.383 37.4639V37.6239C194.247 37.9599 191.591 38.4719 191.591 40.6319ZM208.701 37.3359C208.365 35.4319 206.733 34.1999 204.845 34.1999C202.269 34.1999 200.621 36.1519 200.621 38.7119C200.621 41.2719 202.269 43.2079 204.765 43.2079C206.605 43.2079 208.381 42.0719 208.765 40.0559H206.909C206.653 41.2079 205.741 41.6239 204.797 41.6239C203.677 41.6239 202.589 40.7439 202.589 38.6959C202.589 36.6639 203.645 35.7839 204.845 35.7839C205.885 35.7839 206.669 36.4239 206.845 37.3359H208.701ZM266.195 42.9999H268.227V31.3999H258.915V42.9999H260.947V33.0959H266.195V42.9999ZM272.562 34.3919H270.658V45.7999H272.562V41.8639C273.074 42.7119 273.97 43.2079 275.122 43.2079C277.234 43.2079 278.818 41.4639 278.818 38.6959C278.818 35.9439 277.234 34.1999 275.122 34.1999C273.97 34.1999 273.074 34.6959 272.562 35.5439V34.3919ZM288.375 38.7119C288.375 35.6079 286.231 34.1999 284.135 34.1999C282.039 34.1999 279.895 35.6079 279.895 38.7119C279.895 41.8319 282.039 43.2079 284.135 43.2079C286.231 43.2079 288.375 41.8319 288.375 38.7119ZM291.393 39.2399H297.809C297.985 36.3599 296.321 34.1999 293.681 34.1999C291.233 34.1999 289.457 36.0399 289.457 38.6319C289.457 41.1119 291.041 43.2079 293.809 43.2079C296.017 43.2079 297.329 41.7999 297.713 40.4239H295.841C295.505 41.2399 294.737 41.6239 293.729 41.6239C292.641 41.6239 291.521 40.8399 291.393 39.2399ZM302.289 39.2399L305.121 42.9999H307.313L303.841 38.5679L307.089 34.3919H304.913L302.433 37.7359H301.393V34.3919H299.473V42.9999H301.393V39.2399H302.289ZM312.596 35.8959H315.524V34.3919H307.748V35.8959H310.692V42.9999H312.596V35.8959ZM316.91 42.9999H320.19C322.302 42.9999 323.518 42.2639 323.518 40.0879C323.518 38.1839 322.51 37.2879 320.142 37.2879H318.814V34.3919H316.91V42.9999ZM324.75 42.9999H326.654V34.3919H324.75V42.9999ZM340.549 42.9999V34.3919H338.645L334.549 40.3919V34.3919H332.645V42.9999H334.549L338.645 37.0319V42.9999H340.549ZM356.587 42.9999V34.3919H353.707L351.515 40.5359L349.259 34.3919H346.379V42.9999H348.219V36.2159L350.747 42.9999H352.219L354.747 36.1839V42.9999H356.587ZM360.331 39.2399H366.747C366.923 36.3599 365.259 34.1999 362.619 34.1999C360.171 34.1999 358.395 36.0399 358.395 38.6319C358.395 41.1119 359.979 43.2079 362.747 43.2079C364.955 43.2079 366.267 41.7999 366.651 40.4239H364.779C364.443 41.2399 363.675 41.6239 362.667 41.6239C361.579 41.6239 360.459 40.8399 360.331 39.2399ZM370.234 34.3919H368.33V45.7999H370.234V41.8639C370.746 42.7119 371.642 43.2079 372.794 43.2079C374.906 43.2079 376.49 41.4639 376.49 38.6959C376.49 35.9439 374.906 34.1999 372.794 34.1999C371.642 34.1999 370.746 34.6959 370.234 35.5439V34.3919ZM386.047 38.7119C386.047 35.6079 383.903 34.1999 381.807 34.1999C379.711 34.1999 377.567 35.6079 377.567 38.7119C377.567 41.8319 379.711 43.2079 381.807 43.2079C383.903 43.2079 386.047 41.8319 386.047 38.7119ZM395.179 42.9999V34.3919H387.691V42.9999H389.595V35.8959H393.275V42.9999H395.179ZM399.312 34.3919H397.408V45.7999H399.312V41.8639C399.824 42.7119 400.72 43.2079 401.872 43.2079C403.984 43.2079 405.568 41.4639 405.568 38.6959C405.568 35.9439 403.984 34.1999 401.872 34.1999C400.72 34.1999 399.824 34.6959 399.312 35.5439V34.3919ZM415.111 42.9999V34.3919H413.207L409.111 40.3919V34.3919H407.207V42.9999H409.111L413.207 37.0319V42.9999H415.111ZM423.99 42.9999V34.3919H420.326C418.166 34.3919 417.03 35.3839 417.03 37.1279C417.03 38.3599 417.702 39.1599 418.614 39.5279L416.454 42.9999H418.614L420.374 40.0239H422.086V42.9999H423.99ZM430.237 35.8959H433.165V34.3919H425.389V35.8959H428.333V42.9999H430.237V35.8959ZM442.455 42.9999V34.3919H440.551L436.455 40.3919V34.3919H434.551V42.9999H436.455L440.551 37.0319V42.9999H442.455ZM451.334 42.9999V34.3919H447.67C445.51 34.3919 444.374 35.3839 444.374 37.1279C444.374 38.3599 445.046 39.1599 445.958 39.5279L443.798 42.9999H445.958L447.718 40.0239H449.43V42.9999H451.334ZM480.955 31.3999L476.635 42.9999H478.715L479.611 40.4239H484.315L485.227 42.9999H487.451L483.099 31.3999H480.955ZM494.389 42.9999H496.293V34.3919H494.389V37.8319H490.549V34.3919H488.645V42.9999H490.549V39.3359H494.389V42.9999ZM498.006 40.6319C498.006 42.1999 499.318 43.2079 501.19 43.2079C502.47 43.2079 503.462 42.7759 504.022 41.8319C504.062 42.3318 504.103 42.5579 504.153 42.8377C504.162 42.8892 504.172 42.9426 504.182 42.9999H505.926C505.75 42.2799 505.67 41.1439 505.67 40.0559C505.67 39.612 505.68 39.0912 505.689 38.6474V38.6434V38.6409V38.6394L505.689 38.6337V38.6302V38.628L505.69 38.622V38.6183C505.696 38.2905 505.702 38.0072 505.702 37.8319C505.75 35.0799 504.134 34.1359 502.07 34.1359C499.99 34.1359 498.534 35.3519 498.406 37.0959H500.278C500.326 36.0559 501.046 35.5439 502.006 35.5439C502.966 35.5439 503.798 35.9919 503.798 37.4639V37.6239C500.662 37.9599 498.006 38.4719 498.006 40.6319ZM513.067 42.9999H514.971V34.3919H508.763L508.603 37.4799C508.427 40.7439 507.771 41.4959 507.067 41.4959H506.875V42.9999H507.227C509.211 42.9999 510.171 41.3519 510.411 37.7519L510.539 35.8959H513.067V42.9999ZM525.174 42.9999V34.3919H523.27L519.174 40.3919V34.3919H517.27V42.9999H519.174L523.27 37.0319V42.9999H525.174ZM531.253 35.8959H534.181V34.3919H526.405V35.8959H529.349V42.9999H531.253V35.8959ZM543.471 42.9999V34.3919H541.567L537.471 40.3919V34.3919H535.567V42.9999H537.471L541.567 37.0319V42.9999H543.471ZM548.429 39.2399L551.261 42.9999H553.453L549.981 38.5679L553.229 34.3919H551.053L548.573 37.7359H547.533V34.3919H545.613V42.9999H547.533V39.2399H548.429ZM553.896 40.6319C553.896 42.1999 555.208 43.2079 557.08 43.2079C558.36 43.2079 559.352 42.7759 559.912 41.8319C559.953 42.3321 559.993 42.5582 560.044 42.8382L560.064 42.9531L560.072 42.9999H561.816C561.64 42.2799 561.56 41.1439 561.56 40.0559C561.56 39.6023 561.571 39.0684 561.58 38.6183C561.587 38.2905 561.592 38.0072 561.592 37.8319C561.64 35.0799 560.024 34.1359 557.96 34.1359C555.88 34.1359 554.424 35.3519 554.296 37.0959H556.168C556.216 36.0559 556.936 35.5439 557.896 35.5439C558.856 35.5439 559.688 35.9919 559.688 37.4639V37.6239C556.552 37.9599 553.896 38.4719 553.896 40.6319ZM575.189 42.9999V34.3919H573.285L569.189 40.3919V34.3919H567.285V42.9999H569.189L573.285 37.0319V42.9999H575.189ZM584.956 35.8959H587.884V34.3919H580.108V35.8959H583.052V42.9999H584.956V35.8959ZM591.094 34.3919H589.19V45.7999H591.094V41.8639C591.606 42.7119 592.502 43.2079 593.654 43.2079C595.766 43.2079 597.35 41.4639 597.35 38.6959C597.35 35.9439 595.766 34.1999 593.654 34.1999C592.502 34.1999 591.606 34.6959 591.094 35.5439V34.3919ZM600.362 39.2399H606.778C606.954 36.3599 605.29 34.1999 602.65 34.1999C600.202 34.1999 598.426 36.0399 598.426 38.6319C598.426 41.1119 600.01 43.2079 602.778 43.2079C604.986 43.2079 606.298 41.7999 606.682 40.4239H604.81C604.474 41.2399 603.706 41.6239 602.698 41.6239C601.61 41.6239 600.49 40.8399 600.362 39.2399ZM614.186 42.9999H616.09V34.3919H614.186V37.8319H610.346V34.3919H608.442V42.9999H610.346V39.3359H614.186V42.9999ZM627.147 45.0319V41.5119H625.867V34.3919H619.595L619.467 37.1279C619.323 40.2639 618.827 41.5119 617.867 41.5119H617.403V45.0319H619.131V42.9999H625.419V45.0319H627.147ZM628.582 42.9999H631.862C633.974 42.9999 635.19 42.2639 635.19 40.0879C635.19 38.1839 634.182 37.2879 631.814 37.2879H630.486V34.3919H628.582V42.9999ZM636.422 42.9999H638.326V34.3919H636.422V42.9999ZM671.036 37.8479V42.9999H673.052V37.8479H674.204L677.676 42.9999H679.996L675.916 36.9039L679.756 31.3999H677.484L674.236 36.1519H673.052V31.3999H671.036V36.1519H669.82L666.572 31.3999H664.284L668.172 36.8879L664.092 42.9999H666.428L669.916 37.8479H671.036ZM680.574 45.7999H681.438C683.374 45.7999 683.934 45.2079 684.75 42.9839L687.774 34.3919H685.822L683.87 40.5679L681.918 34.3919H679.838L682.958 42.9519L682.862 43.1599C682.478 44.2799 682.126 44.3439 681.294 44.3439H680.574V45.7999ZM690.828 34.3919H688.924V45.7999H690.828V41.8639C691.34 42.7119 692.236 43.2079 693.388 43.2079C695.5 43.2079 697.084 41.4639 697.084 38.6959C697.084 35.9439 695.5 34.1999 693.388 34.1999C692.236 34.1999 691.34 34.6959 690.828 35.5439V34.3919ZM704.467 42.9999H706.371V34.3919H704.467V37.8319H700.627V34.3919H698.723V42.9999H700.627V39.3359H704.467V42.9999ZM708.084 40.6319C708.084 42.1999 709.396 43.2079 711.268 43.2079C712.548 43.2079 713.54 42.7759 714.1 41.8319C714.14 42.3321 714.181 42.5582 714.231 42.8382C714.24 42.8896 714.25 42.9428 714.26 42.9999H716.004C715.828 42.2799 715.748 41.1439 715.748 40.0559C715.748 39.6023 715.758 39.0684 715.767 38.6183C715.774 38.2905 715.78 38.0072 715.78 37.8319C715.828 35.0799 714.212 34.1359 712.148 34.1359C710.068 34.1359 708.612 35.3519 708.484 37.0959H710.356C710.404 36.0559 711.124 35.5439 712.084 35.5439C713.044 35.5439 713.876 35.9919 713.876 37.4639V37.6239C710.74 37.9599 708.084 38.4719 708.084 40.6319ZM723.145 42.9999H725.049V34.3919H718.841L718.681 37.4799C718.505 40.7439 717.849 41.4959 717.145 41.4959H716.953V42.9999H717.305C719.289 42.9999 720.249 41.3519 720.489 37.7519L720.617 35.8959H723.145V42.9999ZM759.211 42.9999H761.243V31.3999H751.931V42.9999H753.963V33.0959H759.211V42.9999ZM763.162 40.6319C763.162 42.1999 764.474 43.2079 766.346 43.2079C767.626 43.2079 768.618 42.7759 769.178 41.8319C769.218 42.3321 769.259 42.5582 769.309 42.8382C769.318 42.8896 769.328 42.9428 769.338 42.9999H771.082C770.906 42.2799 770.826 41.1439 770.826 40.0559C770.826 39.6023 770.837 39.0684 770.846 38.6183C770.847 38.5405 770.849 38.4653 770.85 38.3933C770.853 38.2647 770.855 38.1469 770.856 38.0446C770.857 38.013 770.857 37.9829 770.857 37.9545C770.858 37.9094 770.858 37.8683 770.858 37.8319C770.906 35.0799 769.29 34.1359 767.226 34.1359C765.146 34.1359 763.69 35.3519 763.562 37.0959H765.434C765.482 36.0559 766.202 35.5439 767.162 35.5439C768.122 35.5439 768.954 35.9919 768.954 37.4639V37.6239C765.818 37.9599 763.162 38.4719 763.162 40.6319ZM774.687 34.3919H772.783V45.7999H774.687V41.8639C775.199 42.7119 776.095 43.2079 777.247 43.2079C779.359 43.2079 780.943 41.4639 780.943 38.6959C780.943 35.9439 779.359 34.1999 777.247 34.1999C776.095 34.1999 775.199 34.6959 774.687 35.5439V34.3919ZM786.237 35.8959H789.165V34.3919H781.389V35.8959H784.333V42.9999H786.237V35.8959ZM796.295 42.9999H798.199V34.3919H796.295V37.8319H792.455V34.3919H790.551V42.9999H792.455V39.3359H796.295V42.9999ZM801.784 39.2399H808.2C808.376 36.3599 806.712 34.1999 804.072 34.1999C801.624 34.1999 799.848 36.0399 799.848 38.6319C799.848 41.1119 801.432 43.2079 804.2 43.2079C806.408 43.2079 807.72 41.7999 808.104 40.4239H806.232C805.896 41.2399 805.128 41.6239 804.12 41.6239C803.032 41.6239 801.912 40.8399 801.784 39.2399ZM811.687 34.3919H809.783V45.7999H811.687V41.8639C812.199 42.7119 813.095 43.2079 814.247 43.2079C816.359 43.2079 817.943 41.4639 817.943 38.6959C817.943 35.9439 816.359 34.1999 814.247 34.1999C813.095 34.1999 812.199 34.6959 811.687 35.5439V34.3919ZM819.582 42.9999H822.862C824.974 42.9999 826.19 42.2639 826.19 40.0879C826.19 38.1839 825.182 37.2879 822.814 37.2879H821.486V34.3919H819.582V42.9999ZM827.422 42.9999H829.326V34.3919H827.422V42.9999ZM864.524 37.8334C864.984 37.8334 865.357 37.4603 865.357 37.0001C865.357 36.5398 864.984 36.1667 864.524 36.1667C864.063 36.1667 863.69 36.5398 863.69 37.0001C863.69 37.4603 864.063 37.8334 864.524 37.8334ZM870.357 37.8334C870.817 37.8334 871.19 37.4603 871.19 37.0001C871.19 36.5398 870.817 36.1667 870.357 36.1667C869.897 36.1667 869.524 36.5398 869.524 37.0001C869.524 37.4603 869.897 37.8334 870.357 37.8334ZM858.69 37.8334C859.15 37.8334 859.524 37.4603 859.524 37.0001C859.524 36.5398 859.15 36.1667 858.69 36.1667C858.23 36.1667 857.857 36.5398 857.857 37.0001C857.857 37.4603 858.23 37.8334 858.69 37.8334ZM33.9125 17H6.0875C2.72547 17 0 19.7255 0 23.0875V50.9125C0 54.2745 2.72547 57 6.0875 57H33.9125C37.2745 57 40 54.2745 40 50.9125V23.0875C40 19.7255 37.2745 17 33.9125 17ZM54.8807 29.1827H48V44.8227H51.8863C53.122 44.8227 54.0497 44.495 54.6676 43.8395C55.2854 43.184 55.5952 42.2241 55.5952 40.9579V39.2816C55.5952 38.0154 55.2854 37.0555 54.6676 36.4C54.0497 35.7446 53.122 35.4168 51.8863 35.4168H50.4571V31.4177H54.8807V29.1827ZM57.25 44.8209H59.7752L61.8312 37.6501L62.8359 33.8068V44.8209H65.0477V29.1827H62.3452L60.334 35.6389L59.4403 39.0792V29.1827H57.25V44.8209ZM71.1798 31.6058C71.409 31.8511 71.5254 32.3239 71.5254 33.0242H71.5218V33.8856C71.5218 34.5124 71.3911 34.944 71.1314 35.1822C70.8699 35.4222 70.51 35.5404 70.0479 35.5404H69.3101V37.7755H69.9136C70.4795 37.7755 70.8878 37.9259 71.1422 38.2232C71.3947 38.5223 71.5218 39.0363 71.5218 39.7652V40.9937C71.5218 41.694 71.4072 42.1632 71.1762 42.4014C70.9452 42.6396 70.6353 42.7596 70.2485 42.7596C69.8599 42.7596 69.5518 42.645 69.3208 42.4139C69.0898 42.1847 68.9751 41.7853 68.9751 41.2194V39.3425H66.6523V41.0636C66.6523 42.3297 66.9622 43.3022 67.58 43.9792C68.1979 44.6579 69.1095 44.9964 70.3165 44.9964C71.5218 44.9964 72.4352 44.6579 73.0531 43.9792C73.6709 43.3022 73.9807 42.3297 73.9807 41.0636V39.835C73.9807 39.0309 73.85 38.3503 73.5903 37.7916C73.3306 37.2346 72.8865 36.8209 72.2615 36.5523C73.4094 36.0759 73.9825 35.0031 73.9825 33.3358V32.9328C73.9825 31.6667 73.6727 30.696 73.0548 30.0172C72.437 29.3385 71.5254 29 70.3183 29C69.1113 29 68.2069 29.3313 67.6033 29.994C66.9998 30.6584 66.6989 31.6219 66.6989 32.8881V34.0504H68.9554V32.777C68.9554 32.2111 69.0754 31.8135 69.3136 31.5825C69.5518 31.3533 69.8652 31.2368 70.2521 31.2368C70.6389 31.2368 70.9487 31.3604 71.1798 31.6058ZM75.6373 44.8209H78.0945V38.1193H80.8865V44.8209H83.3884V29.1827H80.8865V35.8843H78.0945V29.1827H75.6373V44.8209ZM91.0069 35.7714H87.6329V31.4159H91.8773V29.1809H85.1757V44.8191H91.8773V42.5859H87.6329V38.0065H91.0069V35.7714ZM99.5961 43.9828C100.214 43.3058 100.524 42.3333 100.524 41.0672V38.9879H98.201V41.2212C98.201 41.7871 98.0864 42.1811 97.8554 42.405C97.6243 42.6288 97.3145 42.7399 96.9277 42.7399C96.539 42.7399 96.231 42.6288 96 42.405C95.769 42.1811 95.6543 41.7871 95.6543 41.2212V32.777C95.6543 32.2111 95.769 31.8135 96 31.5825C96.231 31.3533 96.5408 31.2368 96.9277 31.2368C97.3145 31.2368 97.6243 31.3515 97.8554 31.5825C98.0846 31.8135 98.201 32.2111 98.201 32.777V34.4533H100.524V32.9346C100.524 31.6685 100.214 30.6978 99.5961 30.019C98.9783 29.3403 98.0649 29.0018 96.8596 29.0018C95.6544 29.0018 94.741 29.3421 94.1231 30.019C93.5052 30.6978 93.1954 31.6685 93.1954 32.9346V41.0672C93.1954 42.3333 93.5052 43.3058 94.1231 43.9828C94.741 44.6615 95.6544 45 96.8596 45C98.0649 45 98.9783 44.6615 99.5961 43.9828Z" fill="#1D1D1D" style="fill:#1D1D1D;fill:color(display-p3 0.1137 0.1137 0.1137);fill-opacity:1;"/>
<path d="M51.8881 42.5858C52.2749 42.5858 52.5811 42.482 52.8032 42.2724C53.0271 42.0647 53.1381 41.6779 53.1381 41.1101V39.1222C53.1381 38.5563 53.0271 38.1695 52.8032 37.9599C52.5794 37.7522 52.2749 37.6465 51.8881 37.6465H50.4589V42.5841H51.8881V42.5858Z" fill="#1D1D1D" style="fill:#1D1D1D;fill:color(display-p3 0.1137 0.1137 0.1137);fill-opacity:1;"/>
<path d="M197.431 39.6079V38.9519C194.711 39.2079 193.607 39.6079 193.607 40.5839C193.607 41.3359 194.231 41.7839 195.191 41.7839C196.599 41.7839 197.431 41.0799 197.431 39.6079Z" fill="#1D1D1D" style="fill:#1D1D1D;fill:color(display-p3 0.1137 0.1137 0.1137);fill-opacity:1;"/>
<path d="M167.691 37.1919C167.691 40.0239 169.211 41.5439 171.131 41.5439C173.051 41.5439 174.571 40.0239 174.571 37.1919C174.571 34.3759 173.051 32.8559 171.131 32.8559C169.211 32.8559 167.691 34.3759 167.691 37.1919Z" fill="#1D1D1D" style="fill:#1D1D1D;fill:color(display-p3 0.1137 0.1137 0.1137);fill-opacity:1;"/>
<path d="M293.681 35.6879C292.785 35.6879 291.569 36.2319 291.393 37.8479H295.873C295.825 36.5039 294.801 35.6879 293.681 35.6879Z" fill="#1D1D1D" style="fill:#1D1D1D;fill:color(display-p3 0.1137 0.1137 0.1137);fill-opacity:1;"/>
<path d="M281.863 38.7119C281.863 40.6959 282.919 41.6559 284.135 41.6559C285.351 41.6559 286.407 40.6959 286.407 38.7119C286.407 36.7279 285.351 35.7519 284.135 35.7519C282.919 35.7519 281.863 36.7279 281.863 38.7119Z" fill="#1D1D1D" style="fill:#1D1D1D;fill:color(display-p3 0.1137 0.1137 0.1137);fill-opacity:1;"/>
<path d="M272.482 38.6959C272.482 40.6799 273.458 41.6559 274.706 41.6559C276.05 41.6559 276.834 40.5359 276.834 38.6959C276.834 36.8879 276.05 35.7519 274.706 35.7519C273.458 35.7519 272.482 36.7119 272.482 38.6959Z" fill="#1D1D1D" style="fill:#1D1D1D;fill:color(display-p3 0.1137 0.1137 0.1137);fill-opacity:1;"/>
<path d="M422.086 35.8959H420.598C419.59 35.8959 418.966 36.3759 418.966 37.2719C418.966 38.1839 419.558 38.5199 420.518 38.5199H422.086V35.8959Z" fill="#1D1D1D" style="fill:#1D1D1D;fill:color(display-p3 0.1137 0.1137 0.1137);fill-opacity:1;"/>
<path d="M399.232 38.6959C399.232 40.6799 400.208 41.6559 401.456 41.6559C402.8 41.6559 403.584 40.5359 403.584 38.6959C403.584 36.8879 402.8 35.7519 401.456 35.7519C400.208 35.7519 399.232 36.7119 399.232 38.6959Z" fill="#1D1D1D" style="fill:#1D1D1D;fill:color(display-p3 0.1137 0.1137 0.1137);fill-opacity:1;"/>
<path d="M379.535 38.7119C379.535 40.6959 380.591 41.6559 381.807 41.6559C383.023 41.6559 384.079 40.6959 384.079 38.7119C384.079 36.7279 383.023 35.7519 381.807 35.7519C380.591 35.7519 379.535 36.7279 379.535 38.7119Z" fill="#1D1D1D" style="fill:#1D1D1D;fill:color(display-p3 0.1137 0.1137 0.1137);fill-opacity:1;"/>
<path d="M370.154 38.6959C370.154 40.6799 371.13 41.6559 372.378 41.6559C373.722 41.6559 374.506 40.5359 374.506 38.6959C374.506 36.8879 373.722 35.7519 372.378 35.7519C371.13 35.7519 370.154 36.7119 370.154 38.6959Z" fill="#1D1D1D" style="fill:#1D1D1D;fill:color(display-p3 0.1137 0.1137 0.1137);fill-opacity:1;"/>
<path d="M362.619 35.6879C361.723 35.6879 360.507 36.2319 360.331 37.8479H364.811C364.763 36.5039 363.739 35.6879 362.619 35.6879Z" fill="#1D1D1D" style="fill:#1D1D1D;fill:color(display-p3 0.1137 0.1137 0.1137);fill-opacity:1;"/>
<path d="M318.814 38.7919V41.4959H319.918C321.07 41.4959 321.614 41.1599 321.614 40.0719C321.614 39.0959 321.054 38.7919 319.902 38.7919H318.814Z" fill="#1D1D1D" style="fill:#1D1D1D;fill:color(display-p3 0.1137 0.1137 0.1137);fill-opacity:1;"/>
<path d="M559.736 39.6079V38.9519C557.016 39.2079 555.912 39.6079 555.912 40.5839C555.912 41.3359 556.536 41.7839 557.496 41.7839C558.904 41.7839 559.736 41.0799 559.736 39.6079Z" fill="#1D1D1D" style="fill:#1D1D1D;fill:color(display-p3 0.1137 0.1137 0.1137);fill-opacity:1;"/>
<path d="M503.846 39.6079V38.9519C501.126 39.2079 500.022 39.6079 500.022 40.5839C500.022 41.3359 500.646 41.7839 501.606 41.7839C503.014 41.7839 503.846 41.0799 503.846 39.6079Z" fill="#1D1D1D" style="fill:#1D1D1D;fill:color(display-p3 0.1137 0.1137 0.1137);fill-opacity:1;"/>
<path d="M481.947 33.7519L480.203 38.7279H483.707L481.947 33.7519Z" fill="#1D1D1D" style="fill:#1D1D1D;fill:color(display-p3 0.1137 0.1137 0.1137);fill-opacity:1;"/>
<path d="M449.43 35.8959H447.942C446.934 35.8959 446.31 36.3759 446.31 37.2719C446.31 38.1839 446.902 38.5199 447.862 38.5199H449.43V35.8959Z" fill="#1D1D1D" style="fill:#1D1D1D;fill:color(display-p3 0.1137 0.1137 0.1137);fill-opacity:1;"/>
<path d="M591.014 38.6959C591.014 40.6799 591.99 41.6559 593.238 41.6559C594.582 41.6559 595.366 40.5359 595.366 38.6959C595.366 36.8879 594.582 35.7519 593.238 35.7519C591.99 35.7519 591.014 36.7119 591.014 38.6959Z" fill="#1D1D1D" style="fill:#1D1D1D;fill:color(display-p3 0.1137 0.1137 0.1137);fill-opacity:1;"/>
<path d="M602.65 35.6879C601.754 35.6879 600.538 36.2319 600.362 37.8479H604.842C604.794 36.5039 603.77 35.6879 602.65 35.6879Z" fill="#1D1D1D" style="fill:#1D1D1D;fill:color(display-p3 0.1137 0.1137 0.1137);fill-opacity:1;"/>
<path d="M623.963 41.5119V35.8959H621.275L621.195 37.3519C621.067 39.6399 620.763 40.8559 620.075 41.5119H623.963Z" fill="#1D1D1D" style="fill:#1D1D1D;fill:color(display-p3 0.1137 0.1137 0.1137);fill-opacity:1;"/>
<path d="M630.486 38.7919V41.4959H631.59C632.742 41.4959 633.286 41.1599 633.286 40.0719C633.286 39.0959 632.726 38.7919 631.574 38.7919H630.486Z" fill="#1D1D1D" style="fill:#1D1D1D;fill:color(display-p3 0.1137 0.1137 0.1137);fill-opacity:1;"/>
<path d="M690.748 38.6959C690.748 40.6799 691.724 41.6559 692.972 41.6559C694.316 41.6559 695.1 40.5359 695.1 38.6959C695.1 36.8879 694.316 35.7519 692.972 35.7519C691.724 35.7519 690.748 36.7119 690.748 38.6959Z" fill="#1D1D1D" style="fill:#1D1D1D;fill:color(display-p3 0.1137 0.1137 0.1137);fill-opacity:1;"/>
<path d="M713.924 39.6079V38.9519C711.204 39.2079 710.1 39.6079 710.1 40.5839C710.1 41.3359 710.724 41.7839 711.684 41.7839C713.092 41.7839 713.924 41.0799 713.924 39.6079Z" fill="#1D1D1D" style="fill:#1D1D1D;fill:color(display-p3 0.1137 0.1137 0.1137);fill-opacity:1;"/>
<path d="M769.002 39.6079V38.9519C766.282 39.2079 765.178 39.6079 765.178 40.5839C765.178 41.3359 765.802 41.7839 766.762 41.7839C768.17 41.7839 769.002 41.0799 769.002 39.6079Z" fill="#1D1D1D" style="fill:#1D1D1D;fill:color(display-p3 0.1137 0.1137 0.1137);fill-opacity:1;"/>
<path d="M774.607 38.6959C774.607 40.6799 775.583 41.6559 776.831 41.6559C778.175 41.6559 778.959 40.5359 778.959 38.6959C778.959 36.8879 778.175 35.7519 776.831 35.7519C775.583 35.7519 774.607 36.7119 774.607 38.6959Z" fill="#1D1D1D" style="fill:#1D1D1D;fill:color(display-p3 0.1137 0.1137 0.1137);fill-opacity:1;"/>
<path d="M804.072 35.6879C803.176 35.6879 801.96 36.2319 801.784 37.8479H806.264C806.216 36.5039 805.192 35.6879 804.072 35.6879Z" fill="#1D1D1D" style="fill:#1D1D1D;fill:color(display-p3 0.1137 0.1137 0.1137);fill-opacity:1;"/>
<path d="M811.607 38.6959C811.607 40.6799 812.583 41.6559 813.831 41.6559C815.175 41.6559 815.959 40.5359 815.959 38.6959C815.959 36.8879 815.175 35.7519 813.831 35.7519C812.583 35.7519 811.607 36.7119 811.607 38.6959Z" fill="#1D1D1D" style="fill:#1D1D1D;fill:color(display-p3 0.1137 0.1137 0.1137);fill-opacity:1;"/>
<path d="M821.486 38.7919V41.4959H822.59C823.742 41.4959 824.286 41.1599 824.286 40.0719C824.286 39.0959 823.726 38.7919 822.574 38.7919H821.486Z" fill="#1D1D1D" style="fill:#1D1D1D;fill:color(display-p3 0.1137 0.1137 0.1137);fill-opacity:1;"/>
<path fill-rule="evenodd" clip-rule="evenodd" d="M218.524 33.0857L223.524 38.0857L228.524 33.0857L229.938 34.4999L223.524 40.9141L217.11 34.4999L218.524 33.0857Z" fill="white" style="fill:white;fill-opacity:1;"/>
<path fill-rule="evenodd" clip-rule="evenodd" d="M864.524 38.8334C865.536 38.8334 866.357 38.0126 866.357 37.0001C866.357 35.9876 865.536 35.1667 864.524 35.1667C863.511 35.1667 862.69 35.9875 862.69 37.0001C862.69 38.0127 863.511 38.8334 864.524 38.8334ZM870.357 38.8334C871.369 38.8334 872.19 38.0126 872.19 37.0001C872.19 35.9876 871.369 35.1667 870.357 35.1667C869.344 35.1667 868.524 35.9876 868.524 37.0001C868.524 38.0126 869.344 38.8334 870.357 38.8334ZM858.69 38.8334C859.703 38.8334 860.524 38.0127 860.524 37.0001C860.524 35.9875 859.703 35.1667 858.69 35.1667C857.678 35.1667 856.857 35.9876 856.857 37.0001C856.857 38.0126 857.678 38.8334 858.69 38.8334Z" fill="white" style="fill:white;fill-opacity:1;"/>
<path fill-rule="evenodd" clip-rule="evenodd" d="M30.129 50.125C28.3434 50.125 27.1133 49.1463 27.1133 46.1144V45.4623H29.0973V46.1148C29.0973 47.7267 29.5339 48.1679 30.129 48.1679C30.724 48.1679 31.141 47.7267 31.141 46.9782C31.141 46.0378 31.0021 45.52 29.6131 44.5412C27.9861 43.4092 27.2322 42.2002 27.2322 40.646C27.2322 38.6695 28.3034 37.4799 30.129 37.4799C31.3987 37.4799 33.0854 37.8638 33.0854 41.0872V41.8357H31.1013V41.0872C31.1013 39.8209 30.6848 39.3987 30.129 39.3987C29.5339 39.3987 29.2162 39.8209 29.2162 40.569C29.2162 41.3364 29.3947 41.9696 30.7836 43.006C32.5099 44.2916 33.125 45.3087 33.125 46.9779C33.125 48.6471 32.3311 50.125 30.129 50.125ZM23.363 50.125C21.5774 50.125 20.3473 49.2999 20.3473 46.1144V45.4623H22.3314V46.1148C22.3314 47.7267 22.7679 48.1679 23.363 48.1679C23.9581 48.1679 24.375 47.7267 24.375 46.9782C24.375 46.0378 24.2361 45.52 22.8472 44.5412C21.2201 43.4092 20.4662 42.2002 20.4662 40.646C20.4662 38.6695 21.5375 37.4799 23.363 37.4799C24.6327 37.4799 26.3194 37.8638 26.3194 41.0872V41.8357H24.3354V41.0872C24.3354 39.8209 23.9188 39.3987 23.363 39.3987C22.7679 39.3987 22.4502 39.8209 22.4502 40.569C22.4502 41.3364 22.6287 41.9696 24.0177 43.006C25.744 44.2916 26.359 45.3087 26.359 46.9779C26.359 48.6471 25.5655 50.125 23.363 50.125ZM30.129 36.5201C28.3434 36.5201 27.1133 35.5414 27.1133 32.5096V31.8574H29.0973V32.5099C29.0973 34.1218 29.5339 34.563 30.129 34.563C30.724 34.563 31.141 34.1218 31.141 33.3733C31.141 32.4329 31.0021 31.9151 29.6131 30.9364C27.9861 29.8043 27.2322 28.5953 27.2322 27.0411C27.2322 25.0647 28.3034 23.875 30.129 23.875C31.3987 23.875 33.0854 24.2589 33.0854 27.4823V28.2308H31.1013V27.4823C31.1013 26.216 30.6848 25.7938 30.129 25.7938C29.5339 25.7938 29.2162 26.216 29.2162 26.9641C29.2162 27.7316 29.3947 28.3647 30.7836 29.4011C32.5099 30.6867 33.125 31.7038 33.125 33.373C33.125 35.0422 32.3311 36.5201 30.129 36.5201ZM23.363 36.5201C21.5774 36.5201 20.3473 35.695 20.3473 32.5096V31.8574H22.3314V32.5099C22.3314 34.1218 22.7679 34.563 23.363 34.563C23.9581 34.563 24.375 34.1218 24.375 33.3733C24.375 32.4329 24.2361 31.9151 22.8472 30.9364C21.2201 29.8043 20.4662 28.5953 20.4662 27.0411C20.4662 25.0647 21.5375 23.875 23.363 23.875C24.6327 23.875 26.3194 24.2589 26.3194 27.4823V28.2308H24.3354V27.4823C24.3354 26.216 23.9188 25.7938 23.363 25.7938C22.7679 25.7938 22.4502 26.216 22.4502 26.9641C22.4502 27.7316 22.6287 28.3647 24.0177 29.4011C25.744 30.6867 26.359 31.7038 26.359 33.373C26.359 35.0422 25.5655 36.5201 23.363 36.5201ZM8.85941 49.933H6.87537V37.6715H9.25635C11.8358 37.6715 12.5501 39.0914 12.5501 41.778V43.2746C12.5501 45.9608 11.8358 47.3811 9.25635 47.3811H8.85941V49.933ZM12.9267 36.3285L11.3989 31.2243C12.1332 30.6295 12.5497 29.6507 12.5497 28.4421V27.4827C12.5497 25.2376 11.5181 24.067 9.25598 24.067H6.875V36.3285H8.85902V31.8574H9.11713C9.21636 31.8574 9.35522 31.8574 9.57332 31.8381L10.7638 36.3282L12.9267 36.3285ZM18.1252 49.933H20.1092L17.9067 37.6715H14.653L12.4309 49.933H14.4149L14.8711 47.3811H17.6886L18.1252 49.933ZM16.4781 36.5201C14.0376 36.5201 13.5814 34.7356 13.5814 32.5672V24.067H15.645V32.7402C15.645 34.2561 15.9227 34.6013 16.4781 34.6013C17.0336 34.6013 17.3113 34.2561 17.3113 32.7402V24.067H19.3749V32.5676C19.3749 34.7356 18.9187 36.5201 16.4781 36.5201ZM9.25598 29.9386H8.85902V25.9857H9.25598C10.1488 25.9857 10.5653 26.2737 10.5653 27.6166V28.3074C10.5657 29.6507 10.1491 29.9386 9.25598 29.9386ZM16.2004 39.5906L15.1884 45.4623H17.3709L16.3593 39.5906H16.2004ZM8.85941 45.4623H9.25635C10.1295 45.4623 10.5657 45.0401 10.5657 43.083V41.97C10.5657 40.0128 10.1291 39.5906 9.25635 39.5906H8.85941V45.4623ZM176.667 37.1919C176.667 40.7599 174.539 43.2079 171.131 43.2079C167.723 43.2079 165.595 40.7599 165.595 37.1919C165.595 33.6079 167.723 31.1919 171.131 31.1919C174.539 31.1919 176.667 33.6079 176.667 37.1919ZM189.878 42.9999H187.974V39.3359H184.134V42.9999H182.23V34.3919H184.134V37.8319H187.974V34.3919H189.878V42.9999ZM194.775 43.2079C192.903 43.2079 191.591 42.1999 191.591 40.6319C191.591 38.4719 194.247 37.9599 197.383 37.6239V37.4639C197.383 35.9919 196.551 35.5439 195.591 35.5439C194.631 35.5439 193.911 36.0559 193.863 37.0959H191.991C192.119 35.3519 193.575 34.1359 195.655 34.1359C197.719 34.1359 199.335 35.0799 199.287 37.8319C199.287 38.0069 199.282 38.2896 199.275 38.6167V38.6183C199.266 39.0684 199.255 39.6023 199.255 40.0559C199.255 41.1439 199.335 42.2799 199.511 42.9999H197.767C197.758 42.944 197.748 42.8918 197.739 42.8414L197.739 42.8376C197.689 42.5578 197.648 42.3317 197.607 41.8319C197.047 42.7759 196.055 43.2079 194.775 43.2079ZM204.845 34.1999C206.733 34.1999 208.365 35.4319 208.701 37.3359H206.845C206.669 36.4239 205.885 35.7839 204.845 35.7839C203.645 35.7839 202.589 36.6639 202.589 38.6959C202.589 40.7439 203.677 41.6239 204.797 41.6239C205.741 41.6239 206.653 41.2079 206.909 40.0559H208.765C208.381 42.0719 206.605 43.2079 204.765 43.2079C202.269 43.2079 200.621 41.2719 200.621 38.7119C200.621 36.1519 202.269 34.1999 204.845 34.1999ZM268.227 42.9999H266.195V33.0959H260.947V42.9999H258.915V31.3999H268.227V42.9999ZM270.658 34.3919H272.562V35.5439C273.074 34.6959 273.97 34.1999 275.122 34.1999C277.234 34.1999 278.818 35.9439 278.818 38.6959C278.818 41.4639 277.234 43.2079 275.122 43.2079C273.97 43.2079 273.074 42.7119 272.562 41.8639V45.7999H270.658V34.3919ZM284.135 34.1999C286.231 34.1999 288.375 35.6079 288.375 38.7119C288.375 41.8319 286.231 43.2079 284.135 43.2079C282.039 43.2079 279.895 41.8319 279.895 38.7119C279.895 35.6079 282.039 34.1999 284.135 34.1999ZM297.809 39.2399H291.393C291.521 40.8399 292.641 41.6239 293.729 41.6239C294.737 41.6239 295.505 41.2399 295.841 40.4239H297.713C297.329 41.7999 296.017 43.2079 293.809 43.2079C291.041 43.2079 289.457 41.1119 289.457 38.6319C289.457 36.0399 291.233 34.1999 293.681 34.1999C296.321 34.1999 297.985 36.3599 297.809 39.2399ZM305.121 42.9999L302.289 39.2399H301.393V42.9999H299.473V34.3919H301.393V37.7359H302.433L304.913 34.3919H307.089L303.841 38.5679L307.313 42.9999H305.121ZM315.524 35.8959H312.596V42.9999H310.692V35.8959H307.748V34.3919H315.524V35.8959ZM320.19 42.9999H316.91V34.3919H318.814V37.2879H320.142C322.51 37.2879 323.518 38.1839 323.518 40.0879C323.518 42.2639 322.302 42.9999 320.19 42.9999ZM326.654 42.9999H324.75V34.3919H326.654V42.9999ZM338.645 34.3919H340.549V42.9999H338.645V37.0319L334.549 42.9999H332.645V34.3919H334.549V40.3919L338.645 34.3919ZM353.707 34.3919H356.587V42.9999H354.747V36.1839L352.219 42.9999H350.747L348.219 36.2159V42.9999H346.379V34.3919H349.259L351.515 40.5359L353.707 34.3919ZM366.747 39.2399H360.331C360.459 40.8399 361.579 41.6239 362.667 41.6239C363.675 41.6239 364.443 41.2399 364.779 40.4239H366.651C366.267 41.7999 364.955 43.2079 362.747 43.2079C359.979 43.2079 358.395 41.1119 358.395 38.6319C358.395 36.0399 360.171 34.1999 362.619 34.1999C365.259 34.1999 366.923 36.3599 366.747 39.2399ZM368.33 34.3919H370.234V35.5439C370.746 34.6959 371.642 34.1999 372.794 34.1999C374.906 34.1999 376.49 35.9439 376.49 38.6959C376.49 41.4639 374.906 43.2079 372.794 43.2079C371.642 43.2079 370.746 42.7119 370.234 41.8639V45.7999H368.33V34.3919ZM381.807 34.1999C383.903 34.1999 386.047 35.6079 386.047 38.7119C386.047 41.8319 383.903 43.2079 381.807 43.2079C379.711 43.2079 377.567 41.8319 377.567 38.7119C377.567 35.6079 379.711 34.1999 381.807 34.1999ZM387.691 34.3919H395.179V42.9999H393.275V35.8959H389.595V42.9999H387.691V34.3919ZM397.408 34.3919H399.312V35.5439C399.824 34.6959 400.72 34.1999 401.872 34.1999C403.984 34.1999 405.568 35.9439 405.568 38.6959C405.568 41.4639 403.984 43.2079 401.872 43.2079C400.72 43.2079 399.824 42.7119 399.312 41.8639V45.7999H397.408V34.3919ZM413.207 34.3919H415.111V42.9999H413.207V37.0319L409.111 42.9999H407.207V34.3919H409.111V40.3919L413.207 34.3919ZM420.326 34.3919H423.99V42.9999H422.086V40.0239H420.374L418.614 42.9999H416.454L418.614 39.5279C417.702 39.1599 417.03 38.3599 417.03 37.1279C417.03 35.3839 418.166 34.3919 420.326 34.3919ZM433.165 35.8959H430.237V42.9999H428.333V35.8959H425.389V34.3919H433.165V35.8959ZM440.551 34.3919H442.455V42.9999H440.551V37.0319L436.455 42.9999H434.551V34.3919H436.455V40.3919L440.551 34.3919ZM447.67 34.3919H451.334V42.9999H449.43V40.0239H447.718L445.958 42.9999H443.798L445.958 39.5279C445.046 39.1599 444.374 38.3599 444.374 37.1279C444.374 35.3839 445.51 34.3919 447.67 34.3919ZM476.635 42.9999L480.955 31.3999H483.099L487.451 42.9999H485.227L484.315 40.4239H479.611L478.715 42.9999H476.635ZM496.293 42.9999H494.389V39.3359H490.549V42.9999H488.645V34.3919H490.549V37.8319H494.389V34.3919H496.293V42.9999ZM501.19 43.2079C499.318 43.2079 498.006 42.1999 498.006 40.6319C498.006 38.4719 500.662 37.9599 503.798 37.6239V37.4639C503.798 35.9919 502.966 35.5439 502.006 35.5439C501.046 35.5439 500.326 36.0559 500.278 37.0959H498.406C498.534 35.3519 499.99 34.1359 502.07 34.1359C504.134 34.1359 505.75 35.0799 505.702 37.8319C505.702 38.0072 505.696 38.2905 505.69 38.6183V38.622L505.689 38.628V38.6302V38.6337L505.689 38.6394V38.6409V38.6434V38.6474C505.68 39.0912 505.67 39.612 505.67 40.0559C505.67 41.1439 505.75 42.2799 505.926 42.9999H504.182C504.172 42.9426 504.162 42.8892 504.153 42.8377C504.103 42.5579 504.062 42.3318 504.022 41.8319C503.462 42.7759 502.47 43.2079 501.19 43.2079ZM514.971 42.9999H513.067V35.8959H510.539L510.411 37.7519C510.171 41.3519 509.211 42.9999 507.227 42.9999H506.875V41.4959H507.067C507.771 41.4959 508.427 40.7439 508.603 37.4799L508.763 34.3919H514.971V42.9999ZM523.27 34.3919H525.174V42.9999H523.27V37.0319L519.174 42.9999H517.27V34.3919H519.174V40.3919L523.27 34.3919ZM534.181 35.8959H531.253V42.9999H529.349V35.8959H526.405V34.3919H534.181V35.8959ZM541.567 34.3919H543.471V42.9999H541.567V37.0319L537.471 42.9999H535.567V34.3919H537.471V40.3919L541.567 34.3919ZM551.261 42.9999L548.429 39.2399H547.533V42.9999H545.613V34.3919H547.533V37.7359H548.573L551.053 34.3919H553.229L549.981 38.5679L553.453 42.9999H551.261ZM557.08 43.2079C555.208 43.2079 553.896 42.1999 553.896 40.6319C553.896 38.4719 556.552 37.9599 559.688 37.6239V37.4639C559.688 35.9919 558.856 35.5439 557.896 35.5439C556.936 35.5439 556.216 36.0559 556.168 37.0959H554.296C554.424 35.3519 555.88 34.1359 557.96 34.1359C560.024 34.1359 561.64 35.0799 561.592 37.8319C561.592 38.0072 561.587 38.2905 561.58 38.6183C561.571 39.0684 561.56 39.6023 561.56 40.0559C561.56 41.1439 561.64 42.2799 561.816 42.9999H560.072L560.064 42.9531L560.044 42.8382C559.993 42.5582 559.953 42.3321 559.912 41.8319C559.352 42.7759 558.36 43.2079 557.08 43.2079ZM573.285 34.3919H575.189V42.9999H573.285V37.0319L569.189 42.9999H567.285V34.3919H569.189V40.3919L573.285 34.3919ZM587.884 35.8959H584.956V42.9999H583.052V35.8959H580.108V34.3919H587.884V35.8959ZM589.19 34.3919H591.094V35.5439C591.606 34.6959 592.502 34.1999 593.654 34.1999C595.766 34.1999 597.35 35.9439 597.35 38.6959C597.35 41.4639 595.766 43.2079 593.654 43.2079C592.502 43.2079 591.606 42.7119 591.094 41.8639V45.7999H589.19V34.3919ZM606.778 39.2399H600.362C600.49 40.8399 601.61 41.6239 602.698 41.6239C603.706 41.6239 604.474 41.2399 604.81 40.4239H606.682C606.298 41.7999 604.986 43.2079 602.778 43.2079C600.01 43.2079 598.426 41.1119 598.426 38.6319C598.426 36.0399 600.202 34.1999 602.65 34.1999C605.29 34.1999 606.954 36.3599 606.778 39.2399ZM616.09 42.9999H614.186V39.3359H610.346V42.9999H608.442V34.3919H610.346V37.8319H614.186V34.3919H616.09V42.9999ZM627.147 41.5119V45.0319H625.419V42.9999H619.131V45.0319H617.403V41.5119H617.867C618.827 41.5119 619.323 40.2639 619.467 37.1279L619.595 34.3919H625.867V41.5119H627.147ZM631.862 42.9999H628.582V34.3919H630.486V37.2879H631.814C634.182 37.2879 635.19 38.1839 635.19 40.0879C635.19 42.2639 633.974 42.9999 631.862 42.9999ZM638.326 42.9999H636.422V34.3919H638.326V42.9999ZM671.036 42.9999V37.8479H669.916L666.428 42.9999H664.092L668.172 36.8879L664.284 31.3999H666.572L669.82 36.1519H671.036V31.3999H673.052V36.1519H674.236L677.484 31.3999H679.756L675.916 36.9039L679.996 42.9999H677.676L674.204 37.8479H673.052V42.9999H671.036ZM681.438 45.7999H680.574V44.3439H681.294C682.126 44.3439 682.478 44.2799 682.862 43.1599L682.958 42.9519L679.838 34.3919H681.918L683.87 40.5679L685.822 34.3919H687.774L684.75 42.9839C683.934 45.2079 683.374 45.7999 681.438 45.7999ZM688.924 34.3919H690.828V35.5439C691.34 34.6959 692.236 34.1999 693.388 34.1999C695.5 34.1999 697.084 35.9439 697.084 38.6959C697.084 41.4639 695.5 43.2079 693.388 43.2079C692.236 43.2079 691.34 42.7119 690.828 41.8639V45.7999H688.924V34.3919ZM706.371 42.9999H704.467V39.3359H700.627V42.9999H698.723V34.3919H700.627V37.8319H704.467V34.3919H706.371V42.9999ZM711.268 43.2079C709.396 43.2079 708.084 42.1999 708.084 40.6319C708.084 38.4719 710.74 37.9599 713.876 37.6239V37.4639C713.876 35.9919 713.044 35.5439 712.084 35.5439C711.124 35.5439 710.404 36.0559 710.356 37.0959H708.484C708.612 35.3519 710.068 34.1359 712.148 34.1359C714.212 34.1359 715.828 35.0799 715.78 37.8319C715.78 38.0072 715.774 38.2905 715.767 38.6183C715.758 39.0684 715.748 39.6023 715.748 40.0559C715.748 41.1439 715.828 42.2799 716.004 42.9999H714.26C714.25 42.9428 714.24 42.8896 714.231 42.8382C714.181 42.5582 714.14 42.3321 714.1 41.8319C713.54 42.7759 712.548 43.2079 711.268 43.2079ZM725.049 42.9999H723.145V35.8959H720.617L720.489 37.7519C720.249 41.3519 719.289 42.9999 717.305 42.9999H716.953V41.4959H717.145C717.849 41.4959 718.505 40.7439 718.681 37.4799L718.841 34.3919H725.049V42.9999ZM761.243 42.9999H759.211V33.0959H753.963V42.9999H751.931V31.3999H761.243V42.9999ZM766.346 43.2079C764.474 43.2079 763.162 42.1999 763.162 40.6319C763.162 38.4719 765.818 37.9599 768.954 37.6239V37.4639C768.954 35.9919 768.122 35.5439 767.162 35.5439C766.202 35.5439 765.482 36.0559 765.434 37.0959H763.562C763.69 35.3519 765.146 34.1359 767.226 34.1359C769.29 34.1359 770.906 35.0799 770.858 37.8319C770.858 37.8683 770.858 37.9094 770.857 37.9545L770.856 38.0446C770.855 38.1469 770.853 38.2647 770.85 38.3933L770.846 38.6183C770.837 39.0684 770.826 39.6023 770.826 40.0559C770.826 41.1439 770.906 42.2799 771.082 42.9999H769.338C769.328 42.9428 769.318 42.8896 769.309 42.8382C769.259 42.5582 769.218 42.3321 769.178 41.8319C768.618 42.7759 767.626 43.2079 766.346 43.2079ZM772.783 34.3919H774.687V35.5439C775.199 34.6959 776.095 34.1999 777.247 34.1999C779.359 34.1999 780.943 35.9439 780.943 38.6959C780.943 41.4639 779.359 43.2079 777.247 43.2079C776.095 43.2079 775.199 42.7119 774.687 41.8639V45.7999H772.783V34.3919ZM789.165 35.8959H786.237V42.9999H784.333V35.8959H781.389V34.3919H789.165V35.8959ZM798.199 42.9999H796.295V39.3359H792.455V42.9999H790.551V34.3919H792.455V37.8319H796.295V34.3919H798.199V42.9999ZM808.2 39.2399H801.784C801.912 40.8399 803.032 41.6239 804.12 41.6239C805.128 41.6239 805.896 41.2399 806.232 40.4239H808.104C807.72 41.7999 806.408 43.2079 804.2 43.2079C801.432 43.2079 799.848 41.1119 799.848 38.6319C799.848 36.0399 801.624 34.1999 804.072 34.1999C806.712 34.1999 808.376 36.3599 808.2 39.2399ZM809.783 34.3919H811.687V35.5439C812.199 34.6959 813.095 34.1999 814.247 34.1999C816.359 34.1999 817.943 35.9439 817.943 38.6959C817.943 41.4639 816.359 43.2079 814.247 43.2079C813.095 43.2079 812.199 42.7119 811.687 41.8639V45.7999H809.783V34.3919ZM822.862 42.9999H819.582V34.3919H821.486V37.2879H822.814C825.182 37.2879 826.19 38.1839 826.19 40.0879C826.19 42.2639 824.974 42.9999 822.862 42.9999ZM829.326 42.9999H827.422V34.3919H829.326V42.9999ZM865.357 37.0001C865.357 37.4603 864.984 37.8334 864.524 37.8334C864.063 37.8334 863.69 37.4603 863.69 37.0001C863.69 36.5398 864.063 36.1667 864.524 36.1667C864.984 36.1667 865.357 36.5398 865.357 37.0001ZM871.19 37.0001C871.19 37.4603 870.817 37.8334 870.357 37.8334C869.897 37.8334 869.524 37.4603 869.524 37.0001C869.524 36.5398 869.897 36.1667 870.357 36.1667C870.817 36.1667 871.19 36.5398 871.19 37.0001ZM859.524 37.0001C859.524 37.4603 859.15 37.8334 858.69 37.8334C858.23 37.8334 857.857 37.4603 857.857 37.0001C857.857 36.5398 858.23 36.1667 858.69 36.1667C859.15 36.1667 859.524 36.5398 859.524 37.0001ZM48 29.1827H54.8807V31.4177H50.4571V35.4168H51.8863C53.122 35.4168 54.0497 35.7446 54.6676 36.4C55.2854 37.0555 55.5952 38.0154 55.5952 39.2816V40.9579C55.5952 42.2241 55.2854 43.184 54.6676 43.8395C54.0497 44.495 53.122 44.8227 51.8863 44.8227H48V29.1827ZM59.7752 44.8209H57.25V29.1827H59.4403V39.0792L60.334 35.6389L62.3452 29.1827H65.0477V44.8209H62.8359V33.8068L61.8312 37.6501L59.7752 44.8209ZM71.5254 33.0242C71.5254 32.3239 71.409 31.8511 71.1798 31.6058C70.9487 31.3604 70.6389 31.2368 70.2521 31.2368C69.8652 31.2368 69.5518 31.3533 69.3136 31.5825C69.0754 31.8135 68.9554 32.2111 68.9554 32.777V34.0504H66.6989V32.8881C66.6989 31.6219 66.9998 30.6584 67.6033 29.994C68.2069 29.3313 69.1113 29 70.3183 29C71.5254 29 72.437 29.3385 73.0548 30.0172C73.6727 30.696 73.9825 31.6667 73.9825 32.9328V33.3358C73.9825 35.0031 73.4094 36.0759 72.2615 36.5523C72.8865 36.8209 73.3306 37.2346 73.5903 37.7916C73.85 38.3503 73.9807 39.0309 73.9807 39.835V41.0636C73.9807 42.3297 73.6709 43.3022 73.0531 43.9792C72.4352 44.6579 71.5218 44.9964 70.3165 44.9964C69.1095 44.9964 68.1979 44.6579 67.58 43.9792C66.9622 43.3022 66.6523 42.3297 66.6523 41.0636V39.3425H68.9751V41.2194C68.9751 41.7853 69.0898 42.1847 69.3208 42.4139C69.5518 42.645 69.8599 42.7596 70.2485 42.7596C70.6353 42.7596 70.9452 42.6396 71.1762 42.4014C71.4072 42.1632 71.5218 41.694 71.5218 40.9937V39.7652C71.5218 39.0363 71.3947 38.5223 71.1422 38.2232C70.8878 37.9259 70.4795 37.7755 69.9136 37.7755H69.3101V35.5404H70.0479C70.51 35.5404 70.8699 35.4222 71.1314 35.1822C71.3911 34.944 71.5218 34.5124 71.5218 33.8856V33.0242H71.5254ZM78.0945 44.8209H75.6373V29.1827H78.0945V35.8843H80.8865V29.1827H83.3884V44.8209H80.8865V38.1193H78.0945V44.8209ZM87.6329 35.7714H91.0069V38.0065H87.6329V42.5859H91.8773V44.8191H85.1757V29.1809H91.8773V31.4159H87.6329V35.7714ZM100.524 41.0672C100.524 42.3333 100.214 43.3058 99.5961 43.9828C98.9783 44.6615 98.0649 45 96.8596 45C95.6544 45 94.741 44.6615 94.1231 43.9828C93.5052 43.3058 93.1954 42.3333 93.1954 41.0672V32.9346C93.1954 31.6685 93.5052 30.6978 94.1231 30.019C94.741 29.3421 95.6544 29.0018 96.8596 29.0018C98.0649 29.0018 98.9783 29.3403 99.5961 30.019C100.214 30.6978 100.524 31.6685 100.524 32.9346V34.4533H98.201V32.777C98.201 32.2111 98.0846 31.8135 97.8554 31.5825C97.6243 31.3515 97.3145 31.2368 96.9277 31.2368C96.5408 31.2368 96.231 31.3533 96 31.5825C95.769 31.8135 95.6543 32.2111 95.6543 32.777V41.2212C95.6543 41.7871 95.769 42.1811 96 42.405C96.231 42.6288 96.539 42.7399 96.9277 42.7399C97.3145 42.7399 97.6243 42.6288 97.8554 42.405C98.0864 42.1811 98.201 41.7871 98.201 41.2212V38.9879H100.524V41.0672ZM51.8881 42.5858C52.2749 42.5858 52.5811 42.482 52.8032 42.2724C53.0271 42.0647 53.1381 41.6779 53.1381 41.1101V39.1222C53.1381 38.5563 53.0271 38.1695 52.8032 37.9599C52.5794 37.7522 52.2749 37.6465 51.8881 37.6465H50.4589V42.5841H51.8881V42.5858ZM171.131 41.5439C169.211 41.5439 167.691 40.0239 167.691 37.1919C167.691 34.3759 169.211 32.8559 171.131 32.8559C173.051 32.8559 174.571 34.3759 174.571 37.1919C174.571 40.0239 173.051 41.5439 171.131 41.5439ZM197.431 39.6079V38.9519C194.711 39.2079 193.607 39.6079 193.607 40.5839C193.607 41.3359 194.231 41.7839 195.191 41.7839C196.599 41.7839 197.431 41.0799 197.431 39.6079ZM274.706 41.6559C273.458 41.6559 272.482 40.6799 272.482 38.6959C272.482 36.7119 273.458 35.7519 274.706 35.7519C276.05 35.7519 276.834 36.8879 276.834 38.6959C276.834 40.5359 276.05 41.6559 274.706 41.6559ZM281.863 38.7119C281.863 40.6959 282.919 41.6559 284.135 41.6559C285.351 41.6559 286.407 40.6959 286.407 38.7119C286.407 36.7279 285.351 35.7519 284.135 35.7519C282.919 35.7519 281.863 36.7279 281.863 38.7119ZM291.393 37.8479C291.569 36.2319 292.785 35.6879 293.681 35.6879C294.801 35.6879 295.825 36.5039 295.873 37.8479H291.393ZM318.814 38.7919V41.4959H319.918C321.07 41.4959 321.614 41.1599 321.614 40.0719C321.614 39.0959 321.054 38.7919 319.902 38.7919H318.814ZM360.331 37.8479C360.507 36.2319 361.723 35.6879 362.619 35.6879C363.739 35.6879 364.763 36.5039 364.811 37.8479H360.331ZM370.154 38.6959C370.154 40.6799 371.13 41.6559 372.378 41.6559C373.722 41.6559 374.506 40.5359 374.506 38.6959C374.506 36.8879 373.722 35.7519 372.378 35.7519C371.13 35.7519 370.154 36.7119 370.154 38.6959ZM381.807 41.6559C380.591 41.6559 379.535 40.6959 379.535 38.7119C379.535 36.7279 380.591 35.7519 381.807 35.7519C383.023 35.7519 384.079 36.7279 384.079 38.7119C384.079 40.6959 383.023 41.6559 381.807 41.6559ZM399.232 38.6959C399.232 40.6799 400.208 41.6559 401.456 41.6559C402.8 41.6559 403.584 40.5359 403.584 38.6959C403.584 36.8879 402.8 35.7519 401.456 35.7519C400.208 35.7519 399.232 36.7119 399.232 38.6959ZM420.598 35.8959H422.086V38.5199H420.518C419.558 38.5199 418.966 38.1839 418.966 37.2719C418.966 36.3759 419.59 35.8959 420.598 35.8959ZM449.43 35.8959H447.942C446.934 35.8959 446.31 36.3759 446.31 37.2719C446.31 38.1839 446.902 38.5199 447.862 38.5199H449.43V35.8959ZM480.203 38.7279L481.947 33.7519L483.707 38.7279H480.203ZM503.846 39.6079V38.9519C501.126 39.2079 500.022 39.6079 500.022 40.5839C500.022 41.3359 500.646 41.7839 501.606 41.7839C503.014 41.7839 503.846 41.0799 503.846 39.6079ZM559.736 38.9519V39.6079C559.736 41.0799 558.904 41.7839 557.496 41.7839C556.536 41.7839 555.912 41.3359 555.912 40.5839C555.912 39.6079 557.016 39.2079 559.736 38.9519ZM591.014 38.6959C591.014 40.6799 591.99 41.6559 593.238 41.6559C594.582 41.6559 595.366 40.5359 595.366 38.6959C595.366 36.8879 594.582 35.7519 593.238 35.7519C591.99 35.7519 591.014 36.7119 591.014 38.6959ZM600.362 37.8479C600.538 36.2319 601.754 35.6879 602.65 35.6879C603.77 35.6879 604.794 36.5039 604.842 37.8479H600.362ZM623.963 41.5119V35.8959H621.275L621.195 37.3519C621.067 39.6399 620.763 40.8559 620.075 41.5119H623.963ZM630.486 41.4959V38.7919H631.574C632.726 38.7919 633.286 39.0959 633.286 40.0719C633.286 41.1599 632.742 41.4959 631.59 41.4959H630.486ZM690.748 38.6959C690.748 40.6799 691.724 41.6559 692.972 41.6559C694.316 41.6559 695.1 40.5359 695.1 38.6959C695.1 36.8879 694.316 35.7519 692.972 35.7519C691.724 35.7519 690.748 36.7119 690.748 38.6959ZM713.924 38.9519V39.6079C713.924 41.0799 713.092 41.7839 711.684 41.7839C710.724 41.7839 710.1 41.3359 710.1 40.5839C710.1 39.6079 711.204 39.2079 713.924 38.9519ZM769.002 39.6079V38.9519C766.282 39.2079 765.178 39.6079 765.178 40.5839C765.178 41.3359 765.802 41.7839 766.762 41.7839C768.17 41.7839 769.002 41.0799 769.002 39.6079ZM776.831 41.6559C775.583 41.6559 774.607 40.6799 774.607 38.6959C774.607 36.7119 775.583 35.7519 776.831 35.7519C778.175 35.7519 778.959 36.8879 778.959 38.6959C778.959 40.5359 778.175 41.6559 776.831 41.6559ZM804.072 35.6879C803.176 35.6879 801.96 36.2319 801.784 37.8479H806.264C806.216 36.5039 805.192 35.6879 804.072 35.6879ZM813.831 41.6559C812.583 41.6559 811.607 40.6799 811.607 38.6959C811.607 36.7119 812.583 35.7519 813.831 35.7519C815.175 35.7519 815.959 36.8879 815.959 38.6959C815.959 40.5359 815.175 41.6559 813.831 41.6559ZM821.486 38.7919V41.4959H822.59C823.742 41.4959 824.286 41.1599 824.286 40.0719C824.286 39.0959 823.726 38.7919 822.574 38.7919H821.486Z" fill="white" style="fill:white;fill-opacity:1;"/>
</svg>
