<svg width="1440" height="391" viewBox="0 0 1440 391" fill="none" xmlns="http://www.w3.org/2000/svg">
<rect width="1440" height="391" fill="#F5F5F5" style="fill:#F5F5F5;fill:color(display-p3 0.9608 0.9608 0.9608);fill-opacity:1;"/>
<path d="M0 40C0 17.9086 17.9086 0 40 0H1400C1422.09 0 1440 17.9086 1440 40V391H0V40Z" fill="#1D1D1D" style="fill:#1D1D1D;fill:color(display-p3 0.1137 0.1137 0.1137);fill-opacity:1;"/>
<rect opacity="0.01" x="108" width="1" height="56" fill="white" style="fill:white;fill-opacity:1;"/>
<path d="M116.32 60.8C118.38 60.8 120.1 61.52 121.46 62.94C122.84 64.36 123.52 66.16 123.52 68.34C123.52 70.68 122.84 72.56 121.48 74.02C120.12 75.48 118.4 76.2 116.32 76.2C114.22 76.2 112.48 75.48 111.12 74.04C109.78 72.58 109.1 70.68 109.1 68.34C109.1 66.14 109.78 64.34 111.14 62.92C112.5 61.5 114.22 60.8 116.32 60.8ZM116.32 63.4C113.66 63.4 112.1 65.36 112.1 68.5C112.1 71.72 113.62 73.6 116.32 73.6C118.96 73.6 120.52 71.72 120.52 68.5C120.52 65.36 118.94 63.4 116.32 63.4ZM133.13 71.8V76H130.53V66H133.13V70H136.83V66H139.43V76H136.83V71.8H133.13ZM144.314 69.78L141.934 68.9C142.394 66.84 144.254 65.8 146.654 65.8C149.674 65.8 150.874 66.68 150.874 68.9V73.8H152.574V76H147.994L148.274 74.42V73.96L147.034 75.48C146.314 75.96 145.534 76.2 144.714 76.2C142.954 76.2 141.834 75.2 141.834 73.54C141.834 72.4 142.194 71.7 143.054 71.3C143.494 71.08 143.934 70.92 144.374 70.82C144.834 70.7 145.434 70.54 146.214 70.36C146.994 70.16 147.674 69.96 148.274 69.74V69.32C148.274 68.26 147.774 67.76 146.554 67.76C145.854 67.76 145.354 67.9 145.054 68.2C144.774 68.48 144.534 69 144.314 69.78ZM144.674 73.08C144.674 73.82 145.174 74.32 145.974 74.32C146.394 74.32 146.854 74.14 147.314 73.8C147.774 73.44 148.094 72.94 148.274 72.3V70.52C146.854 70.96 145.894 71.36 145.394 71.7C144.914 72.04 144.674 72.5 144.674 73.08ZM154.173 70.98C154.173 69.48 154.673 68.26 155.693 67.28C156.713 66.3 157.973 65.8 159.453 65.8C160.513 65.8 161.473 66.12 162.313 66.74C163.173 67.36 163.713 68.18 163.953 69.2L161.573 70.08C161.253 68.34 160.493 67.48 159.293 67.48C157.933 67.48 157.073 68.74 157.073 70.98C157.073 73.28 158.033 74.48 159.313 74.48C160.513 74.48 161.173 73.6 161.573 71.68L163.953 72.56C163.753 73.64 163.233 74.52 162.373 75.2C161.513 75.86 160.553 76.2 159.453 76.2C157.973 76.2 156.713 75.72 155.693 74.74C154.673 73.76 154.173 72.5 154.173 70.98Z" fill="white" style="fill:white;fill-opacity:1;"/>
<rect opacity="0.01" x="108" y="80" width="1" height="16" fill="white" style="fill:white;fill-opacity:1;"/>
<path d="M118.672 113H116.64V103.096H111.392V113H109.36V101.4H118.672V113ZM126.431 109.608V108.952C123.711 109.208 122.607 109.608 122.607 110.584C122.607 111.336 123.231 111.784 124.191 111.784C125.599 111.784 126.431 111.08 126.431 109.608ZM123.775 113.208C121.903 113.208 120.591 112.2 120.591 110.632C120.591 108.472 123.247 107.96 126.383 107.624V107.464C126.383 105.992 125.551 105.544 124.591 105.544C123.631 105.544 122.911 106.056 122.863 107.096H120.991C121.119 105.352 122.575 104.136 124.655 104.136C126.719 104.136 128.335 105.08 128.287 107.832C128.287 108.248 128.255 109.272 128.255 110.056C128.255 111.144 128.335 112.28 128.511 113H126.767C126.703 112.632 126.655 112.424 126.607 111.832C126.047 112.776 125.055 113.208 123.775 113.208ZM132.037 108.696C132.037 110.68 133.013 111.656 134.261 111.656C135.605 111.656 136.389 110.536 136.389 108.696C136.389 106.888 135.605 105.752 134.261 105.752C133.013 105.752 132.037 106.712 132.037 108.696ZM130.213 104.392H132.117V105.544C132.629 104.696 133.525 104.2 134.677 104.2C136.789 104.2 138.373 105.944 138.373 108.696C138.373 111.464 136.789 113.208 134.677 113.208C133.525 113.208 132.629 112.712 132.117 111.864V115.8H130.213V104.392ZM146.594 105.896H143.666V113H141.762V105.896H138.818V104.392H146.594V105.896ZM155.628 113H153.724V109.336H149.884V113H147.98V104.392H149.884V107.832H153.724V104.392H155.628V113ZM165.629 109.24H159.213C159.341 110.84 160.461 111.624 161.549 111.624C162.557 111.624 163.325 111.24 163.661 110.424H165.533C165.149 111.8 163.837 113.208 161.629 113.208C158.861 113.208 157.277 111.112 157.277 108.632C157.277 106.04 159.053 104.2 161.501 104.2C164.141 104.2 165.805 106.36 165.629 109.24ZM161.501 105.688C160.605 105.688 159.389 106.232 159.213 107.848H163.693C163.645 106.504 162.621 105.688 161.501 105.688ZM169.037 108.696C169.037 110.68 170.013 111.656 171.261 111.656C172.605 111.656 173.389 110.536 173.389 108.696C173.389 106.888 172.605 105.752 171.261 105.752C170.013 105.752 169.037 106.712 169.037 108.696ZM167.213 104.392H169.117V105.544C169.629 104.696 170.525 104.2 171.677 104.2C173.789 104.2 175.373 105.944 175.373 108.696C175.373 111.464 173.789 113.208 171.677 113.208C170.525 113.208 169.629 112.712 169.117 111.864V115.8H167.213V104.392ZM180.291 113H177.011V104.392H178.915V107.288H180.243C182.611 107.288 183.619 108.184 183.619 110.088C183.619 112.264 182.403 113 180.291 113ZM178.915 108.792V111.496H180.019C181.171 111.496 181.715 111.16 181.715 110.072C181.715 109.096 181.155 108.792 180.003 108.792H178.915ZM186.755 113H184.851V104.392H186.755V113Z" fill="#747474" style="fill:#747474;fill:color(display-p3 0.4542 0.4542 0.4542);fill-opacity:1;"/>
<rect opacity="0.01" x="108" y="118" width="1" height="8" fill="white" style="fill:white;fill-opacity:1;"/>
<path d="M110.816 137.192C110.816 140.024 112.336 141.544 114.256 141.544C116.176 141.544 117.696 140.024 117.696 137.192C117.696 134.376 116.176 132.856 114.256 132.856C112.336 132.856 110.816 134.376 110.816 137.192ZM119.792 137.192C119.792 140.76 117.664 143.208 114.256 143.208C110.848 143.208 108.72 140.76 108.72 137.192C108.72 133.608 110.848 131.192 114.256 131.192C117.664 131.192 119.792 133.608 119.792 137.192ZM125.732 134.904C127.732 134.904 129.476 136.28 129.476 138.984C129.476 141.752 127.54 143.208 125.38 143.208C123.108 143.208 121.22 141.592 121.22 138.28V137.512C121.268 134.392 122.724 132.136 125.78 131.672L128.788 131.208V132.872L125.876 133.352C124.324 133.608 123.076 134.36 122.772 136.488C123.396 135.4 124.516 134.904 125.732 134.904ZM125.38 141.672C126.644 141.672 127.508 140.728 127.508 138.984C127.508 137.272 126.548 136.408 125.396 136.408C124.196 136.408 123.14 137.256 123.14 138.984C123.14 140.664 124.084 141.672 125.38 141.672ZM132.802 138.696C132.802 140.68 133.778 141.656 135.026 141.656C136.37 141.656 137.154 140.536 137.154 138.696C137.154 136.888 136.37 135.752 135.026 135.752C133.778 135.752 132.802 136.712 132.802 138.696ZM130.978 134.392H132.882V135.544C133.394 134.696 134.29 134.2 135.442 134.2C137.554 134.2 139.138 135.944 139.138 138.696C139.138 141.464 137.554 143.208 135.442 143.208C134.29 143.208 133.394 142.712 132.882 141.864V145.8H130.978V134.392ZM145.947 139.608V138.952C143.227 139.208 142.123 139.608 142.123 140.584C142.123 141.336 142.747 141.784 143.707 141.784C145.115 141.784 145.947 141.08 145.947 139.608ZM143.291 143.208C141.419 143.208 140.107 142.2 140.107 140.632C140.107 138.472 142.763 137.96 145.899 137.624V137.464C145.899 135.992 145.067 135.544 144.107 135.544C143.147 135.544 142.427 136.056 142.379 137.096H140.507C140.635 135.352 142.091 134.136 144.171 134.136C146.235 134.136 147.851 135.08 147.803 137.832C147.803 138.248 147.771 139.272 147.771 140.056C147.771 141.144 147.851 142.28 148.027 143H146.283C146.219 142.632 146.171 142.424 146.123 141.832C145.563 142.776 144.571 143.208 143.291 143.208ZM156.547 135.896H153.619V143H151.715V135.896H148.771V134.392H156.547V135.896ZM165.581 143H163.677V139.336H159.837V143H157.933V134.392H159.837V137.832H163.677V134.392H165.581V143ZM173.134 139.608V138.952C170.414 139.208 169.31 139.608 169.31 140.584C169.31 141.336 169.934 141.784 170.894 141.784C172.302 141.784 173.134 141.08 173.134 139.608ZM170.478 143.208C168.606 143.208 167.294 142.2 167.294 140.632C167.294 138.472 169.95 137.96 173.086 137.624V137.464C173.086 135.992 172.254 135.544 171.294 135.544C170.334 135.544 169.614 136.056 169.566 137.096H167.694C167.822 135.352 169.278 134.136 171.358 134.136C173.422 134.136 175.038 135.08 174.99 137.832C174.99 138.248 174.958 139.272 174.958 140.056C174.958 141.144 175.038 142.28 175.214 143H173.47C173.406 142.632 173.358 142.424 173.31 141.832C172.75 142.776 171.758 143.208 170.478 143.208ZM183.732 134.392V143H181.828V140.024H180.116L178.356 143H176.196L178.356 139.528C177.444 139.16 176.772 138.36 176.772 137.128C176.772 135.384 177.908 134.392 180.068 134.392H183.732ZM181.828 135.896H180.34C179.332 135.896 178.708 136.376 178.708 137.272C178.708 138.184 179.3 138.52 180.26 138.52H181.828V135.896ZM193.282 134.2C195.17 134.2 196.802 135.432 197.138 137.336H195.282C195.106 136.424 194.322 135.784 193.282 135.784C192.082 135.784 191.026 136.664 191.026 138.696C191.026 140.744 192.114 141.624 193.234 141.624C194.178 141.624 195.09 141.208 195.346 140.056H197.202C196.818 142.072 195.042 143.208 193.202 143.208C190.706 143.208 189.058 141.272 189.058 138.712C189.058 136.152 190.706 134.2 193.282 134.2ZM198.761 134.392H202.809C204.601 134.392 206.041 134.84 206.041 136.616C206.041 137.496 205.657 138.104 204.905 138.44C205.753 138.696 206.393 139.288 206.393 140.424C206.393 142.264 204.953 143 203.017 143H198.761V134.392ZM200.665 137.912H202.665C203.609 137.912 204.153 137.64 204.153 136.872C204.153 136.12 203.593 135.88 202.649 135.88H200.665V137.912ZM200.665 139.288V141.512H202.793C203.929 141.512 204.489 141.128 204.489 140.36C204.489 139.544 203.929 139.288 202.777 139.288H200.665ZM214.857 134.392V143H212.953V140.024H211.241L209.481 143H207.321L209.481 139.528C208.569 139.16 207.897 138.36 207.897 137.128C207.897 135.384 209.033 134.392 211.193 134.392H214.857ZM212.953 135.896H211.465C210.457 135.896 209.833 136.376 209.833 137.272C209.833 138.184 210.425 138.52 211.385 138.52H212.953V135.896ZM222.48 138.456C223.424 138.728 224 139.32 224 140.472C224 142.376 222.336 143.208 220.176 143.208C218.288 143.208 216.608 142.392 216.304 140.2H218.128C218.304 141.176 219.024 141.8 220.24 141.8C221.456 141.8 222.096 141.32 222.096 140.568C222.096 139.672 221.488 139.336 220.4 139.336H218.992V137.848H220.304C221.248 137.848 221.84 137.528 221.84 136.776C221.84 135.992 221.376 135.592 220.304 135.592C219.232 135.592 218.368 136.104 218.224 137.176H216.4C216.704 135.144 218.432 134.168 220.336 134.168C222.208 134.168 223.728 134.92 223.728 136.648C223.728 137.496 223.312 138.088 222.48 138.456ZM227.54 137.288H229.316C231.684 137.288 232.676 138.184 232.676 140.088C232.676 142.264 231.492 143 229.348 143H225.636V134.392H227.54V137.288ZM227.54 141.496H229.092C230.228 141.496 230.788 141.112 230.788 140.072C230.788 139.112 230.228 138.792 229.076 138.792H227.54V141.496Z" fill="#747474" style="fill:#747474;fill:color(display-p3 0.4542 0.4542 0.4542);fill-opacity:1;"/>
<rect opacity="0.01" x="108" y="148" width="1" height="8" fill="white" style="fill:white;fill-opacity:1;"/>
<path d="M109.168 173V161.4H117.264V163.096H111.2V166.2H116.912V167.88H111.2V173H109.168ZM116.484 173L120.804 161.4H122.948L127.3 173H125.076L124.164 170.424H119.46L118.564 173H116.484ZM121.796 163.752L120.052 168.728H123.556L121.796 163.752ZM138.432 167.192C138.432 169.128 137.824 170.712 136.688 171.784L138.064 173.416L136.816 174.456L135.344 172.712C134.624 173.048 133.808 173.208 132.896 173.208C129.488 173.208 127.36 170.76 127.36 167.192C127.36 163.608 129.488 161.192 132.896 161.192C136.304 161.192 138.432 163.608 138.432 167.192ZM129.456 167.192C129.456 170.024 130.976 171.544 132.896 171.544C133.36 171.544 133.792 171.464 134.16 171.288L133.216 170.152L134.448 169.112L135.44 170.296C136 169.544 136.336 168.536 136.336 167.192C136.336 164.376 134.816 162.856 132.896 162.856C130.976 162.856 129.456 164.376 129.456 167.192Z" fill="#747474" style="fill:#747474;fill:color(display-p3 0.4542 0.4542 0.4542);fill-opacity:1;"/>
<path d="M438.933 76H436.133V63.3H429.533V76H426.733V61H438.933V76ZM447.633 76.2C445.773 76.2 444.633 75.18 444.233 73.14V81H441.633V66H444.233V68.9C444.633 66.84 445.773 65.8 447.633 65.8C448.753 65.8 449.713 66.26 450.513 67.16C451.313 68.06 451.713 69.36 451.713 71.06C451.713 72.72 451.313 73.98 450.513 74.88C449.713 75.76 448.753 76.2 447.633 76.2ZM448.833 71.06C448.833 68.88 447.873 67.62 446.493 67.62C445.133 67.62 444.313 68.84 444.313 71.06C444.313 73.2 445.153 74.42 446.493 74.42C447.853 74.42 448.833 73.16 448.833 71.06ZM458.756 65.8C460.216 65.8 461.436 66.3 462.416 67.28C463.396 68.26 463.896 69.5 463.896 71C463.896 72.5 463.396 73.76 462.416 74.74C461.436 75.72 460.216 76.2 458.756 76.2C457.316 76.2 456.096 75.72 455.096 74.74C454.116 73.76 453.616 72.5 453.616 71C453.616 69.5 454.116 68.26 455.096 67.28C456.096 66.3 457.316 65.8 458.756 65.8ZM458.776 67.48C457.276 67.48 456.516 68.66 456.516 71C456.516 73.22 457.356 74.48 458.776 74.48C460.196 74.48 460.996 73.22 460.996 71C460.996 68.66 460.256 67.48 458.776 67.48ZM472.927 72.08H475.567C475.527 73.08 475.087 74.02 474.227 74.9C473.367 75.76 472.227 76.2 470.807 76.2C469.167 76.2 467.907 75.72 467.007 74.76C466.127 73.8 465.687 72.58 465.687 71.08C465.687 69.5 466.167 68.22 467.107 67.26C468.047 66.28 469.247 65.8 470.707 65.8C473.827 65.8 475.487 67.76 475.567 71.02H468.587V71.12C468.587 73.18 469.367 74.36 470.827 74.36C472.047 74.36 472.747 73.6 472.927 72.08ZM470.727 67.64C469.567 67.64 468.887 68.42 468.667 69.96H472.727C472.727 68.7 472.007 67.64 470.727 67.64ZM487.686 76H484.486L480.366 71.38V76H477.766V66H480.366V70.3L484.186 66H487.286L482.966 70.56L487.686 76ZM494.487 67.8V76H491.887V67.8H488.487V66H497.887V67.8H494.487ZM512.083 66V76H509.483V66H512.083ZM508.003 72.58C508.003 74.86 506.643 76 503.903 76H499.583V66H502.183V69.44H504.263C505.323 69.44 506.223 69.7 506.923 70.24C507.643 70.78 508.003 71.56 508.003 72.58ZM505.383 72.6C505.383 71.7 504.783 71.24 503.583 71.24H502.183V74.2H503.563C504.843 74.2 505.383 73.7 505.383 72.6ZM433.333 93.26L429.233 100H426.633V90H429.233V96.74L433.333 90H435.933V100H433.333V93.26ZM445.537 100H443.137V90H446.857L449.657 96.4L452.457 90H455.997V100H453.497V92.68L450.157 100H448.857L445.537 92.54V100ZM465.446 96.08H468.086C468.046 97.08 467.606 98.02 466.746 98.9C465.886 99.76 464.746 100.2 463.326 100.2C461.686 100.2 460.426 99.72 459.526 98.76C458.646 97.8 458.206 96.58 458.206 95.08C458.206 93.5 458.686 92.22 459.626 91.26C460.566 90.28 461.766 89.8 463.226 89.8C466.346 89.8 468.006 91.76 468.086 95.02H461.106V95.12C461.106 97.18 461.886 98.36 463.346 98.36C464.566 98.36 465.266 97.6 465.446 96.08ZM463.246 91.64C462.086 91.64 461.406 92.42 461.186 93.96H465.246C465.246 92.7 464.526 91.64 463.246 91.64ZM476.286 100.2C474.426 100.2 473.286 99.18 472.886 97.14V105H470.286V90H472.886V92.9C473.286 90.84 474.426 89.8 476.286 89.8C477.406 89.8 478.366 90.26 479.166 91.16C479.966 92.06 480.366 93.36 480.366 95.06C480.366 96.72 479.966 97.98 479.166 98.88C478.366 99.76 477.406 100.2 476.286 100.2ZM477.486 95.06C477.486 92.88 476.526 91.62 475.146 91.62C473.786 91.62 472.966 92.84 472.966 95.06C472.966 97.2 473.806 98.42 475.146 98.42C476.506 98.42 477.486 97.16 477.486 95.06ZM487.409 89.8C488.869 89.8 490.089 90.3 491.069 91.28C492.049 92.26 492.549 93.5 492.549 95C492.549 96.5 492.049 97.76 491.069 98.74C490.089 99.72 488.869 100.2 487.409 100.2C485.969 100.2 484.749 99.72 483.749 98.74C482.769 97.76 482.269 96.5 482.269 95C482.269 93.5 482.769 92.26 483.749 91.28C484.749 90.3 485.969 89.8 487.409 89.8ZM487.429 91.48C485.929 91.48 485.169 92.66 485.169 95C485.169 97.22 486.009 98.48 487.429 98.48C488.849 98.48 489.649 97.22 489.649 95C489.649 92.66 488.909 91.48 487.429 91.48ZM497.339 91.8V100H494.739V90H503.539V100H500.939V91.8H497.339ZM512.145 100.2C510.285 100.2 509.145 99.18 508.745 97.14V105H506.145V90H508.745V92.9C509.145 90.84 510.285 89.8 512.145 89.8C513.265 89.8 514.225 90.26 515.025 91.16C515.825 92.06 516.225 93.36 516.225 95.06C516.225 96.72 515.825 97.98 515.025 98.88C514.225 99.76 513.265 100.2 512.145 100.2ZM513.345 95.06C513.345 92.88 512.385 91.62 511.005 91.62C509.645 91.62 508.825 92.84 508.825 95.06C508.825 97.2 509.665 98.42 511.005 98.42C512.365 98.42 513.345 97.16 513.345 95.06ZM525.228 93.26L521.128 100H518.528V90H521.128V96.74L525.228 90H527.828V100H525.228V93.26ZM532.783 100H529.723V99.68C529.943 99.54 530.203 98.92 530.543 97.86L530.663 97.48C530.983 96.46 531.663 95.8 532.723 95.52C530.963 95.3 530.083 94.48 530.083 93.02C530.083 91.02 531.383 90 534.443 90H538.763V100H536.163V96.18H535.143C534.043 96.18 533.603 96.5 533.423 97.22L533.283 97.72C533.063 98.46 532.903 99.22 532.783 100ZM534.243 94.58H536.163V91.6H534.383C533.183 91.6 532.703 92.02 532.703 93.04C532.703 94.06 533.223 94.58 534.243 94.58ZM546.46 91.8V100H543.86V91.8H540.46V90H549.86V91.8H546.46ZM558.255 93.26L554.155 100H551.555V90H554.155V96.74L558.255 90H560.855V100H558.255V93.26ZM565.81 100H562.75V99.68C562.97 99.54 563.23 98.92 563.57 97.86L563.69 97.48C564.01 96.46 564.69 95.8 565.75 95.52C563.99 95.3 563.11 94.48 563.11 93.02C563.11 91.02 564.41 90 567.47 90H571.79V100H569.19V96.18H568.17C567.07 96.18 566.63 96.5 566.45 97.22L566.31 97.72C566.09 98.46 565.93 99.22 565.81 100ZM567.27 94.58H569.19V91.6H567.41C566.21 91.6 565.73 92.02 565.73 93.04C565.73 94.06 566.25 94.58 567.27 94.58Z" fill="white" style="fill:white;fill-opacity:1;"/>
<g clip-path="url(#clip0_134_4317)">
<rect opacity="0.01" x="425.333" y="104" width="1" height="16" fill="white" style="fill:white;fill-opacity:1;"/>
</g>
<path d="M429.353 136.5L428.113 140H425.333L430.893 125H433.933L439.693 140H436.653L435.333 136.5H429.353ZM432.273 128.34L430.213 134.1H434.433L432.273 128.34ZM443.472 135.8V140H440.872V130H443.472V134H447.172V130H449.772V140H447.172V135.8H443.472ZM454.656 133.78L452.276 132.9C452.736 130.84 454.596 129.8 456.996 129.8C460.016 129.8 461.216 130.68 461.216 132.9V137.8H462.916V140H458.336L458.616 138.42V137.96L457.376 139.48C456.656 139.96 455.876 140.2 455.056 140.2C453.296 140.2 452.176 139.2 452.176 137.54C452.176 136.4 452.536 135.7 453.396 135.3C453.836 135.08 454.276 134.92 454.716 134.82C455.176 134.7 455.776 134.54 456.556 134.36C457.336 134.16 458.016 133.96 458.616 133.74V133.32C458.616 132.26 458.116 131.76 456.896 131.76C456.196 131.76 455.696 131.9 455.396 132.2C455.116 132.48 454.876 133 454.656 133.78ZM455.016 137.08C455.016 137.82 455.516 138.32 456.316 138.32C456.736 138.32 457.196 138.14 457.656 137.8C458.116 137.44 458.436 136.94 458.616 136.3V134.52C457.196 134.96 456.236 135.36 455.736 135.7C455.256 136.04 455.016 136.5 455.016 137.08ZM465.835 135.92L466.155 130H473.755V140H471.155V131.8H468.335L468.135 135.94C468.055 137.52 467.755 138.58 467.235 139.16C466.735 139.72 465.775 140 464.395 140H464.215V137.6H464.395C464.935 137.6 465.315 137.5 465.495 137.28C465.675 137.06 465.795 136.62 465.835 135.92ZM483.06 133.26L478.96 140H476.36V130H478.96V136.74L483.06 130H485.66V140H483.06V133.26ZM493.355 131.8V140H490.755V131.8H487.355V130H496.755V131.8H493.355ZM505.15 133.26L501.05 140H498.45V130H501.05V136.74L505.15 130H507.75V140H505.15V133.26ZM520.264 140H517.064L512.944 135.38V140H510.344V130H512.944V134.3L516.764 130H519.864L515.544 134.56L520.264 140ZM524.246 133.78L521.866 132.9C522.326 130.84 524.186 129.8 526.586 129.8C529.606 129.8 530.806 130.68 530.806 132.9V137.8H532.506V140H527.926L528.206 138.42V137.96L526.966 139.48C526.246 139.96 525.466 140.2 524.646 140.2C522.886 140.2 521.766 139.2 521.766 137.54C521.766 136.4 522.126 135.7 522.986 135.3C523.426 135.08 523.866 134.92 524.306 134.82C524.766 134.7 525.366 134.54 526.146 134.36C526.926 134.16 527.606 133.96 528.206 133.74V133.32C528.206 132.26 527.706 131.76 526.486 131.76C525.786 131.76 525.286 131.9 524.986 132.2C524.706 132.48 524.466 133 524.246 133.78ZM524.606 137.08C524.606 137.82 525.106 138.32 525.906 138.32C526.326 138.32 526.786 138.14 527.246 137.8C527.706 137.44 528.026 136.94 528.206 136.3V134.52C526.786 134.96 525.826 135.36 525.326 135.7C524.846 136.04 524.606 136.5 524.606 137.08ZM433.333 157.26L429.233 164H426.633V154H429.233V160.74L433.333 154H435.933V164H433.333V157.26ZM448.237 155.8V164H445.637V155.8H442.237V154H451.637V155.8H448.237ZM459.333 164.2C457.473 164.2 456.333 163.18 455.933 161.14V169H453.333V154H455.933V156.9C456.333 154.84 457.473 153.8 459.333 153.8C460.453 153.8 461.413 154.26 462.213 155.16C463.013 156.06 463.413 157.36 463.413 159.06C463.413 160.72 463.013 161.98 462.213 162.88C461.413 163.76 460.453 164.2 459.333 164.2ZM460.533 159.06C460.533 156.88 459.573 155.62 458.193 155.62C456.833 155.62 456.013 156.84 456.013 159.06C456.013 161.2 456.853 162.42 458.193 162.42C459.553 162.42 460.533 161.16 460.533 159.06ZM472.556 160.08H475.196C475.156 161.08 474.716 162.02 473.856 162.9C472.996 163.76 471.856 164.2 470.436 164.2C468.796 164.2 467.536 163.72 466.636 162.76C465.756 161.8 465.316 160.58 465.316 159.08C465.316 157.5 465.796 156.22 466.736 155.26C467.676 154.28 468.876 153.8 470.336 153.8C473.456 153.8 475.116 155.76 475.196 159.02H468.216V159.12C468.216 161.18 468.996 162.36 470.456 162.36C471.676 162.36 472.376 161.6 472.556 160.08ZM470.356 155.64C469.196 155.64 468.516 156.42 468.296 157.96H472.356C472.356 156.7 471.636 155.64 470.356 155.64ZM479.995 159.8V164H477.395V154H479.995V158H483.695V154H486.295V164H483.695V159.8H479.995ZM491.919 155.8L491.759 159C491.699 160.68 491.559 161.74 491.339 162.2H494.899V155.8H491.919ZM489.539 158.94L489.799 154H497.499V162.2H499.199V167H496.999V164H489.999V167H487.799V162.2H488.999C489.279 161.66 489.459 160.56 489.539 158.94ZM513.391 154V164H510.791V154H513.391ZM509.311 160.58C509.311 162.86 507.951 164 505.211 164H500.891V154H503.491V157.44H505.571C506.631 157.44 507.531 157.7 508.231 158.24C508.951 158.78 509.311 159.56 509.311 160.58ZM506.691 160.6C506.691 159.7 506.091 159.24 504.891 159.24H503.491V162.2H504.871C506.151 162.2 506.691 161.7 506.691 160.6Z" fill="white" style="fill:white;fill-opacity:1;"/>
<path d="M749.851 73V67.848H748.731L745.243 73H742.907L746.987 66.888L743.099 61.4H745.387L748.635 66.152H749.851V61.4H751.867V66.152H753.051L756.299 61.4H758.571L754.731 66.904L758.811 73H756.491L753.019 67.848H751.867V73H749.851ZM760.253 75.8H759.389V74.344H760.109C760.941 74.344 761.293 74.28 761.677 73.16L761.773 72.952L758.653 64.392H760.733L762.685 70.568L764.637 64.392H766.589L763.565 72.984C762.749 75.208 762.189 75.8 760.253 75.8ZM769.563 68.696C769.563 70.68 770.539 71.656 771.787 71.656C773.131 71.656 773.915 70.536 773.915 68.696C773.915 66.888 773.131 65.752 771.787 65.752C770.539 65.752 769.563 66.712 769.563 68.696ZM767.739 64.392H769.643V65.544C770.155 64.696 771.051 64.2 772.203 64.2C774.315 64.2 775.899 65.944 775.899 68.696C775.899 71.464 774.315 73.208 772.203 73.208C771.051 73.208 770.155 72.712 769.643 71.864V75.8H767.739V64.392ZM785.185 73H783.281V69.336H779.441V73H777.537V64.392H779.441V67.832H783.281V64.392H785.185V73ZM792.738 69.608V68.952C790.018 69.208 788.914 69.608 788.914 70.584C788.914 71.336 789.538 71.784 790.498 71.784C791.906 71.784 792.738 71.08 792.738 69.608ZM790.082 73.208C788.21 73.208 786.898 72.2 786.898 70.632C786.898 68.472 789.554 67.96 792.69 67.624V67.464C792.69 65.992 791.858 65.544 790.898 65.544C789.938 65.544 789.218 66.056 789.17 67.096H787.298C787.426 65.352 788.882 64.136 790.962 64.136C793.026 64.136 794.642 65.08 794.594 67.832C794.594 68.248 794.562 69.272 794.562 70.056C794.562 71.144 794.642 72.28 794.818 73H793.074C793.01 72.632 792.962 72.424 792.914 71.832C792.354 72.776 791.362 73.208 790.082 73.208ZM803.864 73H801.96V65.896H799.432L799.304 67.752C799.064 71.352 798.104 73 796.12 73H795.768V71.496H795.96C796.664 71.496 797.32 70.744 797.496 67.48L797.656 64.392H803.864V73Z" fill="#747474" style="fill:#747474;fill:color(display-p3 0.4542 0.4542 0.4542);fill-opacity:1;"/>
<g clip-path="url(#clip1_134_4317)">
<rect opacity="0.01" x="742.667" y="78" width="1" height="16" fill="white" style="fill:white;fill-opacity:1;"/>
</g>
<path d="M751.019 111H748.955L746.011 101.608V111H744.027V99.4H747.179L749.995 108.648L752.795 99.4H755.947V111H753.963V101.608L751.019 111ZM766.155 107.24H759.739C759.867 108.84 760.987 109.624 762.075 109.624C763.083 109.624 763.851 109.24 764.187 108.424H766.059C765.675 109.8 764.363 111.208 762.155 111.208C759.387 111.208 757.803 109.112 757.803 106.632C757.803 104.04 759.579 102.2 762.027 102.2C764.667 102.2 766.331 104.36 766.155 107.24ZM762.027 103.688C761.131 103.688 759.915 104.232 759.739 105.848H764.219C764.171 104.504 763.147 103.688 762.027 103.688ZM769.563 106.696C769.563 108.68 770.539 109.656 771.787 109.656C773.131 109.656 773.915 108.536 773.915 106.696C773.915 104.888 773.131 103.752 771.787 103.752C770.539 103.752 769.563 104.712 769.563 106.696ZM767.739 102.392H769.643V103.544C770.155 102.696 771.051 102.2 772.203 102.2C774.315 102.2 775.899 103.944 775.899 106.696C775.899 109.464 774.315 111.208 772.203 111.208C771.051 111.208 770.155 110.712 769.643 109.864V113.8H767.739V102.392ZM780.817 111H777.537V102.392H779.441V105.288H780.769C783.137 105.288 784.145 106.184 784.145 108.088C784.145 110.264 782.929 111 780.817 111ZM779.441 106.792V109.496H780.545C781.697 109.496 782.241 109.16 782.241 108.072C782.241 107.096 781.681 106.792 780.529 106.792H779.441ZM787.281 111H785.377V102.392H787.281V111ZM800.76 102.392V111H798.856V103.896H795.176V111H793.272V102.392H800.76ZM804.381 106.712C804.381 108.696 805.437 109.656 806.653 109.656C807.869 109.656 808.925 108.696 808.925 106.712C808.925 104.728 807.869 103.752 806.653 103.752C805.437 103.752 804.381 104.728 804.381 106.712ZM806.653 102.2C808.749 102.2 810.893 103.608 810.893 106.712C810.893 109.832 808.749 111.208 806.653 111.208C804.557 111.208 802.413 109.832 802.413 106.712C802.413 103.608 804.557 102.2 806.653 102.2ZM821.102 109.512V113.032H819.374V111H813.086V113.032H811.358V109.512H811.822C812.782 109.512 813.278 108.264 813.422 105.128L813.55 102.392H819.822V109.512H821.102ZM817.918 109.512V103.896H815.23L815.15 105.352C815.022 107.64 814.718 108.856 814.03 109.512H817.918ZM831.289 109.512V113.032H829.561V111H823.273V113.032H821.545V109.512H822.009C822.969 109.512 823.465 108.264 823.609 105.128L823.737 102.392H830.009V109.512H831.289ZM828.105 109.512V103.896H825.417L825.337 105.352C825.209 107.64 824.905 108.856 824.217 109.512H828.105ZM840.296 107.24H833.88C834.008 108.84 835.128 109.624 836.216 109.624C837.224 109.624 837.992 109.24 838.328 108.424H840.2C839.816 109.8 838.504 111.208 836.296 111.208C833.528 111.208 831.944 109.112 831.944 106.632C831.944 104.04 833.72 102.2 836.168 102.2C838.808 102.2 840.472 104.36 840.296 107.24ZM836.168 103.688C835.272 103.688 834.056 104.232 833.88 105.848H838.36C838.312 104.504 837.288 103.688 836.168 103.688ZM843.703 106.696C843.703 108.68 844.679 109.656 845.927 109.656C847.271 109.656 848.055 108.536 848.055 106.696C848.055 104.888 847.271 103.752 845.927 103.752C844.679 103.752 843.703 104.712 843.703 106.696ZM841.879 102.392H843.783V103.544C844.295 102.696 845.191 102.2 846.343 102.2C848.455 102.2 850.039 103.944 850.039 106.696C850.039 109.464 848.455 111.208 846.343 111.208C845.191 111.208 844.295 110.712 843.783 109.864V113.8H841.879V102.392ZM855.754 111V107.24H855.002L852.474 111H850.234L853.402 106.472L850.49 102.392H852.618L854.89 105.736H855.754V102.392H857.658V105.736H858.49L860.794 102.392H862.986L860.042 106.456L863.194 111H860.97L858.442 107.24H857.658V111H855.754ZM870.185 111L867.353 107.24H866.457V111H864.537V102.392H866.457V105.736H867.497L869.977 102.392H872.153L868.905 106.568L872.377 111H870.185ZM881.629 102.392V111H879.725V105.032L875.629 111H873.725V102.392H875.629V108.392L879.725 102.392H881.629Z" fill="#747474" style="fill:#747474;fill:color(display-p3 0.4542 0.4542 0.4542);fill-opacity:1;"/>
<path opacity="0.8" d="M1087.39 64.08V66.896H1089.82C1092.45 66.896 1094.14 67.76 1094.14 70.352C1094.14 72.976 1092.46 74 1089.73 74H1085.36V62.4H1093.28V64.08H1087.39ZM1087.39 72.32H1089.79C1091.25 72.32 1092.05 71.664 1092.05 70.4C1092.05 69.04 1091.22 68.544 1089.74 68.544H1087.39V72.32ZM1097.14 69.712C1097.14 71.696 1098.19 72.656 1099.41 72.656C1100.62 72.656 1101.68 71.696 1101.68 69.712C1101.68 67.728 1100.62 66.752 1099.41 66.752C1098.19 66.752 1097.14 67.728 1097.14 69.712ZM1099.41 65.2C1101.5 65.2 1103.65 66.608 1103.65 69.712C1103.65 72.832 1101.5 74.208 1099.41 74.208C1097.31 74.208 1095.17 72.832 1095.17 69.712C1095.17 66.608 1097.31 65.2 1099.41 65.2ZM1112.56 74H1110.65V66.896H1108.12L1108 68.752C1107.76 72.352 1106.8 74 1104.81 74H1104.46V72.496H1104.65C1105.36 72.496 1106.01 71.744 1106.19 68.48L1106.35 65.392H1112.56V74ZM1116.76 68.288H1118.54C1120.9 68.288 1121.9 69.184 1121.9 71.088C1121.9 73.264 1120.71 74 1118.57 74H1114.86V65.392H1116.76V68.288ZM1116.76 72.496H1118.31C1119.45 72.496 1120.01 72.112 1120.01 71.072C1120.01 70.112 1119.45 69.792 1118.3 69.792H1116.76V72.496ZM1134.87 65.392V74H1123.46V65.392H1125.37V72.496H1128.22V65.392H1130.12V72.496H1132.97V65.392H1134.87ZM1144.88 70.24H1138.46C1138.59 71.84 1139.71 72.624 1140.8 72.624C1141.81 72.624 1142.58 72.24 1142.91 71.424H1144.78C1144.4 72.8 1143.09 74.208 1140.88 74.208C1138.11 74.208 1136.53 72.112 1136.53 69.632C1136.53 67.04 1138.3 65.2 1140.75 65.2C1143.39 65.2 1145.06 67.36 1144.88 70.24ZM1140.75 66.688C1139.86 66.688 1138.64 67.232 1138.46 68.848H1142.94C1142.9 67.504 1141.87 66.688 1140.75 66.688ZM1150.23 65.392H1154.28C1156.07 65.392 1157.51 65.84 1157.51 67.616C1157.51 68.496 1157.13 69.104 1156.37 69.44C1157.22 69.696 1157.86 70.288 1157.86 71.424C1157.86 73.264 1156.42 74 1154.49 74H1150.23V65.392ZM1152.13 68.912H1154.13C1155.08 68.912 1155.62 68.64 1155.62 67.872C1155.62 67.12 1155.06 66.88 1154.12 66.88H1152.13V68.912ZM1152.13 70.288V72.512H1154.26C1155.4 72.512 1155.96 72.128 1155.96 71.36C1155.96 70.544 1155.4 70.288 1154.25 70.288H1152.13ZM1160.9 69.712C1160.9 71.696 1161.96 72.656 1163.17 72.656C1164.39 72.656 1165.45 71.696 1165.45 69.712C1165.45 67.728 1164.39 66.752 1163.17 66.752C1161.96 66.752 1160.9 67.728 1160.9 69.712ZM1163.17 65.2C1165.27 65.2 1167.41 66.608 1167.41 69.712C1167.41 72.832 1165.27 74.208 1163.17 74.208C1161.08 74.208 1158.93 72.832 1158.93 69.712C1158.93 66.608 1161.08 65.2 1163.17 65.2ZM1174.37 69.456C1175.31 69.728 1175.89 70.32 1175.89 71.472C1175.89 73.376 1174.23 74.208 1172.07 74.208C1170.18 74.208 1168.5 73.392 1168.19 71.2H1170.02C1170.19 72.176 1170.91 72.8 1172.13 72.8C1173.35 72.8 1173.99 72.32 1173.99 71.568C1173.99 70.672 1173.38 70.336 1172.29 70.336H1170.88V68.848H1172.19C1173.14 68.848 1173.73 68.528 1173.73 67.776C1173.73 66.992 1173.27 66.592 1172.19 66.592C1171.12 66.592 1170.26 67.104 1170.11 68.176H1168.29C1168.59 66.144 1170.32 65.168 1172.23 65.168C1174.1 65.168 1175.62 65.92 1175.62 67.648C1175.62 68.496 1175.2 69.088 1174.37 69.456ZM1187.74 65.392V74H1185.9V67.184L1183.37 74H1181.9L1179.37 67.216V74H1177.53V65.392H1180.41L1182.66 71.536L1184.86 65.392H1187.74ZM1191.51 69.712C1191.51 71.696 1192.57 72.656 1193.78 72.656C1195 72.656 1196.05 71.696 1196.05 69.712C1196.05 67.728 1195 66.752 1193.78 66.752C1192.57 66.752 1191.51 67.728 1191.51 69.712ZM1193.78 65.2C1195.88 65.2 1198.02 66.608 1198.02 69.712C1198.02 72.832 1195.88 74.208 1193.78 74.208C1191.69 74.208 1189.54 72.832 1189.54 69.712C1189.54 66.608 1191.69 65.2 1193.78 65.2ZM1203.74 74V70.24H1202.99L1200.46 74H1198.22L1201.39 69.472L1198.48 65.392H1200.61L1202.88 68.736H1203.74V65.392H1205.65V68.736H1206.48L1208.78 65.392H1210.98L1208.03 69.456L1211.18 74H1208.96L1206.43 70.24H1205.65V74H1203.74ZM1220.18 74H1218.27V70.336H1214.43V74H1212.53V65.392H1214.43V68.832H1218.27V65.392H1220.18V74ZM1223.79 69.712C1223.79 71.696 1224.85 72.656 1226.06 72.656C1227.28 72.656 1228.34 71.696 1228.34 69.712C1228.34 67.728 1227.28 66.752 1226.06 66.752C1224.85 66.752 1223.79 67.728 1223.79 69.712ZM1226.06 65.2C1228.16 65.2 1230.3 66.608 1230.3 69.712C1230.3 72.832 1228.16 74.208 1226.06 74.208C1223.97 74.208 1221.82 72.832 1221.82 69.712C1221.82 66.608 1223.97 65.2 1226.06 65.2ZM1235.59 65.2C1237.48 65.2 1239.11 66.432 1239.45 68.336H1237.59C1237.42 67.424 1236.63 66.784 1235.59 66.784C1234.39 66.784 1233.34 67.664 1233.34 69.696C1233.34 71.744 1234.43 72.624 1235.55 72.624C1236.49 72.624 1237.4 72.208 1237.66 71.056H1239.51C1239.13 73.072 1237.35 74.208 1235.51 74.208C1233.02 74.208 1231.37 72.272 1231.37 69.712C1231.37 67.152 1233.02 65.2 1235.59 65.2ZM1247.66 66.896H1244.73V74H1242.82V66.896H1239.88V65.392H1247.66V66.896ZM1256.5 70.24H1250.09C1250.22 71.84 1251.34 72.624 1252.42 72.624C1253.43 72.624 1254.2 72.24 1254.54 71.424H1256.41C1256.02 72.8 1254.71 74.208 1252.5 74.208C1249.74 74.208 1248.15 72.112 1248.15 69.632C1248.15 67.04 1249.93 65.2 1252.38 65.2C1255.02 65.2 1256.68 67.36 1256.5 70.24ZM1252.38 66.688C1251.48 66.688 1250.26 67.232 1250.09 68.848H1254.57C1254.52 67.504 1253.5 66.688 1252.38 66.688ZM1263.45 62.4H1264.82C1264.7 63.536 1263.99 64.336 1262.17 64.336C1260.39 64.336 1259.62 63.536 1259.54 62.4H1260.94C1261 62.976 1261.35 63.28 1262.18 63.28C1263 63.28 1263.38 62.976 1263.45 62.4ZM1266.07 65.392V74H1264.17V68.032L1260.07 74H1258.17V65.392H1260.07V71.392L1264.17 65.392H1266.07ZM1085.15 89.392H1089.2C1090.99 89.392 1092.43 89.84 1092.43 91.616C1092.43 92.496 1092.05 93.104 1091.3 93.44C1092.14 93.696 1092.78 94.288 1092.78 95.424C1092.78 97.264 1091.34 98 1089.41 98H1085.15V89.392ZM1087.06 92.912H1089.06C1090 92.912 1090.54 92.64 1090.54 91.872C1090.54 91.12 1089.98 90.88 1089.04 90.88H1087.06V92.912ZM1087.06 94.288V96.512H1089.18C1090.32 96.512 1090.88 96.128 1090.88 95.36C1090.88 94.544 1090.32 94.288 1089.17 94.288H1087.06ZM1105.46 98H1103.56V90.896H1101.03L1100.9 92.752C1100.66 96.352 1099.7 98 1097.72 98H1097.37V96.496H1097.56C1098.26 96.496 1098.92 95.744 1099.09 92.48L1099.25 89.392H1105.46V98ZM1115.67 89.392V98H1113.76V92.032L1109.67 98H1107.76V89.392H1109.67V95.392L1113.76 89.392H1115.67ZM1124.51 98H1122.61V94.672C1121.7 94.912 1120.98 95.008 1120.19 95.008C1118.38 95.008 1117.36 94.16 1117.36 92.288V89.392H1119.26V91.952C1119.26 93.04 1119.78 93.456 1120.94 93.456C1121.44 93.456 1121.95 93.392 1122.61 93.216V89.392H1124.51V98ZM1134.47 98H1132.57V94.336H1128.73V98H1126.82V89.392H1128.73V92.832H1132.57V89.392H1134.47V98ZM1138.09 93.712C1138.09 95.696 1139.15 96.656 1140.36 96.656C1141.58 96.656 1142.63 95.696 1142.63 93.712C1142.63 91.728 1141.58 90.752 1140.36 90.752C1139.15 90.752 1138.09 91.728 1138.09 93.712ZM1140.36 89.2C1142.46 89.2 1144.6 90.608 1144.6 93.712C1144.6 96.832 1142.46 98.208 1140.36 98.208C1138.27 98.208 1136.12 96.832 1136.12 93.712C1136.12 90.608 1138.27 89.2 1140.36 89.2ZM1156.45 89.392V98H1154.61V91.184L1152.09 98H1150.61L1148.09 91.216V98H1146.25V89.392H1149.13L1151.38 95.536L1153.57 89.392H1156.45ZM1168.25 98L1165.42 94.24H1164.53V98H1162.61V89.392H1164.53V92.736H1165.57L1168.05 89.392H1170.22L1166.97 93.568L1170.45 98H1168.25ZM1176.73 94.608V93.952C1174.01 94.208 1172.9 94.608 1172.9 95.584C1172.9 96.336 1173.53 96.784 1174.49 96.784C1175.9 96.784 1176.73 96.08 1176.73 94.608ZM1174.07 98.208C1172.2 98.208 1170.89 97.2 1170.89 95.632C1170.89 93.472 1173.54 92.96 1176.68 92.624V92.464C1176.68 90.992 1175.85 90.544 1174.89 90.544C1173.93 90.544 1173.21 91.056 1173.16 92.096H1171.29C1171.42 90.352 1172.87 89.136 1174.95 89.136C1177.02 89.136 1178.63 90.08 1178.58 92.832C1178.58 93.248 1178.55 94.272 1178.55 95.056C1178.55 96.144 1178.63 97.28 1178.81 98H1177.06C1177 97.632 1176.95 97.424 1176.9 96.832C1176.34 97.776 1175.35 98.208 1174.07 98.208ZM1184.65 89.904C1186.65 89.904 1188.4 91.28 1188.4 93.984C1188.4 96.752 1186.46 98.208 1184.3 98.208C1182.03 98.208 1180.14 96.592 1180.14 93.28V92.512C1180.19 89.392 1181.65 87.136 1184.7 86.672L1187.71 86.208V87.872L1184.8 88.352C1183.25 88.608 1182 89.36 1181.69 91.488C1182.32 90.4 1183.44 89.904 1184.65 89.904ZM1184.3 96.672C1185.57 96.672 1186.43 95.728 1186.43 93.984C1186.43 92.272 1185.47 91.408 1184.32 91.408C1183.12 91.408 1182.06 92.256 1182.06 93.984C1182.06 95.664 1183.01 96.672 1184.3 96.672ZM1197.88 89.392V98H1195.98V92.032L1191.88 98H1189.98V89.392H1191.88V95.392L1195.98 89.392H1197.88ZM1207.68 98H1205.77V94.336H1201.93V98H1200.03V89.392H1201.93V92.832H1205.77V89.392H1207.68V98ZM1217.68 94.24H1211.26C1211.39 95.84 1212.51 96.624 1213.6 96.624C1214.6 96.624 1215.37 96.24 1215.71 95.424H1217.58C1217.2 96.8 1215.88 98.208 1213.68 98.208C1210.91 98.208 1209.32 96.112 1209.32 93.632C1209.32 91.04 1211.1 89.2 1213.55 89.2C1216.19 89.2 1217.85 91.36 1217.68 94.24ZM1213.55 90.688C1212.65 90.688 1211.44 91.232 1211.26 92.848H1215.74C1215.69 91.504 1214.67 90.688 1213.55 90.688ZM1225.92 90.896H1222.99V98H1221.09V90.896H1218.15V89.392H1225.92V90.896ZM1234.77 94.24H1228.35C1228.48 95.84 1229.6 96.624 1230.69 96.624C1231.7 96.624 1232.47 96.24 1232.8 95.424H1234.67C1234.29 96.8 1232.98 98.208 1230.77 98.208C1228 98.208 1226.42 96.112 1226.42 93.632C1226.42 91.04 1228.19 89.2 1230.64 89.2C1233.28 89.2 1234.95 91.36 1234.77 94.24ZM1230.64 90.688C1229.75 90.688 1228.53 91.232 1228.35 92.848H1232.83C1232.79 91.504 1231.76 90.688 1230.64 90.688Z" fill="white" style="fill:white;fill-opacity:1;"/>
<rect opacity="0.01" x="1084" y="104" width="1" height="8" fill="white" style="fill:white;fill-opacity:1;"/>
<rect opacity="0.01" x="1084" y="112" width="1" height="8" fill="white" style="fill:white;fill-opacity:1;"/>
<rect x="1084" y="120" width="248" height="48" rx="12" fill="#FFCF08" style="fill:#FFCF08;fill:color(display-p3 1.0000 0.8118 0.0314);fill-opacity:1;"/>
<path d="M1159 152C1161.34 149.523 1164.51 148 1168 148C1171.49 148 1174.66 149.523 1177 152M1172.5 139.5C1172.5 141.985 1170.49 144 1168 144C1165.51 144 1163.5 141.985 1163.5 139.5C1163.5 137.015 1165.51 135 1168 135C1170.49 135 1172.5 137.015 1172.5 139.5Z" stroke="#1D1D1D" style="stroke:#1D1D1D;stroke:color(display-p3 0.1137 0.1137 0.1137);stroke-opacity:1;" stroke-width="2" stroke-linecap="round" stroke-linejoin="round"/>
<path d="M1198.93 150H1196.9V140.096H1191.65V150H1189.62V138.4H1198.93V150ZM1203.19 145.696C1203.19 147.68 1204.16 148.656 1205.41 148.656C1206.75 148.656 1207.54 147.536 1207.54 145.696C1207.54 143.888 1206.75 142.752 1205.41 142.752C1204.16 142.752 1203.19 143.712 1203.19 145.696ZM1201.36 141.392H1203.27V142.544C1203.78 141.696 1204.67 141.2 1205.83 141.2C1207.94 141.2 1209.52 142.944 1209.52 145.696C1209.52 148.464 1207.94 150.208 1205.83 150.208C1204.67 150.208 1203.78 149.712 1203.27 148.864V152.8H1201.36V141.392ZM1212.57 145.712C1212.57 147.696 1213.62 148.656 1214.84 148.656C1216.05 148.656 1217.11 147.696 1217.11 145.712C1217.11 143.728 1216.05 142.752 1214.84 142.752C1213.62 142.752 1212.57 143.728 1212.57 145.712ZM1214.84 141.2C1216.93 141.2 1219.08 142.608 1219.08 145.712C1219.08 148.832 1216.93 150.208 1214.84 150.208C1212.74 150.208 1210.6 148.832 1210.6 145.712C1210.6 142.608 1212.74 141.2 1214.84 141.2ZM1226.54 138.4V141.392C1228.99 141.392 1231.04 142.768 1231.04 145.744C1231.04 148.816 1228.98 150.096 1226.54 150.096V152.8H1224.64V150.096C1222.19 150.096 1220.14 148.816 1220.14 145.744C1220.14 142.768 1222.19 141.392 1224.64 141.392V138.4H1226.54ZM1224.64 148.576V142.928C1223.17 142.928 1222.06 143.776 1222.06 145.808C1222.06 147.808 1223.15 148.576 1224.64 148.576ZM1226.54 142.928V148.576C1228.03 148.576 1229.1 147.808 1229.1 145.808C1229.1 143.776 1228.03 142.928 1226.54 142.928ZM1240.58 141.392V150H1238.68V144.032L1234.58 150H1232.68V141.392H1234.58V147.392L1238.68 141.392H1240.58ZM1249.99 150H1248.08V142.896H1245.55L1245.43 144.752C1245.19 148.352 1244.23 150 1242.24 150H1241.89V148.496H1242.08C1242.79 148.496 1243.44 147.744 1243.62 144.48L1243.78 141.392H1249.99V150ZM1254.19 144.288H1255.96C1258.33 144.288 1259.32 145.184 1259.32 147.088C1259.32 149.264 1258.14 150 1256 150H1252.28V141.392H1254.19V144.288ZM1254.19 148.496H1255.74C1256.88 148.496 1257.44 148.112 1257.44 147.072C1257.44 146.112 1256.88 145.792 1255.72 145.792H1254.19V148.496Z" fill="#1D1D1D" style="fill:#1D1D1D;fill:color(display-p3 0.1137 0.1137 0.1137);fill-opacity:1;"/>
<rect opacity="0.01" x="108" y="178" width="1" height="56" fill="white" style="fill:white;fill-opacity:1;"/>
<rect width="1224" height="157" transform="translate(108 234)" fill="#1D1D1D" style="fill:#1D1D1D;fill:color(display-p3 0.1137 0.1137 0.1137);fill-opacity:1;"/>
<path d="M108 240.087C108 236.725 110.725 234 114.087 234H141.913C145.275 234 148 236.725 148 240.087V267.913C148 271.275 145.275 274 141.913 274H114.087C110.725 274 108 271.275 108 267.913V240.087Z" fill="#FF3000" style="fill:#FF3000;fill:color(display-p3 1.0000 0.1882 0.0000);fill-opacity:1;"/>
<path d="M138.129 267.125C136.343 267.125 135.113 266.146 135.113 263.114V262.462H137.097V263.115C137.097 264.727 137.534 265.168 138.129 265.168C138.724 265.168 139.141 264.727 139.141 263.978C139.141 263.038 139.002 262.52 137.613 261.541C135.986 260.409 135.232 259.2 135.232 257.646C135.232 255.67 136.303 254.48 138.129 254.48C139.399 254.48 141.085 254.864 141.085 258.087V258.836H139.101V258.087C139.101 256.821 138.685 256.399 138.129 256.399C137.534 256.399 137.216 256.821 137.216 257.569C137.216 258.336 137.395 258.97 138.784 260.006C140.51 261.292 141.125 262.309 141.125 263.978C141.125 265.647 140.331 267.125 138.129 267.125ZM131.363 267.125C129.577 267.125 128.347 266.3 128.347 263.114V262.462H130.331V263.115C130.331 264.727 130.768 265.168 131.363 265.168C131.958 265.168 132.375 264.727 132.375 263.978C132.375 263.038 132.236 262.52 130.847 261.541C129.22 260.409 128.466 259.2 128.466 257.646C128.466 255.67 129.537 254.48 131.363 254.48C132.633 254.48 134.319 254.864 134.319 258.087V258.836H132.335V258.087C132.335 256.821 131.919 256.399 131.363 256.399C130.768 256.399 130.45 256.821 130.45 257.569C130.45 258.336 130.629 258.97 132.018 260.006C133.744 261.292 134.359 262.309 134.359 263.978C134.359 265.647 133.565 267.125 131.363 267.125ZM138.129 253.52C136.343 253.52 135.113 252.541 135.113 249.51V248.857H137.097V249.51C137.097 251.122 137.534 251.563 138.129 251.563C138.724 251.563 139.141 251.122 139.141 250.373C139.141 249.433 139.002 248.915 137.613 247.936C135.986 246.804 135.232 245.595 135.232 244.041C135.232 242.065 136.303 240.875 138.129 240.875C139.399 240.875 141.085 241.259 141.085 244.482V245.231H139.101V244.482C139.101 243.216 138.685 242.794 138.129 242.794C137.534 242.794 137.216 243.216 137.216 243.964C137.216 244.732 137.395 245.365 138.784 246.401C140.51 247.687 141.125 248.704 141.125 250.373C141.125 252.042 140.331 253.52 138.129 253.52ZM131.363 253.52C129.577 253.52 128.347 252.695 128.347 249.51V248.857H130.331V249.51C130.331 251.122 130.768 251.563 131.363 251.563C131.958 251.563 132.375 251.122 132.375 250.373C132.375 249.433 132.236 248.915 130.847 247.936C129.22 246.804 128.466 245.595 128.466 244.041C128.466 242.065 129.537 240.875 131.363 240.875C132.633 240.875 134.319 241.259 134.319 244.482V245.231H132.335V244.482C132.335 243.216 131.919 242.794 131.363 242.794C130.768 242.794 130.45 243.216 130.45 243.964C130.45 244.732 130.629 245.365 132.018 246.401C133.744 247.687 134.359 248.704 134.359 250.373C134.359 252.042 133.565 253.52 131.363 253.52ZM116.859 262.462H117.256C118.129 262.462 118.566 262.04 118.566 260.083V258.97C118.566 257.013 118.129 256.591 117.256 256.591H116.859V262.462ZM116.859 266.933H114.875V254.671H117.256C119.836 254.671 120.55 256.091 120.55 258.778V260.275C120.55 262.961 119.836 264.381 117.256 264.381H116.859V266.933ZM117.256 246.939H116.859V242.986H117.256C118.149 242.986 118.565 243.274 118.565 244.617V245.307C118.566 246.651 118.149 246.939 117.256 246.939ZM120.927 253.329L119.399 248.224C120.133 247.629 120.55 246.651 120.55 245.442V244.483C120.55 242.238 119.518 241.067 117.256 241.067H114.875V253.329H116.859V248.857H117.117C117.216 248.857 117.355 248.857 117.573 248.838L118.764 253.328L120.927 253.329ZM123.188 262.462L124.2 256.591H124.359L125.371 262.462H123.188ZM126.125 266.933H128.109L125.907 254.671H122.653L120.431 266.933H122.415L122.871 264.381H125.689L126.125 266.933ZM124.478 253.52C122.038 253.52 121.581 251.736 121.581 249.567V241.067H123.645V249.74C123.645 251.256 123.923 251.601 124.478 251.601C125.034 251.601 125.311 251.256 125.311 249.74V241.067H127.375V249.568C127.375 251.736 126.919 253.52 124.478 253.52Z" fill="white" style="fill:white;fill-opacity:1;"/>
<path d="M156 261.821V246.183H162.881V248.418H158.457V252.417H159.886C161.122 252.417 162.05 252.745 162.668 253.4C163.285 254.055 163.595 255.015 163.595 256.282V257.958C163.595 259.224 163.285 260.184 162.668 260.839C162.05 261.495 161.122 261.823 159.886 261.823H156V261.821ZM159.888 259.586C160.275 259.586 160.581 259.482 160.803 259.272C161.027 259.065 161.138 258.678 161.138 258.11V256.122C161.138 255.556 161.027 255.169 160.803 254.96C160.579 254.752 160.275 254.646 159.888 254.646H158.459V259.584H159.888V259.586Z" fill="white" style="fill:white;fill-opacity:1;"/>
<path d="M167.775 261.821H165.25V246.183H167.44V256.079L168.334 252.639L170.345 246.183H173.048V261.821H170.836V250.807L169.831 254.65L167.775 261.821Z" fill="white" style="fill:white;fill-opacity:1;"/>
<path d="M179.525 250.024C179.525 249.324 179.409 248.851 179.18 248.606C178.949 248.36 178.639 248.237 178.252 248.237C177.865 248.237 177.552 248.353 177.314 248.582C177.075 248.814 176.955 249.211 176.955 249.777V251.05H174.699V249.888C174.699 248.622 175 247.658 175.603 246.994C176.207 246.331 177.111 246 178.318 246C179.525 246 180.437 246.338 181.055 247.017C181.673 247.696 181.983 248.667 181.983 249.933V250.336C181.983 252.003 181.409 253.076 180.261 253.552C180.887 253.821 181.331 254.235 181.59 254.792C181.85 255.35 181.981 256.031 181.981 256.835V258.064C181.981 259.33 181.671 260.302 181.053 260.979C180.435 261.658 179.522 261.996 178.317 261.996C177.109 261.996 176.198 261.658 175.58 260.979C174.962 260.302 174.652 259.33 174.652 258.064V256.343H176.975V258.219C176.975 258.785 177.09 259.185 177.321 259.414C177.552 259.645 177.86 259.76 178.248 259.76C178.635 259.76 178.945 259.64 179.176 259.401C179.407 259.163 179.522 258.694 179.522 257.994V256.765C179.522 256.036 179.395 255.522 179.142 255.223C178.888 254.926 178.48 254.775 177.914 254.775H177.31V252.54H178.048C178.51 252.54 178.87 252.422 179.131 252.182C179.391 251.944 179.522 251.512 179.522 250.886V250.024H179.525Z" fill="white" style="fill:white;fill-opacity:1;"/>
<path d="M186.094 261.821H183.637V246.183H186.094V252.884H188.886V246.183H191.388V261.821H188.886V255.119H186.094V261.821Z" fill="white" style="fill:white;fill-opacity:1;"/>
<path d="M195.633 252.771H199.007V255.006H195.633V259.586H199.877V261.819H193.176V246.181H199.877V248.416H195.633V252.771Z" fill="white" style="fill:white;fill-opacity:1;"/>
<path d="M208.524 255.99V258.067C208.524 259.333 208.214 260.306 207.596 260.983C206.978 261.662 206.065 262 204.86 262C203.654 262 202.741 261.662 202.123 260.983C201.505 260.306 201.195 259.333 201.195 258.067V249.935C201.195 248.669 201.505 247.698 202.123 247.019C202.741 246.342 203.654 246.002 204.86 246.002C206.065 246.002 206.978 246.34 207.596 247.019C208.214 247.698 208.524 248.669 208.524 249.935V251.453H206.201V249.777C206.201 249.211 206.085 248.814 205.855 248.583C205.624 248.352 205.314 248.237 204.928 248.237C204.541 248.237 204.231 248.353 204 248.583C203.769 248.814 203.654 249.211 203.654 249.777V258.221C203.654 258.787 203.769 259.181 204 259.405C204.231 259.629 204.539 259.74 204.928 259.74C205.314 259.74 205.624 259.629 205.855 259.405C206.086 259.181 206.201 258.787 206.201 258.221V255.988H208.524V255.99Z" fill="white" style="fill:white;fill-opacity:1;"/>
<path fill-rule="evenodd" clip-rule="evenodd" d="M1248.68 242.332C1247.34 244.653 1247.34 247.768 1247.34 253.999C1247.34 260.229 1247.34 263.345 1248.68 265.665C1249.55 267.186 1250.82 268.448 1252.34 269.326C1254.66 270.665 1257.77 270.665 1264 270.665C1270.23 270.665 1273.35 270.665 1275.67 269.326C1277.19 268.448 1278.45 267.186 1279.33 265.665C1280.67 263.345 1280.67 260.229 1280.67 253.999C1280.67 247.768 1280.67 244.653 1279.33 242.332C1278.45 240.812 1277.19 239.549 1275.67 238.672C1273.35 237.332 1270.23 237.332 1264 237.332C1257.77 237.332 1254.66 237.332 1252.34 238.672C1250.82 239.549 1249.55 240.812 1248.68 242.332ZM1253.59 247.749H1256.02C1256.64 247.749 1256.87 248.021 1257.1 248.694C1258.29 252.156 1260.3 255.183 1261.12 255.183C1261.43 255.183 1261.57 255.04 1261.57 254.256V250.676C1261.52 249.657 1261.16 249.217 1260.9 248.891C1260.73 248.689 1260.61 248.531 1260.61 248.307C1260.61 248.035 1260.84 247.749 1261.22 247.749H1265.04C1265.56 247.749 1265.74 248.024 1265.74 248.642V253.457C1265.74 253.972 1265.96 254.153 1266.12 254.153C1266.43 254.153 1266.68 253.972 1267.25 253.406C1269 251.449 1270.24 248.436 1270.24 248.436C1270.39 248.076 1270.68 247.749 1271.29 247.749H1273.72C1274.46 247.749 1274.61 248.127 1274.46 248.642C1274.17 249.957 1271.6 253.648 1271.23 254.169L1271.19 254.23C1270.93 254.642 1270.83 254.848 1271.19 255.311C1271.32 255.489 1271.59 255.754 1271.9 256.058C1272.22 256.37 1272.58 256.723 1272.86 257.062C1273.91 258.237 1274.69 259.228 1274.91 259.911C1275.11 260.596 1274.77 260.943 1274.07 260.943H1271.64C1270.99 260.943 1270.66 260.578 1269.95 259.79C1269.65 259.456 1269.29 259.046 1268.79 258.556C1267.35 257.165 1266.73 256.985 1266.37 256.985C1265.89 256.985 1265.74 257.124 1265.74 257.818V259.998C1265.74 260.596 1265.55 260.943 1264 260.943C1261.43 260.943 1258.6 259.38 1256.59 256.496C1253.58 252.273 1252.75 249.08 1252.75 248.436C1252.75 248.076 1252.89 247.749 1253.59 247.749Z" fill="#747474" style="fill:#747474;fill:color(display-p3 0.4542 0.4542 0.4542);fill-opacity:1;"/>
<path fill-rule="evenodd" clip-rule="evenodd" d="M1305.34 237.332H1318.67C1324.19 237.332 1328.67 241.809 1328.67 247.332V260.665C1328.67 266.188 1324.19 270.665 1318.67 270.665H1305.34C1299.81 270.665 1295.34 266.188 1295.34 260.665V247.332C1295.34 241.809 1299.81 237.332 1305.34 237.332ZM1318.67 262.372C1318.67 262.372 1318.2 263.526 1316.94 262.975L1312.22 259.358L1309.18 262.11C1309.18 262.11 1308.95 262.294 1308.68 262.189C1308.68 262.189 1308.45 262.163 1308.19 261.298C1307.9 260.407 1306.48 255.767 1306.48 255.767L1301.79 254.195C1301.79 254.195 1301.08 253.932 1301 253.382C1300.93 252.832 1301.82 252.517 1301.82 252.517L1320.45 245.204C1320.45 245.204 1321.97 244.523 1322 245.65L1318.67 262.372ZM1318.38 248.612C1318.41 248.219 1317.75 248.612 1317.75 248.612L1307.45 255.165C1307.29 255.27 1307.24 255.453 1307.29 255.611L1308.53 259.647C1308.6 259.883 1308.94 259.857 1309 259.595L1309.29 257.131C1309.29 257.026 1309.34 256.947 1309.42 256.895C1310.41 256.004 1317.83 249.346 1318.14 249.032C1318.49 248.665 1318.38 248.612 1318.38 248.612Z" fill="#747474" style="fill:#747474;fill:color(display-p3 0.4542 0.4542 0.4542);fill-opacity:1;"/>
<rect opacity="0.01" x="108" y="274" width="1" height="24" fill="white" style="fill:white;fill-opacity:1;"/>
<rect x="108" y="298" width="1224" height="1" fill="#2F2F2F" style="fill:#2F2F2F;fill:color(display-p3 0.1843 0.1843 0.1843);fill-opacity:1;"/>
<rect opacity="0.01" x="108" y="299" width="1" height="24" fill="white" style="fill:white;fill-opacity:1;"/>
<path d="M108.532 333.946C108.532 330.81 110.87 328.668 113.782 328.668C116.68 328.668 119.018 330.81 119.018 333.946C119.018 337.054 116.68 339.182 113.782 339.182C110.87 339.182 108.532 337.054 108.532 333.946ZM109.568 333.946C109.568 336.522 111.43 338.244 113.782 338.244C116.19 338.244 117.982 336.522 117.982 333.946C117.982 331.342 116.19 329.606 113.782 329.606C111.43 329.606 109.568 331.342 109.568 333.946ZM113.768 335.822C114.384 335.822 114.972 335.556 115.182 334.772L116.246 335.052C115.952 335.948 115.14 336.718 113.768 336.718C112.074 336.718 111.136 335.612 111.136 333.806C111.136 332 112.144 330.936 113.81 330.936C115.154 330.936 115.938 331.706 116.204 332.714L115.154 333.008C114.972 332.224 114.426 331.818 113.768 331.818C112.914 331.818 112.284 332.448 112.284 333.806C112.284 335.164 112.914 335.822 113.768 335.822ZM127.103 328.668C128.979 328.668 130.323 329.606 130.323 331.328C130.323 333.68 127.873 335.752 125.031 337.81H130.603V339H123.295V337.852C126.879 335.206 128.979 333.302 128.979 331.496C128.979 330.432 128.293 329.732 127.075 329.732C125.983 329.732 124.933 330.334 124.891 332.014H123.575C123.533 329.998 124.933 328.668 127.103 328.668ZM138.343 333.918C138.343 331.104 137.335 329.732 135.753 329.732C134.143 329.732 133.163 331.104 133.163 333.918C133.163 336.76 134.143 338.118 135.753 338.118C137.363 338.118 138.343 336.76 138.343 333.918ZM139.701 333.918C139.701 337.124 138.455 339.182 135.753 339.182C133.051 339.182 131.805 337.124 131.805 333.918C131.805 330.712 133.051 328.668 135.753 328.668C138.455 328.668 139.701 330.712 139.701 333.918ZM144.617 328.668C146.493 328.668 147.837 329.606 147.837 331.328C147.837 333.68 145.387 335.752 142.545 337.81H148.117V339H140.809V337.852C144.393 335.206 146.493 333.302 146.493 331.496C146.493 330.432 145.807 329.732 144.589 329.732C143.497 329.732 142.447 330.334 142.405 332.014H141.089C141.047 329.998 142.447 328.668 144.617 328.668ZM152.594 338.118C153.938 338.118 154.89 337.432 154.89 336.158C154.89 334.702 153.588 334.226 151.964 334.226H151.754V333.064H151.922C153.7 333.064 154.624 332.574 154.624 331.384C154.624 330.306 153.728 329.732 152.65 329.732C151.292 329.732 150.55 330.544 150.438 331.706H149.122C149.276 329.914 150.55 328.668 152.678 328.668C154.428 328.668 155.968 329.382 155.968 331.244C155.968 332.294 155.38 333.162 154.316 333.596C155.828 334.086 156.248 335.066 156.248 336.144C156.248 338.188 154.526 339.182 152.58 339.182C150.172 339.182 149.122 337.698 148.968 336.004H150.284C150.438 337.25 151.152 338.118 152.594 338.118ZM157.5 339V337.39H159.11V339.112L158.256 340.946H157.444L158.186 339H157.5ZM163.414 339L167.18 328.85H168.832L172.654 339H171.114L170.316 336.802H165.654L164.87 339H163.414ZM167.964 330.292L166.088 335.584H169.868L167.964 330.292ZM180.829 328.85H182.257V339H180.829V334.394H175.495V339H174.067V328.85H175.495V333.162H180.829V328.85ZM185.775 333.918C185.775 336.536 187.231 337.978 189.079 337.978C190.927 337.978 192.383 336.536 192.383 333.918C192.383 331.3 190.927 329.872 189.079 329.872C187.231 329.872 185.775 331.3 185.775 333.918ZM193.839 333.918C193.839 336.984 192.005 339.182 189.079 339.182C186.153 339.182 184.319 336.984 184.319 333.918C184.319 330.852 186.153 328.668 189.079 328.668C192.005 328.668 193.839 330.852 193.839 333.918ZM200.245 338.384L198.019 335.178L200.245 331.986H201.617L199.517 335.178L201.617 338.384H200.245ZM203.395 338.384L201.169 335.178L203.395 331.986H204.767L202.667 335.178L204.767 338.384H203.395ZM214.338 339H212.91V330.082H207.842V339H206.414V328.85H214.338V339ZM216.758 331.468H218.032V332.658C218.494 331.86 219.278 331.342 220.496 331.342C222.232 331.342 223.716 332.798 223.716 335.262C223.716 337.768 222.232 339.182 220.496 339.182C219.278 339.182 218.494 338.664 218.032 337.866V341.45H216.758V331.468ZM217.976 335.262C217.976 337.25 219.04 338.09 220.174 338.09C221.476 338.09 222.33 337.068 222.33 335.262C222.33 333.456 221.476 332.434 220.174 332.434C219.04 332.434 217.976 333.274 217.976 335.262ZM226.196 335.262C226.196 337.278 227.288 338.062 228.45 338.062C229.612 338.062 230.704 337.194 230.704 335.262C230.704 333.246 229.612 332.462 228.45 332.462C227.288 332.462 226.196 333.204 226.196 335.262ZM228.45 331.342C230.2 331.342 232.062 332.532 232.062 335.262C232.062 337.992 230.2 339.182 228.45 339.182C226.7 339.182 224.838 337.992 224.838 335.262C224.838 332.532 226.7 331.342 228.45 331.342ZM240.346 335.654H234.55C234.592 337.278 235.768 338.062 236.874 338.062C237.994 338.062 238.61 337.558 238.932 336.816H240.248C239.912 338.104 238.708 339.182 236.874 339.182C234.494 339.182 233.178 337.474 233.178 335.248C233.178 332.854 234.774 331.342 236.832 331.342C239.142 331.342 240.5 333.26 240.346 335.654ZM236.832 332.434C235.712 332.434 234.676 333.05 234.564 334.562H239.002C238.96 333.498 238.19 332.434 236.832 332.434ZM246.758 339L244.168 335.654H243.202V339H241.914V331.468H243.202V334.548H244.14L246.534 331.468H248.046L245.204 335.024L248.34 339H246.758ZM255.115 332.574H252.539V339H251.265V332.574H248.689V331.468H255.115V332.574ZM262.678 339H261.404V335.71H257.68V339H256.406V331.468H257.68V334.604H261.404V331.468H262.678V339ZM267.544 339H264.828V331.468H266.102V334.128H267.558C269.518 334.128 270.372 334.898 270.372 336.508C270.372 338.37 269.266 339 267.544 339ZM266.102 335.234V337.894H267.432C268.552 337.894 269.126 337.53 269.126 336.508C269.126 335.5 268.566 335.234 267.39 335.234H266.102ZM272.892 339H271.618V331.468H272.892V339ZM279.563 328.85H280.557C280.445 329.69 279.913 330.544 278.317 330.544C276.777 330.544 276.189 329.69 276.119 328.85H277.113C277.169 329.298 277.505 329.704 278.331 329.704C279.157 329.704 279.507 329.298 279.563 328.85ZM280.221 339V333.316L276.329 339H275.055V331.468H276.329V337.152L280.221 331.468H281.495V339H280.221ZM287.774 335.262C287.774 337.278 288.866 338.062 290.028 338.062C291.19 338.062 292.282 337.194 292.282 335.262C292.282 333.246 291.19 332.462 290.028 332.462C288.866 332.462 287.774 333.204 287.774 335.262ZM290.028 331.342C291.778 331.342 293.64 332.532 293.64 335.262C293.64 337.992 291.778 339.182 290.028 339.182C288.278 339.182 286.416 337.992 286.416 335.262C286.416 332.532 288.278 331.342 290.028 331.342ZM299.908 328.85V331.482C302.106 331.482 303.786 332.7 303.786 335.262C303.786 337.908 302.078 339.07 299.908 339.07V341.45H298.634V339.07C296.45 339.07 294.756 337.908 294.756 335.262C294.756 332.7 296.45 331.482 298.634 331.482V328.85H299.908ZM298.634 337.978V332.574C297.178 332.574 296.114 333.456 296.114 335.304C296.114 337.138 297.136 337.978 298.634 337.978ZM299.908 332.574V337.978C301.364 337.978 302.428 337.138 302.428 335.304C302.428 333.456 301.406 332.574 299.908 332.574ZM310.517 339V333.316L306.625 339H305.351V331.468H306.625V337.152L310.517 331.468H311.791V339H310.517ZM317.003 331.342C318.851 331.342 319.971 332.7 320.153 333.988H318.865C318.683 333.092 317.913 332.462 316.919 332.462C315.799 332.462 314.749 333.344 314.749 335.234C314.749 337.138 315.799 338.062 316.919 338.062C317.997 338.062 318.739 337.334 318.921 336.55H320.237C319.971 337.964 318.641 339.182 316.877 339.182C314.707 339.182 313.363 337.544 313.363 335.248C313.363 333.008 314.777 331.342 317.003 331.342ZM331.268 331.468V339H329.994V332.574H326.34V339H325.066V331.468H331.268ZM334.218 335.262C334.218 337.278 335.31 338.062 336.472 338.062C337.634 338.062 338.726 337.194 338.726 335.262C338.726 333.246 337.634 332.462 336.472 332.462C335.31 332.462 334.218 333.204 334.218 335.262ZM336.472 331.342C338.222 331.342 340.084 332.532 340.084 335.262C340.084 337.992 338.222 339.182 336.472 339.182C334.722 339.182 332.86 337.992 332.86 335.262C332.86 332.532 334.722 331.342 336.472 331.342ZM345 331.468H346.274V332.658C346.736 331.86 347.52 331.342 348.738 331.342C350.474 331.342 351.958 332.798 351.958 335.262C351.958 337.768 350.474 339.182 348.738 339.182C347.52 339.182 346.736 338.664 346.274 337.866V341.45H345V331.468ZM346.218 335.262C346.218 337.25 347.282 338.09 348.416 338.09C349.718 338.09 350.572 337.068 350.572 335.262C350.572 333.456 349.718 332.434 348.416 332.434C347.282 332.434 346.218 333.274 346.218 335.262ZM358.207 335.85V335.374C355.897 335.598 354.427 335.948 354.427 336.984C354.427 337.698 354.973 338.174 355.883 338.174C357.073 338.174 358.207 337.628 358.207 335.85ZM355.603 339.182C354.189 339.182 353.013 338.398 353.013 337.012C353.013 335.234 355.029 334.702 358.109 334.366V334.184C358.109 332.798 357.353 332.35 356.401 332.35C355.337 332.35 354.735 332.91 354.679 333.848H353.363C353.475 332.224 354.931 331.314 356.387 331.314C358.473 331.314 359.397 332.294 359.383 334.422L359.369 336.158C359.355 337.432 359.411 338.286 359.565 339H358.277C358.235 338.72 358.193 338.412 358.179 337.964C357.717 338.748 356.947 339.182 355.603 339.182ZM365.383 335.052C366.181 335.276 366.909 335.85 366.909 336.858C366.909 338.482 365.411 339.182 363.731 339.182C362.121 339.182 360.791 338.426 360.525 336.704H361.813C362.023 337.67 362.737 338.118 363.815 338.118C364.879 338.118 365.551 337.628 365.551 336.914C365.551 336.032 364.977 335.682 363.913 335.682H362.709V334.632H363.843C364.725 334.632 365.257 334.24 365.257 333.456C365.257 332.742 364.613 332.42 363.787 332.42C362.849 332.42 362.135 332.77 361.967 333.792H360.651C360.917 332.154 362.135 331.3 363.717 331.3C365.201 331.3 366.573 332.014 366.573 333.428C366.573 334.198 366.055 334.73 365.383 335.052ZM368.42 331.468H371.696C373.208 331.468 374.44 331.86 374.44 333.386C374.44 334.184 374.09 334.744 373.39 335.038C374.174 335.262 374.748 335.794 374.748 336.802C374.748 338.37 373.53 339 371.92 339H368.42V331.468ZM369.694 334.632H371.612C372.55 334.632 373.11 334.38 373.11 333.526C373.11 332.742 372.522 332.574 371.57 332.574H369.694V334.632ZM369.694 335.682V337.894H371.724C372.844 337.894 373.418 337.572 373.418 336.788C373.418 335.948 372.858 335.682 371.682 335.682H369.694ZM381.406 339V333.316L377.514 339H376.24V331.468H377.514V337.152L381.406 331.468H382.68V339H381.406ZM390.398 332.574H387.822V339H386.548V332.574H383.972V331.468H390.398V332.574ZM396.855 339V333.316L392.963 339H391.689V331.468H392.963V337.152L396.855 331.468H398.129V339H396.855ZM406.477 331.342C408.227 331.342 410.089 332.532 410.089 335.262C410.089 337.992 408.227 339.182 406.477 339.182C404.909 339.182 403.243 338.118 403.061 335.71H401.563V339H400.289V331.468H401.563V334.604H403.089C403.355 332.322 404.937 331.342 406.477 331.342ZM406.477 338.062C407.639 338.062 408.731 337.194 408.731 335.262C408.731 333.246 407.639 332.462 406.477 332.462C405.427 332.462 404.405 333.204 404.405 335.262C404.405 337.278 405.427 338.062 406.477 338.062ZM420.572 332.574H417.996V339H416.722V332.574H414.146V331.468H420.572V332.574ZM421.415 341.45V340.386H421.933C422.773 340.386 423.179 340.33 423.515 339.154L423.571 339L420.855 331.468H422.269L424.187 337.278L426.049 331.468H427.379L424.691 339.322C424.131 340.946 423.767 341.45 422.073 341.45H421.415ZM428.521 331.468H429.795V332.658C430.257 331.86 431.041 331.342 432.259 331.342C433.995 331.342 435.479 332.798 435.479 335.262C435.479 337.768 433.995 339.182 432.259 339.182C431.041 339.182 430.257 338.664 429.795 337.866V341.45H428.521V331.468ZM429.739 335.262C429.739 337.25 430.803 338.09 431.937 338.09C433.239 338.09 434.093 337.068 434.093 335.262C434.093 333.456 433.239 332.434 431.937 332.434C430.803 332.434 429.739 333.274 429.739 335.262ZM442.219 339V333.316L438.327 339H437.053V331.468H438.327V337.152L442.219 331.468H443.493V339H442.219ZM449.684 335.052C450.482 335.276 451.21 335.85 451.21 336.858C451.21 338.482 449.712 339.182 448.032 339.182C446.422 339.182 445.092 338.426 444.826 336.704H446.114C446.324 337.67 447.038 338.118 448.116 338.118C449.18 338.118 449.852 337.628 449.852 336.914C449.852 336.032 449.278 335.682 448.214 335.682H447.01V334.632H448.144C449.026 334.632 449.558 334.24 449.558 333.456C449.558 332.742 448.914 332.42 448.088 332.42C447.15 332.42 446.436 332.77 446.268 333.792H444.952C445.218 332.154 446.436 331.3 448.018 331.3C449.502 331.3 450.874 332.014 450.874 333.428C450.874 334.198 450.356 334.73 449.684 335.052ZM460.953 331.468V339H459.707V332.952L457.285 339H456.375L453.967 333.036V339H452.721V331.468H454.541L456.879 337.264L459.133 331.468H460.953ZM467.787 335.85V335.374C465.477 335.598 464.007 335.948 464.007 336.984C464.007 337.698 464.553 338.174 465.463 338.174C466.653 338.174 467.787 337.628 467.787 335.85ZM465.183 339.182C463.769 339.182 462.593 338.398 462.593 337.012C462.593 335.234 464.609 334.702 467.689 334.366V334.184C467.689 332.798 466.933 332.35 465.981 332.35C464.917 332.35 464.315 332.91 464.259 333.848H462.943C463.055 332.224 464.511 331.314 465.967 331.314C468.053 331.314 468.977 332.294 468.963 334.422L468.949 336.158C468.935 337.432 468.991 338.286 469.145 339H467.857C467.815 338.72 467.773 338.412 467.759 337.964C467.297 338.748 466.527 339.182 465.183 339.182ZM479.42 339V333.316L475.528 339H474.254V331.468H475.528V337.152L479.42 331.468H480.694V339H479.42ZM490.978 332.574H487.45V339H486.176V331.468H490.978V332.574ZM492.743 335.262C492.743 337.278 493.835 338.062 494.997 338.062C496.159 338.062 497.251 337.194 497.251 335.262C497.251 333.246 496.159 332.462 494.997 332.462C493.835 332.462 492.743 333.204 492.743 335.262ZM494.997 331.342C496.747 331.342 498.609 332.532 498.609 335.262C498.609 337.992 496.747 339.182 494.997 339.182C493.247 339.182 491.385 337.992 491.385 335.262C491.385 332.532 493.247 331.342 494.997 331.342ZM503.364 331.342C505.212 331.342 506.332 332.7 506.514 333.988H505.226C505.044 333.092 504.274 332.462 503.28 332.462C502.16 332.462 501.11 333.344 501.11 335.234C501.11 337.138 502.16 338.062 503.28 338.062C504.358 338.062 505.1 337.334 505.282 336.55H506.598C506.332 337.964 505.002 339.182 503.238 339.182C501.068 339.182 499.724 337.544 499.724 335.248C499.724 333.008 501.138 331.342 503.364 331.342ZM513.417 332.574H510.841V339H509.567V332.574H506.991V331.468H513.417V332.574ZM521.043 335.654H515.247C515.289 337.278 516.465 338.062 517.571 338.062C518.691 338.062 519.307 337.558 519.629 336.816H520.945C520.609 338.104 519.405 339.182 517.571 339.182C515.191 339.182 513.875 337.474 513.875 335.248C513.875 332.854 515.471 331.342 517.529 331.342C519.839 331.342 521.197 333.26 521.043 335.654ZM517.529 332.434C516.409 332.434 515.373 333.05 515.261 334.562H519.699C519.657 333.498 518.887 332.434 517.529 332.434ZM528.813 331.468V339H527.539V332.574H523.885V339H522.611V331.468H528.813ZM530.965 331.468H532.239V332.658C532.701 331.86 533.485 331.342 534.703 331.342C536.439 331.342 537.923 332.798 537.923 335.262C537.923 337.768 536.439 339.182 534.703 339.182C533.485 339.182 532.701 338.664 532.239 337.866V341.45H530.965V331.468ZM532.183 335.262C532.183 337.25 533.247 338.09 534.381 338.09C535.683 338.09 536.537 337.068 536.537 335.262C536.537 333.456 535.683 332.434 534.381 332.434C533.247 332.434 532.183 333.274 532.183 335.262ZM544.662 339V333.316L540.77 339H539.496V331.468H540.77V337.152L544.662 331.468H545.936V339H544.662ZM553.262 339V333.316L549.37 339H548.096V331.468H549.37V337.152L553.262 331.468H554.536V339H553.262ZM564.927 331.468V339H563.681V332.952L561.259 339H560.349L557.941 333.036V339H556.695V331.468H558.515L560.853 337.264L563.107 331.468H564.927ZM570.138 331.342C571.986 331.342 573.106 332.7 573.288 333.988H572C571.818 333.092 571.048 332.462 570.054 332.462C568.934 332.462 567.884 333.344 567.884 335.234C567.884 337.138 568.934 338.062 570.054 338.062C571.132 338.062 571.874 337.334 572.056 336.55H573.372C573.106 337.964 571.776 339.182 570.012 339.182C567.842 339.182 566.498 337.544 566.498 335.248C566.498 333.008 567.912 331.342 570.138 331.342ZM580.191 332.574H577.615V339H576.341V332.574H573.765V331.468H580.191V332.574ZM581.482 331.468H584.758C586.27 331.468 587.502 331.86 587.502 333.386C587.502 334.184 587.152 334.744 586.452 335.038C587.236 335.262 587.81 335.794 587.81 336.802C587.81 338.37 586.592 339 584.982 339H581.482V331.468ZM582.756 334.632H584.674C585.612 334.632 586.172 334.38 586.172 333.526C586.172 332.742 585.584 332.574 584.632 332.574H582.756V334.632ZM582.756 335.682V337.894H584.786C585.906 337.894 586.48 337.572 586.48 336.788C586.48 335.948 585.92 335.682 584.744 335.682H582.756ZM593.979 335.85V335.374C591.669 335.598 590.199 335.948 590.199 336.984C590.199 337.698 590.745 338.174 591.655 338.174C592.845 338.174 593.979 337.628 593.979 335.85ZM591.375 339.182C589.961 339.182 588.785 338.398 588.785 337.012C588.785 335.234 590.801 334.702 593.881 334.366V334.184C593.881 332.798 593.125 332.35 592.173 332.35C591.109 332.35 590.507 332.91 590.451 333.848H589.135C589.247 332.224 590.703 331.314 592.159 331.314C594.245 331.314 595.169 332.294 595.155 334.422L595.141 336.158C595.127 337.432 595.183 338.286 595.337 339H594.049C594.007 338.72 593.965 338.412 593.951 337.964C593.489 338.748 592.719 339.182 591.375 339.182ZM606.451 339H604.939L602.139 330.152V339H600.711V328.85H603.105L605.695 337.306L608.285 328.85H610.679V339H609.251V330.152L606.451 339ZM613.903 335.262C613.903 337.278 614.995 338.062 616.157 338.062C617.319 338.062 618.411 337.194 618.411 335.262C618.411 333.246 617.319 332.462 616.157 332.462C614.995 332.462 613.903 333.204 613.903 335.262ZM616.157 331.342C617.907 331.342 619.769 332.532 619.769 335.262C619.769 337.992 617.907 339.182 616.157 339.182C614.407 339.182 612.545 337.992 612.545 335.262C612.545 332.532 614.407 331.342 616.157 331.342ZM624.525 331.342C626.373 331.342 627.493 332.7 627.675 333.988H626.387C626.205 333.092 625.435 332.462 624.441 332.462C623.321 332.462 622.271 333.344 622.271 335.234C622.271 337.138 623.321 338.062 624.441 338.062C625.519 338.062 626.261 337.334 626.443 336.55H627.759C627.493 337.964 626.163 339.182 624.399 339.182C622.229 339.182 620.885 337.544 620.885 335.248C620.885 333.008 622.299 331.342 624.525 331.342ZM634.11 339L631.52 335.654H630.554V339H629.266V331.468H630.554V334.548H631.492L633.886 331.468H635.398L632.556 335.024L635.692 339H634.11ZM636.908 331.468H640.184C641.696 331.468 642.928 331.86 642.928 333.386C642.928 334.184 642.578 334.744 641.878 335.038C642.662 335.262 643.236 335.794 643.236 336.802C643.236 338.37 642.018 339 640.408 339H636.908V331.468ZM638.182 334.632H640.1C641.038 334.632 641.598 334.38 641.598 333.526C641.598 332.742 641.01 332.574 640.058 332.574H638.182V334.632ZM638.182 335.682V337.894H640.212C641.332 337.894 641.906 337.572 641.906 336.788C641.906 335.948 641.346 335.682 640.17 335.682H638.182ZM647.444 339H644.728V331.468H646.002V334.128H647.458C649.418 334.128 650.272 334.898 650.272 336.508C650.272 338.37 649.166 339 647.444 339ZM646.002 335.234V337.894H647.332C648.452 337.894 649.026 337.53 649.026 336.508C649.026 335.5 648.466 335.234 647.29 335.234H646.002ZM652.792 339H651.518V331.468H652.792V339ZM657.783 335.178L655.557 338.384H654.185L656.299 335.178L654.185 331.986H655.557L657.783 335.178ZM660.933 335.178L658.707 338.384H657.335L659.449 335.178L657.335 331.986H658.707L660.933 335.178Z" fill="#747474" style="fill:#747474;fill:color(display-p3 0.4542 0.4542 0.4542);fill-opacity:1;"/>
<path d="M117.268 361H115.84V352.082H110.772V361H109.344V350.85H117.268V361ZM120.485 357.262C120.485 359.278 121.577 360.062 122.739 360.062C123.901 360.062 124.993 359.194 124.993 357.262C124.993 355.246 123.901 354.462 122.739 354.462C121.577 354.462 120.485 355.204 120.485 357.262ZM122.739 353.342C124.489 353.342 126.351 354.532 126.351 357.262C126.351 359.992 124.489 361.182 122.739 361.182C120.989 361.182 119.127 359.992 119.127 357.262C119.127 354.532 120.989 353.342 122.739 353.342ZM133.786 353.468V361H132.512V354.574H129.978L129.866 356.394C129.684 359.432 129.026 361 127.276 361H127.038V359.894H127.178C127.85 359.894 128.494 359.166 128.648 356.044L128.76 353.468H133.786ZM141.109 361V355.316L137.217 361H135.943V353.468H137.217V359.152L141.109 353.468H142.383V361H141.109ZM150.101 354.574H147.525V361H146.251V354.574H143.675V353.468H150.101V354.574ZM156.558 361V355.316L152.666 361H151.392V353.468H152.666V359.152L156.558 353.468H157.832V361H156.558ZM164.836 361L162.246 357.654H161.28V361H159.992V353.468H161.28V356.548H162.218L164.612 353.468H166.124L163.282 357.024L166.418 361H164.836ZM172.133 357.85V357.374C169.823 357.598 168.353 357.948 168.353 358.984C168.353 359.698 168.899 360.174 169.809 360.174C170.999 360.174 172.133 359.628 172.133 357.85ZM169.529 361.182C168.115 361.182 166.939 360.398 166.939 359.012C166.939 357.234 168.955 356.702 172.035 356.366V356.184C172.035 354.798 171.279 354.35 170.327 354.35C169.263 354.35 168.661 354.91 168.605 355.848H167.289C167.401 354.224 168.857 353.314 170.313 353.314C172.399 353.314 173.323 354.294 173.309 356.422L173.295 358.158C173.281 359.432 173.337 360.286 173.491 361H172.203C172.161 360.72 172.119 360.412 172.105 359.964C171.643 360.748 170.873 361.182 169.529 361.182ZM183.443 361L180.853 357.654H179.887V361H178.599V353.468H179.887V356.548H180.825L183.219 353.468H184.731L181.889 357.024L185.025 361H183.443ZM186.767 357.262C186.767 359.278 187.859 360.062 189.021 360.062C190.183 360.062 191.275 359.194 191.275 357.262C191.275 355.246 190.183 354.462 189.021 354.462C187.859 354.462 186.767 355.204 186.767 357.262ZM189.021 353.342C190.771 353.342 192.633 354.532 192.633 357.262C192.633 359.992 190.771 361.182 189.021 361.182C187.271 361.182 185.409 359.992 185.409 357.262C185.409 354.532 187.271 353.342 189.021 353.342ZM200.498 361H199.224V357.71H195.5V361H194.226V353.468H195.5V356.604H199.224V353.468H200.498V361ZM207.212 350.85V353.482C209.41 353.482 211.09 354.7 211.09 357.262C211.09 359.908 209.382 361.07 207.212 361.07V363.45H205.938V361.07C203.754 361.07 202.06 359.908 202.06 357.262C202.06 354.7 203.754 353.482 205.938 353.482V350.85H207.212ZM205.938 359.978V354.574C204.482 354.574 203.418 355.456 203.418 357.304C203.418 359.138 204.44 359.978 205.938 359.978ZM207.212 354.574V359.978C208.668 359.978 209.732 359.138 209.732 357.304C209.732 355.456 208.71 354.574 207.212 354.574ZM217.822 361V355.316L213.93 361H212.656V353.468H213.93V359.152L217.822 353.468H219.096V361H217.822ZM228.298 359.894V362.666H227.066V361H221.55V362.666H220.318V359.894H220.654C221.508 359.894 221.956 358.774 222.068 355.89L222.166 353.468H227.248V359.894H228.298ZM225.974 359.894V354.574H223.398L223.328 356.016C223.216 358.242 222.894 359.334 222.306 359.894H225.974ZM236.162 357.654H230.366C230.408 359.278 231.584 360.062 232.69 360.062C233.81 360.062 234.426 359.558 234.748 358.816H236.064C235.728 360.104 234.524 361.182 232.69 361.182C230.31 361.182 228.994 359.474 228.994 357.248C228.994 354.854 230.59 353.342 232.648 353.342C234.958 353.342 236.316 355.26 236.162 357.654ZM232.648 354.434C231.528 354.434 230.492 355.05 230.38 356.562H234.818C234.776 355.498 234.006 354.434 232.648 354.434ZM244.002 361H242.728V357.71H239.004V361H237.73V353.468H239.004V356.604H242.728V353.468H244.002V361ZM252.144 359.894H253.194V362.806H251.99V361H246.152V353.468H247.426V359.894H250.87V353.468H252.144V359.894ZM259.644 361V355.316L255.752 361H254.478V353.468H255.752V359.152L259.644 353.468H260.918V361H259.644ZM267.754 357.85V357.374C265.444 357.598 263.974 357.948 263.974 358.984C263.974 359.698 264.52 360.174 265.43 360.174C266.62 360.174 267.754 359.628 267.754 357.85ZM265.15 361.182C263.736 361.182 262.56 360.398 262.56 359.012C262.56 357.234 264.576 356.702 267.656 356.366V356.184C267.656 354.798 266.9 354.35 265.948 354.35C264.884 354.35 264.282 354.91 264.226 355.848H262.91C263.022 354.224 264.478 353.314 265.934 353.314C268.02 353.314 268.944 354.294 268.93 356.422L268.916 358.158C268.902 359.432 268.958 360.286 269.112 361H267.824C267.782 360.72 267.74 360.412 267.726 359.964C267.264 360.748 266.494 361.182 265.15 361.182ZM276.848 353.468V361H275.574V354.574H273.04L272.928 356.394C272.746 359.432 272.088 361 270.338 361H270.1V359.894H270.24C270.912 359.894 271.556 359.166 271.71 356.044L271.822 353.468H276.848ZM280.28 356.128H282.072C284.046 356.128 284.886 356.898 284.886 358.508C284.886 360.37 283.794 361 282.058 361H279.006V353.468H280.28V356.128ZM280.28 359.894H281.946C283.066 359.894 283.64 359.516 283.64 358.508C283.64 357.514 283.052 357.234 281.918 357.234H280.28V359.894ZM292.592 361H291.318V357.71H287.594V361H286.32V353.468H287.594V356.604H291.318V353.468H292.592V361ZM295.54 357.262C295.54 359.278 296.632 360.062 297.794 360.062C298.956 360.062 300.048 359.194 300.048 357.262C300.048 355.246 298.956 354.462 297.794 354.462C296.632 354.462 295.54 355.204 295.54 357.262ZM297.794 353.342C299.544 353.342 301.406 354.532 301.406 357.262C301.406 359.992 299.544 361.182 297.794 361.182C296.044 361.182 294.182 359.992 294.182 357.262C294.182 354.532 296.044 353.342 297.794 353.342ZM306.161 353.342C308.009 353.342 309.129 354.7 309.311 355.988H308.023C307.841 355.092 307.071 354.462 306.077 354.462C304.957 354.462 303.907 355.344 303.907 357.234C303.907 359.138 304.957 360.062 306.077 360.062C307.155 360.062 307.897 359.334 308.079 358.55H309.395C309.129 359.964 307.799 361.182 306.035 361.182C303.865 361.182 302.521 359.544 302.521 357.248C302.521 355.008 303.935 353.342 306.161 353.342ZM316.214 354.574H313.638V361H312.364V354.574H309.788V353.468H316.214V354.574ZM322.672 361V355.316L318.78 361H317.506V353.468H318.78V359.152L322.672 353.468H323.946V361H322.672Z" fill="#747474" style="fill:#747474;fill:color(display-p3 0.4542 0.4542 0.4542);fill-opacity:1;"/>
<path d="M351.782 361H350.354V352.082H345.286V361H343.858V350.85H351.782V361ZM354.999 357.262C354.999 359.278 356.091 360.062 357.253 360.062C358.415 360.062 359.507 359.194 359.507 357.262C359.507 355.246 358.415 354.462 357.253 354.462C356.091 354.462 354.999 355.204 354.999 357.262ZM357.253 353.342C359.003 353.342 360.865 354.532 360.865 357.262C360.865 359.992 359.003 361.182 357.253 361.182C355.503 361.182 353.641 359.992 353.641 357.262C353.641 354.532 355.503 353.342 357.253 353.342ZM368.299 353.468V361H367.025V354.574H364.491L364.379 356.394C364.197 359.432 363.539 361 361.789 361H361.551V359.894H361.691C362.363 359.894 363.007 359.166 363.161 356.044L363.273 353.468H368.299ZM375.623 361V355.316L371.731 361H370.457V353.468H371.731V359.152L375.623 353.468H376.897V361H375.623ZM384.615 354.574H382.039V361H380.765V354.574H378.189V353.468H384.615V354.574ZM391.072 361V355.316L387.18 361H385.906V353.468H387.18V359.152L391.072 353.468H392.346V361H391.072ZM399.35 361L396.76 357.654H395.794V361H394.506V353.468H395.794V356.548H396.732L399.126 353.468H400.638L397.796 357.024L400.932 361H399.35ZM406.647 357.85V357.374C404.337 357.598 402.867 357.948 402.867 358.984C402.867 359.698 403.413 360.174 404.323 360.174C405.513 360.174 406.647 359.628 406.647 357.85ZM404.043 361.182C402.629 361.182 401.453 360.398 401.453 359.012C401.453 357.234 403.469 356.702 406.549 356.366V356.184C406.549 354.798 405.793 354.35 404.841 354.35C403.777 354.35 403.175 354.91 403.119 355.848H401.803C401.915 354.224 403.371 353.314 404.827 353.314C406.913 353.314 407.837 354.294 407.823 356.422L407.809 358.158C407.795 359.432 407.851 360.286 408.005 361H406.717C406.675 360.72 406.633 360.412 406.619 359.964C406.157 360.748 405.387 361.182 404.043 361.182ZM413.911 357.262C413.911 359.278 415.003 360.062 416.165 360.062C417.327 360.062 418.419 359.194 418.419 357.262C418.419 355.246 417.327 354.462 416.165 354.462C415.003 354.462 413.911 355.204 413.911 357.262ZM416.165 353.342C417.915 353.342 419.777 354.532 419.777 357.262C419.777 359.992 417.915 361.182 416.165 361.182C414.415 361.182 412.553 359.992 412.553 357.262C412.553 354.532 414.415 353.342 416.165 353.342ZM424.759 353.902C426.467 353.902 427.937 355.092 427.937 357.472C427.937 359.894 426.383 361.182 424.535 361.182C422.589 361.182 420.993 359.824 420.993 357.08V356.212C421.035 353.496 421.931 351.914 424.955 351.312L427.433 350.822V351.956L425.025 352.474C423.191 352.88 422.309 353.566 422.127 355.442C422.631 354.392 423.639 353.902 424.759 353.902ZM424.535 360.076C425.767 360.076 426.579 359.138 426.579 357.5C426.579 355.848 425.711 355.008 424.549 355.008C423.401 355.008 422.365 355.792 422.365 357.486C422.365 359.082 423.261 360.076 424.535 360.076ZM429.437 353.468H430.711V354.658C431.173 353.86 431.957 353.342 433.175 353.342C434.911 353.342 436.395 354.798 436.395 357.262C436.395 359.768 434.911 361.182 433.175 361.182C431.957 361.182 431.173 360.664 430.711 359.866V363.45H429.437V353.468ZM430.655 357.262C430.655 359.25 431.719 360.09 432.853 360.09C434.155 360.09 435.009 359.068 435.009 357.262C435.009 355.456 434.155 354.434 432.853 354.434C431.719 354.434 430.655 355.274 430.655 357.262ZM442.645 357.85V357.374C440.335 357.598 438.865 357.948 438.865 358.984C438.865 359.698 439.411 360.174 440.321 360.174C441.511 360.174 442.645 359.628 442.645 357.85ZM440.041 361.182C438.627 361.182 437.451 360.398 437.451 359.012C437.451 357.234 439.467 356.702 442.547 356.366V356.184C442.547 354.798 441.791 354.35 440.839 354.35C439.775 354.35 439.173 354.91 439.117 355.848H437.801C437.913 354.224 439.369 353.314 440.825 353.314C442.911 353.314 443.835 354.294 443.821 356.422L443.807 358.158C443.793 359.432 443.849 360.286 444.003 361H442.715C442.673 360.72 442.631 360.412 442.617 359.964C442.155 360.748 441.385 361.182 440.041 361.182ZM449.177 353.902C450.885 353.902 452.355 355.092 452.355 357.472C452.355 359.894 450.801 361.182 448.953 361.182C447.007 361.182 445.411 359.824 445.411 357.08V356.212C445.453 353.496 446.349 351.914 449.373 351.312L451.851 350.822V351.956L449.443 352.474C447.609 352.88 446.727 353.566 446.545 355.442C447.049 354.392 448.057 353.902 449.177 353.902ZM448.953 360.076C450.185 360.076 450.997 359.138 450.997 357.5C450.997 355.848 450.129 355.008 448.967 355.008C447.819 355.008 446.783 355.792 446.783 357.486C446.783 359.082 447.679 360.076 448.953 360.076ZM454.653 357.262C454.653 359.278 455.745 360.062 456.907 360.062C458.069 360.062 459.161 359.194 459.161 357.262C459.161 355.246 458.069 354.462 456.907 354.462C455.745 354.462 454.653 355.204 454.653 357.262ZM456.907 353.342C458.657 353.342 460.519 354.532 460.519 357.262C460.519 359.992 458.657 361.182 456.907 361.182C455.157 361.182 453.295 359.992 453.295 357.262C453.295 354.532 455.157 353.342 456.907 353.342ZM467.425 354.574H464.849V361H463.575V354.574H460.999V353.468H467.425V354.574ZM473.561 361L470.971 357.654H470.005V361H468.717V353.468H470.005V356.548H470.943L473.337 353.468H474.849L472.007 357.024L475.143 361H473.561ZM481.525 361V355.316L477.633 361H476.359V353.468H477.633V359.152L481.525 353.468H482.799V361H481.525ZM494.483 353.468V361H493.209V354.574H489.555V361H488.281V353.468H494.483ZM503.215 357.654H497.419C497.461 359.278 498.637 360.062 499.743 360.062C500.863 360.062 501.479 359.558 501.801 358.816H503.117C502.781 360.104 501.577 361.182 499.743 361.182C497.363 361.182 496.047 359.474 496.047 357.248C496.047 354.854 497.643 353.342 499.701 353.342C502.011 353.342 503.369 355.26 503.215 357.654ZM499.701 354.434C498.581 354.434 497.545 355.05 497.433 356.562H501.871C501.829 355.498 501.059 354.434 499.701 354.434ZM504.783 353.468H506.057V354.658C506.519 353.86 507.303 353.342 508.521 353.342C510.257 353.342 511.741 354.798 511.741 357.262C511.741 359.768 510.257 361.182 508.521 361.182C507.303 361.182 506.519 360.664 506.057 359.866V363.45H504.783V353.468ZM506.001 357.262C506.001 359.25 507.065 360.09 508.199 360.09C509.501 360.09 510.355 359.068 510.355 357.262C510.355 355.456 509.501 354.434 508.199 354.434C507.065 354.434 506.001 355.274 506.001 357.262ZM516.476 353.342C518.324 353.342 519.444 354.7 519.626 355.988H518.338C518.156 355.092 517.386 354.462 516.392 354.462C515.272 354.462 514.222 355.344 514.222 357.234C514.222 359.138 515.272 360.062 516.392 360.062C517.47 360.062 518.212 359.334 518.394 358.55H519.71C519.444 359.964 518.114 361.182 516.35 361.182C514.18 361.182 512.836 359.544 512.836 357.248C512.836 355.008 514.25 353.342 516.476 353.342ZM522.083 357.262C522.083 359.278 523.175 360.062 524.337 360.062C525.499 360.062 526.591 359.194 526.591 357.262C526.591 355.246 525.499 354.462 524.337 354.462C523.175 354.462 522.083 355.204 522.083 357.262ZM524.337 353.342C526.087 353.342 527.949 354.532 527.949 357.262C527.949 359.992 526.087 361.182 524.337 361.182C522.587 361.182 520.725 359.992 520.725 357.262C520.725 354.532 522.587 353.342 524.337 353.342ZM535.815 361H534.541V357.71H530.817V361H529.543V353.468H530.817V356.604H534.541V353.468H535.815V361ZM542.641 357.85V357.374C540.331 357.598 538.861 357.948 538.861 358.984C538.861 359.698 539.407 360.174 540.317 360.174C541.507 360.174 542.641 359.628 542.641 357.85ZM540.037 361.182C538.623 361.182 537.447 360.398 537.447 359.012C537.447 357.234 539.463 356.702 542.543 356.366V356.184C542.543 354.798 541.787 354.35 540.835 354.35C539.771 354.35 539.169 354.91 539.113 355.848H537.797C537.909 354.224 539.365 353.314 540.821 353.314C542.907 353.314 543.831 354.294 543.817 356.422L543.803 358.158C543.789 359.432 543.845 360.286 543.999 361H542.711C542.669 360.72 542.627 360.412 542.613 359.964C542.151 360.748 541.381 361.182 540.037 361.182ZM551.735 353.468V361H550.461V354.574H547.927L547.815 356.394C547.633 359.432 546.975 361 545.225 361H544.987V359.894H545.127C545.799 359.894 546.443 359.166 546.597 356.044L546.709 353.468H551.735ZM555.166 356.128H556.958C558.932 356.128 559.772 356.898 559.772 358.508C559.772 360.37 558.68 361 556.944 361H553.892V353.468H555.166V356.128ZM555.166 359.894H556.832C557.952 359.894 558.526 359.516 558.526 358.508C558.526 357.514 557.938 357.234 556.804 357.234H555.166V359.894ZM567.479 361H566.205V357.71H562.481V361H561.207V353.468H562.481V356.604H566.205V353.468H567.479V361ZM572.345 361H569.629V353.468H570.903V356.128H572.359C574.319 356.128 575.173 356.898 575.173 358.508C575.173 360.37 574.067 361 572.345 361ZM570.903 357.234V359.894H572.233C573.353 359.894 573.927 359.53 573.927 358.508C573.927 357.5 573.367 357.234 572.191 357.234H570.903ZM577.693 361H576.419V353.468H577.693V361ZM585.721 353.468L583.159 357.066L585.973 361H584.447L582.403 358.13L580.373 361H578.917L581.689 357.122L579.085 353.468H580.611L582.445 356.058L584.293 353.468H585.721ZM597.561 359.894V362.666H596.329V361H590.813V362.666H589.581V359.894H589.917C590.771 359.894 591.219 358.774 591.331 355.89L591.429 353.468H596.511V359.894H597.561ZM595.237 359.894V354.574H592.661L592.591 356.016C592.479 358.242 592.157 359.334 591.569 359.894H595.237ZM603.522 357.85V357.374C601.212 357.598 599.742 357.948 599.742 358.984C599.742 359.698 600.288 360.174 601.198 360.174C602.388 360.174 603.522 359.628 603.522 357.85ZM600.918 361.182C599.504 361.182 598.328 360.398 598.328 359.012C598.328 357.234 600.344 356.702 603.424 356.366V356.184C603.424 354.798 602.668 354.35 601.716 354.35C600.652 354.35 600.05 354.91 599.994 355.848H598.678C598.79 354.224 600.246 353.314 601.702 353.314C603.788 353.314 604.712 354.294 604.698 356.422L604.684 358.158C604.67 359.432 604.726 360.286 604.88 361H603.592C603.55 360.72 603.508 360.412 603.494 359.964C603.032 360.748 602.262 361.182 600.918 361.182ZM612.938 361H611.664V357.71H607.94V361H606.666V353.468H607.94V356.604H611.664V353.468H612.938V361ZM621.36 361H620.086V357.71H616.362V361H615.088V353.468H616.362V356.604H620.086V353.468H621.36V361ZM626.226 361H623.51V353.468H624.784V356.128H626.24C628.2 356.128 629.054 356.898 629.054 358.508C629.054 360.37 627.948 361 626.226 361ZM624.784 357.234V359.894H626.114C627.234 359.894 627.808 359.53 627.808 358.508C627.808 357.5 627.248 357.234 626.072 357.234H624.784ZM631.574 361H630.3V353.468H631.574V361ZM639.602 353.468L637.04 357.066L639.854 361H638.328L636.284 358.13L634.254 361H632.798L635.57 357.122L632.966 353.468H634.492L636.326 356.058L638.174 353.468H639.602Z" fill="#747474" style="fill:#747474;fill:color(display-p3 0.4542 0.4542 0.4542);fill-opacity:1;"/>
<path d="M665.561 361H664.133V352.082H659.065V361H657.637V350.85H665.561V361ZM668.778 357.262C668.778 359.278 669.87 360.062 671.032 360.062C672.194 360.062 673.286 359.194 673.286 357.262C673.286 355.246 672.194 354.462 671.032 354.462C669.87 354.462 668.778 355.204 668.778 357.262ZM671.032 353.342C672.782 353.342 674.644 354.532 674.644 357.262C674.644 359.992 672.782 361.182 671.032 361.182C669.282 361.182 667.42 359.992 667.42 357.262C667.42 354.532 669.282 353.342 671.032 353.342ZM682.079 353.468V361H680.805V354.574H678.271L678.159 356.394C677.977 359.432 677.319 361 675.569 361H675.331V359.894H675.471C676.143 359.894 676.787 359.166 676.941 356.044L677.053 353.468H682.079ZM685.51 356.128H687.302C689.276 356.128 690.116 356.898 690.116 358.508C690.116 360.37 689.024 361 687.288 361H684.236V353.468H685.51V356.128ZM685.51 359.894H687.176C688.296 359.894 688.87 359.516 688.87 358.508C688.87 357.514 688.282 357.234 687.148 357.234H685.51V359.894ZM695.856 357.052C696.654 357.276 697.382 357.85 697.382 358.858C697.382 360.482 695.884 361.182 694.204 361.182C692.594 361.182 691.264 360.426 690.998 358.704H692.286C692.496 359.67 693.21 360.118 694.288 360.118C695.352 360.118 696.024 359.628 696.024 358.914C696.024 358.032 695.45 357.682 694.386 357.682H693.182V356.632H694.316C695.198 356.632 695.73 356.24 695.73 355.456C695.73 354.742 695.086 354.42 694.26 354.42C693.322 354.42 692.608 354.77 692.44 355.792H691.124C691.39 354.154 692.608 353.3 694.19 353.3C695.674 353.3 697.046 354.014 697.046 355.428C697.046 356.198 696.528 356.73 695.856 357.052ZM699.69 357.262C699.69 359.278 700.782 360.062 701.944 360.062C703.106 360.062 704.198 359.194 704.198 357.262C704.198 355.246 703.106 354.462 701.944 354.462C700.782 354.462 699.69 355.204 699.69 357.262ZM701.944 353.342C703.694 353.342 705.556 354.532 705.556 357.262C705.556 359.992 703.694 361.182 701.944 361.182C700.194 361.182 698.332 359.992 698.332 357.262C698.332 354.532 700.194 353.342 701.944 353.342ZM707.15 353.468H710.426C711.938 353.468 713.17 353.86 713.17 355.386C713.17 356.184 712.82 356.744 712.12 357.038C712.904 357.262 713.478 357.794 713.478 358.802C713.478 360.37 712.26 361 710.65 361H707.15V353.468ZM708.424 356.632H710.342C711.28 356.632 711.84 356.38 711.84 355.526C711.84 354.742 711.252 354.574 710.3 354.574H708.424V356.632ZM708.424 357.682V359.894H710.454C711.574 359.894 712.148 359.572 712.148 358.788C712.148 357.948 711.588 357.682 710.412 357.682H708.424ZM719.647 357.85V357.374C717.337 357.598 715.867 357.948 715.867 358.984C715.867 359.698 716.413 360.174 717.323 360.174C718.513 360.174 719.647 359.628 719.647 357.85ZM717.043 361.182C715.629 361.182 714.453 360.398 714.453 359.012C714.453 357.234 716.469 356.702 719.549 356.366V356.184C719.549 354.798 718.793 354.35 717.841 354.35C716.777 354.35 716.175 354.91 716.119 355.848H714.803C714.915 354.224 716.371 353.314 717.827 353.314C719.913 353.314 720.837 354.294 720.823 356.422L720.809 358.158C720.795 359.432 720.851 360.286 721.005 361H719.717C719.675 360.72 719.633 360.412 719.619 359.964C719.157 360.748 718.387 361.182 717.043 361.182ZM727.952 354.574H725.376V361H724.102V354.574H721.526V353.468H727.952V354.574ZM735.578 357.654H729.782C729.824 359.278 731 360.062 732.106 360.062C733.226 360.062 733.842 359.558 734.164 358.816H735.48C735.144 360.104 733.94 361.182 732.106 361.182C729.726 361.182 728.41 359.474 728.41 357.248C728.41 354.854 730.006 353.342 732.064 353.342C734.374 353.342 735.732 355.26 735.578 357.654ZM732.064 354.434C730.944 354.434 729.908 355.05 729.796 356.562H734.234C734.192 355.498 733.422 354.434 732.064 354.434ZM743.096 353.468V361H741.822V354.574H739.288L739.176 356.394C738.994 359.432 738.336 361 736.586 361H736.348V359.894H736.488C737.16 359.894 737.804 359.166 737.958 356.044L738.07 353.468H743.096ZM746.528 356.128H748.32C750.294 356.128 751.134 356.898 751.134 358.508C751.134 360.37 750.042 361 748.306 361H745.254V353.468H746.528V356.128ZM746.528 359.894H748.194C749.314 359.894 749.888 359.516 749.888 358.508C749.888 357.514 749.3 357.234 748.166 357.234H746.528V359.894ZM755.73 353.342C757.578 353.342 758.698 354.7 758.88 355.988H757.592C757.41 355.092 756.64 354.462 755.646 354.462C754.526 354.462 753.476 355.344 753.476 357.234C753.476 359.138 754.526 360.062 755.646 360.062C756.724 360.062 757.466 359.334 757.648 358.55H758.964C758.698 359.964 757.368 361.182 755.604 361.182C753.434 361.182 752.09 359.544 752.09 357.248C752.09 355.008 753.504 353.342 755.73 353.342ZM765.315 361L762.725 357.654H761.759V361H760.471V353.468H761.759V356.548H762.697L765.091 353.468H766.603L763.761 357.024L766.897 361H765.315ZM768.638 357.262C768.638 359.278 769.73 360.062 770.892 360.062C772.054 360.062 773.146 359.194 773.146 357.262C773.146 355.246 772.054 354.462 770.892 354.462C769.73 354.462 768.638 355.204 768.638 357.262ZM770.892 353.342C772.642 353.342 774.504 354.532 774.504 357.262C774.504 359.992 772.642 361.182 770.892 361.182C769.142 361.182 767.28 359.992 767.28 357.262C767.28 354.532 769.142 353.342 770.892 353.342ZM782.787 357.654H776.991C777.033 359.278 778.209 360.062 779.315 360.062C780.435 360.062 781.051 359.558 781.373 358.816H782.689C782.353 360.104 781.149 361.182 779.315 361.182C776.935 361.182 775.619 359.474 775.619 357.248C775.619 354.854 777.215 353.342 779.273 353.342C781.583 353.342 782.941 355.26 782.787 357.654ZM779.273 354.434C778.153 354.434 777.117 355.05 777.005 356.562H781.443C781.401 355.498 780.631 354.434 779.273 354.434ZM790.73 353.342C792.578 353.342 793.698 354.7 793.88 355.988H792.592C792.41 355.092 791.64 354.462 790.646 354.462C789.526 354.462 788.476 355.344 788.476 357.234C788.476 359.138 789.526 360.062 790.646 360.062C791.724 360.062 792.466 359.334 792.648 358.55H793.964C793.698 359.964 792.368 361.182 790.604 361.182C788.434 361.182 787.09 359.544 787.09 357.248C787.09 355.008 788.504 353.342 790.73 353.342ZM796.337 357.262C796.337 359.278 797.429 360.062 798.591 360.062C799.753 360.062 800.845 359.194 800.845 357.262C800.845 355.246 799.753 354.462 798.591 354.462C797.429 354.462 796.337 355.204 796.337 357.262ZM798.591 353.342C800.341 353.342 802.203 354.532 802.203 357.262C802.203 359.992 800.341 361.182 798.591 361.182C796.841 361.182 794.979 359.992 794.979 357.262C794.979 354.532 796.841 353.342 798.591 353.342ZM808.599 354.574H805.071V361H803.797V353.468H808.599V354.574ZM815.339 353.468V361H814.065V354.574H811.531L811.419 356.394C811.237 359.432 810.579 361 808.829 361H808.591V359.894H808.731C809.403 359.894 810.047 359.166 810.201 356.044L810.313 353.468H815.339ZM822.172 357.85V357.374C819.862 357.598 818.392 357.948 818.392 358.984C818.392 359.698 818.938 360.174 819.848 360.174C821.038 360.174 822.172 359.628 822.172 357.85ZM819.568 361.182C818.154 361.182 816.978 360.398 816.978 359.012C816.978 357.234 818.994 356.702 822.074 356.366V356.184C822.074 354.798 821.318 354.35 820.366 354.35C819.302 354.35 818.7 354.91 818.644 355.848H817.328C817.44 354.224 818.896 353.314 820.352 353.314C822.438 353.314 823.362 354.294 823.348 356.422L823.334 358.158C823.32 359.432 823.376 360.286 823.53 361H822.242C822.2 360.72 822.158 360.412 822.144 359.964C821.682 360.748 820.912 361.182 819.568 361.182ZM834.598 353.468V361H825.316V353.468H826.59V359.894H829.32V353.468H830.594V359.894H833.324V353.468H834.598ZM843.34 357.654H837.544C837.586 359.278 838.762 360.062 839.868 360.062C840.988 360.062 841.604 359.558 841.926 358.816H843.242C842.906 360.104 841.702 361.182 839.868 361.182C837.488 361.182 836.172 359.474 836.172 357.248C836.172 354.854 837.768 353.342 839.826 353.342C842.136 353.342 843.494 355.26 843.34 357.654ZM839.826 354.434C838.706 354.434 837.67 355.05 837.558 356.562H841.996C841.954 355.498 841.184 354.434 839.826 354.434ZM851.18 361H849.906V357.71H846.182V361H844.908V353.468H846.182V356.604H849.906V353.468H851.18V361ZM858.496 361V355.316L854.604 361H853.33V353.468H854.604V359.152L858.496 353.468H859.77V361H858.496ZM868.51 357.654H862.714C862.756 359.278 863.932 360.062 865.038 360.062C866.158 360.062 866.774 359.558 867.096 358.816H868.412C868.076 360.104 866.872 361.182 865.038 361.182C862.658 361.182 861.342 359.474 861.342 357.248C861.342 354.854 862.938 353.342 864.996 353.342C867.306 353.342 868.664 355.26 868.51 357.654ZM864.996 354.434C863.876 354.434 862.84 355.05 862.728 356.562H867.166C867.124 355.498 866.354 354.434 864.996 354.434Z" fill="#747474" style="fill:#747474;fill:color(display-p3 0.4542 0.4542 0.4542);fill-opacity:1;"/>
<rect opacity="0.01" x="108" y="367" width="1" height="24" fill="white" style="fill:white;fill-opacity:1;"/>
<defs>
<clipPath id="clip0_134_4317">
<rect width="277.333" height="16" fill="white" style="fill:white;fill-opacity:1;" transform="translate(425.333 104)"/>
</clipPath>
<clipPath id="clip1_134_4317">
<rect width="277.333" height="16" fill="white" style="fill:white;fill-opacity:1;" transform="translate(742.667 78)"/>
</clipPath>
</defs>
</svg>
