<svg width="1224" height="74" viewBox="0 0 1224 74" fill="none" xmlns="http://www.w3.org/2000/svg">
<path d="M167.691 37.489C167.691 40.321 169.211 41.841 171.131 41.841C173.051 41.841 174.571 40.321 174.571 37.489C174.571 34.673 173.051 33.153 171.131 33.153C169.211 33.153 167.691 34.673 167.691 37.489ZM176.667 37.489C176.667 41.057 174.539 43.505 171.131 43.505C167.723 43.505 165.595 41.057 165.595 37.489C165.595 33.905 167.723 31.489 171.131 31.489C174.539 31.489 176.667 33.905 176.667 37.489Z" fill="white" style="fill:white;fill-opacity:1;"/>
<path d="M189.878 43.297H187.974V39.633H184.134V43.297H182.23V34.689H184.134V38.129H187.974V34.689H189.878V43.297Z" fill="white" style="fill:white;fill-opacity:1;"/>
<path d="M197.431 39.905V39.249C194.711 39.505 193.607 39.905 193.607 40.881C193.607 41.633 194.231 42.081 195.191 42.081C196.599 42.081 197.431 41.377 197.431 39.905ZM194.775 43.505C192.903 43.505 191.591 42.497 191.591 40.929C191.591 38.769 194.247 38.257 197.383 37.921V37.761C197.383 36.289 196.551 35.841 195.591 35.841C194.631 35.841 193.911 36.353 193.863 37.393H191.991C192.119 35.649 193.575 34.433 195.655 34.433C197.719 34.433 199.335 35.377 199.287 38.129C199.287 38.304 199.282 38.5867 199.275 38.9138V38.9155C199.266 39.3655 199.255 39.8994 199.255 40.353C199.255 41.441 199.335 42.577 199.511 43.297H197.767C197.758 43.2411 197.748 43.1889 197.739 43.1385L197.739 43.1347C197.689 42.8549 197.648 42.6289 197.607 42.129C197.047 43.073 196.055 43.505 194.775 43.505Z" fill="white" style="fill:white;fill-opacity:1;"/>
<path d="M204.845 34.497C206.733 34.497 208.365 35.729 208.701 37.633H206.845C206.669 36.721 205.885 36.081 204.845 36.081C203.645 36.081 202.589 36.961 202.589 38.993C202.589 41.041 203.677 41.921 204.797 41.921C205.741 41.921 206.653 41.505 206.909 40.353H208.765C208.381 42.369 206.605 43.505 204.765 43.505C202.269 43.505 200.621 41.569 200.621 39.009C200.621 36.449 202.269 34.497 204.845 34.497Z" fill="white" style="fill:white;fill-opacity:1;"/>
<path d="M268.227 43.297H266.195V33.393H260.947V43.297H258.915V31.697H268.227V43.297Z" fill="white" style="fill:white;fill-opacity:1;"/>
<path d="M272.482 38.993C272.482 40.977 273.458 41.953 274.706 41.953C276.05 41.953 276.834 40.833 276.834 38.993C276.834 37.185 276.05 36.049 274.706 36.049C273.458 36.049 272.482 37.009 272.482 38.993ZM270.658 34.689H272.562V35.841C273.074 34.993 273.97 34.497 275.122 34.497C277.234 34.497 278.818 36.241 278.818 38.993C278.818 41.761 277.234 43.505 275.122 43.505C273.97 43.505 273.074 43.009 272.562 42.161V46.097H270.658V34.689Z" fill="white" style="fill:white;fill-opacity:1;"/>
<path d="M281.863 39.009C281.863 40.993 282.919 41.953 284.135 41.953C285.351 41.953 286.407 40.993 286.407 39.009C286.407 37.025 285.351 36.049 284.135 36.049C282.919 36.049 281.863 37.025 281.863 39.009ZM284.135 34.497C286.231 34.497 288.375 35.905 288.375 39.009C288.375 42.129 286.231 43.505 284.135 43.505C282.039 43.505 279.895 42.129 279.895 39.009C279.895 35.905 282.039 34.497 284.135 34.497Z" fill="white" style="fill:white;fill-opacity:1;"/>
<path d="M297.809 39.537H291.393C291.521 41.137 292.641 41.921 293.729 41.921C294.737 41.921 295.505 41.537 295.841 40.721H297.713C297.329 42.097 296.017 43.505 293.809 43.505C291.041 43.505 289.457 41.409 289.457 38.929C289.457 36.337 291.233 34.497 293.681 34.497C296.321 34.497 297.985 36.657 297.809 39.537ZM293.681 35.985C292.785 35.985 291.569 36.529 291.393 38.145H295.873C295.825 36.801 294.801 35.985 293.681 35.985Z" fill="white" style="fill:white;fill-opacity:1;"/>
<path d="M305.121 43.297L302.289 39.537H301.393V43.297H299.473V34.689H301.393V38.033H302.433L304.913 34.689H307.089L303.841 38.865L307.313 43.297H305.121Z" fill="white" style="fill:white;fill-opacity:1;"/>
<path d="M315.524 36.193H312.596V43.297H310.692V36.193H307.748V34.689H315.524V36.193Z" fill="white" style="fill:white;fill-opacity:1;"/>
<path d="M320.19 43.297H316.91V34.689H318.814V37.585H320.142C322.51 37.585 323.518 38.481 323.518 40.385C323.518 42.561 322.302 43.297 320.19 43.297ZM318.814 39.089V41.793H319.918C321.07 41.793 321.614 41.457 321.614 40.369C321.614 39.393 321.054 39.089 319.902 39.089H318.814ZM326.654 43.297H324.75V34.689H326.654V43.297Z" fill="white" style="fill:white;fill-opacity:1;"/>
<path d="M340.549 34.689V43.297H338.645V37.329L334.549 43.297H332.645V34.689H334.549V40.689L338.645 34.689H340.549Z" fill="white" style="fill:white;fill-opacity:1;"/>
<path d="M356.587 34.689V43.297H354.747V36.481L352.219 43.297H350.747L348.219 36.513V43.297H346.379V34.689H349.259L351.515 40.833L353.707 34.689H356.587Z" fill="white" style="fill:white;fill-opacity:1;"/>
<path d="M366.747 39.537H360.331C360.459 41.137 361.579 41.921 362.667 41.921C363.675 41.921 364.443 41.537 364.779 40.721H366.651C366.267 42.097 364.955 43.505 362.747 43.505C359.979 43.505 358.395 41.409 358.395 38.929C358.395 36.337 360.171 34.497 362.619 34.497C365.259 34.497 366.923 36.657 366.747 39.537ZM362.619 35.985C361.723 35.985 360.507 36.529 360.331 38.145H364.811C364.763 36.801 363.739 35.985 362.619 35.985Z" fill="white" style="fill:white;fill-opacity:1;"/>
<path d="M370.154 38.993C370.154 40.977 371.13 41.953 372.378 41.953C373.722 41.953 374.506 40.833 374.506 38.993C374.506 37.185 373.722 36.049 372.378 36.049C371.13 36.049 370.154 37.009 370.154 38.993ZM368.33 34.689H370.234V35.841C370.746 34.993 371.642 34.497 372.794 34.497C374.906 34.497 376.49 36.241 376.49 38.993C376.49 41.761 374.906 43.505 372.794 43.505C371.642 43.505 370.746 43.009 370.234 42.161V46.097H368.33V34.689Z" fill="white" style="fill:white;fill-opacity:1;"/>
<path d="M379.535 39.009C379.535 40.993 380.591 41.953 381.807 41.953C383.023 41.953 384.079 40.993 384.079 39.009C384.079 37.025 383.023 36.049 381.807 36.049C380.591 36.049 379.535 37.025 379.535 39.009ZM381.807 34.497C383.903 34.497 386.047 35.905 386.047 39.009C386.047 42.129 383.903 43.505 381.807 43.505C379.711 43.505 377.567 42.129 377.567 39.009C377.567 35.905 379.711 34.497 381.807 34.497Z" fill="white" style="fill:white;fill-opacity:1;"/>
<path d="M395.179 34.689V43.297H393.275V36.193H389.595V43.297H387.691V34.689H395.179Z" fill="white" style="fill:white;fill-opacity:1;"/>
<path d="M399.232 38.993C399.232 40.977 400.208 41.953 401.456 41.953C402.8 41.953 403.584 40.833 403.584 38.993C403.584 37.185 402.8 36.049 401.456 36.049C400.208 36.049 399.232 37.009 399.232 38.993ZM397.408 34.689H399.312V35.841C399.824 34.993 400.72 34.497 401.872 34.497C403.984 34.497 405.568 36.241 405.568 38.993C405.568 41.761 403.984 43.505 401.872 43.505C400.72 43.505 399.824 43.009 399.312 42.161V46.097H397.408V34.689Z" fill="white" style="fill:white;fill-opacity:1;"/>
<path d="M415.111 34.689V43.297H413.207V37.329L409.111 43.297H407.207V34.689H409.111V40.689L413.207 34.689H415.111Z" fill="white" style="fill:white;fill-opacity:1;"/>
<path d="M423.99 34.689V43.297H422.086V40.321H420.374L418.614 43.297H416.454L418.614 39.825C417.702 39.457 417.03 38.657 417.03 37.425C417.03 35.681 418.166 34.689 420.326 34.689H423.99ZM422.086 36.193H420.598C419.59 36.193 418.966 36.673 418.966 37.569C418.966 38.481 419.558 38.817 420.518 38.817H422.086V36.193Z" fill="white" style="fill:white;fill-opacity:1;"/>
<path d="M433.165 36.193H430.237V43.297H428.333V36.193H425.389V34.689H433.165V36.193Z" fill="white" style="fill:white;fill-opacity:1;"/>
<path d="M442.455 34.689V43.297H440.551V37.329L436.455 43.297H434.551V34.689H436.455V40.689L440.551 34.689H442.455Z" fill="white" style="fill:white;fill-opacity:1;"/>
<path d="M451.334 34.689V43.297H449.43V40.321H447.718L445.958 43.297H443.798L445.958 39.825C445.046 39.457 444.374 38.657 444.374 37.425C444.374 35.681 445.51 34.689 447.67 34.689H451.334ZM449.43 36.193H447.942C446.934 36.193 446.31 36.673 446.31 37.569C446.31 38.481 446.902 38.817 447.862 38.817H449.43V36.193Z" fill="white" style="fill:white;fill-opacity:1;"/>
<path d="M476.635 43.297L480.955 31.697H483.099L487.451 43.297H485.227L484.315 40.721H479.611L478.715 43.297H476.635ZM481.947 34.049L480.203 39.025H483.707L481.947 34.049Z" fill="white" style="fill:white;fill-opacity:1;"/>
<path d="M496.293 43.297H494.389V39.633H490.549V43.297H488.645V34.689H490.549V38.129H494.389V34.689H496.293V43.297Z" fill="white" style="fill:white;fill-opacity:1;"/>
<path d="M503.846 39.905V39.249C501.126 39.505 500.022 39.905 500.022 40.881C500.022 41.633 500.646 42.081 501.606 42.081C503.014 42.081 503.846 41.377 503.846 39.905ZM501.19 43.505C499.318 43.505 498.006 42.497 498.006 40.929C498.006 38.769 500.662 38.257 503.798 37.921V37.761C503.798 36.289 502.966 35.841 502.006 35.841C501.046 35.841 500.326 36.353 500.278 37.393H498.406C498.534 35.649 499.99 34.433 502.07 34.433C504.134 34.433 505.75 35.377 505.702 38.129C505.702 38.3043 505.696 38.5876 505.69 38.9155V38.9192L505.689 38.9251V38.9273V38.9309L505.689 38.9365V38.9381V38.9406V38.9445C505.68 39.3883 505.67 39.9091 505.67 40.353C505.67 41.441 505.75 42.577 505.926 43.297H504.182C504.172 43.2397 504.162 43.1863 504.153 43.1348C504.103 42.855 504.062 42.6289 504.022 42.129C503.462 43.073 502.47 43.505 501.19 43.505Z" fill="white" style="fill:white;fill-opacity:1;"/>
<path d="M514.971 43.297H513.067V36.193H510.539L510.411 38.049C510.171 41.649 509.211 43.297 507.227 43.297H506.875V41.793H507.067C507.771 41.793 508.427 41.041 508.603 37.777L508.763 34.689H514.971V43.297Z" fill="white" style="fill:white;fill-opacity:1;"/>
<path d="M525.174 34.689V43.297H523.27V37.329L519.174 43.297H517.27V34.689H519.174V40.689L523.27 34.689H525.174Z" fill="white" style="fill:white;fill-opacity:1;"/>
<path d="M534.181 36.193H531.253V43.297H529.349V36.193H526.405V34.689H534.181V36.193Z" fill="white" style="fill:white;fill-opacity:1;"/>
<path d="M543.471 34.689V43.297H541.567V37.329L537.471 43.297H535.567V34.689H537.471V40.689L541.567 34.689H543.471Z" fill="white" style="fill:white;fill-opacity:1;"/>
<path d="M551.261 43.297L548.429 39.537H547.533V43.297H545.613V34.689H547.533V38.033H548.573L551.053 34.689H553.229L549.981 38.865L553.453 43.297H551.261Z" fill="white" style="fill:white;fill-opacity:1;"/>
<path d="M559.736 39.905V39.249C557.016 39.505 555.912 39.905 555.912 40.881C555.912 41.633 556.536 42.081 557.496 42.081C558.904 42.081 559.736 41.377 559.736 39.905ZM557.08 43.505C555.208 43.505 553.896 42.497 553.896 40.929C553.896 38.769 556.552 38.257 559.688 37.921V37.761C559.688 36.289 558.856 35.841 557.896 35.841C556.936 35.841 556.216 36.353 556.168 37.393H554.296C554.424 35.649 555.88 34.433 557.96 34.433C560.024 34.433 561.64 35.377 561.592 38.129C561.592 38.3043 561.587 38.5876 561.58 38.9155C561.571 39.3655 561.56 39.8994 561.56 40.353C561.56 41.441 561.64 42.577 561.816 43.297H560.072C560.07 43.2811 560.067 43.2655 560.064 43.2502C560.057 43.2105 560.05 43.1724 560.044 43.1353C559.993 42.8553 559.953 42.6292 559.912 42.129C559.352 43.073 558.36 43.505 557.08 43.505Z" fill="white" style="fill:white;fill-opacity:1;"/>
<path d="M575.189 34.689V43.297H573.285V37.329L569.189 43.297H567.285V34.689H569.189V40.689L573.285 34.689H575.189Z" fill="white" style="fill:white;fill-opacity:1;"/>
<path d="M587.884 36.193H584.956V43.297H583.052V36.193H580.108V34.689H587.884V36.193Z" fill="white" style="fill:white;fill-opacity:1;"/>
<path d="M591.014 38.993C591.014 40.977 591.99 41.953 593.238 41.953C594.582 41.953 595.366 40.833 595.366 38.993C595.366 37.185 594.582 36.049 593.238 36.049C591.99 36.049 591.014 37.009 591.014 38.993ZM589.19 34.689H591.094V35.841C591.606 34.993 592.502 34.497 593.654 34.497C595.766 34.497 597.35 36.241 597.35 38.993C597.35 41.761 595.766 43.505 593.654 43.505C592.502 43.505 591.606 43.009 591.094 42.161V46.097H589.19V34.689Z" fill="white" style="fill:white;fill-opacity:1;"/>
<path d="M606.778 39.537H600.362C600.49 41.137 601.61 41.921 602.698 41.921C603.706 41.921 604.474 41.537 604.81 40.721H606.682C606.298 42.097 604.986 43.505 602.778 43.505C600.01 43.505 598.426 41.409 598.426 38.929C598.426 36.337 600.202 34.497 602.65 34.497C605.29 34.497 606.954 36.657 606.778 39.537ZM602.65 35.985C601.754 35.985 600.538 36.529 600.362 38.145H604.842C604.794 36.801 603.77 35.985 602.65 35.985Z" fill="white" style="fill:white;fill-opacity:1;"/>
<path d="M616.09 43.297H614.186V39.633H610.346V43.297H608.442V34.689H610.346V38.129H614.186V34.689H616.09V43.297Z" fill="white" style="fill:white;fill-opacity:1;"/>
<path d="M627.147 41.809V45.329H625.419V43.297H619.131V45.329H617.403V41.809H617.867C618.827 41.809 619.323 40.561 619.467 37.425L619.595 34.689H625.867V41.809H627.147ZM623.963 41.809V36.193H621.275L621.195 37.649C621.067 39.937 620.763 41.153 620.075 41.809H623.963Z" fill="white" style="fill:white;fill-opacity:1;"/>
<path d="M631.862 43.297H628.582V34.689H630.486V37.585H631.814C634.182 37.585 635.19 38.481 635.19 40.385C635.19 42.561 633.974 43.297 631.862 43.297ZM630.486 39.089V41.793H631.59C632.742 41.793 633.286 41.457 633.286 40.369C633.286 39.393 632.726 39.089 631.574 39.089H630.486ZM638.326 43.297H636.422V34.689H638.326V43.297Z" fill="white" style="fill:white;fill-opacity:1;"/>
<path d="M671.036 43.297V38.145H669.916L666.428 43.297H664.092L668.172 37.185L664.284 31.697H666.572L669.82 36.449H671.036V31.697H673.052V36.449H674.236L677.484 31.697H679.756L675.916 37.201L679.996 43.297H677.676L674.204 38.145H673.052V43.297H671.036Z" fill="white" style="fill:white;fill-opacity:1;"/>
<path d="M681.438 46.097H680.574V44.641H681.294C682.126 44.641 682.478 44.577 682.862 43.457L682.958 43.249L679.838 34.689H681.918L683.87 40.865L685.822 34.689H687.774L684.75 43.281C683.934 45.505 683.374 46.097 681.438 46.097Z" fill="white" style="fill:white;fill-opacity:1;"/>
<path d="M690.748 38.993C690.748 40.977 691.724 41.953 692.972 41.953C694.316 41.953 695.1 40.833 695.1 38.993C695.1 37.185 694.316 36.049 692.972 36.049C691.724 36.049 690.748 37.009 690.748 38.993ZM688.924 34.689H690.828V35.841C691.34 34.993 692.236 34.497 693.388 34.497C695.5 34.497 697.084 36.241 697.084 38.993C697.084 41.761 695.5 43.505 693.388 43.505C692.236 43.505 691.34 43.009 690.828 42.161V46.097H688.924V34.689Z" fill="white" style="fill:white;fill-opacity:1;"/>
<path d="M706.371 43.297H704.467V39.633H700.627V43.297H698.723V34.689H700.627V38.129H704.467V34.689H706.371V43.297Z" fill="white" style="fill:white;fill-opacity:1;"/>
<path d="M713.924 39.905V39.249C711.204 39.505 710.1 39.905 710.1 40.881C710.1 41.633 710.724 42.081 711.684 42.081C713.092 42.081 713.924 41.377 713.924 39.905ZM711.268 43.505C709.396 43.505 708.084 42.497 708.084 40.929C708.084 38.769 710.74 38.257 713.876 37.921V37.761C713.876 36.289 713.044 35.841 712.084 35.841C711.124 35.841 710.404 36.353 710.356 37.393H708.484C708.612 35.649 710.068 34.433 712.148 34.433C714.212 34.433 715.828 35.377 715.78 38.129C715.78 38.3043 715.774 38.5876 715.767 38.9155C715.758 39.3655 715.748 39.8994 715.748 40.353C715.748 41.441 715.828 42.577 716.004 43.297H714.26C714.25 43.24 714.24 43.1867 714.231 43.1353C714.181 42.8553 714.14 42.6292 714.1 42.129C713.54 43.073 712.548 43.505 711.268 43.505Z" fill="white" style="fill:white;fill-opacity:1;"/>
<path d="M725.049 43.297H723.145V36.193H720.617L720.489 38.049C720.249 41.649 719.289 43.297 717.305 43.297H716.953V41.793H717.145C717.849 41.793 718.505 41.041 718.681 37.777L718.841 34.689H725.049V43.297Z" fill="white" style="fill:white;fill-opacity:1;"/>
<path d="M761.243 43.297H759.211V33.393H753.963V43.297H751.931V31.697H761.243V43.297Z" fill="white" style="fill:white;fill-opacity:1;"/>
<path d="M769.002 39.905V39.249C766.282 39.505 765.178 39.905 765.178 40.881C765.178 41.633 765.802 42.081 766.762 42.081C768.17 42.081 769.002 41.377 769.002 39.905ZM766.346 43.505C764.474 43.505 763.162 42.497 763.162 40.929C763.162 38.769 765.818 38.257 768.954 37.921V37.761C768.954 36.289 768.122 35.841 767.162 35.841C766.202 35.841 765.482 36.353 765.434 37.393H763.562C763.69 35.649 765.146 34.433 767.226 34.433C769.29 34.433 770.906 35.377 770.858 38.129C770.858 38.1654 770.858 38.2065 770.857 38.2516C770.857 38.2801 770.857 38.3101 770.856 38.3417C770.855 38.444 770.853 38.5619 770.85 38.6904C770.849 38.7624 770.847 38.8377 770.846 38.9155C770.837 39.3655 770.826 39.8994 770.826 40.353C770.826 41.441 770.906 42.577 771.082 43.297H769.338C769.328 43.24 769.318 43.1867 769.309 43.1353C769.259 42.8553 769.218 42.6292 769.178 42.129C768.618 43.073 767.626 43.505 766.346 43.505Z" fill="white" style="fill:white;fill-opacity:1;"/>
<path d="M774.607 38.993C774.607 40.977 775.583 41.953 776.831 41.953C778.175 41.953 778.959 40.833 778.959 38.993C778.959 37.185 778.175 36.049 776.831 36.049C775.583 36.049 774.607 37.009 774.607 38.993ZM772.783 34.689H774.687V35.841C775.199 34.993 776.095 34.497 777.247 34.497C779.359 34.497 780.943 36.241 780.943 38.993C780.943 41.761 779.359 43.505 777.247 43.505C776.095 43.505 775.199 43.009 774.687 42.161V46.097H772.783V34.689Z" fill="white" style="fill:white;fill-opacity:1;"/>
<path d="M789.165 36.193H786.237V43.297H784.333V36.193H781.389V34.689H789.165V36.193Z" fill="white" style="fill:white;fill-opacity:1;"/>
<path d="M798.199 43.297H796.295V39.633H792.455V43.297H790.551V34.689H792.455V38.129H796.295V34.689H798.199V43.297Z" fill="white" style="fill:white;fill-opacity:1;"/>
<path d="M808.2 39.537H801.784C801.912 41.137 803.032 41.921 804.12 41.921C805.128 41.921 805.896 41.537 806.232 40.721H808.104C807.72 42.097 806.408 43.505 804.2 43.505C801.432 43.505 799.848 41.409 799.848 38.929C799.848 36.337 801.624 34.497 804.072 34.497C806.712 34.497 808.376 36.657 808.2 39.537ZM804.072 35.985C803.176 35.985 801.96 36.529 801.784 38.145H806.264C806.216 36.801 805.192 35.985 804.072 35.985Z" fill="white" style="fill:white;fill-opacity:1;"/>
<path d="M811.607 38.993C811.607 40.977 812.583 41.953 813.831 41.953C815.175 41.953 815.959 40.833 815.959 38.993C815.959 37.185 815.175 36.049 813.831 36.049C812.583 36.049 811.607 37.009 811.607 38.993ZM809.783 34.689H811.687V35.841C812.199 34.993 813.095 34.497 814.247 34.497C816.359 34.497 817.943 36.241 817.943 38.993C817.943 41.761 816.359 43.505 814.247 43.505C813.095 43.505 812.199 43.009 811.687 42.161V46.097H809.783V34.689Z" fill="white" style="fill:white;fill-opacity:1;"/>
<path d="M822.862 43.297H819.582V34.689H821.486V37.585H822.814C825.182 37.585 826.19 38.481 826.19 40.385C826.19 42.561 824.974 43.297 822.862 43.297ZM821.486 39.089V41.793H822.59C823.742 41.793 824.286 41.457 824.286 40.369C824.286 39.393 823.726 39.089 822.574 39.089H821.486ZM829.326 43.297H827.422V34.689H829.326V43.297Z" fill="white" style="fill:white;fill-opacity:1;"/>
<path d="M864.524 38.1305C864.984 38.1305 865.357 37.7574 865.357 37.2972C865.357 36.837 864.984 36.4639 864.524 36.4639C864.063 36.4639 863.69 36.837 863.69 37.2972C863.69 37.7574 864.063 38.1305 864.524 38.1305Z" fill="#1D1D1D" style="fill:#1D1D1D;fill:color(display-p3 0.1137 0.1137 0.1137);fill-opacity:1;"/>
<path d="M870.357 38.1305C870.817 38.1305 871.19 37.7574 871.19 37.2972C871.19 36.837 870.817 36.4639 870.357 36.4639C869.897 36.4639 869.524 36.837 869.524 37.2972C869.524 37.7574 869.897 38.1305 870.357 38.1305Z" fill="#1D1D1D" style="fill:#1D1D1D;fill:color(display-p3 0.1137 0.1137 0.1137);fill-opacity:1;"/>
<path d="M858.69 38.1305C859.15 38.1305 859.524 37.7574 859.524 37.2972C859.524 36.837 859.15 36.4639 858.69 36.4639C858.23 36.4639 857.857 36.837 857.857 37.2972C857.857 37.7574 858.23 38.1305 858.69 38.1305Z" fill="#1D1D1D" style="fill:#1D1D1D;fill:color(display-p3 0.1137 0.1137 0.1137);fill-opacity:1;"/>
<path d="M1015.85 31.697H1019.67C1022.21 31.697 1024.6 32.097 1024.6 35.345C1024.6 38.273 1022.44 38.913 1019.7 38.913H1017.88V43.297H1015.85V31.697ZM1019.67 33.329H1017.88V37.249H1019.77C1021.3 37.249 1022.49 37.025 1022.49 35.361C1022.49 33.489 1021.09 33.329 1019.67 33.329Z" fill="white" style="fill:white;fill-opacity:1;"/>
<path d="M1029.81 38.641L1032.53 31.697H1034.74L1030.63 41.217C1030 42.625 1029.09 43.505 1027.38 43.505H1026.08V41.825H1027.23C1027.86 41.825 1028.23 41.665 1028.56 41.153L1028.85 40.689L1024.69 31.697H1026.87L1029.81 38.641Z" fill="white" style="fill:white;fill-opacity:1;"/>
<path d="M1043.08 39.441H1045.03C1044.53 42.049 1042.71 43.505 1040.02 43.505C1036.63 43.505 1034.66 41.105 1034.66 37.457C1034.66 33.809 1036.74 31.489 1040.12 31.489C1042.69 31.489 1044.53 32.945 1045 35.553H1043.04C1042.68 33.969 1041.57 33.153 1040.05 33.153C1038.21 33.153 1036.76 34.657 1036.76 37.457C1036.76 40.273 1038.18 41.841 1040.04 41.841C1041.62 41.841 1042.71 41.041 1043.08 39.441Z" fill="white" style="fill:white;fill-opacity:1;"/>
<path d="M1088.04 30.2971H1086.85V24.7771H1085.23V23.9571C1086.28 23.9271 1086.79 23.8371 1087.16 23.0471H1088.04V30.2971Z" fill="#1D1D1D" style="fill:#1D1D1D;fill:color(display-p3 0.1137 0.1137 0.1137);fill-opacity:1;"/>
<path d="M1074.75 46.2971C1074.75 45.7448 1075.2 45.2971 1075.75 45.2971H1079.75C1080.3 45.2971 1080.75 45.7448 1080.75 46.2971C1080.75 46.8494 1080.3 47.2971 1079.75 47.2971H1075.75C1075.2 47.2971 1074.75 46.8494 1074.75 46.2971Z" fill="white" style="fill:white;fill-opacity:1;"/>
<path fill-rule="evenodd" clip-rule="evenodd" d="M1116.51 32.7971C1116.51 29.7596 1118.97 27.2971 1122.01 27.2971C1125.05 27.2971 1127.51 29.7596 1127.51 32.7971C1127.51 35.8347 1125.05 38.2971 1122.01 38.2971C1118.97 38.2971 1116.51 35.8347 1116.51 32.7971ZM1122.01 29.2971C1120.08 29.2971 1118.51 30.8641 1118.51 32.7971C1118.51 34.7301 1120.08 36.2971 1122.01 36.2971C1123.94 36.2971 1125.51 34.7301 1125.51 32.7971C1125.51 30.8641 1123.94 29.2971 1122.01 29.2971Z" fill="white" style="fill:white;fill-opacity:1;"/>
<path d="M1122.01 42.2971C1118.82 42.2971 1115.9 43.6861 1113.74 45.9831C1113.36 46.385 1112.73 46.4036 1112.32 46.0247C1111.92 45.6459 1111.9 45.013 1112.28 44.6111C1114.79 41.9533 1118.21 40.2971 1122.01 40.2971C1125.8 40.2971 1129.23 41.9533 1131.74 44.6111C1132.12 45.013 1132.1 45.6459 1131.7 46.0247C1131.29 46.4036 1130.66 46.385 1130.28 45.9831C1128.12 43.6861 1125.2 42.2971 1122.01 42.2971Z" fill="white" style="fill:white;fill-opacity:1;"/>
<path d="M1153.32 43.1972H1151.29V33.2932H1146.04V43.1972H1144.01V31.5972H1153.32V43.1972Z" fill="white" style="fill:white;fill-opacity:1;"/>
<path d="M1157.58 38.8932C1157.58 40.8772 1158.55 41.8532 1159.8 41.8532C1161.15 41.8532 1161.93 40.7332 1161.93 38.8932C1161.93 37.0852 1161.15 35.9492 1159.8 35.9492C1158.55 35.9492 1157.58 36.9092 1157.58 38.8932ZM1155.75 34.5892H1157.66V35.7412C1158.17 34.8932 1159.07 34.3972 1160.22 34.3972C1162.33 34.3972 1163.91 36.1412 1163.91 38.8932C1163.91 41.6612 1162.33 43.4052 1160.22 43.4052C1159.07 43.4052 1158.17 42.9092 1157.66 42.0612V45.9972H1155.75V34.5892Z" fill="white" style="fill:white;fill-opacity:1;"/>
<path d="M1166.96 38.9092C1166.96 40.8932 1168.01 41.8532 1169.23 41.8532C1170.45 41.8532 1171.5 40.8932 1171.5 38.9092C1171.5 36.9252 1170.45 35.9492 1169.23 35.9492C1168.01 35.9492 1166.96 36.9252 1166.96 38.9092ZM1169.23 34.3972C1171.33 34.3972 1173.47 35.8052 1173.47 38.9092C1173.47 42.0292 1171.33 43.4052 1169.23 43.4052C1167.13 43.4052 1164.99 42.0292 1164.99 38.9092C1164.99 35.8052 1167.13 34.3972 1169.23 34.3972Z" fill="white" style="fill:white;fill-opacity:1;"/>
<path d="M1180.94 31.5972V34.5892C1183.38 34.5892 1185.43 35.9652 1185.43 38.9412C1185.43 42.0132 1183.37 43.2932 1180.94 43.2932V45.9972H1179.03V43.2932C1176.58 43.2932 1174.54 42.0132 1174.54 38.9412C1174.54 35.9652 1176.58 34.5892 1179.03 34.5892V31.5972H1180.94ZM1179.03 41.7732V36.1252C1177.56 36.1252 1176.46 36.9732 1176.46 39.0052C1176.46 41.0052 1177.54 41.7732 1179.03 41.7732ZM1180.94 36.1252V41.7732C1182.42 41.7732 1183.5 41.0052 1183.5 39.0052C1183.5 36.9732 1182.42 36.1252 1180.94 36.1252Z" fill="white" style="fill:white;fill-opacity:1;"/>
<path d="M1194.97 34.5892V43.1972H1193.07V37.2292L1188.97 43.1972H1187.07V34.5892H1188.97V40.5892L1193.07 34.5892H1194.97Z" fill="white" style="fill:white;fill-opacity:1;"/>
<path d="M1204.38 43.1972H1202.47V36.0932H1199.95L1199.82 37.9492C1199.58 41.5492 1198.62 43.1972 1196.63 43.1972H1196.28V41.6932H1196.47C1197.18 41.6932 1197.83 40.9412 1198.01 37.6772L1198.17 34.5892H1204.38V43.1972Z" fill="white" style="fill:white;fill-opacity:1;"/>
<path d="M1208.58 37.4852H1210.36C1212.72 37.4852 1213.72 38.3812 1213.72 40.2852C1213.72 42.4612 1212.53 43.1972 1210.39 43.1972H1206.68V34.5892H1208.58V37.4852ZM1208.58 41.6932H1210.13C1211.27 41.6932 1211.83 41.3092 1211.83 40.2692C1211.83 39.3092 1211.27 38.9892 1210.12 38.9892H1208.58V41.6932Z" fill="white" style="fill:white;fill-opacity:1;"/>
<path fill-rule="evenodd" clip-rule="evenodd" d="M956.032 41.9148C957.263 40.3751 958 38.4221 958 36.2971C958 31.3266 953.971 27.2971 949 27.2971C944.029 27.2971 940 31.3266 940 36.2971C940 41.2677 944.029 45.2971 949 45.2971C951.125 45.2971 953.078 44.5606 954.618 43.329L958.595 47.3069L960.01 45.8927L956.032 41.9148ZM949 29.2971C945.134 29.2971 942 32.4311 942 36.2971C942 40.1631 945.134 43.2971 949 43.2971C950.886 43.2971 952.598 42.5513 953.856 41.3385C953.883 41.3043 953.912 41.2714 953.943 41.24C953.974 41.2087 954.007 41.1798 954.041 41.1535C955.254 39.8948 956 38.1831 956 36.2971C956 32.4311 952.866 29.2971 949 29.2971Z" fill="white" style="fill:white;fill-opacity:1;"/>
<path d="M30.129 50.4221C28.3434 50.4221 27.1133 49.4434 27.1133 46.4116V45.7594H29.0973V46.4119C29.0973 48.0238 29.5339 48.465 30.129 48.465C30.724 48.465 31.141 48.0238 31.141 47.2753C31.141 46.3349 31.0021 45.8171 29.6131 44.8384C27.9861 43.7063 27.2322 42.4973 27.2322 40.9431C27.2322 38.9667 28.3034 37.777 30.129 37.777C31.3987 37.777 33.0854 38.1609 33.0854 41.3843V42.1328H31.1013V41.3843C31.1013 40.118 30.6848 39.6958 30.129 39.6958C29.5339 39.6958 29.2162 40.118 29.2162 40.8661C29.2162 41.6336 29.3947 42.2667 30.7836 43.3031C32.5099 44.5887 33.125 45.6058 33.125 47.275C33.125 48.9442 32.3311 50.4221 30.129 50.4221ZM23.363 50.4221C21.5774 50.4221 20.3473 49.597 20.3473 46.4116V45.7594H22.3314V46.4119C22.3314 48.0238 22.7679 48.465 23.363 48.465C23.9581 48.465 24.375 48.0238 24.375 47.2753C24.375 46.3349 24.2361 45.8171 22.8472 44.8384C21.2201 43.7063 20.4662 42.4973 20.4662 40.9431C20.4662 38.9667 21.5375 37.777 23.363 37.777C24.6327 37.777 26.3194 38.1609 26.3194 41.3843V42.1328H24.3354V41.3843C24.3354 40.118 23.9188 39.6958 23.363 39.6958C22.7679 39.6958 22.4502 40.118 22.4502 40.8661C22.4502 41.6336 22.6287 42.2667 24.0177 43.3031C25.744 44.5887 26.359 45.6058 26.359 47.275C26.359 48.9442 25.5655 50.4221 23.363 50.4221ZM30.129 36.8172C28.3434 36.8172 27.1133 35.8385 27.1133 32.8067V32.1546H29.0973V32.807C29.0973 34.4189 29.5339 34.8601 30.129 34.8601C30.724 34.8601 31.141 34.4189 31.141 33.6705C31.141 32.73 31.0021 32.2122 29.6131 31.2335C27.9861 30.1015 27.2322 28.8925 27.2322 27.3382C27.2322 25.3618 28.3034 24.1721 30.129 24.1721C31.3987 24.1721 33.0854 24.556 33.0854 27.7794V28.5279H31.1013V27.7794C31.1013 26.5131 30.6848 26.0909 30.129 26.0909C29.5339 26.0909 29.2162 26.5131 29.2162 27.2612C29.2162 28.0287 29.3947 28.6618 30.7836 29.6982C32.5099 30.9839 33.125 32.0009 33.125 33.6701C33.125 35.3393 32.3311 36.8172 30.129 36.8172ZM23.363 36.8172C21.5774 36.8172 20.3473 35.9921 20.3473 32.8067V32.1546H22.3314V32.807C22.3314 34.4189 22.7679 34.8601 23.363 34.8601C23.9581 34.8601 24.375 34.4189 24.375 33.6705C24.375 32.73 24.2361 32.2122 22.8472 31.2335C21.2201 30.1015 20.4662 28.8925 20.4662 27.3382C20.4662 25.3618 21.5375 24.1721 23.363 24.1721C24.6327 24.1721 26.3194 24.556 26.3194 27.7794V28.5279H24.3354V27.7794C24.3354 26.5131 23.9188 26.0909 23.363 26.0909C22.7679 26.0909 22.4502 26.5131 22.4502 27.2612C22.4502 28.0287 22.6287 28.6618 24.0177 29.6982C25.744 30.9839 26.359 32.0009 26.359 33.6701C26.359 35.3393 25.5655 36.8172 23.363 36.8172ZM8.85941 45.7594H9.25635C10.1295 45.7594 10.5657 45.3372 10.5657 43.3801V42.2671C10.5657 40.31 10.1291 39.8877 9.25635 39.8877H8.85941V45.7594ZM8.85941 50.2302H6.87537V37.9686H9.25635C11.8358 37.9686 12.5501 39.3885 12.5501 42.0751V43.5717C12.5501 46.2579 11.8358 47.6782 9.25635 47.6782H8.85941V50.2302ZM9.25598 30.2358H8.85902V26.2829H9.25598C10.1488 26.2829 10.5653 26.5708 10.5653 27.9137V28.6045C10.5657 29.9478 10.1491 30.2358 9.25598 30.2358ZM12.9267 36.6256L11.3989 31.5214C12.1332 30.9266 12.5497 29.9478 12.5497 28.7392V27.7798C12.5497 25.5348 11.5181 24.3641 9.25598 24.3641H6.875V36.6256H8.85902V32.1546H9.11713C9.21636 32.1546 9.35522 32.1546 9.57332 32.1352L10.7638 36.6253L12.9267 36.6256ZM15.1884 45.7594L16.2004 39.8877H16.3593L17.3709 45.7594H15.1884ZM18.1252 50.2302H20.1092L17.9067 37.9686H14.653L12.4309 50.2302H14.4149L14.8711 47.6782H17.6886L18.1252 50.2302ZM16.4781 36.8172C14.0376 36.8172 13.5814 35.0327 13.5814 32.8643V24.3641H15.645V33.0373C15.645 34.5532 15.9227 34.8984 16.4781 34.8984C17.0336 34.8984 17.3113 34.5532 17.3113 33.0373V24.3641H19.3749V32.8647C19.3749 35.0327 18.9187 36.8172 16.4781 36.8172Z" fill="white" style="fill:white;fill-opacity:1;"/>
<path d="M48 29.4798H54.8807V31.7148H50.4571V35.714H51.8863C53.122 35.714 54.0497 36.0417 54.6676 36.6972C55.2854 37.3526 55.5952 38.3126 55.5952 39.5787V41.255C55.5952 42.5212 55.2854 43.4811 54.6676 44.1366C54.0497 44.7921 53.122 45.1198 51.8863 45.1198H48V29.4798ZM51.8881 42.883C52.2749 42.883 52.5811 42.7791 52.8032 42.5696C53.0271 42.3618 53.1381 41.975 53.1381 41.4073V39.4193C53.1381 38.8534 53.0271 38.4666 52.8032 38.257C52.5794 38.0493 52.2749 37.9436 51.8881 37.9436H50.4589V42.8812H51.8881V42.883Z" fill="white" style="fill:white;fill-opacity:1;"/>
<path d="M59.7752 45.118H57.25V29.4798H59.4403V39.3764L60.334 35.936L62.3452 29.4798H65.0477V45.118H62.8359V34.1039L61.8312 37.9472L59.7752 45.118Z" fill="white" style="fill:white;fill-opacity:1;"/>
<path d="M71.5254 33.3213C71.5254 32.6211 71.409 32.1482 71.1798 31.9029C70.9487 31.6575 70.6389 31.534 70.2521 31.534C69.8652 31.534 69.5518 31.6504 69.3136 31.8796C69.0754 32.1106 68.9554 32.5082 68.9554 33.0742V34.3475H66.6989V33.1852C66.6989 31.919 66.9998 30.9555 67.6033 30.2911C68.2069 29.6284 69.1113 29.2971 70.3183 29.2971C71.5254 29.2971 72.437 29.6356 73.0548 30.3144C73.6727 30.9931 73.9825 31.9638 73.9825 33.23V33.6329C73.9825 35.3002 73.4094 36.373 72.2615 36.8494C72.8865 37.118 73.3306 37.5317 73.5903 38.0887C73.85 38.6475 73.9807 39.328 73.9807 40.1321V41.3607C73.9807 42.6269 73.6709 43.5993 73.0531 44.2763C72.4352 44.9551 71.5218 45.2935 70.3165 45.2935C69.1095 45.2935 68.1979 44.9551 67.58 44.2763C66.9622 43.5993 66.6523 42.6269 66.6523 41.3607V39.6396H68.9751V41.5165C68.9751 42.0824 69.0898 42.4818 69.3208 42.711C69.5518 42.9421 69.8599 43.0567 70.2485 43.0567C70.6353 43.0567 70.9452 42.9367 71.1762 42.6985C71.4072 42.4603 71.5218 41.9911 71.5218 41.2908V40.0623C71.5218 39.3334 71.3947 38.8194 71.1422 38.5203C70.8878 38.223 70.4795 38.0726 69.9136 38.0726H69.3101V35.8375H70.0479C70.51 35.8375 70.8699 35.7193 71.1314 35.4793C71.3911 35.2412 71.5218 34.8095 71.5218 34.1827V33.3213H71.5254Z" fill="white" style="fill:white;fill-opacity:1;"/>
<path d="M78.0945 45.118H75.6373V29.4798H78.0945V36.1814H80.8865V29.4798H83.3884V45.118H80.8865V38.4164H78.0945V45.118Z" fill="white" style="fill:white;fill-opacity:1;"/>
<path d="M87.6329 36.0686H91.0069V38.3036H87.6329V42.883H91.8773V45.1162H85.1757V29.478H91.8773V31.7131H87.6329V36.0686Z" fill="white" style="fill:white;fill-opacity:1;"/>
<path d="M100.524 41.3643C100.524 42.6305 100.214 43.6029 99.5961 44.2799C98.9783 44.9586 98.0649 45.2971 96.8596 45.2971C95.6544 45.2971 94.741 44.9586 94.1231 44.2799C93.5052 43.6029 93.1954 42.6305 93.1954 41.3643V33.2318C93.1954 31.9656 93.5052 30.9949 94.1231 30.3162C94.741 29.6392 95.6544 29.2989 96.8596 29.2989C98.0649 29.2989 98.9783 29.6374 99.5961 30.3162C100.214 30.9949 100.524 31.9656 100.524 33.2318V34.7504H98.201V33.0742C98.201 32.5082 98.0846 32.1106 97.8554 31.8796C97.6243 31.6486 97.3145 31.534 96.9277 31.534C96.5408 31.534 96.231 31.6504 96 31.8796C95.769 32.1106 95.6543 32.5082 95.6543 33.0742V41.5183C95.6543 42.0842 95.769 42.4782 96 42.7021C96.231 42.926 96.539 43.037 96.9277 43.037C97.3145 43.037 97.6243 42.926 97.8554 42.7021C98.0864 42.4782 98.201 42.0842 98.201 41.5183V39.285H100.524V41.3643Z" fill="white" style="fill:white;fill-opacity:1;"/>
<path fill-rule="evenodd" clip-rule="evenodd" d="M6.0875 17.2971H33.9125C37.2745 17.2971 40 20.0226 40 23.3846V51.2096C40 54.5717 37.2745 57.2971 33.9125 57.2971H6.0875C2.72547 57.2971 0 54.5717 0 51.2096V23.3846C0 20.0226 2.72547 17.2971 6.0875 17.2971ZM27.1133 46.4116C27.1133 49.4434 28.3434 50.4221 30.129 50.4221C32.3311 50.4221 33.125 48.9442 33.125 47.275C33.125 45.6058 32.5099 44.5887 30.7836 43.3031C29.3947 42.2667 29.2162 41.6336 29.2162 40.8661C29.2162 40.118 29.5339 39.6958 30.129 39.6958C30.6848 39.6958 31.1013 40.118 31.1013 41.3843V42.1328H33.0854V41.3843C33.0854 38.1609 31.3987 37.777 30.129 37.777C28.3034 37.777 27.2322 38.9667 27.2322 40.9431C27.2322 42.4973 27.9861 43.7063 29.6131 44.8384C31.0021 45.8171 31.141 46.3349 31.141 47.2753C31.141 48.0238 30.724 48.465 30.129 48.465C29.5339 48.465 29.0973 48.0238 29.0973 46.4119V45.7594H27.1133V46.4116ZM20.3473 46.4116C20.3473 49.597 21.5774 50.4221 23.363 50.4221C25.5655 50.4221 26.359 48.9442 26.359 47.275C26.359 45.6058 25.744 44.5887 24.0177 43.3031C22.6287 42.2667 22.4502 41.6336 22.4502 40.8661C22.4502 40.118 22.7679 39.6958 23.363 39.6958C23.9188 39.6958 24.3354 40.118 24.3354 41.3843V42.1328H26.3194V41.3843C26.3194 38.1609 24.6327 37.777 23.363 37.777C21.5375 37.777 20.4662 38.9667 20.4662 40.9431C20.4662 42.4973 21.2201 43.7063 22.8472 44.8384C24.2361 45.8171 24.375 46.3349 24.375 47.2753C24.375 48.0238 23.9581 48.465 23.363 48.465C22.7679 48.465 22.3314 48.0238 22.3314 46.4119V45.7594H20.3473V46.4116ZM27.1133 32.8067C27.1133 35.8385 28.3434 36.8172 30.129 36.8172C32.3311 36.8172 33.125 35.3393 33.125 33.6701C33.125 32.0009 32.5099 30.9839 30.7836 29.6982C29.3947 28.6618 29.2162 28.0287 29.2162 27.2612C29.2162 26.5131 29.5339 26.0909 30.129 26.0909C30.6848 26.0909 31.1013 26.5131 31.1013 27.7794V28.5279H33.0854V27.7794C33.0854 24.556 31.3987 24.1721 30.129 24.1721C28.3034 24.1721 27.2322 25.3618 27.2322 27.3382C27.2322 28.8925 27.9861 30.1015 29.6131 31.2335C31.0021 32.2122 31.141 32.73 31.141 33.6705C31.141 34.4189 30.724 34.8601 30.129 34.8601C29.5339 34.8601 29.0973 34.4189 29.0973 32.807V32.1546H27.1133V32.8067ZM20.3473 32.8067C20.3473 35.9921 21.5774 36.8172 23.363 36.8172C25.5655 36.8172 26.359 35.3393 26.359 33.6701C26.359 32.0009 25.744 30.9839 24.0177 29.6982C22.6287 28.6618 22.4502 28.0287 22.4502 27.2612C22.4502 26.5131 22.7679 26.0909 23.363 26.0909C23.9188 26.0909 24.3354 26.5131 24.3354 27.7794V28.5279H26.3194V27.7794C26.3194 24.556 24.6327 24.1721 23.363 24.1721C21.5375 24.1721 20.4662 25.3618 20.4662 27.3382C20.4662 28.8925 21.2201 30.1015 22.8472 31.2335C24.2361 32.2122 24.375 32.73 24.375 33.6705C24.375 34.4189 23.9581 34.8601 23.363 34.8601C22.7679 34.8601 22.3314 34.4189 22.3314 32.807V32.1546H20.3473V32.8067ZM6.87537 50.2302H8.85941V47.6782H9.25635C11.8358 47.6782 12.5501 46.2579 12.5501 43.5717V42.0751C12.5501 39.3885 11.8358 37.9686 9.25635 37.9686H6.87537V50.2302ZM11.3989 31.5214L12.9267 36.6256L10.7638 36.6253L9.57332 32.1352C9.35522 32.1546 9.21636 32.1546 9.11713 32.1546H8.85902V36.6256H6.875V24.3641H9.25598C11.5181 24.3641 12.5497 25.5348 12.5497 27.7798V28.7392C12.5497 29.9478 12.1332 30.9266 11.3989 31.5214ZM20.1092 50.2302H18.1252L17.6886 47.6782H14.8711L14.4149 50.2302H12.4309L14.653 37.9686H17.9067L20.1092 50.2302ZM13.5814 32.8643C13.5814 35.0327 14.0376 36.8172 16.4781 36.8172C18.9187 36.8172 19.3749 35.0327 19.3749 32.8647V24.3641H17.3113V33.0373C17.3113 34.5532 17.0336 34.8984 16.4781 34.8984C15.9227 34.8984 15.645 34.5532 15.645 33.0373V24.3641H13.5814V32.8643Z" fill="#FF3000" style="fill:#FF3000;fill:color(display-p3 1.0000 0.1882 0.0000);fill-opacity:1;"/>
<path d="M9.25598 30.2358H8.85902V26.2829H9.25598C10.1488 26.2829 10.5653 26.5708 10.5653 27.9137V28.6045C10.5657 29.9478 10.1491 30.2358 9.25598 30.2358Z" fill="#FF3000" style="fill:#FF3000;fill:color(display-p3 1.0000 0.1882 0.0000);fill-opacity:1;"/>
<path d="M15.1884 45.7594L16.2004 39.8877H16.3593L17.3709 45.7594H15.1884Z" fill="#FF3000" style="fill:#FF3000;fill:color(display-p3 1.0000 0.1882 0.0000);fill-opacity:1;"/>
<path d="M8.85941 45.7594H9.25635C10.1295 45.7594 10.5657 45.3372 10.5657 43.3801V42.2671C10.5657 40.31 10.1291 39.8877 9.25635 39.8877H8.85941V45.7594Z" fill="#FF3000" style="fill:#FF3000;fill:color(display-p3 1.0000 0.1882 0.0000);fill-opacity:1;"/>
<path fill-rule="evenodd" clip-rule="evenodd" d="M0 0.297119H1224V73.5H0V0.297119ZM171.131 43.505C174.539 43.505 176.667 41.057 176.667 37.489C176.667 33.905 174.539 31.489 171.131 31.489C167.723 31.489 165.595 33.905 165.595 37.489C165.595 41.057 167.723 43.505 171.131 43.505ZM187.974 43.297H189.878V34.689H187.974V38.129H184.134V34.689H182.23V43.297H184.134V39.633H187.974V43.297ZM191.591 40.929C191.591 42.497 192.903 43.505 194.775 43.505C196.055 43.505 197.047 43.073 197.607 42.129C197.648 42.6289 197.689 42.8549 197.739 43.1347L197.739 43.1385C197.748 43.1889 197.758 43.2411 197.767 43.297H199.511C199.335 42.577 199.255 41.441 199.255 40.353C199.255 39.8994 199.266 39.3655 199.275 38.9155V38.9138C199.282 38.5867 199.287 38.304 199.287 38.129C199.335 35.377 197.719 34.433 195.655 34.433C193.575 34.433 192.119 35.649 191.991 37.393H193.863C193.911 36.353 194.631 35.841 195.591 35.841C196.551 35.841 197.383 36.289 197.383 37.761V37.921C194.247 38.257 191.591 38.769 191.591 40.929ZM208.701 37.633C208.365 35.729 206.733 34.497 204.845 34.497C202.269 34.497 200.621 36.449 200.621 39.009C200.621 41.569 202.269 43.505 204.765 43.505C206.605 43.505 208.381 42.369 208.765 40.353H206.909C206.653 41.505 205.741 41.921 204.797 41.921C203.677 41.921 202.589 41.041 202.589 38.993C202.589 36.961 203.645 36.081 204.845 36.081C205.885 36.081 206.669 36.721 206.845 37.633H208.701ZM266.195 43.297H268.227V31.697H258.915V43.297H260.947V33.393H266.195V43.297ZM272.562 34.689H270.658V46.097H272.562V42.161C273.074 43.009 273.97 43.505 275.122 43.505C277.234 43.505 278.818 41.761 278.818 38.993C278.818 36.241 277.234 34.497 275.122 34.497C273.97 34.497 273.074 34.993 272.562 35.841V34.689ZM288.375 39.009C288.375 35.905 286.231 34.497 284.135 34.497C282.039 34.497 279.895 35.905 279.895 39.009C279.895 42.129 282.039 43.505 284.135 43.505C286.231 43.505 288.375 42.129 288.375 39.009ZM291.393 39.537H297.809C297.985 36.657 296.321 34.497 293.681 34.497C291.233 34.497 289.457 36.337 289.457 38.929C289.457 41.409 291.041 43.505 293.809 43.505C296.017 43.505 297.329 42.097 297.713 40.721H295.841C295.505 41.537 294.737 41.921 293.729 41.921C292.641 41.921 291.521 41.137 291.393 39.537ZM302.289 39.537L305.121 43.297H307.313L303.841 38.865L307.089 34.689H304.913L302.433 38.033H301.393V34.689H299.473V43.297H301.393V39.537H302.289ZM312.596 36.193H315.524V34.689H307.748V36.193H310.692V43.297H312.596V36.193ZM316.91 43.297H320.19C322.302 43.297 323.518 42.561 323.518 40.385C323.518 38.481 322.51 37.585 320.142 37.585H318.814V34.689H316.91V43.297ZM324.75 43.297H326.654V34.689H324.75V43.297ZM340.549 43.297V34.689H338.645L334.549 40.689V34.689H332.645V43.297H334.549L338.645 37.329V43.297H340.549ZM356.587 43.297V34.689H353.707L351.515 40.833L349.259 34.689H346.379V43.297H348.219V36.513L350.747 43.297H352.219L354.747 36.481V43.297H356.587ZM360.331 39.537H366.747C366.923 36.657 365.259 34.497 362.619 34.497C360.171 34.497 358.395 36.337 358.395 38.929C358.395 41.409 359.979 43.505 362.747 43.505C364.955 43.505 366.267 42.097 366.651 40.721H364.779C364.443 41.537 363.675 41.921 362.667 41.921C361.579 41.921 360.459 41.137 360.331 39.537ZM370.234 34.689H368.33V46.097H370.234V42.161C370.746 43.009 371.642 43.505 372.794 43.505C374.906 43.505 376.49 41.761 376.49 38.993C376.49 36.241 374.906 34.497 372.794 34.497C371.642 34.497 370.746 34.993 370.234 35.841V34.689ZM386.047 39.009C386.047 35.905 383.903 34.497 381.807 34.497C379.711 34.497 377.567 35.905 377.567 39.009C377.567 42.129 379.711 43.505 381.807 43.505C383.903 43.505 386.047 42.129 386.047 39.009ZM395.179 43.297V34.689H387.691V43.297H389.595V36.193H393.275V43.297H395.179ZM399.312 34.689H397.408V46.097H399.312V42.161C399.824 43.009 400.72 43.505 401.872 43.505C403.984 43.505 405.568 41.761 405.568 38.993C405.568 36.241 403.984 34.497 401.872 34.497C400.72 34.497 399.824 34.993 399.312 35.841V34.689ZM415.111 43.297V34.689H413.207L409.111 40.689V34.689H407.207V43.297H409.111L413.207 37.329V43.297H415.111ZM423.99 43.297V34.689H420.326C418.166 34.689 417.03 35.681 417.03 37.425C417.03 38.657 417.702 39.457 418.614 39.825L416.454 43.297H418.614L420.374 40.321H422.086V43.297H423.99ZM430.237 36.193H433.165V34.689H425.389V36.193H428.333V43.297H430.237V36.193ZM442.455 43.297V34.689H440.551L436.455 40.689V34.689H434.551V43.297H436.455L440.551 37.329V43.297H442.455ZM451.334 43.297V34.689H447.67C445.51 34.689 444.374 35.681 444.374 37.425C444.374 38.657 445.046 39.457 445.958 39.825L443.798 43.297H445.958L447.718 40.321H449.43V43.297H451.334ZM480.955 31.697L476.635 43.297H478.715L479.611 40.721H484.315L485.227 43.297H487.451L483.099 31.697H480.955ZM494.389 43.297H496.293V34.689H494.389V38.129H490.549V34.689H488.645V43.297H490.549V39.633H494.389V43.297ZM498.006 40.929C498.006 42.497 499.318 43.505 501.19 43.505C502.47 43.505 503.462 43.073 504.022 42.129C504.062 42.6289 504.103 42.855 504.153 43.1348C504.162 43.1863 504.172 43.2397 504.182 43.297H505.926C505.75 42.577 505.67 41.441 505.67 40.353C505.67 39.9091 505.68 39.3883 505.689 38.9445V38.9406V38.9381V38.9365L505.689 38.9309V38.9273V38.9251L505.69 38.9192V38.9155C505.696 38.5876 505.702 38.3043 505.702 38.129C505.75 35.377 504.134 34.433 502.07 34.433C499.99 34.433 498.534 35.649 498.406 37.393H500.278C500.326 36.353 501.046 35.841 502.006 35.841C502.966 35.841 503.798 36.289 503.798 37.761V37.921C500.662 38.257 498.006 38.769 498.006 40.929ZM513.067 43.297H514.971V34.689H508.763L508.603 37.777C508.427 41.041 507.771 41.793 507.067 41.793H506.875V43.297H507.227C509.211 43.297 510.171 41.649 510.411 38.049L510.539 36.193H513.067V43.297ZM525.174 43.297V34.689H523.27L519.174 40.689V34.689H517.27V43.297H519.174L523.27 37.329V43.297H525.174ZM531.253 36.193H534.181V34.689H526.405V36.193H529.349V43.297H531.253V36.193ZM543.471 43.297V34.689H541.567L537.471 40.689V34.689H535.567V43.297H537.471L541.567 37.329V43.297H543.471ZM548.429 39.537L551.261 43.297H553.453L549.981 38.865L553.229 34.689H551.053L548.573 38.033H547.533V34.689H545.613V43.297H547.533V39.537H548.429ZM553.896 40.929C553.896 42.497 555.208 43.505 557.08 43.505C558.36 43.505 559.352 43.073 559.912 42.129C559.953 42.6292 559.993 42.8553 560.044 43.1353L560.064 43.2502L560.072 43.297H561.816C561.64 42.577 561.56 41.441 561.56 40.353C561.56 39.8994 561.571 39.3655 561.58 38.9155C561.587 38.5876 561.592 38.3043 561.592 38.129C561.64 35.377 560.024 34.433 557.96 34.433C555.88 34.433 554.424 35.649 554.296 37.393H556.168C556.216 36.353 556.936 35.841 557.896 35.841C558.856 35.841 559.688 36.289 559.688 37.761V37.921C556.552 38.257 553.896 38.769 553.896 40.929ZM575.189 43.297V34.689H573.285L569.189 40.689V34.689H567.285V43.297H569.189L573.285 37.329V43.297H575.189ZM584.956 36.193H587.884V34.689H580.108V36.193H583.052V43.297H584.956V36.193ZM591.094 34.689H589.19V46.097H591.094V42.161C591.606 43.009 592.502 43.505 593.654 43.505C595.766 43.505 597.35 41.761 597.35 38.993C597.35 36.241 595.766 34.497 593.654 34.497C592.502 34.497 591.606 34.993 591.094 35.841V34.689ZM600.362 39.537H606.778C606.954 36.657 605.29 34.497 602.65 34.497C600.202 34.497 598.426 36.337 598.426 38.929C598.426 41.409 600.01 43.505 602.778 43.505C604.986 43.505 606.298 42.097 606.682 40.721H604.81C604.474 41.537 603.706 41.921 602.698 41.921C601.61 41.921 600.49 41.137 600.362 39.537ZM614.186 43.297H616.09V34.689H614.186V38.129H610.346V34.689H608.442V43.297H610.346V39.633H614.186V43.297ZM627.147 45.329V41.809H625.867V34.689H619.595L619.467 37.425C619.323 40.561 618.827 41.809 617.867 41.809H617.403V45.329H619.131V43.297H625.419V45.329H627.147ZM628.582 43.297H631.862C633.974 43.297 635.19 42.561 635.19 40.385C635.19 38.481 634.182 37.585 631.814 37.585H630.486V34.689H628.582V43.297ZM636.422 43.297H638.326V34.689H636.422V43.297ZM671.036 38.145V43.297H673.052V38.145H674.204L677.676 43.297H679.996L675.916 37.201L679.756 31.697H677.484L674.236 36.449H673.052V31.697H671.036V36.449H669.82L666.572 31.697H664.284L668.172 37.185L664.092 43.297H666.428L669.916 38.145H671.036ZM680.574 46.097H681.438C683.374 46.097 683.934 45.505 684.75 43.281L687.774 34.689H685.822L683.87 40.865L681.918 34.689H679.838L682.958 43.249L682.862 43.457C682.478 44.577 682.126 44.641 681.294 44.641H680.574V46.097ZM690.828 34.689H688.924V46.097H690.828V42.161C691.34 43.009 692.236 43.505 693.388 43.505C695.5 43.505 697.084 41.761 697.084 38.993C697.084 36.241 695.5 34.497 693.388 34.497C692.236 34.497 691.34 34.993 690.828 35.841V34.689ZM704.467 43.297H706.371V34.689H704.467V38.129H700.627V34.689H698.723V43.297H700.627V39.633H704.467V43.297ZM708.084 40.929C708.084 42.497 709.396 43.505 711.268 43.505C712.548 43.505 713.54 43.073 714.1 42.129C714.14 42.6292 714.181 42.8553 714.231 43.1353C714.24 43.1867 714.25 43.24 714.26 43.297H716.004C715.828 42.577 715.748 41.441 715.748 40.353C715.748 39.8994 715.758 39.3655 715.767 38.9155C715.774 38.5876 715.78 38.3043 715.78 38.129C715.828 35.377 714.212 34.433 712.148 34.433C710.068 34.433 708.612 35.649 708.484 37.393H710.356C710.404 36.353 711.124 35.841 712.084 35.841C713.044 35.841 713.876 36.289 713.876 37.761V37.921C710.74 38.257 708.084 38.769 708.084 40.929ZM723.145 43.297H725.049V34.689H718.841L718.681 37.777C718.505 41.041 717.849 41.793 717.145 41.793H716.953V43.297H717.305C719.289 43.297 720.249 41.649 720.489 38.049L720.617 36.193H723.145V43.297ZM759.211 43.297H761.243V31.697H751.931V43.297H753.963V33.393H759.211V43.297ZM763.162 40.929C763.162 42.497 764.474 43.505 766.346 43.505C767.626 43.505 768.618 43.073 769.178 42.129C769.218 42.6292 769.259 42.8553 769.309 43.1353C769.318 43.1867 769.328 43.24 769.338 43.297H771.082C770.906 42.577 770.826 41.441 770.826 40.353C770.826 39.8994 770.837 39.3655 770.846 38.9155C770.847 38.8377 770.849 38.7624 770.85 38.6904C770.853 38.5619 770.855 38.444 770.856 38.3417C770.857 38.3101 770.857 38.2801 770.857 38.2516C770.858 38.2065 770.858 38.1654 770.858 38.129C770.906 35.377 769.29 34.433 767.226 34.433C765.146 34.433 763.69 35.649 763.562 37.393H765.434C765.482 36.353 766.202 35.841 767.162 35.841C768.122 35.841 768.954 36.289 768.954 37.761V37.921C765.818 38.257 763.162 38.769 763.162 40.929ZM774.687 34.689H772.783V46.097H774.687V42.161C775.199 43.009 776.095 43.505 777.247 43.505C779.359 43.505 780.943 41.761 780.943 38.993C780.943 36.241 779.359 34.497 777.247 34.497C776.095 34.497 775.199 34.993 774.687 35.841V34.689ZM786.237 36.193H789.165V34.689H781.389V36.193H784.333V43.297H786.237V36.193ZM796.295 43.297H798.199V34.689H796.295V38.129H792.455V34.689H790.551V43.297H792.455V39.633H796.295V43.297ZM801.784 39.537H808.2C808.376 36.657 806.712 34.497 804.072 34.497C801.624 34.497 799.848 36.337 799.848 38.929C799.848 41.409 801.432 43.505 804.2 43.505C806.408 43.505 807.72 42.097 808.104 40.721H806.232C805.896 41.537 805.128 41.921 804.12 41.921C803.032 41.921 801.912 41.137 801.784 39.537ZM811.687 34.689H809.783V46.097H811.687V42.161C812.199 43.009 813.095 43.505 814.247 43.505C816.359 43.505 817.943 41.761 817.943 38.993C817.943 36.241 816.359 34.497 814.247 34.497C813.095 34.497 812.199 34.993 811.687 35.841V34.689ZM819.582 43.297H822.862C824.974 43.297 826.19 42.561 826.19 40.385C826.19 38.481 825.182 37.585 822.814 37.585H821.486V34.689H819.582V43.297ZM827.422 43.297H829.326V34.689H827.422V43.297ZM864.524 38.1305C864.984 38.1305 865.357 37.7574 865.357 37.2972C865.357 36.837 864.984 36.4639 864.524 36.4639C864.063 36.4639 863.69 36.837 863.69 37.2972C863.69 37.7574 864.063 38.1305 864.524 38.1305ZM870.357 38.1305C870.817 38.1305 871.19 37.7574 871.19 37.2972C871.19 36.837 870.817 36.4639 870.357 36.4639C869.897 36.4639 869.524 36.837 869.524 37.2972C869.524 37.7574 869.897 38.1305 870.357 38.1305ZM858.69 38.1305C859.15 38.1305 859.524 37.7574 859.524 37.2972C859.524 36.837 859.15 36.4639 858.69 36.4639C858.23 36.4639 857.857 36.837 857.857 37.2972C857.857 37.7574 858.23 38.1305 858.69 38.1305ZM983.397 33.5471C984.935 29.1971 989.097 26.0471 993.972 26.0471C998.885 26.0471 1003.05 29.1971 1004.62 33.5471C1005.03 34.7096 1005.26 35.9846 1005.26 37.2971C1005.26 38.6096 1005.03 39.8846 1004.62 41.0471H1004.58C1003.05 45.3971 998.885 48.5471 993.972 48.5471C989.097 48.5471 984.935 45.4346 983.397 41.0471C982.985 39.8846 982.76 38.6096 982.76 37.2971C982.76 35.9846 982.985 34.7096 983.397 33.5471ZM1019.67 31.697H1015.85V43.297H1017.88V38.913H1019.7C1022.44 38.913 1024.6 38.273 1024.6 35.345C1024.6 32.097 1022.21 31.697 1019.67 31.697ZM1032.53 31.697L1029.81 38.641L1026.87 31.697H1024.69L1028.85 40.689L1028.56 41.153C1028.23 41.665 1027.86 41.825 1027.23 41.825H1026.08V43.505H1027.38C1029.09 43.505 1030 42.625 1030.63 41.217L1034.74 31.697H1032.53ZM1045.03 39.441H1043.08C1042.71 41.041 1041.62 41.841 1040.04 41.841C1038.18 41.841 1036.76 40.273 1036.76 37.457C1036.76 34.657 1038.21 33.153 1040.05 33.153C1041.57 33.153 1042.68 33.969 1043.04 35.553H1045C1044.53 32.945 1042.69 31.489 1040.12 31.489C1036.74 31.489 1034.66 33.809 1034.66 37.457C1034.66 41.105 1036.63 43.505 1040.02 43.505C1042.71 43.505 1044.53 42.049 1045.03 39.441ZM1095.01 26.2971C1095.01 30.7154 1091.43 34.2971 1087.01 34.2971C1086.23 34.2971 1085.48 34.1854 1084.76 33.9772C1084.87 36.5142 1085.54 38.2396 1086.25 39.3742L1086.26 39.3931L1086.27 39.4081C1086.62 39.9753 1086.9 40.4242 1087.09 40.7518C1087.19 40.9173 1087.27 41.0768 1087.34 41.2186C1087.34 41.2349 1087.35 41.2521 1087.36 41.27C1087.36 41.2726 1087.36 41.2751 1087.36 41.2777C1087.37 41.2866 1087.37 41.2957 1087.37 41.305C1087.38 41.308 1087.38 41.3111 1087.38 41.3143C1087.38 41.3222 1087.38 41.3303 1087.39 41.3385C1087.39 41.3476 1087.39 41.3569 1087.4 41.3663C1087.4 41.3719 1087.4 41.3774 1087.4 41.3831C1087.41 41.3919 1087.41 41.4008 1087.41 41.4098C1087.42 41.416 1087.42 41.4223 1087.42 41.4287C1087.42 41.4329 1087.42 41.4371 1087.42 41.4414C1087.43 41.451 1087.43 41.4606 1087.43 41.4704C1087.46 41.5486 1087.5 41.7159 1087.48 41.9194C1087.47 42.0562 1087.45 42.2899 1087.31 42.5314C1087.18 42.7729 1086.99 42.9201 1086.88 43.0019C1086.63 43.1875 1086.35 43.23 1086.25 43.2441L1086.24 43.2448C1086.1 43.2666 1085.93 43.2775 1085.76 43.2841C1085.43 43.2971 1084.96 43.2971 1084.39 43.2971H1084.38H1071.11H1071.11C1070.54 43.2971 1070.07 43.2971 1069.74 43.2841C1069.57 43.2775 1069.4 43.2666 1069.25 43.2448L1069.25 43.2441C1069.15 43.23 1068.87 43.1875 1068.61 43.0019C1068.5 42.9201 1068.32 42.7729 1068.19 42.5314C1068.05 42.2899 1068.02 42.0562 1068.01 41.9194C1068 41.7159 1068.04 41.5486 1068.06 41.4704C1068.09 41.3761 1068.13 41.2893 1068.16 41.2186C1068.23 41.0768 1068.31 40.9173 1068.41 40.7518C1068.6 40.4214 1068.88 39.9675 1069.24 39.3932L1069.25 39.3742C1070.02 38.141 1070.75 36.2098 1070.75 33.2971C1070.75 31.4406 1071.49 29.6601 1072.8 28.3474C1074.11 27.0346 1075.89 26.2971 1077.75 26.2971C1078.17 26.2971 1078.6 26.336 1079.01 26.4117C1079.01 26.3736 1079.01 26.3354 1079.01 26.2971C1079.01 21.8788 1082.59 18.2971 1087.01 18.2971C1091.43 18.2971 1095.01 21.8788 1095.01 26.2971ZM1074.75 46.2971C1074.75 45.7448 1075.2 45.2971 1075.75 45.2971H1079.75C1080.3 45.2971 1080.75 45.7448 1080.75 46.2971C1080.75 46.8494 1080.3 47.2971 1079.75 47.2971H1075.75C1075.2 47.2971 1074.75 46.8494 1074.75 46.2971ZM1116.51 32.7971C1116.51 29.7596 1118.97 27.2971 1122.01 27.2971C1125.05 27.2971 1127.51 29.7596 1127.51 32.7971C1127.51 35.8347 1125.05 38.2971 1122.01 38.2971C1118.97 38.2971 1116.51 35.8347 1116.51 32.7971ZM1122.01 42.2971C1118.82 42.2971 1115.9 43.6861 1113.74 45.9831C1113.36 46.385 1112.73 46.4036 1112.32 46.0247C1111.92 45.6459 1111.9 45.013 1112.28 44.6111C1114.79 41.9533 1118.21 40.2971 1122.01 40.2971C1125.8 40.2971 1129.23 41.9533 1131.74 44.6111C1132.12 45.013 1132.1 45.6459 1131.7 46.0247C1131.29 46.4036 1130.66 46.385 1130.28 45.9831C1128.12 43.6861 1125.2 42.2971 1122.01 42.2971ZM1151.29 43.1972H1153.32V31.5972H1144.01V43.1972H1146.04V33.2932H1151.29V43.1972ZM1157.66 34.5892H1155.75V45.9972H1157.66V42.0612C1158.17 42.9092 1159.07 43.4052 1160.22 43.4052C1162.33 43.4052 1163.91 41.6612 1163.91 38.8932C1163.91 36.1412 1162.33 34.3972 1160.22 34.3972C1159.07 34.3972 1158.17 34.8932 1157.66 35.7412V34.5892ZM1173.47 38.9092C1173.47 35.8052 1171.33 34.3972 1169.23 34.3972C1167.13 34.3972 1164.99 35.8052 1164.99 38.9092C1164.99 42.0292 1167.13 43.4052 1169.23 43.4052C1171.33 43.4052 1173.47 42.0292 1173.47 38.9092ZM1180.94 34.5892V31.5972H1179.03V34.5892C1176.58 34.5892 1174.54 35.9652 1174.54 38.9412C1174.54 42.0132 1176.58 43.2932 1179.03 43.2932V45.9972H1180.94V43.2932C1183.37 43.2932 1185.43 42.0132 1185.43 38.9412C1185.43 35.9652 1183.38 34.5892 1180.94 34.5892ZM1194.97 43.1972V34.5892H1193.07L1188.97 40.5892V34.5892H1187.07V43.1972H1188.97L1193.07 37.2292V43.1972H1194.97ZM1202.47 43.1972H1204.38V34.5892H1198.17L1198.01 37.6772C1197.83 40.9412 1197.18 41.6932 1196.47 41.6932H1196.28V43.1972H1196.63C1198.62 43.1972 1199.58 41.5492 1199.82 37.9492L1199.95 36.0932H1202.47V43.1972ZM1210.36 37.4852H1208.58V34.5892H1206.68V43.1972H1210.39C1212.53 43.1972 1213.72 42.4612 1213.72 40.2852C1213.72 38.3812 1212.72 37.4852 1210.36 37.4852ZM958 36.2971C958 38.4221 957.263 40.3751 956.032 41.9148L960.01 45.8927L958.595 47.3069L954.618 43.329C953.078 44.5606 951.125 45.2971 949 45.2971C944.029 45.2971 940 41.2677 940 36.2971C940 31.3266 944.029 27.2971 949 27.2971C953.971 27.2971 958 31.3266 958 36.2971ZM33.9125 17.2971H6.0875C2.72547 17.2971 0 20.0226 0 23.3846V51.2096C0 54.5717 2.72547 57.2971 6.0875 57.2971H33.9125C37.2745 57.2971 40 54.5717 40 51.2096V23.3846C40 20.0226 37.2745 17.2971 33.9125 17.2971ZM54.8807 29.4798H48V45.1198H51.8863C53.122 45.1198 54.0497 44.7921 54.6676 44.1366C55.2854 43.4811 55.5952 42.5212 55.5952 41.255V39.5787C55.5952 38.3126 55.2854 37.3526 54.6676 36.6972C54.0497 36.0417 53.122 35.714 51.8863 35.714H50.4571V31.7148H54.8807V29.4798ZM57.25 45.118H59.7752L61.8312 37.9472L62.8359 34.1039V45.118H65.0477V29.4798H62.3452L60.334 35.936L59.4403 39.3764V29.4798H57.25V45.118ZM71.1798 31.9029C71.409 32.1482 71.5254 32.6211 71.5254 33.3213H71.5218V34.1827C71.5218 34.8095 71.3911 35.2412 71.1314 35.4793C70.8699 35.7193 70.51 35.8375 70.0479 35.8375H69.3101V38.0726H69.9136C70.4795 38.0726 70.8878 38.223 71.1422 38.5203C71.3947 38.8194 71.5218 39.3334 71.5218 40.0623V41.2908C71.5218 41.9911 71.4072 42.4603 71.1762 42.6985C70.9452 42.9367 70.6353 43.0567 70.2485 43.0567C69.8599 43.0567 69.5518 42.9421 69.3208 42.711C69.0898 42.4818 68.9751 42.0824 68.9751 41.5165V39.6396H66.6523V41.3607C66.6523 42.6269 66.9622 43.5993 67.58 44.2763C68.1979 44.9551 69.1095 45.2935 70.3165 45.2935C71.5218 45.2935 72.4352 44.9551 73.0531 44.2763C73.6709 43.5993 73.9807 42.6269 73.9807 41.3607V40.1321C73.9807 39.328 73.85 38.6475 73.5903 38.0887C73.3306 37.5317 72.8865 37.118 72.2615 36.8494C73.4094 36.373 73.9825 35.3002 73.9825 33.6329V33.23C73.9825 31.9638 73.6727 30.9931 73.0548 30.3144C72.437 29.6356 71.5254 29.2971 70.3183 29.2971C69.1113 29.2971 68.2069 29.6284 67.6033 30.2911C66.9998 30.9555 66.6989 31.919 66.6989 33.1852V34.3475H68.9554V33.0742C68.9554 32.5082 69.0754 32.1106 69.3136 31.8796C69.5518 31.6504 69.8652 31.534 70.2521 31.534C70.6389 31.534 70.9487 31.6575 71.1798 31.9029ZM75.6373 45.118H78.0945V38.4164H80.8865V45.118H83.3884V29.4798H80.8865V36.1814H78.0945V29.4798H75.6373V45.118ZM91.0069 36.0686H87.6329V31.7131H91.8773V29.478H85.1757V45.1162H91.8773V42.883H87.6329V38.3036H91.0069V36.0686ZM99.5961 44.2799C100.214 43.6029 100.524 42.6305 100.524 41.3643V39.285H98.201V41.5183C98.201 42.0842 98.0864 42.4782 97.8554 42.7021C97.6243 42.926 97.3145 43.037 96.9277 43.037C96.539 43.037 96.231 42.926 96 42.7021C95.769 42.4782 95.6543 42.0842 95.6543 41.5183V33.0742C95.6543 32.5082 95.769 32.1106 96 31.8796C96.231 31.6504 96.5408 31.534 96.9277 31.534C97.3145 31.534 97.6243 31.6486 97.8554 31.8796C98.0846 32.1106 98.201 32.5082 98.201 33.0742V34.7504H100.524V33.2318C100.524 31.9656 100.214 30.9949 99.5961 30.3162C98.9783 29.6374 98.0649 29.2989 96.8596 29.2989C95.6544 29.2989 94.741 29.6392 94.1231 30.3162C93.5052 30.9949 93.1954 31.9656 93.1954 33.2318V41.3643C93.1954 42.6305 93.5052 43.6029 94.1231 44.2799C94.741 44.9586 95.6544 45.2971 96.8596 45.2971C98.0649 45.2971 98.9783 44.9586 99.5961 44.2799Z" fill="#1D1D1D" style="fill:#1D1D1D;fill:color(display-p3 0.1137 0.1137 0.1137);fill-opacity:1;"/>
<path d="M51.8881 42.883C52.2749 42.883 52.5811 42.7791 52.8032 42.5696C53.0271 42.3618 53.1381 41.975 53.1381 41.4073V39.4193C53.1381 38.8534 53.0271 38.4666 52.8032 38.257C52.5794 38.0493 52.2749 37.9436 51.8881 37.9436H50.4589V42.8812H51.8881V42.883Z" fill="#1D1D1D" style="fill:#1D1D1D;fill:color(display-p3 0.1137 0.1137 0.1137);fill-opacity:1;"/>
<path d="M197.431 39.905V39.249C194.711 39.505 193.607 39.905 193.607 40.881C193.607 41.633 194.231 42.081 195.191 42.081C196.599 42.081 197.431 41.377 197.431 39.905Z" fill="#1D1D1D" style="fill:#1D1D1D;fill:color(display-p3 0.1137 0.1137 0.1137);fill-opacity:1;"/>
<path d="M167.691 37.489C167.691 40.321 169.211 41.841 171.131 41.841C173.051 41.841 174.571 40.321 174.571 37.489C174.571 34.673 173.051 33.153 171.131 33.153C169.211 33.153 167.691 34.673 167.691 37.489Z" fill="#1D1D1D" style="fill:#1D1D1D;fill:color(display-p3 0.1137 0.1137 0.1137);fill-opacity:1;"/>
<path d="M293.681 35.985C292.785 35.985 291.569 36.529 291.393 38.145H295.873C295.825 36.801 294.801 35.985 293.681 35.985Z" fill="#1D1D1D" style="fill:#1D1D1D;fill:color(display-p3 0.1137 0.1137 0.1137);fill-opacity:1;"/>
<path d="M281.863 39.009C281.863 40.993 282.919 41.953 284.135 41.953C285.351 41.953 286.407 40.993 286.407 39.009C286.407 37.025 285.351 36.049 284.135 36.049C282.919 36.049 281.863 37.025 281.863 39.009Z" fill="#1D1D1D" style="fill:#1D1D1D;fill:color(display-p3 0.1137 0.1137 0.1137);fill-opacity:1;"/>
<path d="M272.482 38.993C272.482 40.977 273.458 41.953 274.706 41.953C276.05 41.953 276.834 40.833 276.834 38.993C276.834 37.185 276.05 36.049 274.706 36.049C273.458 36.049 272.482 37.009 272.482 38.993Z" fill="#1D1D1D" style="fill:#1D1D1D;fill:color(display-p3 0.1137 0.1137 0.1137);fill-opacity:1;"/>
<path d="M422.086 36.193H420.598C419.59 36.193 418.966 36.673 418.966 37.569C418.966 38.481 419.558 38.817 420.518 38.817H422.086V36.193Z" fill="#1D1D1D" style="fill:#1D1D1D;fill:color(display-p3 0.1137 0.1137 0.1137);fill-opacity:1;"/>
<path d="M399.232 38.993C399.232 40.977 400.208 41.953 401.456 41.953C402.8 41.953 403.584 40.833 403.584 38.993C403.584 37.185 402.8 36.049 401.456 36.049C400.208 36.049 399.232 37.009 399.232 38.993Z" fill="#1D1D1D" style="fill:#1D1D1D;fill:color(display-p3 0.1137 0.1137 0.1137);fill-opacity:1;"/>
<path d="M379.535 39.009C379.535 40.993 380.591 41.953 381.807 41.953C383.023 41.953 384.079 40.993 384.079 39.009C384.079 37.025 383.023 36.049 381.807 36.049C380.591 36.049 379.535 37.025 379.535 39.009Z" fill="#1D1D1D" style="fill:#1D1D1D;fill:color(display-p3 0.1137 0.1137 0.1137);fill-opacity:1;"/>
<path d="M370.154 38.993C370.154 40.977 371.13 41.953 372.378 41.953C373.722 41.953 374.506 40.833 374.506 38.993C374.506 37.185 373.722 36.049 372.378 36.049C371.13 36.049 370.154 37.009 370.154 38.993Z" fill="#1D1D1D" style="fill:#1D1D1D;fill:color(display-p3 0.1137 0.1137 0.1137);fill-opacity:1;"/>
<path d="M362.619 35.985C361.723 35.985 360.507 36.529 360.331 38.145H364.811C364.763 36.801 363.739 35.985 362.619 35.985Z" fill="#1D1D1D" style="fill:#1D1D1D;fill:color(display-p3 0.1137 0.1137 0.1137);fill-opacity:1;"/>
<path d="M318.814 39.089V41.793H319.918C321.07 41.793 321.614 41.457 321.614 40.369C321.614 39.393 321.054 39.089 319.902 39.089H318.814Z" fill="#1D1D1D" style="fill:#1D1D1D;fill:color(display-p3 0.1137 0.1137 0.1137);fill-opacity:1;"/>
<path d="M559.736 39.905V39.249C557.016 39.505 555.912 39.905 555.912 40.881C555.912 41.633 556.536 42.081 557.496 42.081C558.904 42.081 559.736 41.377 559.736 39.905Z" fill="#1D1D1D" style="fill:#1D1D1D;fill:color(display-p3 0.1137 0.1137 0.1137);fill-opacity:1;"/>
<path d="M503.846 39.905V39.249C501.126 39.505 500.022 39.905 500.022 40.881C500.022 41.633 500.646 42.081 501.606 42.081C503.014 42.081 503.846 41.377 503.846 39.905Z" fill="#1D1D1D" style="fill:#1D1D1D;fill:color(display-p3 0.1137 0.1137 0.1137);fill-opacity:1;"/>
<path d="M481.947 34.049L480.203 39.025H483.707L481.947 34.049Z" fill="#1D1D1D" style="fill:#1D1D1D;fill:color(display-p3 0.1137 0.1137 0.1137);fill-opacity:1;"/>
<path d="M449.43 36.193H447.942C446.934 36.193 446.31 36.673 446.31 37.569C446.31 38.481 446.902 38.817 447.862 38.817H449.43V36.193Z" fill="#1D1D1D" style="fill:#1D1D1D;fill:color(display-p3 0.1137 0.1137 0.1137);fill-opacity:1;"/>
<path d="M591.014 38.993C591.014 40.977 591.99 41.953 593.238 41.953C594.582 41.953 595.366 40.833 595.366 38.993C595.366 37.185 594.582 36.049 593.238 36.049C591.99 36.049 591.014 37.009 591.014 38.993Z" fill="#1D1D1D" style="fill:#1D1D1D;fill:color(display-p3 0.1137 0.1137 0.1137);fill-opacity:1;"/>
<path d="M602.65 35.985C601.754 35.985 600.538 36.529 600.362 38.145H604.842C604.794 36.801 603.77 35.985 602.65 35.985Z" fill="#1D1D1D" style="fill:#1D1D1D;fill:color(display-p3 0.1137 0.1137 0.1137);fill-opacity:1;"/>
<path d="M623.963 41.809V36.193H621.275L621.195 37.649C621.067 39.937 620.763 41.153 620.075 41.809H623.963Z" fill="#1D1D1D" style="fill:#1D1D1D;fill:color(display-p3 0.1137 0.1137 0.1137);fill-opacity:1;"/>
<path d="M630.486 39.089V41.793H631.59C632.742 41.793 633.286 41.457 633.286 40.369C633.286 39.393 632.726 39.089 631.574 39.089H630.486Z" fill="#1D1D1D" style="fill:#1D1D1D;fill:color(display-p3 0.1137 0.1137 0.1137);fill-opacity:1;"/>
<path d="M690.748 38.993C690.748 40.977 691.724 41.953 692.972 41.953C694.316 41.953 695.1 40.833 695.1 38.993C695.1 37.185 694.316 36.049 692.972 36.049C691.724 36.049 690.748 37.009 690.748 38.993Z" fill="#1D1D1D" style="fill:#1D1D1D;fill:color(display-p3 0.1137 0.1137 0.1137);fill-opacity:1;"/>
<path d="M713.924 39.905V39.249C711.204 39.505 710.1 39.905 710.1 40.881C710.1 41.633 710.724 42.081 711.684 42.081C713.092 42.081 713.924 41.377 713.924 39.905Z" fill="#1D1D1D" style="fill:#1D1D1D;fill:color(display-p3 0.1137 0.1137 0.1137);fill-opacity:1;"/>
<path d="M769.002 39.905V39.249C766.282 39.505 765.178 39.905 765.178 40.881C765.178 41.633 765.802 42.081 766.762 42.081C768.17 42.081 769.002 41.377 769.002 39.905Z" fill="#1D1D1D" style="fill:#1D1D1D;fill:color(display-p3 0.1137 0.1137 0.1137);fill-opacity:1;"/>
<path d="M774.607 38.993C774.607 40.977 775.583 41.953 776.831 41.953C778.175 41.953 778.959 40.833 778.959 38.993C778.959 37.185 778.175 36.049 776.831 36.049C775.583 36.049 774.607 37.009 774.607 38.993Z" fill="#1D1D1D" style="fill:#1D1D1D;fill:color(display-p3 0.1137 0.1137 0.1137);fill-opacity:1;"/>
<path d="M804.072 35.985C803.176 35.985 801.96 36.529 801.784 38.145H806.264C806.216 36.801 805.192 35.985 804.072 35.985Z" fill="#1D1D1D" style="fill:#1D1D1D;fill:color(display-p3 0.1137 0.1137 0.1137);fill-opacity:1;"/>
<path d="M811.607 38.993C811.607 40.977 812.583 41.953 813.831 41.953C815.175 41.953 815.959 40.833 815.959 38.993C815.959 37.185 815.175 36.049 813.831 36.049C812.583 36.049 811.607 37.009 811.607 38.993Z" fill="#1D1D1D" style="fill:#1D1D1D;fill:color(display-p3 0.1137 0.1137 0.1137);fill-opacity:1;"/>
<path d="M821.486 39.089V41.793H822.59C823.742 41.793 824.286 41.457 824.286 40.369C824.286 39.393 823.726 39.089 822.574 39.089H821.486Z" fill="#1D1D1D" style="fill:#1D1D1D;fill:color(display-p3 0.1137 0.1137 0.1137);fill-opacity:1;"/>
<path fill-rule="evenodd" clip-rule="evenodd" d="M218.524 33.3828L223.524 38.3828L228.524 33.3828L229.938 34.797L223.524 41.2112L217.11 34.797L218.524 33.3828Z" fill="white" style="fill:white;fill-opacity:1;"/>
<path fill-rule="evenodd" clip-rule="evenodd" d="M864.524 39.1305C865.536 39.1305 866.357 38.3097 866.357 37.2972C866.357 36.2847 865.536 35.4639 864.524 35.4639C863.511 35.4639 862.69 36.2846 862.69 37.2972C862.69 38.3098 863.511 39.1305 864.524 39.1305ZM870.357 39.1305C871.369 39.1305 872.19 38.3097 872.19 37.2972C872.19 36.2847 871.369 35.4639 870.357 35.4639C869.344 35.4639 868.524 36.2847 868.524 37.2972C868.524 38.3097 869.344 39.1305 870.357 39.1305ZM858.69 39.1305C859.703 39.1305 860.524 38.3098 860.524 37.2972C860.524 36.2846 859.703 35.4639 858.69 35.4639C857.678 35.4639 856.857 36.2847 856.857 37.2972C856.857 38.3097 857.678 39.1305 858.69 39.1305Z" fill="white" style="fill:white;fill-opacity:1;"/>
<path d="M942 36.2971C942 32.4311 945.134 29.2971 949 29.2971C952.866 29.2971 956 32.4311 956 36.2971C956 38.1831 955.254 39.8948 954.041 41.1535C954.007 41.1798 953.974 41.2087 953.943 41.24C953.912 41.2714 953.883 41.3043 953.856 41.3385C952.598 42.5513 950.886 43.2971 949 43.2971C945.134 43.2971 942 40.1631 942 36.2971Z" fill="#1D1D1D" style="fill:#1D1D1D;fill:color(display-p3 0.1137 0.1137 0.1137);fill-opacity:1;"/>
<path d="M1019.67 33.329H1017.88V37.249H1019.77C1021.3 37.249 1022.49 37.025 1022.49 35.361C1022.49 33.489 1021.09 33.329 1019.67 33.329Z" fill="#1D1D1D" style="fill:#1D1D1D;fill:color(display-p3 0.1137 0.1137 0.1137);fill-opacity:1;"/>
<path d="M993.972 26.0471C989.097 26.0471 984.935 29.1971 983.397 33.5471H1004.62C1003.05 29.1971 998.885 26.0471 993.972 26.0471Z" fill="white" style="fill:white;fill-opacity:1;"/>
<path d="M1004.62 33.5471H983.397C982.985 34.7096 982.76 35.9846 982.76 37.2971C982.76 38.6096 982.985 39.8846 983.397 41.0471H1004.58H1004.62C1005.03 39.8846 1005.26 38.6096 1005.26 37.2971C1005.26 35.9846 1005.03 34.7096 1004.62 33.5471Z" fill="#428BC1" style="fill:#428BC1;fill:color(display-p3 0.2588 0.5451 0.7569);fill-opacity:1;"/>
<path d="M993.972 48.5471C998.885 48.5471 1003.05 45.3971 1004.58 41.0471H983.397C984.935 45.4346 989.097 48.5471 993.972 48.5471Z" fill="#ED4C5C" style="fill:#ED4C5C;fill:color(display-p3 0.9294 0.2980 0.3608);fill-opacity:1;"/>
<path d="M1077.75 28.2971C1076.42 28.2971 1075.15 28.8239 1074.21 29.7616C1073.28 30.6993 1072.75 31.971 1072.75 33.2971C1072.75 36.5648 1071.92 38.8652 1070.95 40.4308C1070.73 40.7729 1070.56 41.0585 1070.41 41.2959C1070.62 41.2971 1070.86 41.2971 1071.14 41.2971H1084.36L1084.76 41.2969C1084.87 41.2968 1084.98 41.2965 1085.09 41.2959C1084.94 41.0585 1084.76 40.7729 1084.55 40.4308C1083.58 38.8652 1082.75 36.5648 1082.75 33.2971C1082.75 33.2646 1082.75 33.2322 1082.75 33.1998C1082.75 33.1551 1082.75 33.1104 1082.74 33.0658C1081.12 32.0385 1079.89 30.4413 1079.33 28.5547C1078.83 28.3856 1078.29 28.2971 1077.75 28.2971Z" fill="#1D1D1D" style="fill:#1D1D1D;fill:color(display-p3 0.1137 0.1137 0.1137);fill-opacity:1;"/>
<path fill-rule="evenodd" clip-rule="evenodd" d="M1087.01 34.2971C1091.43 34.2971 1095.01 30.7154 1095.01 26.2971C1095.01 21.8788 1091.43 18.2971 1087.01 18.2971C1082.59 18.2971 1079.01 21.8788 1079.01 26.2971C1079.01 26.3354 1079.01 26.3736 1079.01 26.4117C1080.4 26.666 1081.69 27.336 1082.7 28.3474C1084.01 29.6601 1084.75 31.4406 1084.75 33.2971C1084.75 33.53 1084.75 33.7567 1084.76 33.9772C1085.48 34.1854 1086.23 34.2971 1087.01 34.2971ZM1086.85 30.2971H1088.04V23.0471H1087.16C1086.79 23.8371 1086.28 23.9271 1085.23 23.9571V24.7771H1086.85V30.2971Z" fill="#FFCF08" style="fill:#FFCF08;fill:color(display-p3 1.0000 0.8118 0.0314);fill-opacity:1;"/>
<path d="M1079.33 28.5547C1079.89 30.4413 1081.12 32.0385 1082.74 33.0658C1082.69 31.8239 1082.17 30.6446 1081.28 29.7616C1080.73 29.2082 1080.06 28.798 1079.33 28.5547Z" fill="#FFCF08" style="fill:#FFCF08;fill:color(display-p3 1.0000 0.8118 0.0314);fill-opacity:1;"/>
<path d="M1084.75 33.2971C1084.75 31.4406 1084.01 29.6601 1082.7 28.3474C1081.69 27.336 1080.4 26.666 1079.01 26.4117C1079.02 27.155 1079.13 27.8737 1079.33 28.5547C1080.06 28.798 1080.73 29.2082 1081.28 29.7616C1082.17 30.6446 1082.69 31.8239 1082.74 33.0658C1083.36 33.4578 1084.04 33.7667 1084.76 33.9772C1084.75 33.7567 1084.75 33.53 1084.75 33.2971Z" fill="#FFCF08" style="fill:#FFCF08;fill:color(display-p3 1.0000 0.8118 0.0314);fill-opacity:1;"/>
<path d="M1118.51 32.7971C1118.51 30.8641 1120.08 29.2971 1122.01 29.2971C1123.94 29.2971 1125.51 30.8641 1125.51 32.7971C1125.51 34.7301 1123.94 36.2971 1122.01 36.2971C1120.08 36.2971 1118.51 34.7301 1118.51 32.7971Z" fill="#1D1D1D" style="fill:#1D1D1D;fill:color(display-p3 0.1137 0.1137 0.1137);fill-opacity:1;"/>
<path fill-rule="evenodd" clip-rule="evenodd" d="M30.129 50.4221C28.3434 50.4221 27.1133 49.4434 27.1133 46.4116V45.7594H29.0973V46.4119C29.0973 48.0238 29.5339 48.465 30.129 48.465C30.724 48.465 31.141 48.0238 31.141 47.2753C31.141 46.3349 31.0021 45.8171 29.6131 44.8384C27.9861 43.7063 27.2322 42.4973 27.2322 40.9431C27.2322 38.9667 28.3034 37.777 30.129 37.777C31.3987 37.777 33.0854 38.1609 33.0854 41.3843V42.1328H31.1013V41.3843C31.1013 40.118 30.6848 39.6958 30.129 39.6958C29.5339 39.6958 29.2162 40.118 29.2162 40.8661C29.2162 41.6336 29.3947 42.2667 30.7836 43.3031C32.5099 44.5887 33.125 45.6058 33.125 47.275C33.125 48.9442 32.3311 50.4221 30.129 50.4221ZM23.363 50.4221C21.5774 50.4221 20.3473 49.597 20.3473 46.4116V45.7594H22.3314V46.4119C22.3314 48.0238 22.7679 48.465 23.363 48.465C23.9581 48.465 24.375 48.0238 24.375 47.2753C24.375 46.3349 24.2361 45.8171 22.8472 44.8384C21.2201 43.7063 20.4662 42.4973 20.4662 40.9431C20.4662 38.9667 21.5375 37.777 23.363 37.777C24.6327 37.777 26.3194 38.1609 26.3194 41.3843V42.1328H24.3354V41.3843C24.3354 40.118 23.9188 39.6958 23.363 39.6958C22.7679 39.6958 22.4502 40.118 22.4502 40.8661C22.4502 41.6336 22.6287 42.2667 24.0177 43.3031C25.744 44.5887 26.359 45.6058 26.359 47.275C26.359 48.9442 25.5655 50.4221 23.363 50.4221ZM30.129 36.8172C28.3434 36.8172 27.1133 35.8385 27.1133 32.8067V32.1546H29.0973V32.807C29.0973 34.4189 29.5339 34.8601 30.129 34.8601C30.724 34.8601 31.141 34.4189 31.141 33.6705C31.141 32.73 31.0021 32.2122 29.6131 31.2335C27.9861 30.1015 27.2322 28.8925 27.2322 27.3382C27.2322 25.3618 28.3034 24.1721 30.129 24.1721C31.3987 24.1721 33.0854 24.556 33.0854 27.7794V28.5279H31.1013V27.7794C31.1013 26.5131 30.6848 26.0909 30.129 26.0909C29.5339 26.0909 29.2162 26.5131 29.2162 27.2612C29.2162 28.0287 29.3947 28.6618 30.7836 29.6982C32.5099 30.9839 33.125 32.0009 33.125 33.6701C33.125 35.3393 32.3311 36.8172 30.129 36.8172ZM23.363 36.8172C21.5774 36.8172 20.3473 35.9921 20.3473 32.8067V32.1546H22.3314V32.807C22.3314 34.4189 22.7679 34.8601 23.363 34.8601C23.9581 34.8601 24.375 34.4189 24.375 33.6705C24.375 32.73 24.2361 32.2122 22.8472 31.2335C21.2201 30.1015 20.4662 28.8925 20.4662 27.3382C20.4662 25.3618 21.5375 24.1721 23.363 24.1721C24.6327 24.1721 26.3194 24.556 26.3194 27.7794V28.5279H24.3354V27.7794C24.3354 26.5131 23.9188 26.0909 23.363 26.0909C22.7679 26.0909 22.4502 26.5131 22.4502 27.2612C22.4502 28.0287 22.6287 28.6618 24.0177 29.6982C25.744 30.9839 26.359 32.0009 26.359 33.6701C26.359 35.3393 25.5655 36.8172 23.363 36.8172ZM8.85941 50.2302H6.87537V37.9686H9.25635C11.8358 37.9686 12.5501 39.3885 12.5501 42.0751V43.5717C12.5501 46.2579 11.8358 47.6782 9.25635 47.6782H8.85941V50.2302ZM12.9267 36.6256L11.3989 31.5214C12.1332 30.9266 12.5497 29.9478 12.5497 28.7392V27.7798C12.5497 25.5348 11.5181 24.3641 9.25598 24.3641H6.875V36.6256H8.85902V32.1546H9.11713C9.21636 32.1546 9.35522 32.1546 9.57332 32.1352L10.7638 36.6253L12.9267 36.6256ZM18.1252 50.2302H20.1092L17.9067 37.9686H14.653L12.4309 50.2302H14.4149L14.8711 47.6782H17.6886L18.1252 50.2302ZM16.4781 36.8172C14.0376 36.8172 13.5814 35.0327 13.5814 32.8643V24.3641H15.645V33.0373C15.645 34.5532 15.9227 34.8984 16.4781 34.8984C17.0336 34.8984 17.3113 34.5532 17.3113 33.0373V24.3641H19.3749V32.8647C19.3749 35.0327 18.9187 36.8172 16.4781 36.8172ZM9.25598 30.2358H8.85902V26.2829H9.25598C10.1488 26.2829 10.5653 26.5708 10.5653 27.9137V28.6045C10.5657 29.9478 10.1491 30.2358 9.25598 30.2358ZM16.2004 39.8877L15.1884 45.7594H17.3709L16.3593 39.8877H16.2004ZM8.85941 45.7594H9.25635C10.1295 45.7594 10.5657 45.3372 10.5657 43.3801V42.2671C10.5657 40.31 10.1291 39.8877 9.25635 39.8877H8.85941V45.7594ZM176.667 37.489C176.667 41.057 174.539 43.505 171.131 43.505C167.723 43.505 165.595 41.057 165.595 37.489C165.595 33.905 167.723 31.489 171.131 31.489C174.539 31.489 176.667 33.905 176.667 37.489ZM189.878 43.297H187.974V39.633H184.134V43.297H182.23V34.689H184.134V38.129H187.974V34.689H189.878V43.297ZM194.775 43.505C192.903 43.505 191.591 42.497 191.591 40.929C191.591 38.769 194.247 38.257 197.383 37.921V37.761C197.383 36.289 196.551 35.841 195.591 35.841C194.631 35.841 193.911 36.353 193.863 37.393H191.991C192.119 35.649 193.575 34.433 195.655 34.433C197.719 34.433 199.335 35.377 199.287 38.129C199.287 38.304 199.282 38.5867 199.275 38.9138V38.9155C199.266 39.3655 199.255 39.8994 199.255 40.353C199.255 41.441 199.335 42.577 199.511 43.297H197.767C197.758 43.2411 197.748 43.1889 197.739 43.1385L197.739 43.1347C197.689 42.8549 197.648 42.6289 197.607 42.129C197.047 43.073 196.055 43.505 194.775 43.505ZM204.845 34.497C206.733 34.497 208.365 35.729 208.701 37.633H206.845C206.669 36.721 205.885 36.081 204.845 36.081C203.645 36.081 202.589 36.961 202.589 38.993C202.589 41.041 203.677 41.921 204.797 41.921C205.741 41.921 206.653 41.505 206.909 40.353H208.765C208.381 42.369 206.605 43.505 204.765 43.505C202.269 43.505 200.621 41.569 200.621 39.009C200.621 36.449 202.269 34.497 204.845 34.497ZM268.227 43.297H266.195V33.393H260.947V43.297H258.915V31.697H268.227V43.297ZM270.658 34.689H272.562V35.841C273.074 34.993 273.97 34.497 275.122 34.497C277.234 34.497 278.818 36.241 278.818 38.993C278.818 41.761 277.234 43.505 275.122 43.505C273.97 43.505 273.074 43.009 272.562 42.161V46.097H270.658V34.689ZM284.135 34.497C286.231 34.497 288.375 35.905 288.375 39.009C288.375 42.129 286.231 43.505 284.135 43.505C282.039 43.505 279.895 42.129 279.895 39.009C279.895 35.905 282.039 34.497 284.135 34.497ZM297.809 39.537H291.393C291.521 41.137 292.641 41.921 293.729 41.921C294.737 41.921 295.505 41.537 295.841 40.721H297.713C297.329 42.097 296.017 43.505 293.809 43.505C291.041 43.505 289.457 41.409 289.457 38.929C289.457 36.337 291.233 34.497 293.681 34.497C296.321 34.497 297.985 36.657 297.809 39.537ZM305.121 43.297L302.289 39.537H301.393V43.297H299.473V34.689H301.393V38.033H302.433L304.913 34.689H307.089L303.841 38.865L307.313 43.297H305.121ZM315.524 36.193H312.596V43.297H310.692V36.193H307.748V34.689H315.524V36.193ZM320.19 43.297H316.91V34.689H318.814V37.585H320.142C322.51 37.585 323.518 38.481 323.518 40.385C323.518 42.561 322.302 43.297 320.19 43.297ZM326.654 43.297H324.75V34.689H326.654V43.297ZM338.645 34.689H340.549V43.297H338.645V37.329L334.549 43.297H332.645V34.689H334.549V40.689L338.645 34.689ZM353.707 34.689H356.587V43.297H354.747V36.481L352.219 43.297H350.747L348.219 36.513V43.297H346.379V34.689H349.259L351.515 40.833L353.707 34.689ZM366.747 39.537H360.331C360.459 41.137 361.579 41.921 362.667 41.921C363.675 41.921 364.443 41.537 364.779 40.721H366.651C366.267 42.097 364.955 43.505 362.747 43.505C359.979 43.505 358.395 41.409 358.395 38.929C358.395 36.337 360.171 34.497 362.619 34.497C365.259 34.497 366.923 36.657 366.747 39.537ZM368.33 34.689H370.234V35.841C370.746 34.993 371.642 34.497 372.794 34.497C374.906 34.497 376.49 36.241 376.49 38.993C376.49 41.761 374.906 43.505 372.794 43.505C371.642 43.505 370.746 43.009 370.234 42.161V46.097H368.33V34.689ZM381.807 34.497C383.903 34.497 386.047 35.905 386.047 39.009C386.047 42.129 383.903 43.505 381.807 43.505C379.711 43.505 377.567 42.129 377.567 39.009C377.567 35.905 379.711 34.497 381.807 34.497ZM387.691 34.689H395.179V43.297H393.275V36.193H389.595V43.297H387.691V34.689ZM397.408 34.689H399.312V35.841C399.824 34.993 400.72 34.497 401.872 34.497C403.984 34.497 405.568 36.241 405.568 38.993C405.568 41.761 403.984 43.505 401.872 43.505C400.72 43.505 399.824 43.009 399.312 42.161V46.097H397.408V34.689ZM413.207 34.689H415.111V43.297H413.207V37.329L409.111 43.297H407.207V34.689H409.111V40.689L413.207 34.689ZM420.326 34.689H423.99V43.297H422.086V40.321H420.374L418.614 43.297H416.454L418.614 39.825C417.702 39.457 417.03 38.657 417.03 37.425C417.03 35.681 418.166 34.689 420.326 34.689ZM433.165 36.193H430.237V43.297H428.333V36.193H425.389V34.689H433.165V36.193ZM440.551 34.689H442.455V43.297H440.551V37.329L436.455 43.297H434.551V34.689H436.455V40.689L440.551 34.689ZM447.67 34.689H451.334V43.297H449.43V40.321H447.718L445.958 43.297H443.798L445.958 39.825C445.046 39.457 444.374 38.657 444.374 37.425C444.374 35.681 445.51 34.689 447.67 34.689ZM476.635 43.297L480.955 31.697H483.099L487.451 43.297H485.227L484.315 40.721H479.611L478.715 43.297H476.635ZM496.293 43.297H494.389V39.633H490.549V43.297H488.645V34.689H490.549V38.129H494.389V34.689H496.293V43.297ZM501.19 43.505C499.318 43.505 498.006 42.497 498.006 40.929C498.006 38.769 500.662 38.257 503.798 37.921V37.761C503.798 36.289 502.966 35.841 502.006 35.841C501.046 35.841 500.326 36.353 500.278 37.393H498.406C498.534 35.649 499.99 34.433 502.07 34.433C504.134 34.433 505.75 35.377 505.702 38.129C505.702 38.3043 505.696 38.5876 505.69 38.9155V38.9192L505.689 38.9251V38.9273V38.9309L505.689 38.9365V38.9381V38.9406V38.9445C505.68 39.3883 505.67 39.9091 505.67 40.353C505.67 41.441 505.75 42.577 505.926 43.297H504.182C504.172 43.2397 504.162 43.1863 504.153 43.1348C504.103 42.855 504.062 42.6289 504.022 42.129C503.462 43.073 502.47 43.505 501.19 43.505ZM514.971 43.297H513.067V36.193H510.539L510.411 38.049C510.171 41.649 509.211 43.297 507.227 43.297H506.875V41.793H507.067C507.771 41.793 508.427 41.041 508.603 37.777L508.763 34.689H514.971V43.297ZM523.27 34.689H525.174V43.297H523.27V37.329L519.174 43.297H517.27V34.689H519.174V40.689L523.27 34.689ZM534.181 36.193H531.253V43.297H529.349V36.193H526.405V34.689H534.181V36.193ZM541.567 34.689H543.471V43.297H541.567V37.329L537.471 43.297H535.567V34.689H537.471V40.689L541.567 34.689ZM551.261 43.297L548.429 39.537H547.533V43.297H545.613V34.689H547.533V38.033H548.573L551.053 34.689H553.229L549.981 38.865L553.453 43.297H551.261ZM557.08 43.505C555.208 43.505 553.896 42.497 553.896 40.929C553.896 38.769 556.552 38.257 559.688 37.921V37.761C559.688 36.289 558.856 35.841 557.896 35.841C556.936 35.841 556.216 36.353 556.168 37.393H554.296C554.424 35.649 555.88 34.433 557.96 34.433C560.024 34.433 561.64 35.377 561.592 38.129C561.592 38.3043 561.587 38.5876 561.58 38.9155C561.571 39.3655 561.56 39.8994 561.56 40.353C561.56 41.441 561.64 42.577 561.816 43.297H560.072L560.064 43.2502L560.044 43.1353C559.993 42.8553 559.953 42.6292 559.912 42.129C559.352 43.073 558.36 43.505 557.08 43.505ZM573.285 34.689H575.189V43.297H573.285V37.329L569.189 43.297H567.285V34.689H569.189V40.689L573.285 34.689ZM587.884 36.193H584.956V43.297H583.052V36.193H580.108V34.689H587.884V36.193ZM589.19 34.689H591.094V35.841C591.606 34.993 592.502 34.497 593.654 34.497C595.766 34.497 597.35 36.241 597.35 38.993C597.35 41.761 595.766 43.505 593.654 43.505C592.502 43.505 591.606 43.009 591.094 42.161V46.097H589.19V34.689ZM606.778 39.537H600.362C600.49 41.137 601.61 41.921 602.698 41.921C603.706 41.921 604.474 41.537 604.81 40.721H606.682C606.298 42.097 604.986 43.505 602.778 43.505C600.01 43.505 598.426 41.409 598.426 38.929C598.426 36.337 600.202 34.497 602.65 34.497C605.29 34.497 606.954 36.657 606.778 39.537ZM616.09 43.297H614.186V39.633H610.346V43.297H608.442V34.689H610.346V38.129H614.186V34.689H616.09V43.297ZM627.147 41.809V45.329H625.419V43.297H619.131V45.329H617.403V41.809H617.867C618.827 41.809 619.323 40.561 619.467 37.425L619.595 34.689H625.867V41.809H627.147ZM631.862 43.297H628.582V34.689H630.486V37.585H631.814C634.182 37.585 635.19 38.481 635.19 40.385C635.19 42.561 633.974 43.297 631.862 43.297ZM638.326 43.297H636.422V34.689H638.326V43.297ZM671.036 43.297V38.145H669.916L666.428 43.297H664.092L668.172 37.185L664.284 31.697H666.572L669.82 36.449H671.036V31.697H673.052V36.449H674.236L677.484 31.697H679.756L675.916 37.201L679.996 43.297H677.676L674.204 38.145H673.052V43.297H671.036ZM681.438 46.097H680.574V44.641H681.294C682.126 44.641 682.478 44.577 682.862 43.457L682.958 43.249L679.838 34.689H681.918L683.87 40.865L685.822 34.689H687.774L684.75 43.281C683.934 45.505 683.374 46.097 681.438 46.097ZM688.924 34.689H690.828V35.841C691.34 34.993 692.236 34.497 693.388 34.497C695.5 34.497 697.084 36.241 697.084 38.993C697.084 41.761 695.5 43.505 693.388 43.505C692.236 43.505 691.34 43.009 690.828 42.161V46.097H688.924V34.689ZM706.371 43.297H704.467V39.633H700.627V43.297H698.723V34.689H700.627V38.129H704.467V34.689H706.371V43.297ZM711.268 43.505C709.396 43.505 708.084 42.497 708.084 40.929C708.084 38.769 710.74 38.257 713.876 37.921V37.761C713.876 36.289 713.044 35.841 712.084 35.841C711.124 35.841 710.404 36.353 710.356 37.393H708.484C708.612 35.649 710.068 34.433 712.148 34.433C714.212 34.433 715.828 35.377 715.78 38.129C715.78 38.3043 715.774 38.5876 715.767 38.9155C715.758 39.3655 715.748 39.8994 715.748 40.353C715.748 41.441 715.828 42.577 716.004 43.297H714.26C714.25 43.24 714.24 43.1867 714.231 43.1353C714.181 42.8553 714.14 42.6292 714.1 42.129C713.54 43.073 712.548 43.505 711.268 43.505ZM725.049 43.297H723.145V36.193H720.617L720.489 38.049C720.249 41.649 719.289 43.297 717.305 43.297H716.953V41.793H717.145C717.849 41.793 718.505 41.041 718.681 37.777L718.841 34.689H725.049V43.297ZM761.243 43.297H759.211V33.393H753.963V43.297H751.931V31.697H761.243V43.297ZM766.346 43.505C764.474 43.505 763.162 42.497 763.162 40.929C763.162 38.769 765.818 38.257 768.954 37.921V37.761C768.954 36.289 768.122 35.841 767.162 35.841C766.202 35.841 765.482 36.353 765.434 37.393H763.562C763.69 35.649 765.146 34.433 767.226 34.433C769.29 34.433 770.906 35.377 770.858 38.129C770.858 38.1654 770.858 38.2065 770.857 38.2516L770.856 38.3417C770.855 38.444 770.853 38.5619 770.85 38.6904L770.846 38.9155C770.837 39.3655 770.826 39.8994 770.826 40.353C770.826 41.441 770.906 42.577 771.082 43.297H769.338C769.328 43.24 769.318 43.1867 769.309 43.1353C769.259 42.8553 769.218 42.6292 769.178 42.129C768.618 43.073 767.626 43.505 766.346 43.505ZM772.783 34.689H774.687V35.841C775.199 34.993 776.095 34.497 777.247 34.497C779.359 34.497 780.943 36.241 780.943 38.993C780.943 41.761 779.359 43.505 777.247 43.505C776.095 43.505 775.199 43.009 774.687 42.161V46.097H772.783V34.689ZM789.165 36.193H786.237V43.297H784.333V36.193H781.389V34.689H789.165V36.193ZM798.199 43.297H796.295V39.633H792.455V43.297H790.551V34.689H792.455V38.129H796.295V34.689H798.199V43.297ZM808.2 39.537H801.784C801.912 41.137 803.032 41.921 804.12 41.921C805.128 41.921 805.896 41.537 806.232 40.721H808.104C807.72 42.097 806.408 43.505 804.2 43.505C801.432 43.505 799.848 41.409 799.848 38.929C799.848 36.337 801.624 34.497 804.072 34.497C806.712 34.497 808.376 36.657 808.2 39.537ZM809.783 34.689H811.687V35.841C812.199 34.993 813.095 34.497 814.247 34.497C816.359 34.497 817.943 36.241 817.943 38.993C817.943 41.761 816.359 43.505 814.247 43.505C813.095 43.505 812.199 43.009 811.687 42.161V46.097H809.783V34.689ZM822.862 43.297H819.582V34.689H821.486V37.585H822.814C825.182 37.585 826.19 38.481 826.19 40.385C826.19 42.561 824.974 43.297 822.862 43.297ZM829.326 43.297H827.422V34.689H829.326V43.297ZM865.357 37.2972C865.357 37.7574 864.984 38.1305 864.524 38.1305C864.063 38.1305 863.69 37.7574 863.69 37.2972C863.69 36.837 864.063 36.4639 864.524 36.4639C864.984 36.4639 865.357 36.837 865.357 37.2972ZM871.19 37.2972C871.19 37.7574 870.817 38.1305 870.357 38.1305C869.897 38.1305 869.524 37.7574 869.524 37.2972C869.524 36.837 869.897 36.4639 870.357 36.4639C870.817 36.4639 871.19 36.837 871.19 37.2972ZM859.524 37.2972C859.524 37.7574 859.15 38.1305 858.69 38.1305C858.23 38.1305 857.857 37.7574 857.857 37.2972C857.857 36.837 858.23 36.4639 858.69 36.4639C859.15 36.4639 859.524 36.837 859.524 37.2972ZM1015.85 31.697H1019.67C1022.21 31.697 1024.6 32.097 1024.6 35.345C1024.6 38.273 1022.44 38.913 1019.7 38.913H1017.88V43.297H1015.85V31.697ZM1029.81 38.641L1032.53 31.697H1034.74L1030.63 41.217C1030 42.625 1029.09 43.505 1027.38 43.505H1026.08V41.825H1027.23C1027.86 41.825 1028.23 41.665 1028.56 41.153L1028.85 40.689L1024.69 31.697H1026.87L1029.81 38.641ZM1043.08 39.441H1045.03C1044.53 42.049 1042.71 43.505 1040.02 43.505C1036.63 43.505 1034.66 41.105 1034.66 37.457C1034.66 33.809 1036.74 31.489 1040.12 31.489C1042.69 31.489 1044.53 32.945 1045 35.553H1043.04C1042.68 33.969 1041.57 33.153 1040.05 33.153C1038.21 33.153 1036.76 34.657 1036.76 37.457C1036.76 40.273 1038.18 41.841 1040.04 41.841C1041.62 41.841 1042.71 41.041 1043.08 39.441ZM1086.25 39.3742C1085.54 38.2396 1084.87 36.5142 1084.76 33.9772C1084.04 33.7667 1083.36 33.4578 1082.74 33.0658C1082.75 33.1104 1082.75 33.1551 1082.75 33.1998C1082.75 33.2322 1082.75 33.2646 1082.75 33.2971C1082.75 36.5648 1083.58 38.8652 1084.55 40.4308C1084.76 40.7729 1084.94 41.0585 1085.09 41.2959C1084.98 41.2965 1084.87 41.2968 1084.76 41.2969L1084.36 41.2971H1071.14C1070.86 41.2971 1070.62 41.2971 1070.41 41.2959C1070.56 41.0585 1070.73 40.7729 1070.95 40.4308C1071.92 38.8652 1072.75 36.5648 1072.75 33.2971C1072.75 31.971 1073.28 30.6993 1074.21 29.7616C1075.15 28.8239 1076.42 28.2971 1077.75 28.2971C1078.29 28.2971 1078.83 28.3856 1079.33 28.5547C1079.13 27.8737 1079.02 27.155 1079.01 26.4117C1078.6 26.336 1078.17 26.2971 1077.75 26.2971C1075.89 26.2971 1074.11 27.0346 1072.8 28.3474C1071.49 29.6601 1070.75 31.4406 1070.75 33.2971C1070.75 36.2098 1070.02 38.141 1069.25 39.3742L1069.24 39.3932C1068.88 39.9675 1068.6 40.4214 1068.41 40.7518C1068.31 40.9173 1068.23 41.0768 1068.16 41.2186C1068.13 41.2893 1068.09 41.3761 1068.06 41.4704C1068.04 41.5486 1068 41.7159 1068.01 41.9194C1068.02 42.0562 1068.05 42.2899 1068.19 42.5314C1068.32 42.7729 1068.5 42.9201 1068.61 43.0019C1068.87 43.1875 1069.15 43.23 1069.25 43.2441L1069.25 43.2448C1069.4 43.2666 1069.57 43.2775 1069.74 43.2841C1070.07 43.2971 1070.54 43.2971 1071.11 43.2971H1071.11H1084.38H1084.39C1084.96 43.2971 1085.43 43.2971 1085.76 43.2841C1085.93 43.2775 1086.1 43.2666 1086.24 43.2448L1086.25 43.2441C1086.35 43.23 1086.63 43.1875 1086.88 43.0019C1086.99 42.9201 1087.18 42.7729 1087.31 42.5314C1087.45 42.2899 1087.47 42.0562 1087.48 41.9194C1087.5 41.7159 1087.46 41.5486 1087.43 41.4704L1087.42 41.4414L1087.42 41.4287L1087.41 41.4098L1087.4 41.3831L1087.4 41.3663C1087.39 41.3569 1087.39 41.3476 1087.39 41.3385L1087.38 41.3143L1087.37 41.305L1087.36 41.2777L1087.36 41.27C1087.35 41.2521 1087.34 41.2349 1087.34 41.2186C1087.27 41.0768 1087.19 40.9173 1087.09 40.7518C1086.9 40.4242 1086.62 39.9753 1086.27 39.4081L1086.26 39.3931L1086.25 39.3742ZM1075.75 45.2971C1075.2 45.2971 1074.75 45.7448 1074.75 46.2971C1074.75 46.8494 1075.2 47.2971 1075.75 47.2971H1079.75C1080.3 47.2971 1080.75 46.8494 1080.75 46.2971C1080.75 45.7448 1080.3 45.2971 1079.75 45.2971H1075.75ZM1122.01 27.2971C1118.97 27.2971 1116.51 29.7596 1116.51 32.7971C1116.51 35.8347 1118.97 38.2971 1122.01 38.2971C1125.05 38.2971 1127.51 35.8347 1127.51 32.7971C1127.51 29.7596 1125.05 27.2971 1122.01 27.2971ZM1113.74 45.9831C1115.9 43.6861 1118.82 42.2971 1122.01 42.2971C1125.2 42.2971 1128.12 43.6861 1130.28 45.9831C1130.66 46.385 1131.29 46.4036 1131.7 46.0247C1132.1 45.6459 1132.12 45.013 1131.74 44.6111C1129.23 41.9533 1125.8 40.2971 1122.01 40.2971C1118.21 40.2971 1114.79 41.9533 1112.28 44.6111C1111.9 45.013 1111.92 45.6459 1112.32 46.0247C1112.73 46.4036 1113.36 46.385 1113.74 45.9831ZM1153.32 43.1972H1151.29V33.2932H1146.04V43.1972H1144.01V31.5972H1153.32V43.1972ZM1155.75 34.5892H1157.66V35.7412C1158.17 34.8932 1159.07 34.3972 1160.22 34.3972C1162.33 34.3972 1163.91 36.1412 1163.91 38.8932C1163.91 41.6612 1162.33 43.4052 1160.22 43.4052C1159.07 43.4052 1158.17 42.9092 1157.66 42.0612V45.9972H1155.75V34.5892ZM1169.23 34.3972C1171.33 34.3972 1173.47 35.8052 1173.47 38.9092C1173.47 42.0292 1171.33 43.4052 1169.23 43.4052C1167.13 43.4052 1164.99 42.0292 1164.99 38.9092C1164.99 35.8052 1167.13 34.3972 1169.23 34.3972ZM1180.94 31.5972V34.5892C1183.38 34.5892 1185.43 35.9652 1185.43 38.9412C1185.43 42.0132 1183.37 43.2932 1180.94 43.2932V45.9972H1179.03V43.2932C1176.58 43.2932 1174.54 42.0132 1174.54 38.9412C1174.54 35.9652 1176.58 34.5892 1179.03 34.5892V31.5972H1180.94ZM1193.07 34.5892H1194.97V43.1972H1193.07V37.2292L1188.97 43.1972H1187.07V34.5892H1188.97V40.5892L1193.07 34.5892ZM1204.38 43.1972H1202.47V36.0932H1199.95L1199.82 37.9492C1199.58 41.5492 1198.62 43.1972 1196.63 43.1972H1196.28V41.6932H1196.47C1197.18 41.6932 1197.83 40.9412 1198.01 37.6772L1198.17 34.5892H1204.38V43.1972ZM1208.58 37.4852H1210.36C1212.72 37.4852 1213.72 38.3812 1213.72 40.2852C1213.72 42.4612 1212.53 43.1972 1210.39 43.1972H1206.68V34.5892H1208.58V37.4852ZM956.032 41.9148C957.263 40.3751 958 38.4221 958 36.2971C958 31.3266 953.971 27.2971 949 27.2971C944.029 27.2971 940 31.3266 940 36.2971C940 41.2677 944.029 45.2971 949 45.2971C951.125 45.2971 953.078 44.5606 954.618 43.329L958.595 47.3069L960.01 45.8927L956.032 41.9148ZM48 29.4798H54.8807V31.7148H50.4571V35.714H51.8863C53.122 35.714 54.0497 36.0417 54.6676 36.6972C55.2854 37.3526 55.5952 38.3126 55.5952 39.5787V41.255C55.5952 42.5212 55.2854 43.4811 54.6676 44.1366C54.0497 44.7921 53.122 45.1198 51.8863 45.1198H48V29.4798ZM59.7752 45.118H57.25V29.4798H59.4403V39.3764L60.334 35.936L62.3452 29.4798H65.0477V45.118H62.8359V34.1039L61.8312 37.9472L59.7752 45.118ZM71.5254 33.3213C71.5254 32.6211 71.409 32.1482 71.1798 31.9029C70.9487 31.6575 70.6389 31.534 70.2521 31.534C69.8652 31.534 69.5518 31.6504 69.3136 31.8796C69.0754 32.1106 68.9554 32.5082 68.9554 33.0742V34.3475H66.6989V33.1852C66.6989 31.919 66.9998 30.9555 67.6033 30.2911C68.2069 29.6284 69.1113 29.2971 70.3183 29.2971C71.5254 29.2971 72.437 29.6356 73.0548 30.3144C73.6727 30.9931 73.9825 31.9638 73.9825 33.23V33.6329C73.9825 35.3002 73.4094 36.373 72.2615 36.8494C72.8865 37.118 73.3306 37.5317 73.5903 38.0887C73.85 38.6475 73.9807 39.328 73.9807 40.1321V41.3607C73.9807 42.6269 73.6709 43.5993 73.0531 44.2763C72.4352 44.9551 71.5218 45.2935 70.3165 45.2935C69.1095 45.2935 68.1979 44.9551 67.58 44.2763C66.9622 43.5993 66.6523 42.6269 66.6523 41.3607V39.6396H68.9751V41.5165C68.9751 42.0824 69.0898 42.4818 69.3208 42.711C69.5518 42.9421 69.8599 43.0567 70.2485 43.0567C70.6353 43.0567 70.9452 42.9367 71.1762 42.6985C71.4072 42.4603 71.5218 41.9911 71.5218 41.2908V40.0623C71.5218 39.3334 71.3947 38.8194 71.1422 38.5203C70.8878 38.223 70.4795 38.0726 69.9136 38.0726H69.3101V35.8375H70.0479C70.51 35.8375 70.8699 35.7193 71.1314 35.4793C71.3911 35.2412 71.5218 34.8095 71.5218 34.1827V33.3213H71.5254ZM78.0945 45.118H75.6373V29.4798H78.0945V36.1814H80.8865V29.4798H83.3884V45.118H80.8865V38.4164H78.0945V45.118ZM87.6329 36.0686H91.0069V38.3036H87.6329V42.883H91.8773V45.1162H85.1757V29.478H91.8773V31.7131H87.6329V36.0686ZM100.524 41.3643C100.524 42.6305 100.214 43.6029 99.5961 44.2799C98.9783 44.9586 98.0649 45.2971 96.8596 45.2971C95.6544 45.2971 94.741 44.9586 94.1231 44.2799C93.5052 43.6029 93.1954 42.6305 93.1954 41.3643V33.2318C93.1954 31.9656 93.5052 30.9949 94.1231 30.3162C94.741 29.6392 95.6544 29.2989 96.8596 29.2989C98.0649 29.2989 98.9783 29.6374 99.5961 30.3162C100.214 30.9949 100.524 31.9656 100.524 33.2318V34.7504H98.201V33.0742C98.201 32.5082 98.0846 32.1106 97.8554 31.8796C97.6243 31.6486 97.3145 31.534 96.9277 31.534C96.5408 31.534 96.231 31.6504 96 31.8796C95.769 32.1106 95.6543 32.5082 95.6543 33.0742V41.5183C95.6543 42.0842 95.769 42.4782 96 42.7021C96.231 42.926 96.539 43.037 96.9277 43.037C97.3145 43.037 97.6243 42.926 97.8554 42.7021C98.0864 42.4782 98.201 42.0842 98.201 41.5183V39.285H100.524V41.3643ZM51.8881 42.883C52.2749 42.883 52.5811 42.7791 52.8032 42.5696C53.0271 42.3618 53.1381 41.975 53.1381 41.4073V39.4193C53.1381 38.8534 53.0271 38.4666 52.8032 38.257C52.5794 38.0493 52.2749 37.9436 51.8881 37.9436H50.4589V42.8812H51.8881V42.883ZM171.131 41.841C169.211 41.841 167.691 40.321 167.691 37.489C167.691 34.673 169.211 33.153 171.131 33.153C173.051 33.153 174.571 34.673 174.571 37.489C174.571 40.321 173.051 41.841 171.131 41.841ZM197.431 39.905V39.249C194.711 39.505 193.607 39.905 193.607 40.881C193.607 41.633 194.231 42.081 195.191 42.081C196.599 42.081 197.431 41.377 197.431 39.905ZM274.706 41.953C273.458 41.953 272.482 40.977 272.482 38.993C272.482 37.009 273.458 36.049 274.706 36.049C276.05 36.049 276.834 37.185 276.834 38.993C276.834 40.833 276.05 41.953 274.706 41.953ZM281.863 39.009C281.863 40.993 282.919 41.953 284.135 41.953C285.351 41.953 286.407 40.993 286.407 39.009C286.407 37.025 285.351 36.049 284.135 36.049C282.919 36.049 281.863 37.025 281.863 39.009ZM291.393 38.145C291.569 36.529 292.785 35.985 293.681 35.985C294.801 35.985 295.825 36.801 295.873 38.145H291.393ZM318.814 39.089V41.793H319.918C321.07 41.793 321.614 41.457 321.614 40.369C321.614 39.393 321.054 39.089 319.902 39.089H318.814ZM360.331 38.145C360.507 36.529 361.723 35.985 362.619 35.985C363.739 35.985 364.763 36.801 364.811 38.145H360.331ZM370.154 38.993C370.154 40.977 371.13 41.953 372.378 41.953C373.722 41.953 374.506 40.833 374.506 38.993C374.506 37.185 373.722 36.049 372.378 36.049C371.13 36.049 370.154 37.009 370.154 38.993ZM381.807 41.953C380.591 41.953 379.535 40.993 379.535 39.009C379.535 37.025 380.591 36.049 381.807 36.049C383.023 36.049 384.079 37.025 384.079 39.009C384.079 40.993 383.023 41.953 381.807 41.953ZM399.232 38.993C399.232 40.977 400.208 41.953 401.456 41.953C402.8 41.953 403.584 40.833 403.584 38.993C403.584 37.185 402.8 36.049 401.456 36.049C400.208 36.049 399.232 37.009 399.232 38.993ZM420.598 36.193H422.086V38.817H420.518C419.558 38.817 418.966 38.481 418.966 37.569C418.966 36.673 419.59 36.193 420.598 36.193ZM449.43 36.193H447.942C446.934 36.193 446.31 36.673 446.31 37.569C446.31 38.481 446.902 38.817 447.862 38.817H449.43V36.193ZM480.203 39.025L481.947 34.049L483.707 39.025H480.203ZM503.846 39.905V39.249C501.126 39.505 500.022 39.905 500.022 40.881C500.022 41.633 500.646 42.081 501.606 42.081C503.014 42.081 503.846 41.377 503.846 39.905ZM559.736 39.249V39.905C559.736 41.377 558.904 42.081 557.496 42.081C556.536 42.081 555.912 41.633 555.912 40.881C555.912 39.905 557.016 39.505 559.736 39.249ZM591.014 38.993C591.014 40.977 591.99 41.953 593.238 41.953C594.582 41.953 595.366 40.833 595.366 38.993C595.366 37.185 594.582 36.049 593.238 36.049C591.99 36.049 591.014 37.009 591.014 38.993ZM600.362 38.145C600.538 36.529 601.754 35.985 602.65 35.985C603.77 35.985 604.794 36.801 604.842 38.145H600.362ZM623.963 41.809V36.193H621.275L621.195 37.649C621.067 39.937 620.763 41.153 620.075 41.809H623.963ZM630.486 41.793V39.089H631.574C632.726 39.089 633.286 39.393 633.286 40.369C633.286 41.457 632.742 41.793 631.59 41.793H630.486ZM690.748 38.993C690.748 40.977 691.724 41.953 692.972 41.953C694.316 41.953 695.1 40.833 695.1 38.993C695.1 37.185 694.316 36.049 692.972 36.049C691.724 36.049 690.748 37.009 690.748 38.993ZM713.924 39.249V39.905C713.924 41.377 713.092 42.081 711.684 42.081C710.724 42.081 710.1 41.633 710.1 40.881C710.1 39.905 711.204 39.505 713.924 39.249ZM769.002 39.905V39.249C766.282 39.505 765.178 39.905 765.178 40.881C765.178 41.633 765.802 42.081 766.762 42.081C768.17 42.081 769.002 41.377 769.002 39.905ZM776.831 41.953C775.583 41.953 774.607 40.977 774.607 38.993C774.607 37.009 775.583 36.049 776.831 36.049C778.175 36.049 778.959 37.185 778.959 38.993C778.959 40.833 778.175 41.953 776.831 41.953ZM804.072 35.985C803.176 35.985 801.96 36.529 801.784 38.145H806.264C806.216 36.801 805.192 35.985 804.072 35.985ZM813.831 41.953C812.583 41.953 811.607 40.977 811.607 38.993C811.607 37.009 812.583 36.049 813.831 36.049C815.175 36.049 815.959 37.185 815.959 38.993C815.959 40.833 815.175 41.953 813.831 41.953ZM821.486 39.089V41.793H822.59C823.742 41.793 824.286 41.457 824.286 40.369C824.286 39.393 823.726 39.089 822.574 39.089H821.486ZM949 29.2971C945.134 29.2971 942 32.4311 942 36.2971C942 40.1631 945.134 43.2971 949 43.2971C950.886 43.2971 952.598 42.5513 953.856 41.3385C953.883 41.3043 953.912 41.2714 953.943 41.24C953.974 41.2087 954.007 41.1798 954.041 41.1535C955.254 39.8948 956 38.1831 956 36.2971C956 32.4311 952.866 29.2971 949 29.2971ZM1019.67 33.329H1017.88V37.249H1019.77C1021.3 37.249 1022.49 37.025 1022.49 35.361C1022.49 33.489 1021.09 33.329 1019.67 33.329ZM1088.04 30.2971H1086.85V24.7771H1085.23V23.9571C1086.28 23.9271 1086.79 23.8371 1087.16 23.0471H1088.04V30.2971ZM1118.51 32.7971C1118.51 30.8641 1120.08 29.2971 1122.01 29.2971C1123.94 29.2971 1125.51 30.8641 1125.51 32.7971C1125.51 34.7301 1123.94 36.2971 1122.01 36.2971C1120.08 36.2971 1118.51 34.7301 1118.51 32.7971ZM1159.8 41.8532C1158.55 41.8532 1157.58 40.8772 1157.58 38.8932C1157.58 36.9092 1158.55 35.9492 1159.8 35.9492C1161.15 35.9492 1161.93 37.0852 1161.93 38.8932C1161.93 40.7332 1161.15 41.8532 1159.8 41.8532ZM1166.96 38.9092C1166.96 40.8932 1168.01 41.8532 1169.23 41.8532C1170.45 41.8532 1171.5 40.8932 1171.5 38.9092C1171.5 36.9252 1170.45 35.9492 1169.23 35.9492C1168.01 35.9492 1166.96 36.9252 1166.96 38.9092ZM1179.03 36.1252V41.7732C1177.54 41.7732 1176.46 41.0052 1176.46 39.0052C1176.46 36.9732 1177.56 36.1252 1179.03 36.1252ZM1180.94 36.1252V41.7732C1182.42 41.7732 1183.5 41.0052 1183.5 39.0052C1183.5 36.9732 1182.42 36.1252 1180.94 36.1252ZM1210.13 41.6932H1208.58V38.9892H1210.12C1211.27 38.9892 1211.83 39.3092 1211.83 40.2692C1211.83 41.3092 1211.27 41.6932 1210.13 41.6932Z" fill="white" style="fill:white;fill-opacity:1;"/>
<path d="M1208.58 41.6932H1210.13C1211.27 41.6932 1211.83 41.3092 1211.83 40.2692C1211.83 39.3092 1211.27 38.9892 1210.12 38.9892H1208.58V41.6932Z" fill="#1D1D1D" style="fill:#1D1D1D;fill:color(display-p3 0.1137 0.1137 0.1137);fill-opacity:1;"/>
<path d="M1180.94 36.1252V41.7732C1182.42 41.7732 1183.5 41.0052 1183.5 39.0052C1183.5 36.9732 1182.42 36.1252 1180.94 36.1252Z" fill="#1D1D1D" style="fill:#1D1D1D;fill:color(display-p3 0.1137 0.1137 0.1137);fill-opacity:1;"/>
<path d="M1179.03 41.7732V36.1252C1177.56 36.1252 1176.46 36.9732 1176.46 39.0052C1176.46 41.0052 1177.54 41.7732 1179.03 41.7732Z" fill="#1D1D1D" style="fill:#1D1D1D;fill:color(display-p3 0.1137 0.1137 0.1137);fill-opacity:1;"/>
<path d="M1166.96 38.9092C1166.96 40.8932 1168.01 41.8532 1169.23 41.8532C1170.45 41.8532 1171.5 40.8932 1171.5 38.9092C1171.5 36.9252 1170.45 35.9492 1169.23 35.9492C1168.01 35.9492 1166.96 36.9252 1166.96 38.9092Z" fill="#1D1D1D" style="fill:#1D1D1D;fill:color(display-p3 0.1137 0.1137 0.1137);fill-opacity:1;"/>
<path d="M1157.58 38.8932C1157.58 40.8772 1158.55 41.8532 1159.8 41.8532C1161.15 41.8532 1161.93 40.7332 1161.93 38.8932C1161.93 37.0852 1161.15 35.9492 1159.8 35.9492C1158.55 35.9492 1157.58 36.9092 1157.58 38.8932Z" fill="#1D1D1D" style="fill:#1D1D1D;fill:color(display-p3 0.1137 0.1137 0.1137);fill-opacity:1;"/>
</svg>
