<svg width="1440" height="250" viewBox="0 0 1440 250" fill="none" xmlns="http://www.w3.org/2000/svg">
<rect width="1440" height="250" fill="#1D1D1D" style="fill:#1D1D1D;fill:color(display-p3 0.1137 0.1137 0.1137);fill-opacity:1;"/>
<rect opacity="0.01" width="1" height="24" fill="white" style="fill:white;fill-opacity:1;"/>
<g clip-path="url(#clip0_195_6322)">
<path d="M116.022 28.85V30.334H110.968V39H109.19V28.85H116.022ZM121.571 39H119.905V32.784H117.693L117.581 34.408C117.371 37.558 116.531 39 114.795 39H114.487V37.684H114.655C115.271 37.684 115.845 37.026 115.999 34.17L116.139 31.468H121.571V39ZM128.174 36.032V35.458C125.794 35.682 124.828 36.032 124.828 36.886C124.828 37.544 125.374 37.936 126.214 37.936C127.446 37.936 128.174 37.32 128.174 36.032ZM125.85 39.182C124.212 39.182 123.064 38.3 123.064 36.928C123.064 35.038 125.388 34.59 128.132 34.296V34.156C128.132 32.868 127.404 32.476 126.564 32.476C125.724 32.476 125.094 32.924 125.052 33.834H123.414C123.526 32.308 124.8 31.244 126.62 31.244C128.426 31.244 129.84 32.07 129.798 34.478C129.798 34.842 129.77 35.738 129.77 36.424C129.77 37.376 129.84 38.37 129.994 39H128.468C128.412 38.678 128.37 38.496 128.328 37.978C127.838 38.804 126.97 39.182 125.85 39.182ZM131.553 31.468H135.095C136.663 31.468 137.923 31.86 137.923 33.414C137.923 34.184 137.587 34.716 136.929 35.01C137.671 35.234 138.231 35.752 138.231 36.746C138.231 38.356 136.971 39 135.277 39H131.553V31.468ZM133.219 34.548H134.969C135.795 34.548 136.271 34.31 136.271 33.638C136.271 32.98 135.781 32.77 134.955 32.77H133.219V34.548ZM133.219 35.752V37.698H135.081C136.075 37.698 136.565 37.362 136.565 36.69C136.565 35.976 136.075 35.752 135.067 35.752H133.219ZM146.434 39H144.768V35.794H141.408V39H139.742V31.468H141.408V34.478H144.768V31.468H146.434V39ZM153.043 36.032V35.458C150.663 35.682 149.697 36.032 149.697 36.886C149.697 37.544 150.243 37.936 151.083 37.936C152.315 37.936 153.043 37.32 153.043 36.032ZM150.719 39.182C149.081 39.182 147.933 38.3 147.933 36.928C147.933 35.038 150.257 34.59 153.001 34.296V34.156C153.001 32.868 152.273 32.476 151.433 32.476C150.593 32.476 149.963 32.924 149.921 33.834H148.283C148.395 32.308 149.669 31.244 151.489 31.244C153.295 31.244 154.709 32.07 154.667 34.478C154.667 34.842 154.639 35.738 154.639 36.424C154.639 37.376 154.709 38.37 154.863 39H153.337C153.281 38.678 153.239 38.496 153.197 37.978C152.707 38.804 151.839 39.182 150.719 39.182ZM162.316 31.468V39H160.65V36.396H159.152L157.612 39H155.722L157.612 35.962C156.814 35.64 156.226 34.94 156.226 33.862C156.226 32.336 157.22 31.468 159.11 31.468H162.316ZM160.65 32.784H159.348C158.466 32.784 157.92 33.204 157.92 33.988C157.92 34.786 158.438 35.08 159.278 35.08H160.65V32.784Z" fill="#747474" style="fill:#747474;fill:color(display-p3 0.4542 0.4542 0.4542);fill-opacity:1;"/>
<circle cx="174" cy="34" r="2" fill="#747474" style="fill:#747474;fill:color(display-p3 0.4542 0.4542 0.4542);fill-opacity:1;"/>
<path d="M193.338 39H191.56V30.334H186.968V39H185.19V28.85H193.338V39ZM197.061 35.234C197.061 36.97 197.915 37.824 199.007 37.824C200.183 37.824 200.869 36.844 200.869 35.234C200.869 33.652 200.183 32.658 199.007 32.658C197.915 32.658 197.061 33.498 197.061 35.234ZM195.465 31.468H197.131V32.476C197.579 31.734 198.363 31.3 199.371 31.3C201.219 31.3 202.605 32.826 202.605 35.234C202.605 37.656 201.219 39.182 199.371 39.182C198.363 39.182 197.579 38.748 197.131 38.006V41.45H195.465V31.468ZM205.269 35.248C205.269 36.984 206.193 37.824 207.257 37.824C208.321 37.824 209.245 36.984 209.245 35.248C209.245 33.512 208.321 32.658 207.257 32.658C206.193 32.658 205.269 33.512 205.269 35.248ZM207.257 31.3C209.091 31.3 210.967 32.532 210.967 35.248C210.967 37.978 209.091 39.182 207.257 39.182C205.423 39.182 203.547 37.978 203.547 35.248C203.547 32.532 205.423 31.3 207.257 31.3ZM219.222 35.71H213.608C213.72 37.11 214.7 37.796 215.652 37.796C216.534 37.796 217.206 37.46 217.5 36.746H219.138C218.802 37.95 217.654 39.182 215.722 39.182C213.3 39.182 211.914 37.348 211.914 35.178C211.914 32.91 213.468 31.3 215.61 31.3C217.92 31.3 219.376 33.19 219.222 35.71ZM215.61 32.602C214.826 32.602 213.762 33.078 213.608 34.492H217.528C217.486 33.316 216.59 32.602 215.61 32.602ZM225.62 39L223.142 35.71H222.358V39H220.678V31.468H222.358V34.394H223.268L225.438 31.468H227.342L224.5 35.122L227.538 39H225.62ZM234.723 32.784H232.161V39H230.495V32.784H227.919V31.468H234.723V32.784ZM238.806 39H235.936V31.468H237.602V34.002H238.764C240.836 34.002 241.718 34.786 241.718 36.452C241.718 38.356 240.654 39 238.806 39ZM237.602 35.318V37.684H238.568C239.576 37.684 240.052 37.39 240.052 36.438C240.052 35.584 239.562 35.318 238.554 35.318H237.602ZM244.462 39H242.796V31.468H244.462V39ZM256.619 31.468V39H254.953V33.778L251.369 39H249.703V31.468H251.369V36.718L254.953 31.468H256.619ZM270.653 31.468V39H269.043V33.036L266.831 39H265.543L263.331 33.064V39H261.721V31.468H264.241L266.215 36.844L268.133 31.468H270.653ZM279.543 35.71H273.929C274.041 37.11 275.021 37.796 275.973 37.796C276.855 37.796 277.527 37.46 277.821 36.746H279.459C279.123 37.95 277.975 39.182 276.043 39.182C273.621 39.182 272.235 37.348 272.235 35.178C272.235 32.91 273.789 31.3 275.931 31.3C278.241 31.3 279.697 33.19 279.543 35.71ZM275.931 32.602C275.147 32.602 274.083 33.078 273.929 34.492H277.849C277.807 33.316 276.911 32.602 275.931 32.602ZM282.524 35.234C282.524 36.97 283.378 37.824 284.47 37.824C285.646 37.824 286.332 36.844 286.332 35.234C286.332 33.652 285.646 32.658 284.47 32.658C283.378 32.658 282.524 33.498 282.524 35.234ZM280.928 31.468H282.594V32.476C283.042 31.734 283.826 31.3 284.834 31.3C286.682 31.3 288.068 32.826 288.068 35.234C288.068 37.656 286.682 39.182 284.834 39.182C283.826 39.182 283.042 38.748 282.594 38.006V41.45H280.928V31.468ZM290.732 35.248C290.732 36.984 291.656 37.824 292.72 37.824C293.784 37.824 294.708 36.984 294.708 35.248C294.708 33.512 293.784 32.658 292.72 32.658C291.656 32.658 290.732 33.512 290.732 35.248ZM292.72 31.3C294.554 31.3 296.43 32.532 296.43 35.248C296.43 37.978 294.554 39.182 292.72 39.182C290.886 39.182 289.01 37.978 289.01 35.248C289.01 32.532 290.886 31.3 292.72 31.3ZM304.421 31.468V39H302.755V32.784H299.535V39H297.869V31.468H304.421ZM307.968 35.234C307.968 36.97 308.822 37.824 309.914 37.824C311.09 37.824 311.776 36.844 311.776 35.234C311.776 33.652 311.09 32.658 309.914 32.658C308.822 32.658 307.968 33.498 307.968 35.234ZM306.372 31.468H308.038V32.476C308.486 31.734 309.27 31.3 310.278 31.3C312.126 31.3 313.512 32.826 313.512 35.234C313.512 37.656 312.126 39.182 310.278 39.182C309.27 39.182 308.486 38.748 308.038 38.006V41.45H306.372V31.468ZM321.862 31.468V39H320.196V33.778L316.612 39H314.946V31.468H316.612V36.718L320.196 31.468H321.862ZM329.631 31.468V39H327.965V36.396H326.467L324.927 39H323.037L324.927 35.962C324.129 35.64 323.541 34.94 323.541 33.862C323.541 32.336 324.535 31.468 326.425 31.468H329.631ZM327.965 32.784H326.663C325.781 32.784 325.235 33.204 325.235 33.988C325.235 34.786 325.753 35.08 326.593 35.08H327.965V32.784ZM337.659 32.784H335.097V39H333.431V32.784H330.855V31.468H337.659V32.784ZM345.787 31.468V39H344.121V33.778L340.537 39H338.871V31.468H340.537V36.718L344.121 31.468H345.787ZM353.556 31.468V39H351.89V36.396H350.392L348.852 39H346.962L348.852 35.962C348.054 35.64 347.466 34.94 347.466 33.862C347.466 32.336 348.46 31.468 350.35 31.468H353.556ZM351.89 32.784H350.588C349.706 32.784 349.16 33.204 349.16 33.988C349.16 34.786 349.678 35.08 350.518 35.08H351.89V32.784Z" fill="#747474" style="fill:#747474;fill:color(display-p3 0.4542 0.4542 0.4542);fill-opacity:1;"/>
<circle cx="365" cy="34" r="2" fill="#747474" style="fill:#747474;fill:color(display-p3 0.4542 0.4542 0.4542);fill-opacity:1;"/>
<path d="M381.79 28.29V29.396C384.576 29.578 386.256 31.244 386.256 33.848C386.256 36.242 384.576 38.034 381.79 38.188V39.392H380.012V38.188C377.212 38.034 375.56 36.298 375.56 33.834C375.56 31.3 377.212 29.578 380.012 29.396V28.29H381.79ZM380.012 36.76V30.824C378.458 31.006 377.38 31.986 377.38 33.848C377.38 35.584 378.458 36.606 380.012 36.76ZM381.79 30.824V36.76C383.316 36.606 384.422 35.584 384.422 33.848C384.422 31.986 383.316 31.006 381.79 30.824ZM388.969 35.248C388.969 36.984 389.893 37.824 390.957 37.824C392.021 37.824 392.945 36.984 392.945 35.248C392.945 33.512 392.021 32.658 390.957 32.658C389.893 32.658 388.969 33.512 388.969 35.248ZM390.957 31.3C392.791 31.3 394.667 32.532 394.667 35.248C394.667 37.978 392.791 39.182 390.957 39.182C389.123 39.182 387.247 37.978 387.247 35.248C387.247 32.532 389.123 31.3 390.957 31.3ZM401.866 32.784H399.304V39H397.638V32.784H395.062V31.468H401.866V32.784ZM404.021 35.248C404.021 36.984 404.945 37.824 406.009 37.824C407.073 37.824 407.997 36.984 407.997 35.248C407.997 33.512 407.073 32.658 406.009 32.658C404.945 32.658 404.021 33.512 404.021 35.248ZM406.009 31.3C407.843 31.3 409.719 32.532 409.719 35.248C409.719 37.978 407.843 39.182 406.009 39.182C404.175 39.182 402.299 37.978 402.299 35.248C402.299 32.532 404.175 31.3 406.009 31.3ZM416.268 32.784H412.824V39H411.158V31.468H416.268V32.784ZM418.987 35.234C418.987 36.97 419.841 37.824 420.933 37.824C422.109 37.824 422.795 36.844 422.795 35.234C422.795 33.652 422.109 32.658 420.933 32.658C419.841 32.658 418.987 33.498 418.987 35.234ZM417.391 31.468H419.057V32.476C419.505 31.734 420.289 31.3 421.297 31.3C423.145 31.3 424.531 32.826 424.531 35.234C424.531 37.656 423.145 39.182 421.297 39.182C420.289 39.182 419.505 38.748 419.057 38.006V41.45H417.391V31.468ZM430.489 36.032V35.458C428.109 35.682 427.143 36.032 427.143 36.886C427.143 37.544 427.689 37.936 428.529 37.936C429.761 37.936 430.489 37.32 430.489 36.032ZM428.165 39.182C426.527 39.182 425.379 38.3 425.379 36.928C425.379 35.038 427.703 34.59 430.447 34.296V34.156C430.447 32.868 429.719 32.476 428.879 32.476C428.039 32.476 427.409 32.924 427.367 33.834H425.729C425.841 32.308 427.115 31.244 428.935 31.244C430.741 31.244 432.155 32.07 432.113 34.478C432.113 34.842 432.085 35.738 432.085 36.424C432.085 37.376 432.155 38.37 432.309 39H430.783C430.727 38.678 430.685 38.496 430.643 37.978C430.153 38.804 429.285 39.182 428.165 39.182ZM438.879 28.85V31.468C441.021 31.468 442.813 32.672 442.813 35.276C442.813 37.964 441.007 39.084 438.879 39.084V41.45H437.213V39.084C435.071 39.084 433.279 37.964 433.279 35.276C433.279 32.672 435.071 31.468 437.213 31.468V28.85H438.879ZM437.213 37.754V32.812C435.925 32.812 434.959 33.554 434.959 35.332C434.959 37.082 435.911 37.754 437.213 37.754ZM438.879 32.812V37.754C440.181 37.754 441.119 37.082 441.119 35.332C441.119 33.554 440.181 32.812 438.879 32.812ZM451.16 31.468V39H449.494V33.778L445.91 39H444.244V31.468H445.91V36.718L449.494 31.468H451.16ZM459.951 31.468V39H458.285V33.778L454.701 39H453.035V31.468H454.701V36.718L458.285 31.468H459.951Z" fill="#747474" style="fill:#747474;fill:color(display-p3 0.4542 0.4542 0.4542);fill-opacity:1;"/>
</g>
<rect opacity="0.01" y="44" width="1" height="32" fill="white" style="fill:white;fill-opacity:1;"/>
<path d="M117.02 99.5C117.02 105.132 120.276 108.036 126.744 108.256V90.744C120.232 90.964 117.02 94.044 117.02 99.5ZM142.628 99.5C142.628 93.868 139.372 90.964 132.904 90.744V108.256C139.416 108.036 142.628 104.956 142.628 99.5ZM126.744 116.88V113.8C121.772 113.668 117.812 112.304 114.864 109.664C111.916 107.024 110.42 103.504 110.42 99.148C110.42 95.056 111.916 91.756 114.864 89.204C117.856 86.652 121.816 85.332 126.744 85.2V82.12H132.904V85.2C137.876 85.332 141.836 86.696 144.784 89.336C147.732 91.976 149.228 95.496 149.228 99.852C149.228 103.944 147.732 107.244 144.74 109.796C141.792 112.348 137.832 113.668 132.904 113.8V116.88H126.744ZM164.944 93.56C168.156 93.56 170.84 94.66 172.996 96.816C175.152 98.972 176.252 101.7 176.252 105C176.252 108.3 175.152 111.072 172.996 113.228C170.84 115.384 168.156 116.44 164.944 116.44C161.776 116.44 159.092 115.384 156.892 113.228C154.736 111.072 153.636 108.3 153.636 105C153.636 101.7 154.736 98.972 156.892 96.816C159.092 94.66 161.776 93.56 164.944 93.56ZM164.988 97.256C161.688 97.256 160.016 99.852 160.016 105C160.016 109.884 161.864 112.656 164.988 112.656C168.112 112.656 169.872 109.884 169.872 105C169.872 99.852 168.244 97.256 164.988 97.256ZM192.291 97.96V116H186.571V97.96H179.091V94H199.771V97.96H192.291ZM213.929 93.56C217.141 93.56 219.825 94.66 221.981 96.816C224.137 98.972 225.237 101.7 225.237 105C225.237 108.3 224.137 111.072 221.981 113.228C219.825 115.384 217.141 116.44 213.929 116.44C210.761 116.44 208.077 115.384 205.877 113.228C203.721 111.072 202.621 108.3 202.621 105C202.621 101.7 203.721 98.972 205.877 96.816C208.077 94.66 210.761 93.56 213.929 93.56ZM213.973 97.256C210.673 97.256 209.001 99.852 209.001 105C209.001 109.884 210.849 112.656 213.973 112.656C217.097 112.656 218.857 109.884 218.857 105C218.857 99.852 217.229 97.256 213.973 97.256ZM235.775 97.96V116H230.055V94H245.103V97.96H235.775ZM262.033 116.44C257.941 116.44 255.433 114.196 254.553 109.708V127H248.833V94H254.553V100.38C255.433 95.848 257.941 93.56 262.033 93.56C264.497 93.56 266.609 94.572 268.369 96.552C270.129 98.532 271.009 101.392 271.009 105.132C271.009 108.784 270.129 111.556 268.369 113.536C266.609 115.472 264.497 116.44 262.033 116.44ZM264.673 105.132C264.673 100.336 262.561 97.564 259.525 97.564C256.533 97.564 254.729 100.248 254.729 105.132C254.729 109.84 256.577 112.524 259.525 112.524C262.517 112.524 264.673 109.752 264.673 105.132ZM281.091 102.316L275.855 100.38C276.867 95.848 280.959 93.56 286.239 93.56C292.883 93.56 295.523 95.496 295.523 100.38V111.16H299.263V116H289.187L289.803 112.524V111.512L287.075 114.856C285.491 115.912 283.775 116.44 281.971 116.44C278.099 116.44 275.635 114.24 275.635 110.588C275.635 108.08 276.427 106.54 278.319 105.66C279.287 105.176 280.255 104.824 281.223 104.604C282.235 104.34 283.555 103.988 285.271 103.592C286.987 103.152 288.483 102.712 289.803 102.228V101.304C289.803 98.972 288.703 97.872 286.019 97.872C284.479 97.872 283.379 98.18 282.719 98.84C282.103 99.456 281.575 100.6 281.091 102.316ZM281.883 109.576C281.883 111.204 282.983 112.304 284.743 112.304C285.667 112.304 286.679 111.908 287.691 111.16C288.703 110.368 289.407 109.268 289.803 107.86V103.944C286.679 104.912 284.567 105.792 283.467 106.54C282.411 107.288 281.883 108.3 281.883 109.576ZM315.013 112.656V97.256C311.097 97.564 309.161 100.116 309.161 105C309.161 109.796 311.097 112.348 315.013 112.656ZM320.733 97.344V112.744C324.649 112.436 326.585 109.884 326.585 105C326.585 100.204 324.649 97.652 320.733 97.344ZM320.733 116.44V127H315.013V116.44C311.537 116.308 308.633 115.208 306.301 113.096C303.969 110.984 302.781 108.3 302.781 105C302.781 101.7 303.969 99.016 306.301 96.904C308.633 94.792 311.537 93.692 315.013 93.56V83H320.733V93.56C324.209 93.692 327.113 94.792 329.445 96.904C331.777 99.016 332.965 101.7 332.965 105C332.965 108.3 331.777 110.984 329.445 113.096C327.113 115.208 324.209 116.308 320.733 116.44ZM352.561 101.172L343.541 116H337.821V94H343.541V108.828L352.561 94H358.281V116H352.561V101.172ZM378.729 101.172L369.709 116H363.989V94H369.709V108.828L378.729 94H384.449V116H378.729V101.172Z" fill="white" style="fill:white;fill-opacity:1;"/>
<rect opacity="0.01" x="108" y="122" width="1" height="24" fill="white" style="fill:white;fill-opacity:1;"/>
<path opacity="0.8" d="M117.264 152.4H118.896V164H117.264V158.736H111.168V164H109.536V152.4H111.168V157.328H117.264V152.4ZM127.014 160.4V159.856C124.374 160.112 122.694 160.512 122.694 161.696C122.694 162.512 123.318 163.056 124.358 163.056C125.718 163.056 127.014 162.432 127.014 160.4ZM124.038 164.208C122.422 164.208 121.078 163.312 121.078 161.728C121.078 159.696 123.382 159.088 126.902 158.704V158.496C126.902 156.912 126.038 156.4 124.95 156.4C123.734 156.4 123.046 157.04 122.982 158.112H121.478C121.606 156.256 123.27 155.216 124.934 155.216C127.318 155.216 128.374 156.336 128.358 158.768L128.342 160.752C128.326 162.208 128.39 163.184 128.566 164H127.094C127.046 163.68 126.998 163.328 126.982 162.816C126.454 163.712 125.574 164.208 124.038 164.208ZM141.215 155.392V164H130.607V155.392H132.063V162.736H135.183V155.392H136.639V162.736H139.759V155.392H141.215ZM149.029 160.4V159.856C146.389 160.112 144.709 160.512 144.709 161.696C144.709 162.512 145.333 163.056 146.373 163.056C147.733 163.056 149.029 162.432 149.029 160.4ZM146.053 164.208C144.437 164.208 143.093 163.312 143.093 161.728C143.093 159.696 145.397 159.088 148.917 158.704V158.496C148.917 156.912 148.053 156.4 146.965 156.4C145.749 156.4 145.061 157.04 144.997 158.112H143.493C143.621 156.256 145.285 155.216 146.949 155.216C149.333 155.216 150.389 156.336 150.373 158.768L150.357 160.752C150.341 162.208 150.405 163.184 150.581 164H149.109C149.061 163.68 149.013 163.328 148.997 162.816C148.469 163.712 147.589 164.208 146.053 164.208ZM163.508 155.392V164H162.052V156.656H157.876V164H156.42V155.392H163.508ZM166.878 159.728C166.878 162.032 168.126 162.928 169.454 162.928C170.782 162.928 172.03 161.936 172.03 159.728C172.03 157.424 170.782 156.528 169.454 156.528C168.126 156.528 166.878 157.376 166.878 159.728ZM169.454 155.248C171.454 155.248 173.582 156.608 173.582 159.728C173.582 162.848 171.454 164.208 169.454 164.208C167.454 164.208 165.326 162.848 165.326 159.728C165.326 156.608 167.454 155.248 169.454 155.248ZM175.404 155.392H176.86V156.752C177.388 155.84 178.284 155.248 179.676 155.248C181.66 155.248 183.356 156.912 183.356 159.728C183.356 162.592 181.66 164.208 179.676 164.208C178.284 164.208 177.388 163.616 176.86 162.704V166.8H175.404V155.392ZM176.796 159.728C176.796 162 178.012 162.96 179.308 162.96C180.796 162.96 181.772 161.792 181.772 159.728C181.772 157.664 180.796 156.496 179.308 156.496C178.012 156.496 176.796 157.456 176.796 159.728ZM191.225 156.656H188.281V164H186.825V156.656H183.881V155.392H191.225V156.656ZM197.592 160.4V159.856C194.952 160.112 193.272 160.512 193.272 161.696C193.272 162.512 193.896 163.056 194.936 163.056C196.296 163.056 197.592 162.432 197.592 160.4ZM194.616 164.208C193 164.208 191.656 163.312 191.656 161.728C191.656 159.696 193.96 159.088 197.48 158.704V158.496C197.48 156.912 196.616 156.4 195.528 156.4C194.312 156.4 193.624 157.04 193.56 158.112H192.056C192.184 156.256 193.848 155.216 195.512 155.216C197.896 155.216 198.952 156.336 198.936 158.768L198.92 160.752C198.904 162.208 198.968 163.184 199.144 164H197.672C197.624 163.68 197.576 163.328 197.56 162.816C197.032 163.712 196.152 164.208 194.616 164.208ZM207.985 155.392V164H206.529V156.656H203.633L203.505 158.736C203.297 162.208 202.545 164 200.545 164H200.273V162.736H200.433C201.201 162.736 201.937 161.904 202.113 158.336L202.241 155.392H207.985ZM221.336 155.392V164H219.88V156.656H215.704V164H214.248V155.392H221.336ZM223.795 155.392H225.251V156.752C225.779 155.84 226.674 155.248 228.067 155.248C230.051 155.248 231.747 156.912 231.747 159.728C231.747 162.592 230.051 164.208 228.067 164.208C226.674 164.208 225.779 163.616 225.251 162.704V166.8H223.795V155.392ZM225.187 159.728C225.187 162 226.403 162.96 227.699 162.96C229.187 162.96 230.163 161.792 230.163 159.728C230.163 157.664 229.187 156.496 227.699 156.496C226.403 156.496 225.187 157.456 225.187 159.728ZM241.19 160.176H234.566C234.614 162.032 235.958 162.928 237.222 162.928C238.502 162.928 239.206 162.352 239.574 161.504H241.078C240.694 162.976 239.318 164.208 237.222 164.208C234.502 164.208 232.998 162.256 232.998 159.712C232.998 156.976 234.822 155.248 237.174 155.248C239.814 155.248 241.366 157.44 241.19 160.176ZM237.174 156.496C235.894 156.496 234.71 157.2 234.582 158.928H239.654C239.606 157.712 238.726 156.496 237.174 156.496ZM250.874 162.736V165.904H249.466V164H243.162V165.904H241.754V162.736H242.138C243.114 162.736 243.626 161.456 243.754 158.16L243.866 155.392H249.674V162.736H250.874ZM248.218 162.736V156.656H245.274L245.194 158.304C245.066 160.848 244.698 162.096 244.026 162.736H248.218ZM259.141 155.392V164H257.685V156.656H254.789L254.661 158.736C254.453 162.208 253.701 164 251.701 164H251.429V162.736H251.589C252.357 162.736 253.093 161.904 253.269 158.336L253.397 155.392H259.141ZM266.951 160.4V159.856C264.311 160.112 262.631 160.512 262.631 161.696C262.631 162.512 263.255 163.056 264.295 163.056C265.655 163.056 266.951 162.432 266.951 160.4ZM263.975 164.208C262.359 164.208 261.015 163.312 261.015 161.728C261.015 159.696 263.319 159.088 266.839 158.704V158.496C266.839 156.912 265.975 156.4 264.887 156.4C263.671 156.4 262.983 157.04 262.919 158.112H261.415C261.543 156.256 263.207 155.216 264.871 155.216C267.255 155.216 268.311 156.336 268.295 158.768L268.279 160.752C268.263 162.208 268.327 163.184 268.503 164H267.031C266.983 163.68 266.935 163.328 266.919 162.816C266.391 163.712 265.511 164.208 263.975 164.208ZM276.033 156.656H272.001V164H270.545V155.392H276.033V156.656ZM282.685 160.4V159.856C280.045 160.112 278.365 160.512 278.365 161.696C278.365 162.512 278.989 163.056 280.029 163.056C281.389 163.056 282.685 162.432 282.685 160.4ZM279.709 164.208C278.093 164.208 276.749 163.312 276.749 161.728C276.749 159.696 279.053 159.088 282.573 158.704V158.496C282.573 156.912 281.709 156.4 280.621 156.4C279.405 156.4 278.717 157.04 278.653 158.112H277.149C277.277 156.256 278.941 155.216 280.605 155.216C282.989 155.216 284.045 156.336 284.029 158.768L284.013 160.752C283.997 162.208 284.061 163.184 284.237 164H282.765C282.717 163.68 282.669 163.328 282.653 162.816C282.125 163.712 281.245 164.208 279.709 164.208ZM293.799 160.176H287.175C287.223 162.032 288.567 162.928 289.831 162.928C291.111 162.928 291.815 162.352 292.183 161.504H293.687C293.303 162.976 291.927 164.208 289.831 164.208C287.111 164.208 285.607 162.256 285.607 159.712C285.607 156.976 287.431 155.248 289.783 155.248C292.423 155.248 293.975 157.44 293.799 160.176ZM289.783 156.496C288.503 156.496 287.319 157.2 287.191 158.928H292.263C292.215 157.712 291.335 156.496 289.783 156.496ZM301.584 156.656H298.64V164H297.184V156.656H294.24V155.392H301.584V156.656ZM307.769 159.728C307.769 162.032 309.017 162.928 310.345 162.928C311.673 162.928 312.921 161.936 312.921 159.728C312.921 157.424 311.673 156.528 310.345 156.528C309.017 156.528 307.769 157.376 307.769 159.728ZM310.345 155.248C312.345 155.248 314.473 156.608 314.473 159.728C314.473 162.848 312.345 164.208 310.345 164.208C308.345 164.208 306.217 162.848 306.217 159.728C306.217 156.608 308.345 155.248 310.345 155.248ZM321.783 156.656H317.751V164H316.295V155.392H321.783V156.656ZM323.17 155.392H324.626V156.752C325.154 155.84 326.049 155.248 327.442 155.248C329.426 155.248 331.122 156.912 331.122 159.728C331.122 162.592 329.426 164.208 327.442 164.208C326.049 164.208 325.154 163.616 324.626 162.704V166.8H323.17V155.392ZM324.562 159.728C324.562 162 325.778 162.96 327.074 162.96C328.562 162.96 329.538 161.792 329.538 159.728C329.538 157.664 328.562 156.496 327.074 156.496C325.778 156.496 324.562 157.456 324.562 159.728ZM333.957 159.728C333.957 162.032 335.205 162.928 336.533 162.928C337.861 162.928 339.109 161.936 339.109 159.728C339.109 157.424 337.861 156.528 336.533 156.528C335.205 156.528 333.957 157.376 333.957 159.728ZM336.533 155.248C338.533 155.248 340.661 156.608 340.661 159.728C340.661 162.848 338.533 164.208 336.533 164.208C334.533 164.208 332.405 162.848 332.405 159.728C332.405 156.608 334.533 155.248 336.533 155.248ZM351.89 155.392V164H350.466V157.088L347.698 164H346.658L343.906 157.184V164H342.482V155.392H344.562L347.234 162.016L349.81 155.392H351.89ZM361.525 164H360.069V160.24H355.813V164H354.357V155.392H355.813V158.976H360.069V155.392H361.525V164ZM367.086 164H363.982V155.392H365.438V158.432H367.102C369.342 158.432 370.318 159.312 370.318 161.152C370.318 163.28 369.054 164 367.086 164ZM365.438 159.696V162.736H366.958C368.238 162.736 368.894 162.32 368.894 161.152C368.894 160 368.254 159.696 366.91 159.696H365.438ZM373.198 164H371.742V155.392H373.198V164ZM380.822 152.4H381.958C381.83 153.36 381.222 154.336 379.398 154.336C377.638 154.336 376.966 153.36 376.886 152.4H378.022C378.086 152.912 378.47 153.376 379.414 153.376C380.358 153.376 380.758 152.912 380.822 152.4ZM381.574 164V157.504L377.126 164H375.67V155.392H377.126V161.888L381.574 155.392H383.03V164H381.574ZM389.295 155.392H393.039C394.767 155.392 396.175 155.84 396.175 157.584C396.175 158.496 395.775 159.136 394.975 159.472C395.871 159.728 396.527 160.336 396.527 161.488C396.527 163.28 395.135 164 393.295 164H389.295V155.392ZM390.751 159.008H392.943C394.015 159.008 394.655 158.72 394.655 157.744C394.655 156.848 393.983 156.656 392.895 156.656H390.751V159.008ZM390.751 160.208V162.736H393.071C394.351 162.736 395.007 162.368 395.007 161.472C395.007 160.512 394.367 160.208 393.023 160.208H390.751ZM401.336 164H398.232V155.392H399.688V158.432H401.352C403.592 158.432 404.568 159.312 404.568 161.152C404.568 163.28 403.304 164 401.336 164ZM399.688 159.696V162.736H401.208C402.488 162.736 403.144 162.32 403.144 161.152C403.144 160 402.504 159.696 401.16 159.696H399.688ZM407.448 164H405.992V155.392H407.448V164ZM413.792 155.888C415.744 155.888 417.424 157.248 417.424 159.968C417.424 162.736 415.648 164.208 413.536 164.208C411.312 164.208 409.488 162.656 409.488 159.52V158.528C409.536 155.424 410.56 153.616 414.016 152.928L416.848 152.368V153.664L414.096 154.256C412 154.72 410.992 155.504 410.784 157.648C411.36 156.448 412.512 155.888 413.792 155.888ZM413.536 162.944C414.944 162.944 415.872 161.872 415.872 160C415.872 158.112 414.88 157.152 413.552 157.152C412.24 157.152 411.056 158.048 411.056 159.984C411.056 161.808 412.08 162.944 413.536 162.944ZM420.05 159.728C420.05 162.032 421.298 162.928 422.626 162.928C423.954 162.928 425.202 161.936 425.202 159.728C425.202 157.424 423.954 156.528 422.626 156.528C421.298 156.528 420.05 157.376 420.05 159.728ZM422.626 155.248C424.626 155.248 426.754 156.608 426.754 159.728C426.754 162.848 424.626 164.208 422.626 164.208C420.626 164.208 418.498 162.848 418.498 159.728C418.498 156.608 420.626 155.248 422.626 155.248ZM428.576 155.392H430.032V156.752C430.56 155.84 431.456 155.248 432.848 155.248C434.832 155.248 436.528 156.912 436.528 159.728C436.528 162.592 434.832 164.208 432.848 164.208C431.456 164.208 430.56 163.616 430.032 162.704V166.8H428.576V155.392ZM429.968 159.728C429.968 162 431.184 162.96 432.48 162.96C433.968 162.96 434.944 161.792 434.944 159.728C434.944 157.664 433.968 156.496 432.48 156.496C431.184 156.496 429.968 157.456 429.968 159.728ZM447.339 152.4V155.408C449.851 155.408 451.771 156.8 451.771 159.728C451.771 162.752 449.819 164.08 447.339 164.08V166.8H445.883V164.08C443.387 164.08 441.451 162.752 441.451 159.728C441.451 156.8 443.387 155.408 445.883 155.408V152.4H447.339ZM445.883 162.832V156.656C444.219 156.656 443.003 157.664 443.003 159.776C443.003 161.872 444.171 162.832 445.883 162.832ZM447.339 156.656V162.832C449.003 162.832 450.219 161.872 450.219 159.776C450.219 157.664 449.051 156.656 447.339 156.656ZM454.597 159.728C454.597 162.032 455.845 162.928 457.173 162.928C458.501 162.928 459.749 161.936 459.749 159.728C459.749 157.424 458.501 156.528 457.173 156.528C455.845 156.528 454.597 157.376 454.597 159.728ZM457.173 155.248C459.173 155.248 461.301 156.608 461.301 159.728C461.301 162.848 459.173 164.208 457.173 164.208C455.173 164.208 453.045 162.848 453.045 159.728C453.045 156.608 455.173 155.248 457.173 155.248ZM469.193 156.656H466.249V164H464.793V156.656H461.849V155.392H469.193V156.656ZM471.3 159.728C471.3 162.032 472.548 162.928 473.876 162.928C475.204 162.928 476.452 161.936 476.452 159.728C476.452 157.424 475.204 156.528 473.876 156.528C472.548 156.528 471.3 157.376 471.3 159.728ZM473.876 155.248C475.876 155.248 478.004 156.608 478.004 159.728C478.004 162.848 475.876 164.208 473.876 164.208C471.876 164.208 469.748 162.848 469.748 159.728C469.748 156.608 471.876 155.248 473.876 155.248ZM485.314 156.656H481.282V164H479.826V155.392H485.314V156.656ZM486.701 155.392H488.157V156.752C488.685 155.84 489.581 155.248 490.973 155.248C492.957 155.248 494.653 156.912 494.653 159.728C494.653 162.592 492.957 164.208 490.973 164.208C489.581 164.208 488.685 163.616 488.157 162.704V166.8H486.701V155.392ZM488.093 159.728C488.093 162 489.309 162.96 490.605 162.96C492.093 162.96 493.069 161.792 493.069 159.728C493.069 157.664 492.093 156.496 490.605 156.496C489.309 156.496 488.093 157.456 488.093 159.728ZM501.795 160.4V159.856C499.155 160.112 497.475 160.512 497.475 161.696C497.475 162.512 498.099 163.056 499.139 163.056C500.499 163.056 501.795 162.432 501.795 160.4ZM498.819 164.208C497.203 164.208 495.859 163.312 495.859 161.728C495.859 159.696 498.163 159.088 501.683 158.704V158.496C501.683 156.912 500.819 156.4 499.731 156.4C498.515 156.4 497.827 157.04 497.763 158.112H496.259C496.387 156.256 498.051 155.216 499.715 155.216C502.099 155.216 503.155 156.336 503.139 158.768L503.123 160.752C503.107 162.208 503.171 163.184 503.347 164H501.875C501.827 163.68 501.779 163.328 501.763 162.816C501.235 163.712 500.355 164.208 498.819 164.208ZM510.604 152.4V155.408C513.116 155.408 515.036 156.8 515.036 159.728C515.036 162.752 513.084 164.08 510.604 164.08V166.8H509.148V164.08C506.652 164.08 504.716 162.752 504.716 159.728C504.716 156.8 506.652 155.408 509.148 155.408V152.4H510.604ZM509.148 162.832V156.656C507.484 156.656 506.268 157.664 506.268 159.776C506.268 161.872 507.436 162.832 509.148 162.832ZM510.604 156.656V162.832C512.268 162.832 513.484 161.872 513.484 159.776C513.484 157.664 512.316 156.656 510.604 156.656ZM522.73 164V157.504L518.282 164H516.826V155.392H518.282V161.888L522.73 155.392H524.186V164H522.73ZM531.806 152.4H532.942C532.814 153.36 532.206 154.336 530.382 154.336C528.622 154.336 527.95 153.36 527.87 152.4H529.006C529.07 152.912 529.454 153.376 530.398 153.376C531.342 153.376 531.742 152.912 531.806 152.4ZM532.558 164V157.504L528.11 164H526.654V155.392H528.11V161.888L532.558 155.392H534.014V164H532.558ZM540.279 155.392H544.023C545.751 155.392 547.159 155.84 547.159 157.584C547.159 158.496 546.759 159.136 545.959 159.472C546.855 159.728 547.511 160.336 547.511 161.488C547.511 163.28 546.119 164 544.279 164H540.279V155.392ZM541.735 159.008H543.927C544.999 159.008 545.639 158.72 545.639 157.744C545.639 156.848 544.967 156.656 543.879 156.656H541.735V159.008ZM541.735 160.208V162.736H544.055C545.335 162.736 545.991 162.368 545.991 161.472C545.991 160.512 545.351 160.208 544.007 160.208H541.735ZM552.32 164H549.216V155.392H550.672V158.432H552.336C554.576 158.432 555.552 159.312 555.552 161.152C555.552 163.28 554.288 164 552.32 164ZM550.672 159.696V162.736H552.192C553.472 162.736 554.128 162.32 554.128 161.152C554.128 160 553.488 159.696 552.144 159.696H550.672ZM558.432 164H556.976V155.392H558.432V164ZM564.392 155.248C566.504 155.248 567.784 156.8 567.992 158.272H566.52C566.312 157.248 565.432 156.528 564.296 156.528C563.016 156.528 561.816 157.536 561.816 159.696C561.816 161.872 563.016 162.928 564.296 162.928C565.528 162.928 566.376 162.096 566.584 161.2H568.088C567.784 162.816 566.264 164.208 564.248 164.208C561.768 164.208 560.232 162.336 560.232 159.712C560.232 157.152 561.848 155.248 564.392 155.248ZM570.8 159.728C570.8 162.032 572.048 162.928 573.376 162.928C574.704 162.928 575.952 161.936 575.952 159.728C575.952 157.424 574.704 156.528 573.376 156.528C572.048 156.528 570.8 157.376 570.8 159.728ZM573.376 155.248C575.376 155.248 577.504 156.608 577.504 159.728C577.504 162.848 575.376 164.208 573.376 164.208C571.376 164.208 569.248 162.848 569.248 159.728C569.248 156.608 571.376 155.248 573.376 155.248ZM584.862 164L581.902 160.176H580.798V164H579.326V155.392H580.798V158.912H581.87L584.606 155.392H586.334L583.086 159.456L586.67 164H584.862ZM588.66 159.728C588.66 162.032 589.908 162.928 591.236 162.928C592.564 162.928 593.812 161.936 593.812 159.728C593.812 157.424 592.564 156.528 591.236 156.528C589.908 156.528 588.66 157.376 588.66 159.728ZM591.236 155.248C593.236 155.248 595.364 156.608 595.364 159.728C595.364 162.848 593.236 164.208 591.236 164.208C589.236 164.208 587.108 162.848 587.108 159.728C587.108 156.608 589.236 155.248 591.236 155.248ZM602.673 156.656H598.641V164H597.185V155.392H602.673V156.656ZM604.691 159.728C604.691 162.032 605.939 162.928 607.267 162.928C608.595 162.928 609.843 161.936 609.843 159.728C609.843 157.424 608.595 156.528 607.267 156.528C605.939 156.528 604.691 157.376 604.691 159.728ZM607.267 155.248C609.267 155.248 611.395 156.608 611.395 159.728C611.395 162.848 609.267 164.208 607.267 164.208C605.267 164.208 603.139 162.848 603.139 159.728C603.139 156.608 605.267 155.248 607.267 155.248ZM622.549 164L619.589 160.176H618.485V164H617.013V155.392H618.485V158.912H619.557L622.293 155.392H624.021L620.773 159.456L624.357 164H622.549ZM630.889 160.4V159.856C628.249 160.112 626.569 160.512 626.569 161.696C626.569 162.512 627.193 163.056 628.233 163.056C629.593 163.056 630.889 162.432 630.889 160.4ZM627.913 164.208C626.297 164.208 624.953 163.312 624.953 161.728C624.953 159.696 627.257 159.088 630.777 158.704V158.496C630.777 156.912 629.913 156.4 628.825 156.4C627.609 156.4 626.921 157.04 626.857 158.112H625.353C625.481 156.256 627.145 155.216 628.809 155.216C631.193 155.216 632.249 156.336 632.233 158.768L632.217 160.752C632.201 162.208 632.265 163.184 632.441 164H630.969C630.921 163.68 630.873 163.328 630.857 162.816C630.329 163.712 629.449 164.208 627.913 164.208ZM640.818 164H639.362V160.512C638.354 160.752 637.586 160.864 636.802 160.864C634.994 160.864 634.05 160.064 634.05 158.192V155.392H635.506V157.888C635.506 159.168 636.114 159.6 637.33 159.6C637.89 159.6 638.562 159.504 639.362 159.312V155.392H640.818V164ZM650.799 160.176H644.175C644.223 162.032 645.567 162.928 646.831 162.928C648.111 162.928 648.815 162.352 649.183 161.504H650.687C650.303 162.976 648.927 164.208 646.831 164.208C644.111 164.208 642.607 162.256 642.607 159.712C642.607 156.976 644.431 155.248 646.783 155.248C649.423 155.248 650.975 157.44 650.799 160.176ZM646.783 156.496C645.503 156.496 644.319 157.2 644.191 158.928H649.263C649.215 157.712 648.335 156.496 646.783 156.496ZM656.158 155.248C658.27 155.248 659.55 156.8 659.758 158.272H658.286C658.078 157.248 657.198 156.528 656.062 156.528C654.782 156.528 653.582 157.536 653.582 159.696C653.582 161.872 654.782 162.928 656.062 162.928C657.294 162.928 658.142 162.096 658.35 161.2H659.854C659.55 162.816 658.03 164.208 656.014 164.208C653.534 164.208 651.998 162.336 651.998 159.712C651.998 157.152 653.614 155.248 656.158 155.248ZM667.647 156.656H664.703V164H663.247V156.656H660.303V155.392H667.647V156.656ZM669.123 155.392H672.867C674.595 155.392 676.003 155.84 676.003 157.584C676.003 158.496 675.603 159.136 674.803 159.472C675.699 159.728 676.355 160.336 676.355 161.488C676.355 163.28 674.963 164 673.123 164H669.123V155.392ZM670.579 159.008H672.771C673.843 159.008 674.483 158.72 674.483 157.744C674.483 156.848 673.811 156.656 672.723 156.656H670.579V159.008ZM670.579 160.208V162.736H672.899C674.179 162.736 674.835 162.368 674.835 161.472C674.835 160.512 674.195 160.208 672.851 160.208H670.579ZM683.404 160.4V159.856C680.764 160.112 679.084 160.512 679.084 161.696C679.084 162.512 679.708 163.056 680.748 163.056C682.108 163.056 683.404 162.432 683.404 160.4ZM680.428 164.208C678.812 164.208 677.468 163.312 677.468 161.728C677.468 159.696 679.772 159.088 683.292 158.704V158.496C683.292 156.912 682.428 156.4 681.34 156.4C680.124 156.4 679.436 157.04 679.372 158.112H677.868C677.996 156.256 679.66 155.216 681.324 155.216C683.708 155.216 684.764 156.336 684.748 158.768L684.732 160.752C684.716 162.208 684.78 163.184 684.956 164H683.484C683.436 163.68 683.388 163.328 683.372 162.816C682.844 163.712 681.964 164.208 680.428 164.208ZM686.806 164V162.16H688.646V164.128L687.67 166.224H686.742L687.59 164H686.806ZM701.804 155.392V164H700.348V156.656H696.172V164H694.716V155.392H701.804ZM705.175 159.728C705.175 162.032 706.423 162.928 707.751 162.928C709.079 162.928 710.327 161.936 710.327 159.728C710.327 157.424 709.079 156.528 707.751 156.528C706.423 156.528 705.175 157.376 705.175 159.728ZM707.751 155.248C709.751 155.248 711.879 156.608 711.879 159.728C711.879 162.848 709.751 164.208 707.751 164.208C705.751 164.208 703.623 162.848 703.623 159.728C703.623 156.608 705.751 155.248 707.751 155.248ZM721.593 162.736V165.904H720.185V164H713.881V165.904H712.473V162.736H712.857C713.833 162.736 714.345 161.456 714.473 158.16L714.585 155.392H720.392V162.736H721.593ZM718.937 162.736V156.656H715.993L715.913 158.304C715.785 160.848 715.417 162.096 714.745 162.736H718.937ZM729.764 155.392L726.836 159.504L730.052 164H728.308L725.972 160.72L723.652 164H721.988L725.156 159.568L722.18 155.392H723.924L726.02 158.352L728.132 155.392H729.764ZM732.05 159.728C732.05 162.032 733.298 162.928 734.626 162.928C735.954 162.928 737.202 161.936 737.202 159.728C737.202 157.424 735.954 156.528 734.626 156.528C733.298 156.528 732.05 157.376 732.05 159.728ZM734.626 155.248C736.626 155.248 738.754 156.608 738.754 159.728C738.754 162.848 736.626 164.208 734.626 164.208C732.626 164.208 730.498 162.848 730.498 159.728C730.498 156.608 732.626 155.248 734.626 155.248ZM748.468 162.736V165.904H747.06V164H740.756V165.904H739.348V162.736H739.732C740.708 162.736 741.22 161.456 741.348 158.16L741.46 155.392H747.267V162.736H748.468ZM745.812 162.736V156.656H742.868L742.788 158.304C742.66 160.848 742.292 162.096 741.62 162.736H745.812ZM756.303 155.392V164H754.847V160.944H753.327C753.247 160.944 753.167 160.944 753.087 160.928L750.751 164H748.943L751.551 160.528C750.463 160.16 749.727 159.328 749.727 158.048C749.727 156.272 750.943 155.392 752.927 155.392H756.303ZM754.847 156.656H753.007C751.935 156.656 751.215 157.104 751.215 158.144C751.215 159.312 752.127 159.68 753.135 159.68H754.847V156.656ZM770.571 162.736V166.064H769.195V164H758.763V155.392H760.219V162.736H763.339V155.392H764.795V162.736H767.915V155.392H769.371V162.736H770.571ZM777.949 164V157.504L773.501 164H772.045V155.392H773.501V161.888L777.949 155.392H779.405V164H777.949ZM788.577 155.392L785.649 159.504L788.865 164H787.121L784.785 160.72L782.465 164H780.801L783.969 159.568L780.993 155.392H782.737L784.833 158.352L786.945 155.392H788.577ZM802.108 162.736V165.904H800.7V164H794.396V165.904H792.988V162.736H793.372C794.348 162.736 794.86 161.456 794.988 158.16L795.1 155.392H800.908V162.736H802.108ZM799.452 162.736V156.656H796.508L796.428 158.304C796.3 160.848 795.932 162.096 795.26 162.736H799.452ZM810.376 155.392V164H808.92V156.656H806.024L805.896 158.736C805.688 162.208 804.936 164 802.936 164H802.664V162.736H802.824C803.592 162.736 804.328 161.904 804.504 158.336L804.632 155.392H810.376ZM819.209 155.392V164H817.753V160.944H816.233C816.153 160.944 816.073 160.944 815.993 160.928L813.657 164H811.849L814.457 160.528C813.369 160.16 812.633 159.328 812.633 158.048C812.633 156.272 813.849 155.392 815.833 155.392H819.209ZM817.753 156.656H815.913C814.841 156.656 814.121 157.104 814.121 158.144C814.121 159.312 815.033 159.68 816.041 159.68H817.753V156.656ZM832.266 155.392V164H830.81V156.656H827.914L827.786 158.736C827.578 162.208 826.826 164 824.826 164H824.554V162.736H824.714C825.482 162.736 826.218 161.904 826.394 158.336L826.522 155.392H832.266ZM841.804 155.248C843.804 155.248 845.932 156.608 845.932 159.728C845.932 162.848 843.804 164.208 841.804 164.208C840.012 164.208 838.108 162.992 837.9 160.24H836.188V164H834.732V155.392H836.188V158.976H837.932C838.236 156.368 840.044 155.248 841.804 155.248ZM841.804 162.928C843.132 162.928 844.38 161.936 844.38 159.728C844.38 157.424 843.132 156.528 841.804 156.528C840.604 156.528 839.436 157.376 839.436 159.728C839.436 162.032 840.604 162.928 841.804 162.928ZM851.635 155.888C853.587 155.888 855.267 157.248 855.267 159.968C855.267 162.736 853.491 164.208 851.379 164.208C849.155 164.208 847.331 162.656 847.331 159.52V158.528C847.379 155.424 848.403 153.616 851.859 152.928L854.691 152.368V153.664L851.939 154.256C849.843 154.72 848.835 155.504 848.627 157.648C849.203 156.448 850.355 155.888 851.635 155.888ZM851.379 162.944C852.787 162.944 853.715 161.872 853.715 160C853.715 158.112 852.723 157.152 851.395 157.152C850.083 157.152 848.899 158.048 848.899 159.984C848.899 161.808 849.923 162.944 851.379 162.944ZM860.086 164H856.982V155.392H858.438V158.432H860.102C862.342 158.432 863.318 159.312 863.318 161.152C863.318 163.28 862.054 164 860.086 164ZM858.438 159.696V162.736H859.958C861.238 162.736 861.894 162.32 861.894 161.152C861.894 160 861.254 159.696 859.91 159.696H858.438ZM866.198 164H864.742V155.392H866.198V164ZM875.374 155.392L872.446 159.504L875.661 164H873.918L871.582 160.72L869.262 164H867.598L870.766 159.568L867.79 155.392H869.534L871.63 158.352L873.742 155.392H875.374ZM116.32 179.392V188H114.864V180.656H110.688V188H109.232V179.392H116.32ZM118.779 179.392H120.235V180.752C120.763 179.84 121.659 179.248 123.051 179.248C125.035 179.248 126.731 180.912 126.731 183.728C126.731 186.592 125.035 188.208 123.051 188.208C121.659 188.208 120.763 187.616 120.235 186.704V190.8H118.779V179.392ZM120.171 183.728C120.171 186 121.387 186.96 122.683 186.96C124.171 186.96 125.147 185.792 125.147 183.728C125.147 181.664 124.171 180.496 122.683 180.496C121.387 180.496 120.171 181.456 120.171 183.728ZM129.566 183.728C129.566 186.032 130.814 186.928 132.142 186.928C133.47 186.928 134.718 185.936 134.718 183.728C134.718 181.424 133.47 180.528 132.142 180.528C130.814 180.528 129.566 181.376 129.566 183.728ZM132.142 179.248C134.142 179.248 136.27 180.608 136.27 183.728C136.27 186.848 134.142 188.208 132.142 188.208C130.142 188.208 128.014 186.848 128.014 183.728C128.014 180.608 130.142 179.248 132.142 179.248ZM145.736 184.176H139.112C139.16 186.032 140.504 186.928 141.768 186.928C143.048 186.928 143.752 186.352 144.12 185.504H145.624C145.24 186.976 143.864 188.208 141.768 188.208C139.048 188.208 137.544 186.256 137.544 183.712C137.544 180.976 139.368 179.248 141.72 179.248C144.36 179.248 145.912 181.44 145.736 184.176ZM141.72 180.496C140.44 180.496 139.256 181.2 139.128 182.928H144.2C144.152 181.712 143.272 180.496 141.72 180.496ZM153.065 188L150.105 184.176H149.001V188H147.529V179.392H149.001V182.912H150.073L152.809 179.392H154.537L151.289 183.456L154.873 188H153.065ZM162.615 180.656H159.671V188H158.215V180.656H155.271V179.392H162.615V180.656ZM164.722 183.728C164.722 186.032 165.97 186.928 167.298 186.928C168.626 186.928 169.874 185.936 169.874 183.728C169.874 181.424 168.626 180.528 167.298 180.528C165.97 180.528 164.722 181.376 164.722 183.728ZM167.298 179.248C169.298 179.248 171.426 180.608 171.426 183.728C171.426 186.848 169.298 188.208 167.298 188.208C165.298 188.208 163.17 186.848 163.17 183.728C163.17 180.608 165.298 179.248 167.298 179.248ZM173.248 179.392H176.992C178.72 179.392 180.128 179.84 180.128 181.584C180.128 182.496 179.728 183.136 178.928 183.472C179.824 183.728 180.48 184.336 180.48 185.488C180.48 187.28 179.088 188 177.248 188H173.248V179.392ZM174.704 183.008H176.896C177.968 183.008 178.608 182.72 178.608 181.744C178.608 180.848 177.936 180.656 176.848 180.656H174.704V183.008ZM174.704 184.208V186.736H177.024C178.304 186.736 178.96 186.368 178.96 185.472C178.96 184.512 178.32 184.208 176.976 184.208H174.704ZM183.833 188H181.993V186.16H183.833V188ZM197.936 176.4H199.568V188H197.936V182.736H191.84V188H190.208V176.4H191.84V181.328H197.936V176.4ZM207.685 184.4V183.856C205.045 184.112 203.365 184.512 203.365 185.696C203.365 186.512 203.989 187.056 205.029 187.056C206.389 187.056 207.685 186.432 207.685 184.4ZM204.709 188.208C203.093 188.208 201.749 187.312 201.749 185.728C201.749 183.696 204.053 183.088 207.573 182.704V182.496C207.573 180.912 206.709 180.4 205.621 180.4C204.405 180.4 203.717 181.04 203.653 182.112H202.149C202.277 180.256 203.941 179.216 205.605 179.216C207.989 179.216 209.045 180.336 209.029 182.768L209.013 184.752C208.997 186.208 209.061 187.184 209.237 188H207.765C207.717 187.68 207.669 187.328 207.653 186.816C207.125 187.712 206.245 188.208 204.709 188.208ZM216.431 176.4H217.567C217.439 177.36 216.831 178.336 215.007 178.336C213.247 178.336 212.575 177.36 212.495 176.4H213.631C213.695 176.912 214.079 177.376 215.023 177.376C215.967 177.376 216.367 176.912 216.431 176.4ZM217.183 188V181.504L212.735 188H211.279V179.392H212.735V185.888L217.183 179.392H218.639V188H217.183ZM229.155 186.736V189.904H227.747V188H221.443V189.904H220.035V186.736H220.419C221.395 186.736 221.907 185.456 222.035 182.16L222.147 179.392H227.955V186.736H229.155ZM226.499 186.736V180.656H223.555L223.475 182.304C223.347 184.848 222.979 186.096 222.307 186.736H226.499ZM236.527 188V181.504L232.079 188H230.623V179.392H232.079V185.888L236.527 179.392H237.983V188H236.527ZM246.803 180.656H243.859V188H242.403V180.656H239.459V179.392H246.803V180.656ZM255.518 184.176H248.894C248.942 186.032 250.286 186.928 251.55 186.928C252.83 186.928 253.534 186.352 253.902 185.504H255.406C255.022 186.976 253.646 188.208 251.55 188.208C248.83 188.208 247.326 186.256 247.326 183.712C247.326 180.976 249.15 179.248 251.502 179.248C254.142 179.248 255.694 181.44 255.518 184.176ZM251.502 180.496C250.222 180.496 249.038 181.2 248.91 182.928H253.982C253.934 181.712 253.054 180.496 251.502 180.496ZM267.011 188V181.504L262.563 188H261.107V179.392H262.563V185.888L267.011 179.392H268.467V188H267.011ZM278.983 186.736V189.904H277.575V188H271.271V189.904H269.863V186.736H270.247C271.223 186.736 271.735 185.456 271.863 182.16L271.975 179.392H277.783V186.736H278.983ZM276.327 186.736V180.656H273.383L273.303 182.304C273.175 184.848 272.807 186.096 272.135 186.736H276.327ZM287.971 184.176H281.347C281.395 186.032 282.739 186.928 284.003 186.928C285.283 186.928 285.987 186.352 286.355 185.504H287.859C287.475 186.976 286.099 188.208 284.003 188.208C281.283 188.208 279.779 186.256 279.779 183.712C279.779 180.976 281.603 179.248 283.955 179.248C286.595 179.248 288.147 181.44 287.971 184.176ZM283.955 180.496C282.675 180.496 281.491 181.2 281.363 182.928H286.435C286.387 181.712 285.507 180.496 283.955 180.496ZM295.029 184.4V183.856C292.389 184.112 290.709 184.512 290.709 185.696C290.709 186.512 291.333 187.056 292.373 187.056C293.733 187.056 295.029 186.432 295.029 184.4ZM292.053 188.208C290.437 188.208 289.093 187.312 289.093 185.728C289.093 183.696 291.397 183.088 294.917 182.704V182.496C294.917 180.912 294.053 180.4 292.965 180.4C291.749 180.4 291.061 181.04 290.997 182.112H289.493C289.621 180.256 291.285 179.216 292.949 179.216C295.333 179.216 296.389 180.336 296.373 182.768L296.357 184.752C296.341 186.208 296.405 187.184 296.581 188H295.109C295.061 187.68 295.013 187.328 294.997 186.816C294.469 187.712 293.589 188.208 292.053 188.208ZM305.423 179.392V188H303.967V180.656H301.071L300.943 182.736C300.735 186.208 299.983 188 297.983 188H297.711V186.736H297.871C298.639 186.736 299.375 185.904 299.551 182.336L299.679 179.392H305.423ZM309.344 182.432H311.392C313.648 182.432 314.608 183.312 314.608 185.152C314.608 187.28 313.36 188 311.376 188H307.888V179.392H309.344V182.432ZM309.344 186.736H311.248C312.528 186.736 313.184 186.304 313.184 185.152C313.184 184.016 312.512 183.696 311.216 183.696H309.344V186.736ZM323.416 188H321.96V184.24H317.704V188H316.248V179.392H317.704V182.976H321.96V179.392H323.416V188ZM326.785 183.728C326.785 186.032 328.033 186.928 329.361 186.928C330.689 186.928 331.937 185.936 331.937 183.728C331.937 181.424 330.689 180.528 329.361 180.528C328.033 180.528 326.785 181.376 326.785 183.728ZM329.361 179.248C331.361 179.248 333.489 180.608 333.489 183.728C333.489 186.848 331.361 188.208 329.361 188.208C327.361 188.208 325.233 186.848 325.233 183.728C325.233 180.608 327.361 179.248 329.361 179.248ZM342.955 184.176H336.331C336.379 186.032 337.723 186.928 338.987 186.928C340.267 186.928 340.971 186.352 341.339 185.504H342.843C342.459 186.976 341.083 188.208 338.987 188.208C336.267 188.208 334.763 186.256 334.763 183.712C334.763 180.976 336.587 179.248 338.939 179.248C341.579 179.248 343.131 181.44 342.955 184.176ZM338.939 180.496C337.659 180.496 336.475 181.2 336.347 182.928H341.419C341.371 181.712 340.491 180.496 338.939 180.496ZM354.449 188V181.504L350.001 188H348.545V179.392H350.001V185.888L354.449 179.392H355.905V188H354.449ZM362.981 183.488C363.893 183.744 364.725 184.4 364.725 185.552C364.725 187.408 363.013 188.208 361.093 188.208C359.253 188.208 357.733 187.344 357.429 185.376H358.901C359.141 186.48 359.957 186.992 361.189 186.992C362.405 186.992 363.173 186.432 363.173 185.616C363.173 184.608 362.517 184.208 361.301 184.208H359.925V183.008H361.221C362.229 183.008 362.837 182.56 362.837 181.664C362.837 180.848 362.101 180.48 361.157 180.48C360.085 180.48 359.269 180.88 359.077 182.048H357.573C357.877 180.176 359.269 179.2 361.077 179.2C362.773 179.2 364.341 180.016 364.341 181.632C364.341 182.512 363.749 183.12 362.981 183.488ZM367.363 183.728C367.363 186.032 368.611 186.928 369.939 186.928C371.267 186.928 372.515 185.936 372.515 183.728C372.515 181.424 371.267 180.528 369.939 180.528C368.611 180.528 367.363 181.376 367.363 183.728ZM369.939 179.248C371.939 179.248 374.067 180.608 374.067 183.728C374.067 186.848 371.939 188.208 369.939 188.208C367.939 188.208 365.811 186.848 365.811 183.728C365.811 180.608 367.939 179.248 369.939 179.248ZM379.76 179.888C381.712 179.888 383.392 181.248 383.392 183.968C383.392 186.736 381.616 188.208 379.504 188.208C377.28 188.208 375.456 186.656 375.456 183.52V182.528C375.504 179.424 376.528 177.616 379.984 176.928L382.816 176.368V177.664L380.064 178.256C377.968 178.72 376.96 179.504 376.752 181.648C377.328 180.448 378.48 179.888 379.76 179.888ZM379.504 186.944C380.912 186.944 381.84 185.872 381.84 184C381.84 182.112 380.848 181.152 379.52 181.152C378.208 181.152 377.024 182.048 377.024 183.984C377.024 185.808 378.048 186.944 379.504 186.944ZM385.107 179.392H386.563V180.752C387.091 179.84 387.987 179.248 389.379 179.248C391.363 179.248 393.059 180.912 393.059 183.728C393.059 186.592 391.363 188.208 389.379 188.208C387.987 188.208 387.091 187.616 386.563 186.704V190.8H385.107V179.392ZM386.499 183.728C386.499 186 387.715 186.96 389.011 186.96C390.499 186.96 391.475 185.792 391.475 183.728C391.475 181.664 390.499 180.496 389.011 180.496C387.715 180.496 386.499 181.456 386.499 183.728ZM400.201 184.4V183.856C397.561 184.112 395.881 184.512 395.881 185.696C395.881 186.512 396.505 187.056 397.545 187.056C398.905 187.056 400.201 186.432 400.201 184.4ZM397.225 188.208C395.609 188.208 394.265 187.312 394.265 185.728C394.265 183.696 396.569 183.088 400.089 182.704V182.496C400.089 180.912 399.225 180.4 398.137 180.4C396.921 180.4 396.233 181.04 396.169 182.112H394.665C394.793 180.256 396.457 179.216 398.121 179.216C400.505 179.216 401.561 180.336 401.545 182.768L401.529 184.752C401.513 186.208 401.577 187.184 401.753 188H400.281C400.233 187.68 400.185 187.328 400.169 186.816C399.641 187.712 398.761 188.208 397.225 188.208ZM412.227 183.456L415.379 188H413.635L411.043 184.192H409.779V188H408.323V184.192H407.107L404.499 188H402.723L405.891 183.504L403.011 179.392H404.707L407.107 182.928H408.323V179.392H409.779V182.928H410.995L413.411 179.392H415.091L412.227 183.456ZM423.971 184.176H417.347C417.395 186.032 418.739 186.928 420.003 186.928C421.283 186.928 421.987 186.352 422.355 185.504H423.859C423.475 186.976 422.099 188.208 420.003 188.208C417.283 188.208 415.779 186.256 415.779 183.712C415.779 180.976 417.603 179.248 419.955 179.248C422.595 179.248 424.147 181.44 423.971 184.176ZM419.955 180.496C418.675 180.496 417.491 181.2 417.363 182.928H422.435C422.387 181.712 421.507 180.496 419.955 180.496ZM432.931 188H431.475V184.24H427.219V188H425.763V179.392H427.219V182.976H431.475V179.392H432.931V188ZM441.292 188V181.504L436.844 188H435.388V179.392H436.844V185.888L441.292 179.392H442.748V188H441.292ZM452.736 184.176H446.112C446.16 186.032 447.504 186.928 448.768 186.928C450.048 186.928 450.752 186.352 451.12 185.504H452.624C452.24 186.976 450.864 188.208 448.768 188.208C446.048 188.208 444.544 186.256 444.544 183.712C444.544 180.976 446.368 179.248 448.72 179.248C451.36 179.248 452.912 181.44 452.736 184.176ZM448.72 180.496C447.44 180.496 446.256 181.2 446.128 182.928H451.2C451.152 181.712 450.272 180.496 448.72 180.496ZM466.374 186.736V189.904H464.966V188H458.662V189.904H457.254V186.736H457.638C458.614 186.736 459.126 185.456 459.254 182.16L459.366 179.392H465.174V186.736H466.374ZM463.718 186.736V180.656H460.774L460.694 182.304C460.566 184.848 460.198 186.096 459.526 186.736H463.718ZM474.641 179.392V188H473.185V180.656H470.289L470.161 182.736C469.953 186.208 469.201 188 467.201 188H466.929V186.736H467.089C467.857 186.736 468.593 185.904 468.769 182.336L468.897 179.392H474.641ZM483.475 179.392V188H482.019V184.944H480.499C480.419 184.944 480.339 184.944 480.259 184.928L477.923 188H476.115L478.723 184.528C477.635 184.16 476.899 183.328 476.899 182.048C476.899 180.272 478.115 179.392 480.099 179.392H483.475ZM482.019 180.656H480.179C479.107 180.656 478.387 181.104 478.387 182.144C478.387 183.312 479.299 183.68 480.307 183.68H482.019V180.656ZM489.732 179.392H493.476C495.204 179.392 496.612 179.84 496.612 181.584C496.612 182.496 496.212 183.136 495.412 183.472C496.308 183.728 496.964 184.336 496.964 185.488C496.964 187.28 495.572 188 493.732 188H489.732V179.392ZM491.188 183.008H493.38C494.452 183.008 495.092 182.72 495.092 181.744C495.092 180.848 494.42 180.656 493.332 180.656H491.188V183.008ZM491.188 184.208V186.736H493.508C494.788 186.736 495.444 186.368 495.444 185.472C495.444 184.512 494.804 184.208 493.46 184.208H491.188ZM504.014 184.4V183.856C501.374 184.112 499.694 184.512 499.694 185.696C499.694 186.512 500.318 187.056 501.358 187.056C502.718 187.056 504.014 186.432 504.014 184.4ZM501.038 188.208C499.422 188.208 498.078 187.312 498.078 185.728C498.078 183.696 500.382 183.088 503.902 182.704V182.496C503.902 180.912 503.038 180.4 501.95 180.4C500.734 180.4 500.046 181.04 499.982 182.112H498.478C498.606 180.256 500.27 179.216 501.934 179.216C504.318 179.216 505.374 180.336 505.358 182.768L505.342 184.752C505.326 186.208 505.39 187.184 505.566 188H504.094C504.046 187.68 503.998 187.328 503.982 186.816C503.454 187.712 502.574 188.208 501.038 188.208ZM518.215 179.392V188H507.607V179.392H509.063V186.736H512.183V179.392H513.639V186.736H516.759V179.392H518.215ZM528.205 184.176H521.581C521.629 186.032 522.973 186.928 524.237 186.928C525.517 186.928 526.221 186.352 526.589 185.504H528.093C527.709 186.976 526.333 188.208 524.237 188.208C521.517 188.208 520.013 186.256 520.013 183.712C520.013 180.976 521.837 179.248 524.189 179.248C526.829 179.248 528.381 181.44 528.205 184.176ZM524.189 180.496C522.909 180.496 521.725 181.2 521.597 182.928H526.669C526.621 181.712 525.741 180.496 524.189 180.496ZM535.486 180.656H531.454V188H529.998V179.392H535.486V180.656ZM537.503 183.728C537.503 186.032 538.751 186.928 540.079 186.928C541.407 186.928 542.655 185.936 542.655 183.728C542.655 181.424 541.407 180.528 540.079 180.528C538.751 180.528 537.503 181.376 537.503 183.728ZM540.079 179.248C542.079 179.248 544.207 180.608 544.207 183.728C544.207 186.848 542.079 188.208 540.079 188.208C538.079 188.208 535.951 186.848 535.951 183.728C535.951 180.608 538.079 179.248 540.079 179.248ZM553.314 179.248C555.426 179.248 556.706 180.8 556.914 182.272H555.442C555.234 181.248 554.354 180.528 553.218 180.528C551.938 180.528 550.738 181.536 550.738 183.696C550.738 185.872 551.938 186.928 553.218 186.928C554.45 186.928 555.298 186.096 555.506 185.2H557.01C556.706 186.816 555.186 188.208 553.17 188.208C550.69 188.208 549.154 186.336 549.154 183.712C549.154 181.152 550.77 179.248 553.314 179.248ZM564.076 184.4V183.856C561.436 184.112 559.756 184.512 559.756 185.696C559.756 186.512 560.38 187.056 561.42 187.056C562.78 187.056 564.076 186.432 564.076 184.4ZM561.1 188.208C559.484 188.208 558.14 187.312 558.14 185.728C558.14 183.696 560.444 183.088 563.964 182.704V182.496C563.964 180.912 563.1 180.4 562.012 180.4C560.796 180.4 560.108 181.04 560.044 182.112H558.54C558.668 180.256 560.332 179.216 561.996 179.216C564.38 179.216 565.436 180.336 565.42 182.768L565.404 184.752C565.388 186.208 565.452 187.184 565.628 188H564.156C564.108 187.68 564.06 187.328 564.044 186.816C563.516 187.712 562.636 188.208 561.1 188.208ZM572.822 176.4H573.958C573.83 177.36 573.222 178.336 571.398 178.336C569.638 178.336 568.966 177.36 568.886 176.4H570.022C570.086 176.912 570.47 177.376 571.414 177.376C572.358 177.376 572.758 176.912 572.822 176.4ZM573.574 188V181.504L569.126 188H567.67V179.392H569.126V185.888L573.574 179.392H575.03V188H573.574ZM583.85 180.656H580.906V188H579.45V180.656H576.506V179.392H583.85V180.656ZM590.217 184.4V183.856C587.577 184.112 585.897 184.512 585.897 185.696C585.897 186.512 586.521 187.056 587.561 187.056C588.921 187.056 590.217 186.432 590.217 184.4ZM587.241 188.208C585.625 188.208 584.281 187.312 584.281 185.728C584.281 183.696 586.585 183.088 590.105 182.704V182.496C590.105 180.912 589.241 180.4 588.153 180.4C586.937 180.4 586.249 181.04 586.185 182.112H584.681C584.809 180.256 586.473 179.216 588.137 179.216C590.521 179.216 591.577 180.336 591.561 182.768L591.545 184.752C591.529 186.208 591.593 187.184 591.769 188H590.297C590.249 187.68 590.201 187.328 590.185 186.816C589.657 187.712 588.777 188.208 587.241 188.208ZM603.511 188V181.504L599.063 188H597.607V179.392H599.063V185.888L603.511 179.392H604.967V188H603.511ZM614.235 179.392V188H612.779V180.656H609.883L609.755 182.736C609.547 186.208 608.795 188 606.795 188H606.523V186.736H606.683C607.451 186.736 608.187 185.904 608.363 182.336L608.491 179.392H614.235ZM622.605 188V181.504L618.157 188H616.701V179.392H618.157V185.888L622.605 179.392H624.061V188H622.605ZM630.326 179.392H631.782V180.752C632.31 179.84 633.206 179.248 634.598 179.248C636.582 179.248 638.278 180.912 638.278 183.728C638.278 186.592 636.582 188.208 634.598 188.208C633.206 188.208 632.31 187.616 631.782 186.704V190.8H630.326V179.392ZM631.718 183.728C631.718 186 632.934 186.96 634.23 186.96C635.718 186.96 636.694 185.792 636.694 183.728C636.694 181.664 635.718 180.496 634.23 180.496C632.934 180.496 631.718 181.456 631.718 183.728ZM647.721 184.176H641.097C641.145 186.032 642.489 186.928 643.753 186.928C645.033 186.928 645.737 186.352 646.105 185.504H647.609C647.225 186.976 645.849 188.208 643.753 188.208C641.033 188.208 639.529 186.256 639.529 183.712C639.529 180.976 641.353 179.248 643.705 179.248C646.345 179.248 647.897 181.44 647.721 184.176ZM643.705 180.496C642.425 180.496 641.241 181.2 641.113 182.928H646.185C646.137 181.712 645.257 180.496 643.705 180.496ZM655.049 188L652.089 184.176H650.985V188H649.513V179.392H650.985V182.912H652.057L654.793 179.392H656.521L653.273 183.456L656.857 188H655.049ZM665.048 179.392V188H663.592V180.656H660.696L660.568 182.736C660.36 186.208 659.608 188 657.608 188H657.336V186.736H657.496C658.264 186.736 659 185.904 659.176 182.336L659.304 179.392H665.048ZM672.857 184.4V183.856C670.217 184.112 668.537 184.512 668.537 185.696C668.537 186.512 669.161 187.056 670.201 187.056C671.561 187.056 672.857 186.432 672.857 184.4ZM669.881 188.208C668.265 188.208 666.921 187.312 666.921 185.728C666.921 183.696 669.225 183.088 672.745 182.704V182.496C672.745 180.912 671.881 180.4 670.793 180.4C669.577 180.4 668.889 181.04 668.825 182.112H667.321C667.449 180.256 669.113 179.216 670.777 179.216C673.161 179.216 674.217 180.336 674.201 182.768L674.185 184.752C674.169 186.208 674.233 187.184 674.409 188H672.937C672.889 187.68 672.841 187.328 672.825 186.816C672.297 187.712 671.417 188.208 669.881 188.208ZM685.859 179.392V188H684.435V181.088L681.667 188H680.627L677.875 181.184V188H676.451V179.392H678.531L681.203 186.016L683.779 179.392H685.859ZM695.494 188H694.038V184.24H689.782V188H688.326V179.392H689.782V182.976H694.038V179.392H695.494V188ZM698.863 183.728C698.863 186.032 700.111 186.928 701.439 186.928C702.767 186.928 704.015 185.936 704.015 183.728C704.015 181.424 702.767 180.528 701.439 180.528C700.111 180.528 698.863 181.376 698.863 183.728ZM701.439 179.248C703.439 179.248 705.567 180.608 705.567 183.728C705.567 186.848 703.439 188.208 701.439 188.208C699.439 188.208 697.311 186.848 697.311 183.728C697.311 180.608 699.439 179.248 701.439 179.248ZM712.54 176.4H713.676C713.548 177.36 712.94 178.336 711.116 178.336C709.356 178.336 708.684 177.36 708.604 176.4H709.74C709.804 176.912 710.188 177.376 711.132 177.376C712.076 177.376 712.476 176.912 712.54 176.4ZM713.292 188V181.504L708.844 188H707.388V179.392H708.844V185.888L713.292 179.392H714.748V188H713.292ZM726.549 188L723.589 184.176H722.485V188H721.013V179.392H722.485V182.912H723.557L726.293 179.392H728.021L724.773 183.456L728.357 188H726.549ZM734.889 184.4V183.856C732.249 184.112 730.569 184.512 730.569 185.696C730.569 186.512 731.193 187.056 732.233 187.056C733.593 187.056 734.889 186.432 734.889 184.4ZM731.913 188.208C730.297 188.208 728.953 187.312 728.953 185.728C728.953 183.696 731.257 183.088 734.777 182.704V182.496C734.777 180.912 733.913 180.4 732.825 180.4C731.609 180.4 730.921 181.04 730.857 182.112H729.353C729.481 180.256 731.145 179.216 732.809 179.216C735.193 179.216 736.249 180.336 736.233 182.768L736.217 184.752C736.201 186.208 736.265 187.184 736.441 188H734.969C734.921 187.68 734.873 187.328 734.857 186.816C734.329 187.712 733.449 188.208 731.913 188.208ZM747.89 179.392V188H746.466V181.088L743.698 188H742.658L739.906 181.184V188H738.482V179.392H740.562L743.234 186.016L745.81 179.392H747.89ZM757.445 179.392V188H755.989V180.656H751.813V188H750.357V179.392H757.445ZM765.248 184.4V183.856C762.608 184.112 760.928 184.512 760.928 185.696C760.928 186.512 761.552 187.056 762.592 187.056C763.952 187.056 765.248 186.432 765.248 184.4ZM762.272 188.208C760.656 188.208 759.312 187.312 759.312 185.728C759.312 183.696 761.616 183.088 765.136 182.704V182.496C765.136 180.912 764.272 180.4 763.184 180.4C761.968 180.4 761.28 181.04 761.216 182.112H759.712C759.84 180.256 761.504 179.216 763.168 179.216C765.552 179.216 766.608 180.336 766.592 182.768L766.576 184.752C766.56 186.208 766.624 187.184 766.8 188H765.328C765.28 187.68 765.232 187.328 765.216 186.816C764.688 187.712 763.808 188.208 762.272 188.208ZM776.009 188H774.553V184.24H770.297V188H768.841V179.392H770.297V182.976H774.553V179.392H776.009V188ZM784.37 188V181.504L779.922 188H778.466V179.392H779.922V185.888L784.37 179.392H785.826V188H784.37ZM794.199 188V181.504L789.751 188H788.295V179.392H789.751V185.888L794.199 179.392H795.655V188H794.199ZM805.408 179.248C807.52 179.248 808.8 180.8 809.008 182.272H807.536C807.328 181.248 806.448 180.528 805.312 180.528C804.032 180.528 802.832 181.536 802.832 183.696C802.832 185.872 804.032 186.928 805.312 186.928C806.544 186.928 807.392 186.096 807.6 185.2H809.104C808.8 186.816 807.28 188.208 805.264 188.208C802.784 188.208 801.248 186.336 801.248 183.712C801.248 181.152 802.864 179.248 805.408 179.248ZM821.791 188H820.335V184.24H816.079V188H814.623V179.392H816.079V182.976H820.335V179.392H821.791V188ZM829.592 184.4V183.856C826.952 184.112 825.272 184.512 825.272 185.696C825.272 186.512 825.896 187.056 826.936 187.056C828.296 187.056 829.592 186.432 829.592 184.4ZM826.616 188.208C825 188.208 823.656 187.312 823.656 185.728C823.656 183.696 825.96 183.088 829.48 182.704V182.496C829.48 180.912 828.616 180.4 827.528 180.4C826.312 180.4 825.624 181.04 825.56 182.112H824.056C824.184 180.256 825.848 179.216 827.512 179.216C829.896 179.216 830.952 180.336 830.936 182.768L830.92 184.752C830.904 186.208 830.968 187.184 831.144 188H829.672C829.624 187.68 829.576 187.328 829.56 186.816C829.032 187.712 828.152 188.208 826.616 188.208ZM842.593 179.392V188H841.169V181.088L838.401 188H837.361L834.609 181.184V188H833.185V179.392H835.265L837.937 186.016L840.513 179.392H842.593ZM850.964 188V181.504L846.516 188H845.06V179.392H846.516V185.888L850.964 179.392H852.42V188H850.964ZM856.536 188H854.696V186.16H856.536V188Z" fill="white" style="fill:white;fill-opacity:1;"/>
<rect opacity="0.01" y="194" width="1" height="56" fill="white" style="fill:white;fill-opacity:1;"/>
<defs>
<clipPath id="clip0_195_6322">
<rect width="1224" height="20" fill="white" style="fill:white;fill-opacity:1;" transform="translate(108 24)"/>
</clipPath>
</defs>
</svg>
