<svg width="20" height="16" viewBox="0 0 20 16" fill="none" xmlns="http://www.w3.org/2000/svg">
<path fill-rule="evenodd" clip-rule="evenodd" d="M16 2C14.8954 2 14 2.89543 14 4C14 5.10457 14.8954 6 16 6C17.1046 6 18 5.10457 18 4C18 2.89543 17.1046 2 16 2ZM12.126 3C12.5701 1.27477 14.1362 0 16 0C18.2091 0 20 1.79086 20 4C20 6.20914 18.2091 8 16 8C14.1362 8 12.5701 6.72523 12.126 5L1 5H0L1.78814e-07 3L1 3L12.126 3ZM4 10C2.89543 10 2 10.8954 2 12C2 13.1046 2.89543 14 4 14C5.10457 14 6 13.1046 6 12C6 10.8954 5.10457 10 4 10ZM1.19209e-07 12C1.19209e-07 9.79086 1.79086 8 4 8C5.86384 8 7.42994 9.27477 7.87398 11L19 11H20V13H19L7.87398 13C7.42994 14.7252 5.86384 16 4 16C1.79086 16 1.19209e-07 14.2091 1.19209e-07 12Z" fill="#1D1D1D" style="fill:#1D1D1D;fill:color(display-p3 0.1137 0.1137 0.1137);fill-opacity:1;"/>
</svg>
