<svg width="20" height="17" viewBox="0 0 20 17" fill="none" xmlns="http://www.w3.org/2000/svg">
<path d="M0.726551 3.92114V3.20702C0.533843 3.20702 0.349036 3.28227 0.212781 3.41621C0.0765256 3.55015 -1.72526e-05 3.7318 2.91688e-09 3.92121L0.726551 3.92114ZM0.727686 16.2859L0.00113342 16.286C0.00116975 16.6803 0.326449 17 0.727686 17V16.2859ZM19.2735 16.2859V17C19.6747 17 20 16.6803 20 16.2859H19.2735ZM19.2735 3.92135H20C20 3.52697 19.6747 3.20725 19.2735 3.20723V3.92135ZM8.91178 0.71412V0C8.6326 0 8.37804 0.157231 8.25707 0.404504L8.91178 0.71412ZM14.1378 0.71412L14.7961 0.411913C14.6767 0.160615 14.4199 0 14.1378 0V0.71412ZM15.6618 3.92114L15.0034 4.22335L15.1991 4.63524L15.6617 4.63526L15.6618 3.92114ZM7.34184 3.92114V4.63526H7.79854L7.99655 4.23077L7.34184 3.92114ZM2.91688e-09 3.92121L0.00113342 16.286L1.45423 16.2858L1.4531 3.92108L2.91688e-09 3.92121ZM0.727686 17H19.2735V15.5718H0.727686V17ZM20 16.2859V3.92135H18.5469V16.2859H20ZM8.91178 1.42824H14.1378V0H8.91178V1.42824ZM19.2735 3.20723L15.6618 3.20702L15.6617 4.63526L19.2734 4.63547L19.2735 3.20723ZM0.726551 4.63526H4.03419V3.20702H0.726551V4.63526ZM4.03419 4.63526H7.34184V3.20702H4.03419V4.63526ZM3.99573 4.63426C4.04686 4.63693 4.19449 4.65967 4.35573 4.9032C4.5334 5.17155 4.73363 5.72505 4.73363 6.78883H6.18673C6.18673 5.57891 5.96395 4.71367 5.57363 4.12417C5.16687 3.50983 4.6015 3.23559 4.07266 3.20803L3.99573 4.63426ZM4.73363 6.78883V7.26869H6.18673V6.78883H4.73363ZM7.99655 4.23077L9.56649 1.02374L8.25707 0.404504L6.68713 3.61153L7.99655 4.23077ZM13.4795 1.01633L15.0034 4.22335L16.32 3.61895L14.7961 0.411913L13.4795 1.01633ZM14.2634 10.0166C14.2634 11.5813 12.9729 12.8496 11.381 12.8496V14.2779C13.7755 14.2779 15.7164 12.3701 15.7164 10.0166H14.2634ZM11.381 12.8496C9.78927 12.8496 8.49873 11.5813 8.49873 10.0166H7.04568C7.04568 12.3701 8.9867 14.2779 11.381 14.2779V12.8496ZM8.49873 10.0166C8.49873 8.45198 9.78927 7.18362 11.381 7.18362V5.7554C8.9867 5.7554 7.04568 7.66324 7.04568 10.0166H8.49873ZM11.381 7.18362C12.9729 7.18362 14.2634 8.45198 14.2634 10.0166H15.7164C15.7164 7.66324 13.7755 5.7554 11.381 5.7554V7.18362ZM9.90143 4.30947H11.3735V2.88123H9.90143V4.30947ZM11.3735 4.30947H12.8457V2.88123H11.3735V4.30947Z" fill="#1D1D1D" style="fill:#1D1D1D;fill:color(display-p3 0.1137 0.1137 0.1137);fill-opacity:1;"/>
</svg>
