<svg fill="none" height="14" viewBox="0 0 16 14" width="16" xmlns="http://www.w3.org/2000/svg"><path d="m.58124 3.22918v-.5881c-.154166 0-.302011.06197-.411015.17227-.1090045.1103-.1702388.2599-.170225.41589zm.000909 10.18272-.58124226.0001c.00002906.3248.26025226.588.58124226.588zm14.836651 0v.5881c.321 0 .5812-.2633.5812-.5881zm0-10.18255h.5812c0-.32479-.2602-.58809-.5812-.5881zm-8.28938-2.641251v-.588099c-.22334 0-.42699.129485-.52377.333121zm4.18078 0 .5267-.248876c-.0956-.206952-.301-.339223-.5267-.339223zm1.2192 2.641081-.5267.24887.1566.3392.37.00003zm-6.65593 0v.5881h.36536l.15841-.33312zm-5.87347.00006.00090674 10.18276 1.16248326-.0002-.00091-10.18267zm.582149 10.77076h14.836651v-1.1762h-14.836651zm15.417851-.5881v-10.18255h-1.1625v10.18255zm-8.87058-12.2357h4.18078v-1.1762h-4.18078zm8.28938 1.46505-2.8894-.00017-.0001 1.1762 2.8894.00016zm-14.83756 1.17603h2.64611v-1.1762h-2.64611zm2.64611 0h2.64612v-1.1762h-2.64612zm-.03077-.00083c.04091.0022.15901.02092.288.22148.14214.22099.30232.67681.30232 1.55288h1.16248c0-.99641-.17822-1.70896-.49048-2.19444-.3254-.50592-.7777-.73177-1.20077-.75446zm.59032 1.77436v.39517h1.16248v-.39517zm2.61034-2.10665 1.25595-2.641076-1.04754-.509963-1.25595 2.641079zm4.38636-2.647185 1.2191 2.641075 1.0533-.49774-1.2191-2.641087zm.6271 7.412005c0 1.28853-1.0324 2.33302-2.30586 2.33302v1.1762c1.91556 0 3.46836-1.5711 3.46836-3.50922zm-2.30586 2.33302c-1.27343 0-2.30585-1.04449-2.30585-2.33302h-1.16244c0 1.93812 1.55281 3.50922 3.46829 3.50922zm-2.30585-2.33302c0-1.28852 1.03242-2.33306 2.30585-2.33306v-1.17618c-1.91548 0-3.46829 1.57116-3.46829 3.50924zm2.30585-2.33306c1.27346 0 2.30586 1.04454 2.30586 2.33306h1.1625c0-1.93808-1.5528-3.50924-3.46836-3.50924zm-1.1837-2.36694h1.17766v-1.1762h-1.17766zm1.17766 0h1.1777v-1.1762h-1.1777z" fill="#fff"/></svg>