<svg width="20" height="20" viewBox="0 0 20 20" fill="none" xmlns="http://www.w3.org/2000/svg">
<path fill-rule="evenodd" clip-rule="evenodd" d="M9.07459 2.59277C5.49488 2.59277 2.59296 5.4947 2.59296 9.07441C2.59296 12.6541 5.49488 15.556 9.07459 15.556C10.8192 15.556 12.4027 14.8668 13.5679 13.7458C13.5934 13.713 13.6212 13.6814 13.6514 13.6512C13.6815 13.621 13.7131 13.5932 13.746 13.5677C14.867 12.4026 15.5562 10.819 15.5562 9.07441C15.5562 5.4947 12.6543 2.59277 9.07459 2.59277ZM15.7375 14.3231C16.8765 12.8792 17.5562 11.0562 17.5562 9.07441C17.5562 4.39013 13.7589 0.592773 9.07459 0.592773C4.39031 0.592773 0.592957 4.39013 0.592957 9.07441C0.592957 13.7587 4.39031 17.556 9.07459 17.556C11.0564 17.556 12.8794 16.8763 14.3233 15.7374L18.0026 19.4166L19.4168 18.0024L15.7375 14.3231Z" fill="#1D1D1D" style="fill:#1D1D1D;fill:color(display-p3 0.1137 0.1137 0.1137);fill-opacity:1;"/>
</svg>
