<svg width="13" height="16" viewBox="0 0 13 16" fill="none" xmlns="http://www.w3.org/2000/svg">
<path fill-rule="evenodd" clip-rule="evenodd" d="M5 12C4.83687 9.86207 3.13793 8.16312 1 8C3.13793 7.83687 4.83687 6.13793 5 4C5.16312 6.13793 6.86207 7.83687 9 8C6.86207 8.16312 5.16312 9.86207 5 12V12Z" stroke="white" style="stroke:white;stroke-opacity:1;" stroke-width="1.5" stroke-linecap="round" stroke-linejoin="round"/>
<path d="M10 15C9.91282 14.3646 9.52394 13.1535 8 13C9.52394 12.8465 9.91281 11.6354 10 11C10.1535 12.5239 11.3646 12.9128 12 13C11.3646 13.0872 10.1535 13.4761 10 15Z" fill="#1D1D1D" style="fill:#1D1D1D;fill:color(display-p3 0.1137 0.1137 0.1137);fill-opacity:1;"/>
<path fill-rule="evenodd" clip-rule="evenodd" d="M10 15C9.91823 13.9311 9.06887 13.0818 8 13C9.06887 12.9182 9.91823 12.0689 10 11C10.0818 12.0689 10.9311 12.9182 12 13C10.9311 13.0818 10.0818 13.9311 10 15Z" stroke="white" style="stroke:white;stroke-opacity:1;" stroke-width="1.5" stroke-linecap="round" stroke-linejoin="round"/>
<path d="M10 1C10.1535 2.52394 11.3646 2.91282 12 3C11.3646 3.08719 10.1535 3.47606 10 5C9.91282 4.3646 9.52394 3.15348 8 3C9.52394 2.84652 9.91282 1.6354 10 1Z" fill="#1D1D1D" style="fill:#1D1D1D;fill:color(display-p3 0.1137 0.1137 0.1137);fill-opacity:1;"/>
<path fill-rule="evenodd" clip-rule="evenodd" d="M10 1C9.91823 2.06887 9.06887 2.91823 8 3C9.06887 3.08177 9.91823 3.93113 10 5C10.0818 3.93113 10.9311 3.08177 12 3C10.9311 2.91823 10.0818 2.06887 10 1Z" stroke="white" style="stroke:white;stroke-opacity:1;" stroke-width="1.5" stroke-linecap="round" stroke-linejoin="round"/>
</svg>
